%TF.GenerationSoftware,KiCad,Pcbnew,(6.0.2)*%
%TF.CreationDate,2023-01-31T14:35:55+03:00*%
%TF.ProjectId,Shield_Emergent,53686965-6c64-45f4-956d-657267656e74,rev?*%
%TF.SameCoordinates,Original*%
%TF.FileFunction,Copper,L1,Top*%
%TF.FilePolarity,Positive*%
%FSLAX46Y46*%
G04 Gerber Fmt 4.6, Leading zero omitted, Abs format (unit mm)*
G04 Created by KiCad (PCBNEW (6.0.2)) date 2023-01-31 14:35:55*
%MOMM*%
%LPD*%
G01*
G04 APERTURE LIST*
%TA.AperFunction,ComponentPad*%
%ADD10O,4.000000X1.600000*%
%TD*%
%TA.AperFunction,ComponentPad*%
%ADD11R,1.600000X1.600000*%
%TD*%
%TA.AperFunction,ComponentPad*%
%ADD12C,1.600000*%
%TD*%
%TA.AperFunction,ComponentPad*%
%ADD13R,1.700000X1.700000*%
%TD*%
%TA.AperFunction,ComponentPad*%
%ADD14O,1.700000X1.700000*%
%TD*%
%TA.AperFunction,ViaPad*%
%ADD15C,0.800000*%
%TD*%
%TA.AperFunction,Conductor*%
%ADD16C,0.200000*%
%TD*%
G04 APERTURE END LIST*
D10*
%TO.P,U1,1,GP0/TX*%
%TO.N,unconnected-(U1-Pad1)*%
X28760000Y-28620000D03*
%TO.P,U1,2,GP1/RX*%
%TO.N,unconnected-(U1-Pad2)*%
X28760000Y-31160000D03*
%TO.P,U1,3,GND*%
%TO.N,GND*%
X28760000Y-33700000D03*
%TO.P,U1,4,GP2*%
%TO.N,unconnected-(U1-Pad4)*%
X28760000Y-36240000D03*
%TO.P,U1,5,GP3*%
%TO.N,unconnected-(U1-Pad5)*%
X28760000Y-38780000D03*
%TO.P,U1,6,GP4/SDA*%
%TO.N,unconnected-(U1-Pad6)*%
X28760000Y-41320000D03*
%TO.P,U1,7,GP5/SCL*%
%TO.N,unconnected-(U1-Pad7)*%
X28760000Y-43860000D03*
%TO.P,U1,8,GND*%
%TO.N,GND*%
X28760000Y-46400000D03*
%TO.P,U1,9,GP6*%
%TO.N,EN2*%
X28760000Y-48940000D03*
%TO.P,U1,10,GP7*%
%TO.N,FLT2*%
X28760000Y-51480000D03*
%TO.P,U1,11,GP8*%
%TO.N,unconnected-(U1-Pad11)*%
X28760000Y-54020000D03*
%TO.P,U1,12,GP9*%
%TO.N,unconnected-(U1-Pad12)*%
X28760000Y-56560000D03*
%TO.P,U1,13,GND*%
%TO.N,GND*%
X28760000Y-59100000D03*
%TO.P,U1,14,GP10*%
%TO.N,unconnected-(U1-Pad14)*%
X28760000Y-61640000D03*
%TO.P,U1,15,GP11*%
%TO.N,unconnected-(U1-Pad15)*%
X28760000Y-64180000D03*
%TO.P,U1,16,GP12*%
%TO.N,unconnected-(U1-Pad16)*%
X28760000Y-66720000D03*
%TO.P,U1,17,GP13*%
%TO.N,unconnected-(U1-Pad17)*%
X28760000Y-69260000D03*
%TO.P,U1,18,GND*%
%TO.N,GND*%
X28760000Y-71800000D03*
%TO.P,U1,19,GP14*%
%TO.N,unconnected-(U1-Pad19)*%
X28760000Y-74340000D03*
%TO.P,U1,20,GP15*%
%TO.N,unconnected-(U1-Pad20)*%
X28760000Y-76880000D03*
%TO.P,U1,21,GP16/MISO*%
%TO.N,unconnected-(U1-Pad21)*%
X46540000Y-76880000D03*
%TO.P,U1,22,GP17/CS*%
%TO.N,unconnected-(U1-Pad22)*%
X46540000Y-74340000D03*
%TO.P,U1,23,GND*%
%TO.N,GND*%
X46540000Y-71800000D03*
%TO.P,U1,24,GP18/SCK*%
%TO.N,unconnected-(U1-Pad24)*%
X46540000Y-69260000D03*
%TO.P,U1,25,GP19/MOSI*%
%TO.N,unconnected-(U1-Pad25)*%
X46540000Y-66720000D03*
%TO.P,U1,26,GP20*%
%TO.N,unconnected-(U1-Pad26)*%
X46540000Y-64180000D03*
%TO.P,U1,27,GP21*%
%TO.N,unconnected-(U1-Pad27)*%
X46540000Y-61640000D03*
%TO.P,U1,28,GND*%
%TO.N,GND*%
X46540000Y-59100000D03*
%TO.P,U1,29,GP22*%
%TO.N,unconnected-(U1-Pad29)*%
X46540000Y-56560000D03*
%TO.P,U1,30,RUN*%
%TO.N,unconnected-(U1-Pad30)*%
X46540000Y-54020000D03*
%TO.P,U1,31,GP26/ADC0*%
%TO.N,FLT1*%
X46540000Y-51480000D03*
%TO.P,U1,32,GP27/ADC1*%
%TO.N,EN1*%
X46540000Y-48940000D03*
%TO.P,U1,33,AGND*%
%TO.N,GND*%
X46540000Y-46400000D03*
%TO.P,U1,34,GP28/ADC2*%
%TO.N,unconnected-(U1-Pad34)*%
X46540000Y-43860000D03*
%TO.P,U1,35,ADC_VREF*%
%TO.N,unconnected-(U1-Pad35)*%
X46540000Y-41320000D03*
%TO.P,U1,36,3V3_OUT*%
%TO.N,unconnected-(U1-Pad36)*%
X46540000Y-38780000D03*
%TO.P,U1,37,3V3_EN*%
%TO.N,unconnected-(U1-Pad37)*%
X46540000Y-36240000D03*
%TO.P,U1,38,GND*%
%TO.N,GND*%
X46540000Y-33700000D03*
%TO.P,U1,39,VSYS*%
%TO.N,VBUS*%
X46540000Y-31160000D03*
%TO.P,U1,40,VBUS*%
%TO.N,unconnected-(U1-Pad40)*%
X46540000Y-28620000D03*
%TD*%
D11*
%TO.P,C6,1*%
%TO.N,Net-(C5-Pad1)*%
X34200000Y-61617621D03*
D12*
%TO.P,C6,2*%
%TO.N,GND*%
X34200000Y-64117621D03*
%TD*%
D13*
%TO.P,J4,1,Pin_1*%
%TO.N,VBUS*%
X35900000Y-37400000D03*
D14*
%TO.P,J4,2,Pin_2*%
%TO.N,EN2*%
X35900000Y-34860000D03*
%TO.P,J4,3,Pin_3*%
%TO.N,GND*%
X35900000Y-32320000D03*
%TO.P,J4,4,Pin_4*%
%TO.N,FLT2*%
X35900000Y-29780000D03*
%TD*%
D13*
%TO.P,J2,1,Pin_1*%
%TO.N,VBUS*%
X39600000Y-37400000D03*
D14*
%TO.P,J2,2,Pin_2*%
%TO.N,EN1*%
X39600000Y-34860000D03*
%TO.P,J2,3,Pin_3*%
%TO.N,GND*%
X39600000Y-32320000D03*
%TO.P,J2,4,Pin_4*%
%TO.N,FLT1*%
X39600000Y-29780000D03*
%TD*%
D13*
%TO.P,J3,1,Pin_1*%
%TO.N,Net-(C5-Pad1)*%
X32925000Y-55387500D03*
D14*
%TO.P,J3,2,Pin_2*%
%TO.N,GND*%
X35465000Y-55387500D03*
%TD*%
D11*
%TO.P,C3,1*%
%TO.N,Net-(C2-Pad1)*%
X41100000Y-61617621D03*
D12*
%TO.P,C3,2*%
%TO.N,GND*%
X41100000Y-64117621D03*
%TD*%
D13*
%TO.P,J1,1,Pin_1*%
%TO.N,Net-(C2-Pad1)*%
X39700000Y-56000000D03*
D14*
%TO.P,J1,2,Pin_2*%
%TO.N,GND*%
X42240000Y-56000000D03*
%TD*%
D15*
%TO.N,GND*%
X34300000Y-40900000D03*
X40150000Y-81750000D03*
X37500000Y-49100000D03*
X43950000Y-57850000D03*
X51000000Y-35000000D03*
X51200000Y-75100000D03*
X23800000Y-54200000D03*
X35100000Y-25000000D03*
X32750000Y-24950000D03*
X33200000Y-68300000D03*
X35500000Y-45000000D03*
X23800000Y-61000000D03*
X42700000Y-59100000D03*
X42800000Y-43100000D03*
X43250000Y-62850000D03*
X37600000Y-55850000D03*
X32000000Y-62850000D03*
X51100000Y-70400000D03*
X33500000Y-75500000D03*
X24000000Y-68000000D03*
X42700000Y-45400000D03*
X33000000Y-29400000D03*
X37600000Y-54300000D03*
X35300000Y-81700000D03*
X43200000Y-47200000D03*
X39900000Y-25000000D03*
X32300000Y-34900000D03*
X37650000Y-75500000D03*
X37450000Y-60450000D03*
X37700000Y-72300000D03*
X42700000Y-40400000D03*
X24000000Y-42100000D03*
X43350000Y-54400000D03*
X51100000Y-64400000D03*
X37800000Y-62850000D03*
X24100000Y-75100000D03*
X37000000Y-58400000D03*
X50800000Y-49500000D03*
X51000000Y-30900000D03*
X37900000Y-51100000D03*
X24600000Y-32500000D03*
X41450000Y-75500000D03*
X37650000Y-79200000D03*
X50900000Y-44400000D03*
X23800000Y-48500000D03*
X35150000Y-57950000D03*
X51000000Y-39400000D03*
X35700000Y-47300000D03*
X41550000Y-58150000D03*
X51100000Y-58700000D03*
X41500000Y-68300000D03*
X23300000Y-37000000D03*
X42200000Y-24700000D03*
X37700000Y-66150000D03*
X50900000Y-53900000D03*
%TO.N,EN1*%
X41929894Y-48370106D03*
%TO.N,FLT1*%
X44000000Y-48240500D03*
%TO.N,FLT2*%
X31100000Y-47700000D03*
%TD*%
D16*
%TO.N,EN1*%
X41929894Y-48370106D02*
X41070106Y-48370106D01*
X41070106Y-48370106D02*
X40749511Y-48049511D01*
X39600000Y-34860000D02*
X40749511Y-36009511D01*
X41640000Y-48940000D02*
X46540000Y-48940000D01*
X40749511Y-36009511D02*
X40749511Y-48049511D01*
X40749511Y-48049511D02*
X41640000Y-48940000D01*
%TO.N,FLT1*%
X41149031Y-46600000D02*
X41149031Y-31329031D01*
X41149031Y-31329031D02*
X39600000Y-29780000D01*
X42789531Y-48240500D02*
X41149031Y-46600000D01*
X44000000Y-48240500D02*
X42789531Y-48240500D01*
%TO.N,FLT2*%
X31100000Y-47700000D02*
X31100000Y-49740000D01*
X31100000Y-49740000D02*
X29360000Y-51480000D01*
X29360000Y-51480000D02*
X28760000Y-51480000D01*
%TD*%
%TA.AperFunction,Conductor*%
%TO.N,GND*%
G36*
X54241919Y-21520002D02*
G01*
X54288412Y-21573658D01*
X54299798Y-21626201D01*
X54200545Y-83560307D01*
X54200202Y-83774202D01*
X54180091Y-83842291D01*
X54126361Y-83888697D01*
X54074202Y-83900000D01*
X21926000Y-83900000D01*
X21857879Y-83879998D01*
X21811386Y-83826342D01*
X21800000Y-83774000D01*
X21800000Y-81960000D01*
X27164551Y-81960000D01*
X27184317Y-82211148D01*
X27243127Y-82456111D01*
X27339534Y-82688859D01*
X27471164Y-82903659D01*
X27474376Y-82907419D01*
X27474379Y-82907424D01*
X27619256Y-83077052D01*
X27634776Y-83095224D01*
X27638538Y-83098437D01*
X27822576Y-83255621D01*
X27822581Y-83255624D01*
X27826341Y-83258836D01*
X28041141Y-83390466D01*
X28045711Y-83392359D01*
X28045715Y-83392361D01*
X28269316Y-83484979D01*
X28273889Y-83486873D01*
X28358289Y-83507135D01*
X28514039Y-83544528D01*
X28514045Y-83544529D01*
X28518852Y-83545683D01*
X28607149Y-83552632D01*
X28704661Y-83560307D01*
X28704670Y-83560307D01*
X28707118Y-83560500D01*
X28832882Y-83560500D01*
X28835330Y-83560307D01*
X28835339Y-83560307D01*
X28932851Y-83552632D01*
X29021148Y-83545683D01*
X29025955Y-83544529D01*
X29025961Y-83544528D01*
X29181711Y-83507135D01*
X29266111Y-83486873D01*
X29270684Y-83484979D01*
X29494285Y-83392361D01*
X29494289Y-83392359D01*
X29498859Y-83390466D01*
X29713659Y-83258836D01*
X29717419Y-83255624D01*
X29717424Y-83255621D01*
X29901462Y-83098437D01*
X29905224Y-83095224D01*
X29920744Y-83077052D01*
X30065621Y-82907424D01*
X30065624Y-82907419D01*
X30068836Y-82903659D01*
X30200466Y-82688859D01*
X30296873Y-82456111D01*
X30355683Y-82211148D01*
X30375449Y-81960000D01*
X44924551Y-81960000D01*
X44944317Y-82211148D01*
X45003127Y-82456111D01*
X45099534Y-82688859D01*
X45231164Y-82903659D01*
X45234376Y-82907419D01*
X45234379Y-82907424D01*
X45379256Y-83077052D01*
X45394776Y-83095224D01*
X45398538Y-83098437D01*
X45582576Y-83255621D01*
X45582581Y-83255624D01*
X45586341Y-83258836D01*
X45801141Y-83390466D01*
X45805711Y-83392359D01*
X45805715Y-83392361D01*
X46029316Y-83484979D01*
X46033889Y-83486873D01*
X46118289Y-83507135D01*
X46274039Y-83544528D01*
X46274045Y-83544529D01*
X46278852Y-83545683D01*
X46367149Y-83552632D01*
X46464661Y-83560307D01*
X46464670Y-83560307D01*
X46467118Y-83560500D01*
X46592882Y-83560500D01*
X46595330Y-83560307D01*
X46595339Y-83560307D01*
X46692851Y-83552632D01*
X46781148Y-83545683D01*
X46785955Y-83544529D01*
X46785961Y-83544528D01*
X46941711Y-83507135D01*
X47026111Y-83486873D01*
X47030684Y-83484979D01*
X47254285Y-83392361D01*
X47254289Y-83392359D01*
X47258859Y-83390466D01*
X47473659Y-83258836D01*
X47477419Y-83255624D01*
X47477424Y-83255621D01*
X47661462Y-83098437D01*
X47665224Y-83095224D01*
X47680744Y-83077052D01*
X47825621Y-82907424D01*
X47825624Y-82907419D01*
X47828836Y-82903659D01*
X47960466Y-82688859D01*
X48056873Y-82456111D01*
X48115683Y-82211148D01*
X48135449Y-81960000D01*
X48115683Y-81708852D01*
X48056873Y-81463889D01*
X47960466Y-81231141D01*
X47828836Y-81016341D01*
X47825624Y-81012581D01*
X47825621Y-81012576D01*
X47668437Y-80828538D01*
X47665224Y-80824776D01*
X47647052Y-80809256D01*
X47477424Y-80664379D01*
X47477419Y-80664376D01*
X47473659Y-80661164D01*
X47258859Y-80529534D01*
X47254289Y-80527641D01*
X47254285Y-80527639D01*
X47030684Y-80435021D01*
X47030682Y-80435020D01*
X47026111Y-80433127D01*
X46941711Y-80412865D01*
X46785961Y-80375472D01*
X46785955Y-80375471D01*
X46781148Y-80374317D01*
X46692851Y-80367368D01*
X46595339Y-80359693D01*
X46595330Y-80359693D01*
X46592882Y-80359500D01*
X46467118Y-80359500D01*
X46464670Y-80359693D01*
X46464661Y-80359693D01*
X46367149Y-80367368D01*
X46278852Y-80374317D01*
X46274045Y-80375471D01*
X46274039Y-80375472D01*
X46118289Y-80412865D01*
X46033889Y-80433127D01*
X46029318Y-80435020D01*
X46029316Y-80435021D01*
X45805715Y-80527639D01*
X45805711Y-80527641D01*
X45801141Y-80529534D01*
X45586341Y-80661164D01*
X45582581Y-80664376D01*
X45582576Y-80664379D01*
X45412948Y-80809256D01*
X45394776Y-80824776D01*
X45391563Y-80828538D01*
X45234379Y-81012576D01*
X45234376Y-81012581D01*
X45231164Y-81016341D01*
X45099534Y-81231141D01*
X45003127Y-81463889D01*
X44944317Y-81708852D01*
X44924551Y-81960000D01*
X30375449Y-81960000D01*
X30355683Y-81708852D01*
X30296873Y-81463889D01*
X30200466Y-81231141D01*
X30068836Y-81016341D01*
X30065624Y-81012581D01*
X30065621Y-81012576D01*
X29908437Y-80828538D01*
X29905224Y-80824776D01*
X29887052Y-80809256D01*
X29717424Y-80664379D01*
X29717419Y-80664376D01*
X29713659Y-80661164D01*
X29498859Y-80529534D01*
X29494289Y-80527641D01*
X29494285Y-80527639D01*
X29270684Y-80435021D01*
X29270682Y-80435020D01*
X29266111Y-80433127D01*
X29181711Y-80412865D01*
X29025961Y-80375472D01*
X29025955Y-80375471D01*
X29021148Y-80374317D01*
X28932851Y-80367368D01*
X28835339Y-80359693D01*
X28835330Y-80359693D01*
X28832882Y-80359500D01*
X28707118Y-80359500D01*
X28704670Y-80359693D01*
X28704661Y-80359693D01*
X28607149Y-80367368D01*
X28518852Y-80374317D01*
X28514045Y-80375471D01*
X28514039Y-80375472D01*
X28358289Y-80412865D01*
X28273889Y-80433127D01*
X28269318Y-80435020D01*
X28269316Y-80435021D01*
X28045715Y-80527639D01*
X28045711Y-80527641D01*
X28041141Y-80529534D01*
X27826341Y-80661164D01*
X27822581Y-80664376D01*
X27822576Y-80664379D01*
X27652948Y-80809256D01*
X27634776Y-80824776D01*
X27631563Y-80828538D01*
X27474379Y-81012576D01*
X27474376Y-81012581D01*
X27471164Y-81016341D01*
X27339534Y-81231141D01*
X27243127Y-81463889D01*
X27184317Y-81708852D01*
X27164551Y-81960000D01*
X21800000Y-81960000D01*
X21800000Y-76929126D01*
X26555541Y-76929126D01*
X26585935Y-77130097D01*
X26656119Y-77320852D01*
X26659479Y-77326272D01*
X26659480Y-77326273D01*
X26759863Y-77488176D01*
X26759866Y-77488180D01*
X26763226Y-77493599D01*
X26902881Y-77641280D01*
X27069379Y-77757863D01*
X27255919Y-77838586D01*
X27301947Y-77848202D01*
X27450144Y-77879162D01*
X27450149Y-77879163D01*
X27454880Y-77880151D01*
X27459762Y-77880407D01*
X27459871Y-77880413D01*
X27459887Y-77880413D01*
X27461539Y-77880500D01*
X30010800Y-77880500D01*
X30058793Y-77875625D01*
X30155868Y-77865765D01*
X30155870Y-77865765D01*
X30162216Y-77865120D01*
X30356172Y-77804338D01*
X30533944Y-77705797D01*
X30688271Y-77573523D01*
X30812848Y-77412919D01*
X30902587Y-77230545D01*
X30928752Y-77130097D01*
X30952212Y-77040034D01*
X30952212Y-77040031D01*
X30953822Y-77033852D01*
X30959310Y-76929126D01*
X44335541Y-76929126D01*
X44365935Y-77130097D01*
X44436119Y-77320852D01*
X44439479Y-77326272D01*
X44439480Y-77326273D01*
X44539863Y-77488176D01*
X44539866Y-77488180D01*
X44543226Y-77493599D01*
X44682881Y-77641280D01*
X44849379Y-77757863D01*
X45035919Y-77838586D01*
X45081947Y-77848202D01*
X45230144Y-77879162D01*
X45230149Y-77879163D01*
X45234880Y-77880151D01*
X45239762Y-77880407D01*
X45239871Y-77880413D01*
X45239887Y-77880413D01*
X45241539Y-77880500D01*
X47790800Y-77880500D01*
X47838793Y-77875625D01*
X47935868Y-77865765D01*
X47935870Y-77865765D01*
X47942216Y-77865120D01*
X48136172Y-77804338D01*
X48313944Y-77705797D01*
X48468271Y-77573523D01*
X48592848Y-77412919D01*
X48682587Y-77230545D01*
X48708752Y-77130097D01*
X48732212Y-77040034D01*
X48732212Y-77040031D01*
X48733822Y-77033852D01*
X48744459Y-76830874D01*
X48714065Y-76629903D01*
X48643881Y-76439148D01*
X48590345Y-76352802D01*
X48540137Y-76271824D01*
X48540134Y-76271820D01*
X48536774Y-76266401D01*
X48397119Y-76118720D01*
X48230621Y-76002137D01*
X48044081Y-75921414D01*
X47998053Y-75911798D01*
X47849856Y-75880838D01*
X47849851Y-75880837D01*
X47845120Y-75879849D01*
X47840238Y-75879593D01*
X47840129Y-75879587D01*
X47840113Y-75879587D01*
X47838461Y-75879500D01*
X45289200Y-75879500D01*
X45241207Y-75884375D01*
X45144132Y-75894235D01*
X45144130Y-75894235D01*
X45137784Y-75894880D01*
X44943828Y-75955662D01*
X44766056Y-76054203D01*
X44611729Y-76186477D01*
X44487152Y-76347081D01*
X44397413Y-76529455D01*
X44395804Y-76535633D01*
X44395803Y-76535635D01*
X44369603Y-76636220D01*
X44346178Y-76726148D01*
X44335541Y-76929126D01*
X30959310Y-76929126D01*
X30964459Y-76830874D01*
X30934065Y-76629903D01*
X30863881Y-76439148D01*
X30810345Y-76352802D01*
X30760137Y-76271824D01*
X30760134Y-76271820D01*
X30756774Y-76266401D01*
X30617119Y-76118720D01*
X30450621Y-76002137D01*
X30264081Y-75921414D01*
X30218053Y-75911798D01*
X30069856Y-75880838D01*
X30069851Y-75880837D01*
X30065120Y-75879849D01*
X30060238Y-75879593D01*
X30060129Y-75879587D01*
X30060113Y-75879587D01*
X30058461Y-75879500D01*
X27509200Y-75879500D01*
X27461207Y-75884375D01*
X27364132Y-75894235D01*
X27364130Y-75894235D01*
X27357784Y-75894880D01*
X27163828Y-75955662D01*
X26986056Y-76054203D01*
X26831729Y-76186477D01*
X26707152Y-76347081D01*
X26617413Y-76529455D01*
X26615804Y-76535633D01*
X26615803Y-76535635D01*
X26589603Y-76636220D01*
X26566178Y-76726148D01*
X26555541Y-76929126D01*
X21800000Y-76929126D01*
X21800000Y-72066522D01*
X26277273Y-72066522D01*
X26324764Y-72243761D01*
X26328510Y-72254053D01*
X26420586Y-72451511D01*
X26426069Y-72461007D01*
X26551028Y-72639467D01*
X26558084Y-72647875D01*
X26712125Y-72801916D01*
X26720533Y-72808972D01*
X26898993Y-72933931D01*
X26908489Y-72939414D01*
X27105947Y-73031490D01*
X27116239Y-73035236D01*
X27326688Y-73091625D01*
X27337480Y-73093528D01*
X27402857Y-73099248D01*
X27468975Y-73125112D01*
X27510614Y-73182615D01*
X27514555Y-73253502D01*
X27479546Y-73315267D01*
X27416701Y-73348299D01*
X27404610Y-73350124D01*
X27389442Y-73351664D01*
X27364132Y-73354235D01*
X27364130Y-73354235D01*
X27357784Y-73354880D01*
X27163828Y-73415662D01*
X26986056Y-73514203D01*
X26831729Y-73646477D01*
X26707152Y-73807081D01*
X26617413Y-73989455D01*
X26615804Y-73995633D01*
X26615803Y-73995635D01*
X26589603Y-74096220D01*
X26566178Y-74186148D01*
X26555541Y-74389126D01*
X26585935Y-74590097D01*
X26656119Y-74780852D01*
X26659479Y-74786272D01*
X26659480Y-74786273D01*
X26759863Y-74948176D01*
X26759866Y-74948180D01*
X26763226Y-74953599D01*
X26902881Y-75101280D01*
X27069379Y-75217863D01*
X27255919Y-75298586D01*
X27301947Y-75308202D01*
X27450144Y-75339162D01*
X27450149Y-75339163D01*
X27454880Y-75340151D01*
X27459762Y-75340407D01*
X27459871Y-75340413D01*
X27459887Y-75340413D01*
X27461539Y-75340500D01*
X30010800Y-75340500D01*
X30058793Y-75335625D01*
X30155868Y-75325765D01*
X30155870Y-75325765D01*
X30162216Y-75325120D01*
X30356172Y-75264338D01*
X30533944Y-75165797D01*
X30688271Y-75033523D01*
X30812848Y-74872919D01*
X30902587Y-74690545D01*
X30928752Y-74590097D01*
X30952212Y-74500034D01*
X30952212Y-74500031D01*
X30953822Y-74493852D01*
X30964459Y-74290874D01*
X30934065Y-74089903D01*
X30863881Y-73899148D01*
X30810345Y-73812802D01*
X30760137Y-73731824D01*
X30760134Y-73731820D01*
X30756774Y-73726401D01*
X30617119Y-73578720D01*
X30450621Y-73462137D01*
X30264081Y-73381414D01*
X30103969Y-73347965D01*
X30041378Y-73314456D01*
X30006840Y-73252426D01*
X30011320Y-73181571D01*
X30053396Y-73124386D01*
X30118754Y-73099107D01*
X30182520Y-73093528D01*
X30193312Y-73091625D01*
X30403761Y-73035236D01*
X30414053Y-73031490D01*
X30611511Y-72939414D01*
X30621007Y-72933931D01*
X30799467Y-72808972D01*
X30807875Y-72801916D01*
X30961916Y-72647875D01*
X30968972Y-72639467D01*
X31093931Y-72461007D01*
X31099414Y-72451511D01*
X31191490Y-72254053D01*
X31195236Y-72243761D01*
X31241394Y-72071497D01*
X31241275Y-72066522D01*
X44057273Y-72066522D01*
X44104764Y-72243761D01*
X44108510Y-72254053D01*
X44200586Y-72451511D01*
X44206069Y-72461007D01*
X44331028Y-72639467D01*
X44338084Y-72647875D01*
X44492125Y-72801916D01*
X44500533Y-72808972D01*
X44678993Y-72933931D01*
X44688489Y-72939414D01*
X44885947Y-73031490D01*
X44896239Y-73035236D01*
X45106688Y-73091625D01*
X45117480Y-73093528D01*
X45182857Y-73099248D01*
X45248975Y-73125112D01*
X45290614Y-73182615D01*
X45294555Y-73253502D01*
X45259546Y-73315267D01*
X45196701Y-73348299D01*
X45184610Y-73350124D01*
X45169442Y-73351664D01*
X45144132Y-73354235D01*
X45144130Y-73354235D01*
X45137784Y-73354880D01*
X44943828Y-73415662D01*
X44766056Y-73514203D01*
X44611729Y-73646477D01*
X44487152Y-73807081D01*
X44397413Y-73989455D01*
X44395804Y-73995633D01*
X44395803Y-73995635D01*
X44369603Y-74096220D01*
X44346178Y-74186148D01*
X44335541Y-74389126D01*
X44365935Y-74590097D01*
X44436119Y-74780852D01*
X44439479Y-74786272D01*
X44439480Y-74786273D01*
X44539863Y-74948176D01*
X44539866Y-74948180D01*
X44543226Y-74953599D01*
X44682881Y-75101280D01*
X44849379Y-75217863D01*
X45035919Y-75298586D01*
X45081947Y-75308202D01*
X45230144Y-75339162D01*
X45230149Y-75339163D01*
X45234880Y-75340151D01*
X45239762Y-75340407D01*
X45239871Y-75340413D01*
X45239887Y-75340413D01*
X45241539Y-75340500D01*
X47790800Y-75340500D01*
X47838793Y-75335625D01*
X47935868Y-75325765D01*
X47935870Y-75325765D01*
X47942216Y-75325120D01*
X48136172Y-75264338D01*
X48313944Y-75165797D01*
X48468271Y-75033523D01*
X48592848Y-74872919D01*
X48682587Y-74690545D01*
X48708752Y-74590097D01*
X48732212Y-74500034D01*
X48732212Y-74500031D01*
X48733822Y-74493852D01*
X48744459Y-74290874D01*
X48714065Y-74089903D01*
X48643881Y-73899148D01*
X48590345Y-73812802D01*
X48540137Y-73731824D01*
X48540134Y-73731820D01*
X48536774Y-73726401D01*
X48397119Y-73578720D01*
X48230621Y-73462137D01*
X48044081Y-73381414D01*
X47883969Y-73347965D01*
X47821378Y-73314456D01*
X47786840Y-73252426D01*
X47791320Y-73181571D01*
X47833396Y-73124386D01*
X47898754Y-73099107D01*
X47962520Y-73093528D01*
X47973312Y-73091625D01*
X48183761Y-73035236D01*
X48194053Y-73031490D01*
X48391511Y-72939414D01*
X48401007Y-72933931D01*
X48579467Y-72808972D01*
X48587875Y-72801916D01*
X48741916Y-72647875D01*
X48748972Y-72639467D01*
X48873931Y-72461007D01*
X48879414Y-72451511D01*
X48971490Y-72254053D01*
X48975236Y-72243761D01*
X49021394Y-72071497D01*
X49021058Y-72057401D01*
X49013116Y-72054000D01*
X44072033Y-72054000D01*
X44058502Y-72057973D01*
X44057273Y-72066522D01*
X31241275Y-72066522D01*
X31241058Y-72057401D01*
X31233116Y-72054000D01*
X26292033Y-72054000D01*
X26278502Y-72057973D01*
X26277273Y-72066522D01*
X21800000Y-72066522D01*
X21800000Y-71528503D01*
X26278606Y-71528503D01*
X26278942Y-71542599D01*
X26286884Y-71546000D01*
X31227967Y-71546000D01*
X31241498Y-71542027D01*
X31242727Y-71533478D01*
X31241394Y-71528503D01*
X44058606Y-71528503D01*
X44058942Y-71542599D01*
X44066884Y-71546000D01*
X49007967Y-71546000D01*
X49021498Y-71542027D01*
X49022727Y-71533478D01*
X48975236Y-71356239D01*
X48971490Y-71345947D01*
X48879414Y-71148489D01*
X48873931Y-71138993D01*
X48748972Y-70960533D01*
X48741916Y-70952125D01*
X48587875Y-70798084D01*
X48579467Y-70791028D01*
X48401007Y-70666069D01*
X48391511Y-70660586D01*
X48194053Y-70568510D01*
X48183761Y-70564764D01*
X47973312Y-70508375D01*
X47962520Y-70506472D01*
X47897143Y-70500752D01*
X47831025Y-70474888D01*
X47789386Y-70417385D01*
X47785445Y-70346498D01*
X47820454Y-70284733D01*
X47883299Y-70251701D01*
X47895390Y-70249876D01*
X47910558Y-70248336D01*
X47935868Y-70245765D01*
X47935870Y-70245765D01*
X47942216Y-70245120D01*
X48136172Y-70184338D01*
X48313944Y-70085797D01*
X48468271Y-69953523D01*
X48592848Y-69792919D01*
X48682587Y-69610545D01*
X48708752Y-69510097D01*
X48732212Y-69420034D01*
X48732212Y-69420031D01*
X48733822Y-69413852D01*
X48744459Y-69210874D01*
X48714065Y-69009903D01*
X48643881Y-68819148D01*
X48590345Y-68732802D01*
X48540137Y-68651824D01*
X48540134Y-68651820D01*
X48536774Y-68646401D01*
X48397119Y-68498720D01*
X48230621Y-68382137D01*
X48044081Y-68301414D01*
X47998053Y-68291798D01*
X47849856Y-68260838D01*
X47849851Y-68260837D01*
X47845120Y-68259849D01*
X47840238Y-68259593D01*
X47840129Y-68259587D01*
X47840113Y-68259587D01*
X47838461Y-68259500D01*
X45289200Y-68259500D01*
X45241207Y-68264375D01*
X45144132Y-68274235D01*
X45144130Y-68274235D01*
X45137784Y-68274880D01*
X44943828Y-68335662D01*
X44766056Y-68434203D01*
X44611729Y-68566477D01*
X44487152Y-68727081D01*
X44397413Y-68909455D01*
X44395804Y-68915633D01*
X44395803Y-68915635D01*
X44369603Y-69016220D01*
X44346178Y-69106148D01*
X44335541Y-69309126D01*
X44365935Y-69510097D01*
X44436119Y-69700852D01*
X44439479Y-69706272D01*
X44439480Y-69706273D01*
X44539863Y-69868176D01*
X44539866Y-69868180D01*
X44543226Y-69873599D01*
X44682881Y-70021280D01*
X44849379Y-70137863D01*
X45035919Y-70218586D01*
X45166018Y-70245765D01*
X45196031Y-70252035D01*
X45258622Y-70285544D01*
X45293160Y-70347574D01*
X45288680Y-70418429D01*
X45246604Y-70475614D01*
X45181246Y-70500893D01*
X45117480Y-70506472D01*
X45106688Y-70508375D01*
X44896239Y-70564764D01*
X44885947Y-70568510D01*
X44688489Y-70660586D01*
X44678993Y-70666069D01*
X44500533Y-70791028D01*
X44492125Y-70798084D01*
X44338084Y-70952125D01*
X44331028Y-70960533D01*
X44206069Y-71138993D01*
X44200586Y-71148489D01*
X44108510Y-71345947D01*
X44104764Y-71356239D01*
X44058606Y-71528503D01*
X31241394Y-71528503D01*
X31195236Y-71356239D01*
X31191490Y-71345947D01*
X31099414Y-71148489D01*
X31093931Y-71138993D01*
X30968972Y-70960533D01*
X30961916Y-70952125D01*
X30807875Y-70798084D01*
X30799467Y-70791028D01*
X30621007Y-70666069D01*
X30611511Y-70660586D01*
X30414053Y-70568510D01*
X30403761Y-70564764D01*
X30193312Y-70508375D01*
X30182520Y-70506472D01*
X30117143Y-70500752D01*
X30051025Y-70474888D01*
X30009386Y-70417385D01*
X30005445Y-70346498D01*
X30040454Y-70284733D01*
X30103299Y-70251701D01*
X30115390Y-70249876D01*
X30130558Y-70248336D01*
X30155868Y-70245765D01*
X30155870Y-70245765D01*
X30162216Y-70245120D01*
X30356172Y-70184338D01*
X30533944Y-70085797D01*
X30688271Y-69953523D01*
X30812848Y-69792919D01*
X30902587Y-69610545D01*
X30928752Y-69510097D01*
X30952212Y-69420034D01*
X30952212Y-69420031D01*
X30953822Y-69413852D01*
X30964459Y-69210874D01*
X30934065Y-69009903D01*
X30863881Y-68819148D01*
X30810345Y-68732802D01*
X30760137Y-68651824D01*
X30760134Y-68651820D01*
X30756774Y-68646401D01*
X30617119Y-68498720D01*
X30450621Y-68382137D01*
X30264081Y-68301414D01*
X30218053Y-68291798D01*
X30069856Y-68260838D01*
X30069851Y-68260837D01*
X30065120Y-68259849D01*
X30060238Y-68259593D01*
X30060129Y-68259587D01*
X30060113Y-68259587D01*
X30058461Y-68259500D01*
X27509200Y-68259500D01*
X27461207Y-68264375D01*
X27364132Y-68274235D01*
X27364130Y-68274235D01*
X27357784Y-68274880D01*
X27163828Y-68335662D01*
X26986056Y-68434203D01*
X26831729Y-68566477D01*
X26707152Y-68727081D01*
X26617413Y-68909455D01*
X26615804Y-68915633D01*
X26615803Y-68915635D01*
X26589603Y-69016220D01*
X26566178Y-69106148D01*
X26555541Y-69309126D01*
X26585935Y-69510097D01*
X26656119Y-69700852D01*
X26659479Y-69706272D01*
X26659480Y-69706273D01*
X26759863Y-69868176D01*
X26759866Y-69868180D01*
X26763226Y-69873599D01*
X26902881Y-70021280D01*
X27069379Y-70137863D01*
X27255919Y-70218586D01*
X27386018Y-70245765D01*
X27416031Y-70252035D01*
X27478622Y-70285544D01*
X27513160Y-70347574D01*
X27508680Y-70418429D01*
X27466604Y-70475614D01*
X27401246Y-70500893D01*
X27337480Y-70506472D01*
X27326688Y-70508375D01*
X27116239Y-70564764D01*
X27105947Y-70568510D01*
X26908489Y-70660586D01*
X26898993Y-70666069D01*
X26720533Y-70791028D01*
X26712125Y-70798084D01*
X26558084Y-70952125D01*
X26551028Y-70960533D01*
X26426069Y-71138993D01*
X26420586Y-71148489D01*
X26328510Y-71345947D01*
X26324764Y-71356239D01*
X26278606Y-71528503D01*
X21800000Y-71528503D01*
X21800000Y-66769126D01*
X26555541Y-66769126D01*
X26585935Y-66970097D01*
X26656119Y-67160852D01*
X26659479Y-67166272D01*
X26659480Y-67166273D01*
X26759863Y-67328176D01*
X26759866Y-67328180D01*
X26763226Y-67333599D01*
X26902881Y-67481280D01*
X27069379Y-67597863D01*
X27255919Y-67678586D01*
X27301947Y-67688202D01*
X27450144Y-67719162D01*
X27450149Y-67719163D01*
X27454880Y-67720151D01*
X27459762Y-67720407D01*
X27459871Y-67720413D01*
X27459887Y-67720413D01*
X27461539Y-67720500D01*
X30010800Y-67720500D01*
X30058793Y-67715625D01*
X30155868Y-67705765D01*
X30155870Y-67705765D01*
X30162216Y-67705120D01*
X30356172Y-67644338D01*
X30533944Y-67545797D01*
X30688271Y-67413523D01*
X30812848Y-67252919D01*
X30902587Y-67070545D01*
X30928752Y-66970097D01*
X30952212Y-66880034D01*
X30952212Y-66880031D01*
X30953822Y-66873852D01*
X30959310Y-66769126D01*
X44335541Y-66769126D01*
X44365935Y-66970097D01*
X44436119Y-67160852D01*
X44439479Y-67166272D01*
X44439480Y-67166273D01*
X44539863Y-67328176D01*
X44539866Y-67328180D01*
X44543226Y-67333599D01*
X44682881Y-67481280D01*
X44849379Y-67597863D01*
X45035919Y-67678586D01*
X45081947Y-67688202D01*
X45230144Y-67719162D01*
X45230149Y-67719163D01*
X45234880Y-67720151D01*
X45239762Y-67720407D01*
X45239871Y-67720413D01*
X45239887Y-67720413D01*
X45241539Y-67720500D01*
X47790800Y-67720500D01*
X47838793Y-67715625D01*
X47935868Y-67705765D01*
X47935870Y-67705765D01*
X47942216Y-67705120D01*
X48136172Y-67644338D01*
X48313944Y-67545797D01*
X48468271Y-67413523D01*
X48592848Y-67252919D01*
X48682587Y-67070545D01*
X48708752Y-66970097D01*
X48732212Y-66880034D01*
X48732212Y-66880031D01*
X48733822Y-66873852D01*
X48744459Y-66670874D01*
X48714065Y-66469903D01*
X48643881Y-66279148D01*
X48590345Y-66192802D01*
X48540137Y-66111824D01*
X48540134Y-66111820D01*
X48536774Y-66106401D01*
X48397119Y-65958720D01*
X48230621Y-65842137D01*
X48044081Y-65761414D01*
X47998053Y-65751798D01*
X47849856Y-65720838D01*
X47849851Y-65720837D01*
X47845120Y-65719849D01*
X47840238Y-65719593D01*
X47840129Y-65719587D01*
X47840113Y-65719587D01*
X47838461Y-65719500D01*
X45289200Y-65719500D01*
X45241207Y-65724375D01*
X45144132Y-65734235D01*
X45144130Y-65734235D01*
X45137784Y-65734880D01*
X44943828Y-65795662D01*
X44766056Y-65894203D01*
X44611729Y-66026477D01*
X44487152Y-66187081D01*
X44397413Y-66369455D01*
X44395804Y-66375633D01*
X44395803Y-66375635D01*
X44369603Y-66476220D01*
X44346178Y-66566148D01*
X44335541Y-66769126D01*
X30959310Y-66769126D01*
X30964459Y-66670874D01*
X30934065Y-66469903D01*
X30863881Y-66279148D01*
X30810345Y-66192802D01*
X30760137Y-66111824D01*
X30760134Y-66111820D01*
X30756774Y-66106401D01*
X30617119Y-65958720D01*
X30450621Y-65842137D01*
X30264081Y-65761414D01*
X30218053Y-65751798D01*
X30069856Y-65720838D01*
X30069851Y-65720837D01*
X30065120Y-65719849D01*
X30060238Y-65719593D01*
X30060129Y-65719587D01*
X30060113Y-65719587D01*
X30058461Y-65719500D01*
X27509200Y-65719500D01*
X27461207Y-65724375D01*
X27364132Y-65734235D01*
X27364130Y-65734235D01*
X27357784Y-65734880D01*
X27163828Y-65795662D01*
X26986056Y-65894203D01*
X26831729Y-66026477D01*
X26707152Y-66187081D01*
X26617413Y-66369455D01*
X26615804Y-66375633D01*
X26615803Y-66375635D01*
X26589603Y-66476220D01*
X26566178Y-66566148D01*
X26555541Y-66769126D01*
X21800000Y-66769126D01*
X21800000Y-65203683D01*
X33478493Y-65203683D01*
X33487789Y-65215698D01*
X33538994Y-65251552D01*
X33548489Y-65257035D01*
X33745947Y-65349111D01*
X33756239Y-65352857D01*
X33966688Y-65409246D01*
X33977481Y-65411149D01*
X34194525Y-65430138D01*
X34205475Y-65430138D01*
X34422519Y-65411149D01*
X34433312Y-65409246D01*
X34643761Y-65352857D01*
X34654053Y-65349111D01*
X34851511Y-65257035D01*
X34861006Y-65251552D01*
X34913048Y-65215112D01*
X34921424Y-65204633D01*
X34920925Y-65203683D01*
X40378493Y-65203683D01*
X40387789Y-65215698D01*
X40438994Y-65251552D01*
X40448489Y-65257035D01*
X40645947Y-65349111D01*
X40656239Y-65352857D01*
X40866688Y-65409246D01*
X40877481Y-65411149D01*
X41094525Y-65430138D01*
X41105475Y-65430138D01*
X41322519Y-65411149D01*
X41333312Y-65409246D01*
X41543761Y-65352857D01*
X41554053Y-65349111D01*
X41751511Y-65257035D01*
X41761006Y-65251552D01*
X41813048Y-65215112D01*
X41821424Y-65204633D01*
X41814356Y-65191187D01*
X41112812Y-64489643D01*
X41098868Y-64482029D01*
X41097035Y-64482160D01*
X41090420Y-64486411D01*
X40384923Y-65191908D01*
X40378493Y-65203683D01*
X34920925Y-65203683D01*
X34914356Y-65191187D01*
X34212812Y-64489643D01*
X34198868Y-64482029D01*
X34197035Y-64482160D01*
X34190420Y-64486411D01*
X33484923Y-65191908D01*
X33478493Y-65203683D01*
X21800000Y-65203683D01*
X21800000Y-64229126D01*
X26555541Y-64229126D01*
X26585935Y-64430097D01*
X26656119Y-64620852D01*
X26659479Y-64626272D01*
X26659480Y-64626273D01*
X26759863Y-64788176D01*
X26759866Y-64788180D01*
X26763226Y-64793599D01*
X26902881Y-64941280D01*
X27069379Y-65057863D01*
X27255919Y-65138586D01*
X27301947Y-65148202D01*
X27450144Y-65179162D01*
X27450149Y-65179163D01*
X27454880Y-65180151D01*
X27459762Y-65180407D01*
X27459871Y-65180413D01*
X27459887Y-65180413D01*
X27461539Y-65180500D01*
X30010800Y-65180500D01*
X30058793Y-65175625D01*
X30155868Y-65165765D01*
X30155870Y-65165765D01*
X30162216Y-65165120D01*
X30356172Y-65104338D01*
X30533944Y-65005797D01*
X30688271Y-64873523D01*
X30714951Y-64839128D01*
X30808939Y-64717958D01*
X30812848Y-64712919D01*
X30902587Y-64530545D01*
X30914083Y-64486411D01*
X30952212Y-64340034D01*
X30952212Y-64340031D01*
X30953822Y-64333852D01*
X30964459Y-64130874D01*
X30963283Y-64123096D01*
X32887483Y-64123096D01*
X32906472Y-64340140D01*
X32908375Y-64350933D01*
X32964764Y-64561382D01*
X32968510Y-64571674D01*
X33060586Y-64769132D01*
X33066069Y-64778627D01*
X33102509Y-64830669D01*
X33112988Y-64839045D01*
X33126434Y-64831977D01*
X33827978Y-64130433D01*
X33834356Y-64118753D01*
X34564408Y-64118753D01*
X34564539Y-64120586D01*
X34568790Y-64127201D01*
X35274287Y-64832698D01*
X35286062Y-64839128D01*
X35298077Y-64829832D01*
X35333931Y-64778627D01*
X35339414Y-64769132D01*
X35431490Y-64571674D01*
X35435236Y-64561382D01*
X35491625Y-64350933D01*
X35493528Y-64340140D01*
X35512517Y-64123096D01*
X39787483Y-64123096D01*
X39806472Y-64340140D01*
X39808375Y-64350933D01*
X39864764Y-64561382D01*
X39868510Y-64571674D01*
X39960586Y-64769132D01*
X39966069Y-64778627D01*
X40002509Y-64830669D01*
X40012988Y-64839045D01*
X40026434Y-64831977D01*
X40727978Y-64130433D01*
X40734356Y-64118753D01*
X41464408Y-64118753D01*
X41464539Y-64120586D01*
X41468790Y-64127201D01*
X42174287Y-64832698D01*
X42186062Y-64839128D01*
X42198077Y-64829832D01*
X42233931Y-64778627D01*
X42239414Y-64769132D01*
X42331490Y-64571674D01*
X42335236Y-64561382D01*
X42391625Y-64350933D01*
X42393528Y-64340140D01*
X42403241Y-64229126D01*
X44335541Y-64229126D01*
X44365935Y-64430097D01*
X44436119Y-64620852D01*
X44439479Y-64626272D01*
X44439480Y-64626273D01*
X44539863Y-64788176D01*
X44539866Y-64788180D01*
X44543226Y-64793599D01*
X44682881Y-64941280D01*
X44849379Y-65057863D01*
X45035919Y-65138586D01*
X45081947Y-65148202D01*
X45230144Y-65179162D01*
X45230149Y-65179163D01*
X45234880Y-65180151D01*
X45239762Y-65180407D01*
X45239871Y-65180413D01*
X45239887Y-65180413D01*
X45241539Y-65180500D01*
X47790800Y-65180500D01*
X47838793Y-65175625D01*
X47935868Y-65165765D01*
X47935870Y-65165765D01*
X47942216Y-65165120D01*
X48136172Y-65104338D01*
X48313944Y-65005797D01*
X48468271Y-64873523D01*
X48494951Y-64839128D01*
X48588939Y-64717958D01*
X48592848Y-64712919D01*
X48682587Y-64530545D01*
X48694083Y-64486411D01*
X48732212Y-64340034D01*
X48732212Y-64340031D01*
X48733822Y-64333852D01*
X48744459Y-64130874D01*
X48714065Y-63929903D01*
X48643881Y-63739148D01*
X48590345Y-63652802D01*
X48540137Y-63571824D01*
X48540134Y-63571820D01*
X48536774Y-63566401D01*
X48397119Y-63418720D01*
X48230621Y-63302137D01*
X48044081Y-63221414D01*
X47998053Y-63211798D01*
X47849856Y-63180838D01*
X47849851Y-63180837D01*
X47845120Y-63179849D01*
X47840238Y-63179593D01*
X47840129Y-63179587D01*
X47840113Y-63179587D01*
X47838461Y-63179500D01*
X45289200Y-63179500D01*
X45241207Y-63184375D01*
X45144132Y-63194235D01*
X45144130Y-63194235D01*
X45137784Y-63194880D01*
X44943828Y-63255662D01*
X44766056Y-63354203D01*
X44611729Y-63486477D01*
X44487152Y-63647081D01*
X44397413Y-63829455D01*
X44395804Y-63835633D01*
X44395803Y-63835635D01*
X44369603Y-63936220D01*
X44346178Y-64026148D01*
X44335541Y-64229126D01*
X42403241Y-64229126D01*
X42412517Y-64123096D01*
X42412517Y-64112146D01*
X42393528Y-63895102D01*
X42391625Y-63884309D01*
X42335236Y-63673860D01*
X42331490Y-63663568D01*
X42239414Y-63466110D01*
X42233931Y-63456615D01*
X42197491Y-63404573D01*
X42187012Y-63396197D01*
X42173566Y-63403265D01*
X41472022Y-64104809D01*
X41464408Y-64118753D01*
X40734356Y-64118753D01*
X40735592Y-64116489D01*
X40735461Y-64114656D01*
X40731210Y-64108041D01*
X40025713Y-63402544D01*
X40013938Y-63396114D01*
X40001923Y-63405410D01*
X39966069Y-63456615D01*
X39960586Y-63466110D01*
X39868510Y-63663568D01*
X39864764Y-63673860D01*
X39808375Y-63884309D01*
X39806472Y-63895102D01*
X39787483Y-64112146D01*
X39787483Y-64123096D01*
X35512517Y-64123096D01*
X35512517Y-64112146D01*
X35493528Y-63895102D01*
X35491625Y-63884309D01*
X35435236Y-63673860D01*
X35431490Y-63663568D01*
X35339414Y-63466110D01*
X35333931Y-63456615D01*
X35297491Y-63404573D01*
X35287012Y-63396197D01*
X35273566Y-63403265D01*
X34572022Y-64104809D01*
X34564408Y-64118753D01*
X33834356Y-64118753D01*
X33835592Y-64116489D01*
X33835461Y-64114656D01*
X33831210Y-64108041D01*
X33125713Y-63402544D01*
X33113938Y-63396114D01*
X33101923Y-63405410D01*
X33066069Y-63456615D01*
X33060586Y-63466110D01*
X32968510Y-63663568D01*
X32964764Y-63673860D01*
X32908375Y-63884309D01*
X32906472Y-63895102D01*
X32887483Y-64112146D01*
X32887483Y-64123096D01*
X30963283Y-64123096D01*
X30934065Y-63929903D01*
X30863881Y-63739148D01*
X30810345Y-63652802D01*
X30760137Y-63571824D01*
X30760134Y-63571820D01*
X30756774Y-63566401D01*
X30617119Y-63418720D01*
X30450621Y-63302137D01*
X30264081Y-63221414D01*
X30218053Y-63211798D01*
X30069856Y-63180838D01*
X30069851Y-63180837D01*
X30065120Y-63179849D01*
X30060238Y-63179593D01*
X30060129Y-63179587D01*
X30060113Y-63179587D01*
X30058461Y-63179500D01*
X27509200Y-63179500D01*
X27461207Y-63184375D01*
X27364132Y-63194235D01*
X27364130Y-63194235D01*
X27357784Y-63194880D01*
X27163828Y-63255662D01*
X26986056Y-63354203D01*
X26831729Y-63486477D01*
X26707152Y-63647081D01*
X26617413Y-63829455D01*
X26615804Y-63835633D01*
X26615803Y-63835635D01*
X26589603Y-63936220D01*
X26566178Y-64026148D01*
X26555541Y-64229126D01*
X21800000Y-64229126D01*
X21800000Y-59366522D01*
X26277273Y-59366522D01*
X26324764Y-59543761D01*
X26328510Y-59554053D01*
X26420586Y-59751511D01*
X26426069Y-59761007D01*
X26551028Y-59939467D01*
X26558084Y-59947875D01*
X26712125Y-60101916D01*
X26720533Y-60108972D01*
X26898993Y-60233931D01*
X26908489Y-60239414D01*
X27105947Y-60331490D01*
X27116239Y-60335236D01*
X27326688Y-60391625D01*
X27337480Y-60393528D01*
X27402857Y-60399248D01*
X27468975Y-60425112D01*
X27510614Y-60482615D01*
X27514555Y-60553502D01*
X27479546Y-60615267D01*
X27416701Y-60648299D01*
X27404610Y-60650124D01*
X27389442Y-60651664D01*
X27364132Y-60654235D01*
X27364130Y-60654235D01*
X27357784Y-60654880D01*
X27163828Y-60715662D01*
X26986056Y-60814203D01*
X26831729Y-60946477D01*
X26707152Y-61107081D01*
X26617413Y-61289455D01*
X26615804Y-61295633D01*
X26615803Y-61295635D01*
X26589603Y-61396220D01*
X26566178Y-61486148D01*
X26555541Y-61689126D01*
X26585935Y-61890097D01*
X26656119Y-62080852D01*
X26659479Y-62086272D01*
X26659480Y-62086273D01*
X26759863Y-62248176D01*
X26759866Y-62248180D01*
X26763226Y-62253599D01*
X26902881Y-62401280D01*
X27069379Y-62517863D01*
X27255919Y-62598586D01*
X27293744Y-62606488D01*
X27450144Y-62639162D01*
X27450149Y-62639163D01*
X27454880Y-62640151D01*
X27459762Y-62640407D01*
X27459871Y-62640413D01*
X27459887Y-62640413D01*
X27461539Y-62640500D01*
X30010800Y-62640500D01*
X30058793Y-62635625D01*
X30155868Y-62625765D01*
X30155870Y-62625765D01*
X30162216Y-62625120D01*
X30356172Y-62564338D01*
X30533944Y-62465797D01*
X30567112Y-62437369D01*
X33199500Y-62437369D01*
X33211133Y-62495852D01*
X33218026Y-62506168D01*
X33227534Y-62520398D01*
X33255448Y-62562173D01*
X33321769Y-62606488D01*
X33333938Y-62608909D01*
X33333939Y-62608909D01*
X33374184Y-62616914D01*
X33380252Y-62618121D01*
X33785420Y-62618121D01*
X33853541Y-62638123D01*
X33900034Y-62691779D01*
X33910138Y-62762053D01*
X33880644Y-62826633D01*
X33818031Y-62865828D01*
X33756239Y-62882385D01*
X33745947Y-62886131D01*
X33548489Y-62978207D01*
X33538994Y-62983690D01*
X33486952Y-63020130D01*
X33478576Y-63030609D01*
X33485644Y-63044055D01*
X34187188Y-63745599D01*
X34201132Y-63753213D01*
X34202965Y-63753082D01*
X34209580Y-63748831D01*
X34915077Y-63043334D01*
X34921507Y-63031559D01*
X34912211Y-63019544D01*
X34861006Y-62983690D01*
X34851511Y-62978207D01*
X34654053Y-62886131D01*
X34643761Y-62882385D01*
X34581969Y-62865828D01*
X34521346Y-62828876D01*
X34490325Y-62765015D01*
X34498753Y-62694521D01*
X34543956Y-62639774D01*
X34614580Y-62618121D01*
X35019748Y-62618121D01*
X35025816Y-62616914D01*
X35066061Y-62608909D01*
X35066062Y-62608909D01*
X35078231Y-62606488D01*
X35144552Y-62562173D01*
X35172466Y-62520398D01*
X35181974Y-62506168D01*
X35188867Y-62495852D01*
X35200500Y-62437369D01*
X40099500Y-62437369D01*
X40111133Y-62495852D01*
X40118026Y-62506168D01*
X40127534Y-62520398D01*
X40155448Y-62562173D01*
X40221769Y-62606488D01*
X40233938Y-62608909D01*
X40233939Y-62608909D01*
X40274184Y-62616914D01*
X40280252Y-62618121D01*
X40685420Y-62618121D01*
X40753541Y-62638123D01*
X40800034Y-62691779D01*
X40810138Y-62762053D01*
X40780644Y-62826633D01*
X40718031Y-62865828D01*
X40656239Y-62882385D01*
X40645947Y-62886131D01*
X40448489Y-62978207D01*
X40438994Y-62983690D01*
X40386952Y-63020130D01*
X40378576Y-63030609D01*
X40385644Y-63044055D01*
X41087188Y-63745599D01*
X41101132Y-63753213D01*
X41102965Y-63753082D01*
X41109580Y-63748831D01*
X41815077Y-63043334D01*
X41821507Y-63031559D01*
X41812211Y-63019544D01*
X41761006Y-62983690D01*
X41751511Y-62978207D01*
X41554053Y-62886131D01*
X41543761Y-62882385D01*
X41481969Y-62865828D01*
X41421346Y-62828876D01*
X41390325Y-62765015D01*
X41398753Y-62694521D01*
X41443956Y-62639774D01*
X41514580Y-62618121D01*
X41919748Y-62618121D01*
X41925816Y-62616914D01*
X41966061Y-62608909D01*
X41966062Y-62608909D01*
X41978231Y-62606488D01*
X42044552Y-62562173D01*
X42072466Y-62520398D01*
X42081974Y-62506168D01*
X42088867Y-62495852D01*
X42100500Y-62437369D01*
X42100500Y-60797873D01*
X42093392Y-60762137D01*
X42091288Y-60751560D01*
X42091288Y-60751559D01*
X42088867Y-60739390D01*
X42044552Y-60673069D01*
X41978231Y-60628754D01*
X41966062Y-60626333D01*
X41966061Y-60626333D01*
X41925816Y-60618328D01*
X41919748Y-60617121D01*
X40280252Y-60617121D01*
X40274184Y-60618328D01*
X40233939Y-60626333D01*
X40233938Y-60626333D01*
X40221769Y-60628754D01*
X40155448Y-60673069D01*
X40111133Y-60739390D01*
X40108712Y-60751559D01*
X40108712Y-60751560D01*
X40106608Y-60762137D01*
X40099500Y-60797873D01*
X40099500Y-62437369D01*
X35200500Y-62437369D01*
X35200500Y-60797873D01*
X35193392Y-60762137D01*
X35191288Y-60751560D01*
X35191288Y-60751559D01*
X35188867Y-60739390D01*
X35144552Y-60673069D01*
X35078231Y-60628754D01*
X35066062Y-60626333D01*
X35066061Y-60626333D01*
X35025816Y-60618328D01*
X35019748Y-60617121D01*
X33380252Y-60617121D01*
X33374184Y-60618328D01*
X33333939Y-60626333D01*
X33333938Y-60626333D01*
X33321769Y-60628754D01*
X33255448Y-60673069D01*
X33211133Y-60739390D01*
X33208712Y-60751559D01*
X33208712Y-60751560D01*
X33206608Y-60762137D01*
X33199500Y-60797873D01*
X33199500Y-62437369D01*
X30567112Y-62437369D01*
X30688271Y-62333523D01*
X30812848Y-62172919D01*
X30902587Y-61990545D01*
X30928752Y-61890097D01*
X30952212Y-61800034D01*
X30952212Y-61800031D01*
X30953822Y-61793852D01*
X30964459Y-61590874D01*
X30934065Y-61389903D01*
X30863881Y-61199148D01*
X30810345Y-61112802D01*
X30760137Y-61031824D01*
X30760134Y-61031820D01*
X30756774Y-61026401D01*
X30617119Y-60878720D01*
X30450621Y-60762137D01*
X30264081Y-60681414D01*
X30103969Y-60647965D01*
X30041378Y-60614456D01*
X30006840Y-60552426D01*
X30011320Y-60481571D01*
X30053396Y-60424386D01*
X30118754Y-60399107D01*
X30182520Y-60393528D01*
X30193312Y-60391625D01*
X30403761Y-60335236D01*
X30414053Y-60331490D01*
X30611511Y-60239414D01*
X30621007Y-60233931D01*
X30799467Y-60108972D01*
X30807875Y-60101916D01*
X30961916Y-59947875D01*
X30968972Y-59939467D01*
X31093931Y-59761007D01*
X31099414Y-59751511D01*
X31191490Y-59554053D01*
X31195236Y-59543761D01*
X31241394Y-59371497D01*
X31241275Y-59366522D01*
X44057273Y-59366522D01*
X44104764Y-59543761D01*
X44108510Y-59554053D01*
X44200586Y-59751511D01*
X44206069Y-59761007D01*
X44331028Y-59939467D01*
X44338084Y-59947875D01*
X44492125Y-60101916D01*
X44500533Y-60108972D01*
X44678993Y-60233931D01*
X44688489Y-60239414D01*
X44885947Y-60331490D01*
X44896239Y-60335236D01*
X45106688Y-60391625D01*
X45117480Y-60393528D01*
X45182857Y-60399248D01*
X45248975Y-60425112D01*
X45290614Y-60482615D01*
X45294555Y-60553502D01*
X45259546Y-60615267D01*
X45196701Y-60648299D01*
X45184610Y-60650124D01*
X45169442Y-60651664D01*
X45144132Y-60654235D01*
X45144130Y-60654235D01*
X45137784Y-60654880D01*
X44943828Y-60715662D01*
X44766056Y-60814203D01*
X44611729Y-60946477D01*
X44487152Y-61107081D01*
X44397413Y-61289455D01*
X44395804Y-61295633D01*
X44395803Y-61295635D01*
X44369603Y-61396220D01*
X44346178Y-61486148D01*
X44335541Y-61689126D01*
X44365935Y-61890097D01*
X44436119Y-62080852D01*
X44439479Y-62086272D01*
X44439480Y-62086273D01*
X44539863Y-62248176D01*
X44539866Y-62248180D01*
X44543226Y-62253599D01*
X44682881Y-62401280D01*
X44849379Y-62517863D01*
X45035919Y-62598586D01*
X45073744Y-62606488D01*
X45230144Y-62639162D01*
X45230149Y-62639163D01*
X45234880Y-62640151D01*
X45239762Y-62640407D01*
X45239871Y-62640413D01*
X45239887Y-62640413D01*
X45241539Y-62640500D01*
X47790800Y-62640500D01*
X47838793Y-62635625D01*
X47935868Y-62625765D01*
X47935870Y-62625765D01*
X47942216Y-62625120D01*
X48136172Y-62564338D01*
X48313944Y-62465797D01*
X48468271Y-62333523D01*
X48592848Y-62172919D01*
X48682587Y-61990545D01*
X48708752Y-61890097D01*
X48732212Y-61800034D01*
X48732212Y-61800031D01*
X48733822Y-61793852D01*
X48744459Y-61590874D01*
X48714065Y-61389903D01*
X48643881Y-61199148D01*
X48590345Y-61112802D01*
X48540137Y-61031824D01*
X48540134Y-61031820D01*
X48536774Y-61026401D01*
X48397119Y-60878720D01*
X48230621Y-60762137D01*
X48044081Y-60681414D01*
X47883969Y-60647965D01*
X47821378Y-60614456D01*
X47786840Y-60552426D01*
X47791320Y-60481571D01*
X47833396Y-60424386D01*
X47898754Y-60399107D01*
X47962520Y-60393528D01*
X47973312Y-60391625D01*
X48183761Y-60335236D01*
X48194053Y-60331490D01*
X48391511Y-60239414D01*
X48401007Y-60233931D01*
X48579467Y-60108972D01*
X48587875Y-60101916D01*
X48741916Y-59947875D01*
X48748972Y-59939467D01*
X48873931Y-59761007D01*
X48879414Y-59751511D01*
X48971490Y-59554053D01*
X48975236Y-59543761D01*
X49021394Y-59371497D01*
X49021058Y-59357401D01*
X49013116Y-59354000D01*
X44072033Y-59354000D01*
X44058502Y-59357973D01*
X44057273Y-59366522D01*
X31241275Y-59366522D01*
X31241058Y-59357401D01*
X31233116Y-59354000D01*
X26292033Y-59354000D01*
X26278502Y-59357973D01*
X26277273Y-59366522D01*
X21800000Y-59366522D01*
X21800000Y-58828503D01*
X26278606Y-58828503D01*
X26278942Y-58842599D01*
X26286884Y-58846000D01*
X31227967Y-58846000D01*
X31241498Y-58842027D01*
X31242727Y-58833478D01*
X31241394Y-58828503D01*
X44058606Y-58828503D01*
X44058942Y-58842599D01*
X44066884Y-58846000D01*
X49007967Y-58846000D01*
X49021498Y-58842027D01*
X49022727Y-58833478D01*
X48975236Y-58656239D01*
X48971490Y-58645947D01*
X48879414Y-58448489D01*
X48873931Y-58438993D01*
X48748972Y-58260533D01*
X48741916Y-58252125D01*
X48587875Y-58098084D01*
X48579467Y-58091028D01*
X48401007Y-57966069D01*
X48391511Y-57960586D01*
X48194053Y-57868510D01*
X48183761Y-57864764D01*
X47973312Y-57808375D01*
X47962520Y-57806472D01*
X47897143Y-57800752D01*
X47831025Y-57774888D01*
X47789386Y-57717385D01*
X47785445Y-57646498D01*
X47820454Y-57584733D01*
X47883299Y-57551701D01*
X47895390Y-57549876D01*
X47910558Y-57548336D01*
X47935868Y-57545765D01*
X47935870Y-57545765D01*
X47942216Y-57545120D01*
X48136172Y-57484338D01*
X48313944Y-57385797D01*
X48468271Y-57253523D01*
X48592848Y-57092919D01*
X48682587Y-56910545D01*
X48690813Y-56878965D01*
X48732212Y-56720034D01*
X48732212Y-56720031D01*
X48733822Y-56713852D01*
X48738076Y-56632672D01*
X48744125Y-56517256D01*
X48744125Y-56517252D01*
X48744459Y-56510874D01*
X48714065Y-56309903D01*
X48643881Y-56119148D01*
X48590345Y-56032802D01*
X48540137Y-55951824D01*
X48540134Y-55951820D01*
X48536774Y-55946401D01*
X48498693Y-55906131D01*
X48401508Y-55803361D01*
X48401507Y-55803360D01*
X48397119Y-55798720D01*
X48230621Y-55682137D01*
X48044081Y-55601414D01*
X47998053Y-55591798D01*
X47849856Y-55560838D01*
X47849851Y-55560837D01*
X47845120Y-55559849D01*
X47840238Y-55559593D01*
X47840129Y-55559587D01*
X47840113Y-55559587D01*
X47838461Y-55559500D01*
X45289200Y-55559500D01*
X45241207Y-55564375D01*
X45144132Y-55574235D01*
X45144130Y-55574235D01*
X45137784Y-55574880D01*
X44943828Y-55635662D01*
X44766056Y-55734203D01*
X44761208Y-55738359D01*
X44761207Y-55738359D01*
X44755648Y-55743124D01*
X44611729Y-55866477D01*
X44607822Y-55871514D01*
X44607820Y-55871516D01*
X44553331Y-55941763D01*
X44487152Y-56027081D01*
X44397413Y-56209455D01*
X44395804Y-56215633D01*
X44395803Y-56215635D01*
X44350660Y-56388943D01*
X44346178Y-56406148D01*
X44344572Y-56436793D01*
X44336714Y-56586752D01*
X44335541Y-56609126D01*
X44365935Y-56810097D01*
X44436119Y-57000852D01*
X44439479Y-57006272D01*
X44439480Y-57006273D01*
X44539863Y-57168176D01*
X44539866Y-57168180D01*
X44543226Y-57173599D01*
X44547612Y-57178237D01*
X44634569Y-57270191D01*
X44682881Y-57321280D01*
X44849379Y-57437863D01*
X45035919Y-57518586D01*
X45166018Y-57545765D01*
X45196031Y-57552035D01*
X45258622Y-57585544D01*
X45293160Y-57647574D01*
X45288680Y-57718429D01*
X45246604Y-57775614D01*
X45181246Y-57800893D01*
X45117480Y-57806472D01*
X45106688Y-57808375D01*
X44896239Y-57864764D01*
X44885947Y-57868510D01*
X44688489Y-57960586D01*
X44678993Y-57966069D01*
X44500533Y-58091028D01*
X44492125Y-58098084D01*
X44338084Y-58252125D01*
X44331028Y-58260533D01*
X44206069Y-58438993D01*
X44200586Y-58448489D01*
X44108510Y-58645947D01*
X44104764Y-58656239D01*
X44058606Y-58828503D01*
X31241394Y-58828503D01*
X31195236Y-58656239D01*
X31191490Y-58645947D01*
X31099414Y-58448489D01*
X31093931Y-58438993D01*
X30968972Y-58260533D01*
X30961916Y-58252125D01*
X30807875Y-58098084D01*
X30799467Y-58091028D01*
X30621007Y-57966069D01*
X30611511Y-57960586D01*
X30414053Y-57868510D01*
X30403761Y-57864764D01*
X30193312Y-57808375D01*
X30182520Y-57806472D01*
X30117143Y-57800752D01*
X30051025Y-57774888D01*
X30009386Y-57717385D01*
X30005445Y-57646498D01*
X30040454Y-57584733D01*
X30103299Y-57551701D01*
X30115390Y-57549876D01*
X30130558Y-57548336D01*
X30155868Y-57545765D01*
X30155870Y-57545765D01*
X30162216Y-57545120D01*
X30356172Y-57484338D01*
X30533944Y-57385797D01*
X30688271Y-57253523D01*
X30812848Y-57092919D01*
X30902587Y-56910545D01*
X30910813Y-56878965D01*
X30913214Y-56869748D01*
X38649500Y-56869748D01*
X38661133Y-56928231D01*
X38705448Y-56994552D01*
X38771769Y-57038867D01*
X38783938Y-57041288D01*
X38783939Y-57041288D01*
X38824184Y-57049293D01*
X38830252Y-57050500D01*
X40569748Y-57050500D01*
X40575816Y-57049293D01*
X40616061Y-57041288D01*
X40616062Y-57041288D01*
X40628231Y-57038867D01*
X40694552Y-56994552D01*
X40738867Y-56928231D01*
X40750500Y-56869748D01*
X40750500Y-56586752D01*
X40770502Y-56518631D01*
X40824158Y-56472138D01*
X40894432Y-56462034D01*
X40959012Y-56491528D01*
X40993243Y-56539348D01*
X41021770Y-56609603D01*
X41026413Y-56618794D01*
X41137694Y-56800388D01*
X41143777Y-56808699D01*
X41283213Y-56969667D01*
X41290580Y-56976883D01*
X41454434Y-57112916D01*
X41462881Y-57118831D01*
X41646756Y-57226279D01*
X41656042Y-57230729D01*
X41855001Y-57306703D01*
X41864899Y-57309579D01*
X41968250Y-57330606D01*
X41982299Y-57329410D01*
X41986000Y-57319065D01*
X41986000Y-57318517D01*
X42494000Y-57318517D01*
X42498064Y-57332359D01*
X42511478Y-57334393D01*
X42518184Y-57333534D01*
X42528262Y-57331392D01*
X42732255Y-57270191D01*
X42741842Y-57266433D01*
X42933095Y-57172739D01*
X42941945Y-57167464D01*
X43115328Y-57043792D01*
X43123200Y-57037139D01*
X43274052Y-56886812D01*
X43280730Y-56878965D01*
X43405003Y-56706020D01*
X43410313Y-56697183D01*
X43504670Y-56506267D01*
X43508469Y-56496672D01*
X43570377Y-56292910D01*
X43572555Y-56282837D01*
X43573986Y-56271962D01*
X43571775Y-56257778D01*
X43558617Y-56254000D01*
X42512115Y-56254000D01*
X42496876Y-56258475D01*
X42495671Y-56259865D01*
X42494000Y-56267548D01*
X42494000Y-57318517D01*
X41986000Y-57318517D01*
X41986000Y-55727885D01*
X42494000Y-55727885D01*
X42498475Y-55743124D01*
X42499865Y-55744329D01*
X42507548Y-55746000D01*
X43558344Y-55746000D01*
X43571875Y-55742027D01*
X43573180Y-55732947D01*
X43531214Y-55565875D01*
X43527894Y-55556124D01*
X43442972Y-55360814D01*
X43438105Y-55351739D01*
X43322426Y-55172926D01*
X43316136Y-55164757D01*
X43172806Y-55007240D01*
X43165273Y-55000215D01*
X42998139Y-54868222D01*
X42989552Y-54862517D01*
X42803117Y-54759599D01*
X42793705Y-54755369D01*
X42592959Y-54684280D01*
X42582988Y-54681646D01*
X42511837Y-54668972D01*
X42498540Y-54670432D01*
X42494000Y-54684989D01*
X42494000Y-55727885D01*
X41986000Y-55727885D01*
X41986000Y-54683102D01*
X41982082Y-54669758D01*
X41967806Y-54667771D01*
X41929324Y-54673660D01*
X41919288Y-54676051D01*
X41716868Y-54742212D01*
X41707359Y-54746209D01*
X41518463Y-54844542D01*
X41509738Y-54850036D01*
X41339433Y-54977905D01*
X41331726Y-54984748D01*
X41184590Y-55138717D01*
X41178104Y-55146727D01*
X41058098Y-55322649D01*
X41053000Y-55331623D01*
X40990788Y-55465647D01*
X40943964Y-55519014D01*
X40875720Y-55538595D01*
X40807725Y-55518171D01*
X40761565Y-55464229D01*
X40750500Y-55412597D01*
X40750500Y-55130252D01*
X40738867Y-55071769D01*
X40694552Y-55005448D01*
X40628231Y-54961133D01*
X40616062Y-54958712D01*
X40616061Y-54958712D01*
X40575816Y-54950707D01*
X40569748Y-54949500D01*
X38830252Y-54949500D01*
X38824184Y-54950707D01*
X38783939Y-54958712D01*
X38783938Y-54958712D01*
X38771769Y-54961133D01*
X38705448Y-55005448D01*
X38661133Y-55071769D01*
X38649500Y-55130252D01*
X38649500Y-56869748D01*
X30913214Y-56869748D01*
X30952212Y-56720034D01*
X30952212Y-56720031D01*
X30953822Y-56713852D01*
X30958076Y-56632672D01*
X30964125Y-56517256D01*
X30964125Y-56517252D01*
X30964459Y-56510874D01*
X30934065Y-56309903D01*
X30914692Y-56257248D01*
X31874500Y-56257248D01*
X31875707Y-56263316D01*
X31881594Y-56292910D01*
X31886133Y-56315731D01*
X31930448Y-56382052D01*
X31996769Y-56426367D01*
X32008938Y-56428788D01*
X32008939Y-56428788D01*
X32049184Y-56436793D01*
X32055252Y-56438000D01*
X33794748Y-56438000D01*
X33800816Y-56436793D01*
X33841061Y-56428788D01*
X33841062Y-56428788D01*
X33853231Y-56426367D01*
X33919552Y-56382052D01*
X33963867Y-56315731D01*
X33968407Y-56292910D01*
X33974293Y-56263316D01*
X33975500Y-56257248D01*
X33975500Y-55974252D01*
X33995502Y-55906131D01*
X34049158Y-55859638D01*
X34119432Y-55849534D01*
X34184012Y-55879028D01*
X34218243Y-55926848D01*
X34246770Y-55997103D01*
X34251413Y-56006294D01*
X34362694Y-56187888D01*
X34368777Y-56196199D01*
X34508213Y-56357167D01*
X34515580Y-56364383D01*
X34679434Y-56500416D01*
X34687881Y-56506331D01*
X34871756Y-56613779D01*
X34881042Y-56618229D01*
X35080001Y-56694203D01*
X35089899Y-56697079D01*
X35193250Y-56718106D01*
X35207299Y-56716910D01*
X35211000Y-56706565D01*
X35211000Y-56706017D01*
X35719000Y-56706017D01*
X35723064Y-56719859D01*
X35736478Y-56721893D01*
X35743184Y-56721034D01*
X35753262Y-56718892D01*
X35957255Y-56657691D01*
X35966842Y-56653933D01*
X36158095Y-56560239D01*
X36166945Y-56554964D01*
X36340328Y-56431292D01*
X36348200Y-56424639D01*
X36499052Y-56274312D01*
X36505730Y-56266465D01*
X36630003Y-56093520D01*
X36635313Y-56084683D01*
X36729670Y-55893767D01*
X36733469Y-55884172D01*
X36795377Y-55680410D01*
X36797555Y-55670337D01*
X36798986Y-55659462D01*
X36796775Y-55645278D01*
X36783617Y-55641500D01*
X35737115Y-55641500D01*
X35721876Y-55645975D01*
X35720671Y-55647365D01*
X35719000Y-55655048D01*
X35719000Y-56706017D01*
X35211000Y-56706017D01*
X35211000Y-55115385D01*
X35719000Y-55115385D01*
X35723475Y-55130624D01*
X35724865Y-55131829D01*
X35732548Y-55133500D01*
X36783344Y-55133500D01*
X36796875Y-55129527D01*
X36798180Y-55120447D01*
X36756214Y-54953375D01*
X36752894Y-54943624D01*
X36667972Y-54748314D01*
X36663105Y-54739239D01*
X36547426Y-54560426D01*
X36541136Y-54552257D01*
X36397806Y-54394740D01*
X36390273Y-54387715D01*
X36223139Y-54255722D01*
X36214552Y-54250017D01*
X36028117Y-54147099D01*
X36018705Y-54142869D01*
X35817959Y-54071780D01*
X35807988Y-54069146D01*
X35807876Y-54069126D01*
X44335541Y-54069126D01*
X44365935Y-54270097D01*
X44436119Y-54460852D01*
X44439479Y-54466272D01*
X44439480Y-54466273D01*
X44539863Y-54628176D01*
X44539866Y-54628180D01*
X44543226Y-54633599D01*
X44547612Y-54638237D01*
X44651707Y-54748314D01*
X44682881Y-54781280D01*
X44849379Y-54897863D01*
X45035919Y-54978586D01*
X45065415Y-54984748D01*
X45230144Y-55019162D01*
X45230149Y-55019163D01*
X45234880Y-55020151D01*
X45239762Y-55020407D01*
X45239871Y-55020413D01*
X45239887Y-55020413D01*
X45241539Y-55020500D01*
X47790800Y-55020500D01*
X47838793Y-55015625D01*
X47935868Y-55005765D01*
X47935870Y-55005765D01*
X47942216Y-55005120D01*
X48136172Y-54944338D01*
X48313944Y-54845797D01*
X48468271Y-54713523D01*
X48492998Y-54681646D01*
X48588939Y-54557958D01*
X48592848Y-54552919D01*
X48682587Y-54370545D01*
X48688295Y-54348633D01*
X48732212Y-54180034D01*
X48732212Y-54180031D01*
X48733822Y-54173852D01*
X48744459Y-53970874D01*
X48714065Y-53769903D01*
X48643881Y-53579148D01*
X48590345Y-53492802D01*
X48540137Y-53411824D01*
X48540134Y-53411820D01*
X48536774Y-53406401D01*
X48397119Y-53258720D01*
X48230621Y-53142137D01*
X48044081Y-53061414D01*
X47998053Y-53051798D01*
X47849856Y-53020838D01*
X47849851Y-53020837D01*
X47845120Y-53019849D01*
X47840238Y-53019593D01*
X47840129Y-53019587D01*
X47840113Y-53019587D01*
X47838461Y-53019500D01*
X45289200Y-53019500D01*
X45241207Y-53024375D01*
X45144132Y-53034235D01*
X45144130Y-53034235D01*
X45137784Y-53034880D01*
X44943828Y-53095662D01*
X44766056Y-53194203D01*
X44611729Y-53326477D01*
X44487152Y-53487081D01*
X44397413Y-53669455D01*
X44395804Y-53675633D01*
X44395803Y-53675635D01*
X44369603Y-53776220D01*
X44346178Y-53866148D01*
X44345844Y-53872527D01*
X44336128Y-54057932D01*
X44335541Y-54069126D01*
X35807876Y-54069126D01*
X35736837Y-54056472D01*
X35723540Y-54057932D01*
X35719000Y-54072489D01*
X35719000Y-55115385D01*
X35211000Y-55115385D01*
X35211000Y-54070602D01*
X35207082Y-54057258D01*
X35192806Y-54055271D01*
X35154324Y-54061160D01*
X35144288Y-54063551D01*
X34941868Y-54129712D01*
X34932359Y-54133709D01*
X34743463Y-54232042D01*
X34734738Y-54237536D01*
X34564433Y-54365405D01*
X34556726Y-54372248D01*
X34409590Y-54526217D01*
X34403104Y-54534227D01*
X34283098Y-54710149D01*
X34278000Y-54719123D01*
X34215788Y-54853147D01*
X34168964Y-54906514D01*
X34100720Y-54926095D01*
X34032725Y-54905671D01*
X33986565Y-54851729D01*
X33975500Y-54800097D01*
X33975500Y-54517752D01*
X33963867Y-54459269D01*
X33919552Y-54392948D01*
X33853231Y-54348633D01*
X33841062Y-54346212D01*
X33841061Y-54346212D01*
X33800816Y-54338207D01*
X33794748Y-54337000D01*
X32055252Y-54337000D01*
X32049184Y-54338207D01*
X32008939Y-54346212D01*
X32008938Y-54346212D01*
X31996769Y-54348633D01*
X31930448Y-54392948D01*
X31886133Y-54459269D01*
X31874500Y-54517752D01*
X31874500Y-56257248D01*
X30914692Y-56257248D01*
X30863881Y-56119148D01*
X30810345Y-56032802D01*
X30760137Y-55951824D01*
X30760134Y-55951820D01*
X30756774Y-55946401D01*
X30718693Y-55906131D01*
X30621508Y-55803361D01*
X30621507Y-55803360D01*
X30617119Y-55798720D01*
X30450621Y-55682137D01*
X30264081Y-55601414D01*
X30218053Y-55591798D01*
X30069856Y-55560838D01*
X30069851Y-55560837D01*
X30065120Y-55559849D01*
X30060238Y-55559593D01*
X30060129Y-55559587D01*
X30060113Y-55559587D01*
X30058461Y-55559500D01*
X27509200Y-55559500D01*
X27461207Y-55564375D01*
X27364132Y-55574235D01*
X27364130Y-55574235D01*
X27357784Y-55574880D01*
X27163828Y-55635662D01*
X26986056Y-55734203D01*
X26981208Y-55738359D01*
X26981207Y-55738359D01*
X26975648Y-55743124D01*
X26831729Y-55866477D01*
X26827822Y-55871514D01*
X26827820Y-55871516D01*
X26773331Y-55941763D01*
X26707152Y-56027081D01*
X26617413Y-56209455D01*
X26615804Y-56215633D01*
X26615803Y-56215635D01*
X26570660Y-56388943D01*
X26566178Y-56406148D01*
X26564572Y-56436793D01*
X26556714Y-56586752D01*
X26555541Y-56609126D01*
X26585935Y-56810097D01*
X26656119Y-57000852D01*
X26659479Y-57006272D01*
X26659480Y-57006273D01*
X26759863Y-57168176D01*
X26759866Y-57168180D01*
X26763226Y-57173599D01*
X26767612Y-57178237D01*
X26854569Y-57270191D01*
X26902881Y-57321280D01*
X27069379Y-57437863D01*
X27255919Y-57518586D01*
X27386018Y-57545765D01*
X27416031Y-57552035D01*
X27478622Y-57585544D01*
X27513160Y-57647574D01*
X27508680Y-57718429D01*
X27466604Y-57775614D01*
X27401246Y-57800893D01*
X27337480Y-57806472D01*
X27326688Y-57808375D01*
X27116239Y-57864764D01*
X27105947Y-57868510D01*
X26908489Y-57960586D01*
X26898993Y-57966069D01*
X26720533Y-58091028D01*
X26712125Y-58098084D01*
X26558084Y-58252125D01*
X26551028Y-58260533D01*
X26426069Y-58438993D01*
X26420586Y-58448489D01*
X26328510Y-58645947D01*
X26324764Y-58656239D01*
X26278606Y-58828503D01*
X21800000Y-58828503D01*
X21800000Y-54069126D01*
X26555541Y-54069126D01*
X26585935Y-54270097D01*
X26656119Y-54460852D01*
X26659479Y-54466272D01*
X26659480Y-54466273D01*
X26759863Y-54628176D01*
X26759866Y-54628180D01*
X26763226Y-54633599D01*
X26767612Y-54638237D01*
X26871707Y-54748314D01*
X26902881Y-54781280D01*
X27069379Y-54897863D01*
X27255919Y-54978586D01*
X27285415Y-54984748D01*
X27450144Y-55019162D01*
X27450149Y-55019163D01*
X27454880Y-55020151D01*
X27459762Y-55020407D01*
X27459871Y-55020413D01*
X27459887Y-55020413D01*
X27461539Y-55020500D01*
X30010800Y-55020500D01*
X30058793Y-55015625D01*
X30155868Y-55005765D01*
X30155870Y-55005765D01*
X30162216Y-55005120D01*
X30356172Y-54944338D01*
X30533944Y-54845797D01*
X30688271Y-54713523D01*
X30712998Y-54681646D01*
X30808939Y-54557958D01*
X30812848Y-54552919D01*
X30902587Y-54370545D01*
X30908295Y-54348633D01*
X30952212Y-54180034D01*
X30952212Y-54180031D01*
X30953822Y-54173852D01*
X30964459Y-53970874D01*
X30934065Y-53769903D01*
X30863881Y-53579148D01*
X30810345Y-53492802D01*
X30760137Y-53411824D01*
X30760134Y-53411820D01*
X30756774Y-53406401D01*
X30617119Y-53258720D01*
X30450621Y-53142137D01*
X30264081Y-53061414D01*
X30218053Y-53051798D01*
X30069856Y-53020838D01*
X30069851Y-53020837D01*
X30065120Y-53019849D01*
X30060238Y-53019593D01*
X30060129Y-53019587D01*
X30060113Y-53019587D01*
X30058461Y-53019500D01*
X27509200Y-53019500D01*
X27461207Y-53024375D01*
X27364132Y-53034235D01*
X27364130Y-53034235D01*
X27357784Y-53034880D01*
X27163828Y-53095662D01*
X26986056Y-53194203D01*
X26831729Y-53326477D01*
X26707152Y-53487081D01*
X26617413Y-53669455D01*
X26615804Y-53675633D01*
X26615803Y-53675635D01*
X26589603Y-53776220D01*
X26566178Y-53866148D01*
X26565844Y-53872527D01*
X26556128Y-54057932D01*
X26555541Y-54069126D01*
X21800000Y-54069126D01*
X21800000Y-46666522D01*
X26277273Y-46666522D01*
X26324764Y-46843761D01*
X26328510Y-46854053D01*
X26420586Y-47051511D01*
X26426069Y-47061007D01*
X26551028Y-47239467D01*
X26558084Y-47247875D01*
X26712125Y-47401916D01*
X26720533Y-47408972D01*
X26898993Y-47533931D01*
X26908489Y-47539414D01*
X27105947Y-47631490D01*
X27116239Y-47635236D01*
X27326688Y-47691625D01*
X27337480Y-47693528D01*
X27402857Y-47699248D01*
X27468975Y-47725112D01*
X27510614Y-47782615D01*
X27514555Y-47853502D01*
X27479546Y-47915267D01*
X27416701Y-47948299D01*
X27404610Y-47950124D01*
X27389442Y-47951664D01*
X27364132Y-47954235D01*
X27364130Y-47954235D01*
X27357784Y-47954880D01*
X27163828Y-48015662D01*
X27158239Y-48018760D01*
X27134711Y-48031802D01*
X26986056Y-48114203D01*
X26831729Y-48246477D01*
X26827822Y-48251514D01*
X26827820Y-48251516D01*
X26803693Y-48282621D01*
X26707152Y-48407081D01*
X26617413Y-48589455D01*
X26615804Y-48595633D01*
X26615803Y-48595635D01*
X26589603Y-48696220D01*
X26566178Y-48786148D01*
X26555541Y-48989126D01*
X26585935Y-49190097D01*
X26656119Y-49380852D01*
X26659479Y-49386272D01*
X26659480Y-49386273D01*
X26759863Y-49548176D01*
X26759866Y-49548180D01*
X26763226Y-49553599D01*
X26902881Y-49701280D01*
X27069379Y-49817863D01*
X27255919Y-49898586D01*
X27278742Y-49903354D01*
X27450144Y-49939162D01*
X27450149Y-49939163D01*
X27454880Y-49940151D01*
X27459762Y-49940407D01*
X27459871Y-49940413D01*
X27459887Y-49940413D01*
X27461539Y-49940500D01*
X30010800Y-49940500D01*
X30162216Y-49925120D01*
X30165157Y-49924198D01*
X30234727Y-49929997D01*
X30291059Y-49973208D01*
X30315087Y-50040015D01*
X30299182Y-50109207D01*
X30278406Y-50136622D01*
X29972433Y-50442595D01*
X29910121Y-50476621D01*
X29883338Y-50479500D01*
X27509200Y-50479500D01*
X27461207Y-50484375D01*
X27364132Y-50494235D01*
X27364130Y-50494235D01*
X27357784Y-50494880D01*
X27163828Y-50555662D01*
X26986056Y-50654203D01*
X26831729Y-50786477D01*
X26707152Y-50947081D01*
X26617413Y-51129455D01*
X26615804Y-51135633D01*
X26615803Y-51135635D01*
X26589603Y-51236220D01*
X26566178Y-51326148D01*
X26555541Y-51529126D01*
X26585935Y-51730097D01*
X26656119Y-51920852D01*
X26659479Y-51926272D01*
X26659480Y-51926273D01*
X26759863Y-52088176D01*
X26759866Y-52088180D01*
X26763226Y-52093599D01*
X26902881Y-52241280D01*
X27069379Y-52357863D01*
X27255919Y-52438586D01*
X27301947Y-52448202D01*
X27450144Y-52479162D01*
X27450149Y-52479163D01*
X27454880Y-52480151D01*
X27459762Y-52480407D01*
X27459871Y-52480413D01*
X27459887Y-52480413D01*
X27461539Y-52480500D01*
X30010800Y-52480500D01*
X30058793Y-52475625D01*
X30155868Y-52465765D01*
X30155870Y-52465765D01*
X30162216Y-52465120D01*
X30356172Y-52404338D01*
X30533944Y-52305797D01*
X30688271Y-52173523D01*
X30812848Y-52012919D01*
X30902587Y-51830545D01*
X30928752Y-51730097D01*
X30952212Y-51640034D01*
X30952212Y-51640031D01*
X30953822Y-51633852D01*
X30959310Y-51529126D01*
X44335541Y-51529126D01*
X44365935Y-51730097D01*
X44436119Y-51920852D01*
X44439479Y-51926272D01*
X44439480Y-51926273D01*
X44539863Y-52088176D01*
X44539866Y-52088180D01*
X44543226Y-52093599D01*
X44682881Y-52241280D01*
X44849379Y-52357863D01*
X45035919Y-52438586D01*
X45081947Y-52448202D01*
X45230144Y-52479162D01*
X45230149Y-52479163D01*
X45234880Y-52480151D01*
X45239762Y-52480407D01*
X45239871Y-52480413D01*
X45239887Y-52480413D01*
X45241539Y-52480500D01*
X47790800Y-52480500D01*
X47838793Y-52475625D01*
X47935868Y-52465765D01*
X47935870Y-52465765D01*
X47942216Y-52465120D01*
X48136172Y-52404338D01*
X48313944Y-52305797D01*
X48468271Y-52173523D01*
X48592848Y-52012919D01*
X48682587Y-51830545D01*
X48708752Y-51730097D01*
X48732212Y-51640034D01*
X48732212Y-51640031D01*
X48733822Y-51633852D01*
X48744459Y-51430874D01*
X48714065Y-51229903D01*
X48643881Y-51039148D01*
X48590345Y-50952802D01*
X48540137Y-50871824D01*
X48540134Y-50871820D01*
X48536774Y-50866401D01*
X48397119Y-50718720D01*
X48230621Y-50602137D01*
X48044081Y-50521414D01*
X47998053Y-50511798D01*
X47849856Y-50480838D01*
X47849851Y-50480837D01*
X47845120Y-50479849D01*
X47840238Y-50479593D01*
X47840129Y-50479587D01*
X47840113Y-50479587D01*
X47838461Y-50479500D01*
X45289200Y-50479500D01*
X45241207Y-50484375D01*
X45144132Y-50494235D01*
X45144130Y-50494235D01*
X45137784Y-50494880D01*
X44943828Y-50555662D01*
X44766056Y-50654203D01*
X44611729Y-50786477D01*
X44487152Y-50947081D01*
X44397413Y-51129455D01*
X44395804Y-51135633D01*
X44395803Y-51135635D01*
X44369603Y-51236220D01*
X44346178Y-51326148D01*
X44335541Y-51529126D01*
X30959310Y-51529126D01*
X30964459Y-51430874D01*
X30934065Y-51229903D01*
X30863881Y-51039148D01*
X30810345Y-50952802D01*
X30760137Y-50871824D01*
X30760134Y-50871820D01*
X30756774Y-50866401D01*
X30666863Y-50771323D01*
X30634591Y-50708085D01*
X30641631Y-50637439D01*
X30669316Y-50595655D01*
X31275452Y-49989519D01*
X31277486Y-49987763D01*
X31282269Y-49985425D01*
X31315573Y-49949523D01*
X31318853Y-49946118D01*
X31332248Y-49932723D01*
X31334972Y-49928753D01*
X31337297Y-49926105D01*
X31350490Y-49911882D01*
X31358401Y-49903354D01*
X31362713Y-49892547D01*
X31365232Y-49888562D01*
X31371004Y-49877753D01*
X31372911Y-49873448D01*
X31379493Y-49863854D01*
X31385186Y-49839864D01*
X31390751Y-49822268D01*
X31396586Y-49807642D01*
X31399883Y-49799378D01*
X31400500Y-49793085D01*
X31400500Y-49790003D01*
X31400650Y-49786933D01*
X31400866Y-49786944D01*
X31402198Y-49775569D01*
X31402653Y-49766255D01*
X31405340Y-49754934D01*
X31401651Y-49727827D01*
X31400500Y-49710836D01*
X31400500Y-48288469D01*
X31420502Y-48220348D01*
X31449796Y-48188506D01*
X31462550Y-48178720D01*
X31528282Y-48128282D01*
X31624536Y-48002841D01*
X31685044Y-47856762D01*
X31705682Y-47700000D01*
X31685044Y-47543238D01*
X31624536Y-47397159D01*
X31528282Y-47271718D01*
X31402841Y-47175464D01*
X31256762Y-47114956D01*
X31248574Y-47113878D01*
X31240598Y-47111741D01*
X31241113Y-47109820D01*
X31186082Y-47085473D01*
X31146993Y-47026206D01*
X31146152Y-46955214D01*
X31153265Y-46936027D01*
X31191490Y-46854053D01*
X31195236Y-46843761D01*
X31241394Y-46671497D01*
X31241058Y-46657401D01*
X31233116Y-46654000D01*
X26292033Y-46654000D01*
X26278502Y-46657973D01*
X26277273Y-46666522D01*
X21800000Y-46666522D01*
X21800000Y-46128503D01*
X26278606Y-46128503D01*
X26278942Y-46142599D01*
X26286884Y-46146000D01*
X31227967Y-46146000D01*
X31241498Y-46142027D01*
X31242727Y-46133478D01*
X31195236Y-45956239D01*
X31191490Y-45945947D01*
X31099414Y-45748489D01*
X31093931Y-45738993D01*
X30968972Y-45560533D01*
X30961916Y-45552125D01*
X30807875Y-45398084D01*
X30799467Y-45391028D01*
X30621007Y-45266069D01*
X30611511Y-45260586D01*
X30414053Y-45168510D01*
X30403761Y-45164764D01*
X30193312Y-45108375D01*
X30182520Y-45106472D01*
X30117143Y-45100752D01*
X30051025Y-45074888D01*
X30009386Y-45017385D01*
X30005445Y-44946498D01*
X30040454Y-44884733D01*
X30103299Y-44851701D01*
X30115390Y-44849876D01*
X30130558Y-44848336D01*
X30155868Y-44845765D01*
X30155870Y-44845765D01*
X30162216Y-44845120D01*
X30356172Y-44784338D01*
X30533944Y-44685797D01*
X30688271Y-44553523D01*
X30812848Y-44392919D01*
X30902587Y-44210545D01*
X30928752Y-44110097D01*
X30952212Y-44020034D01*
X30952212Y-44020031D01*
X30953822Y-44013852D01*
X30964459Y-43810874D01*
X30934065Y-43609903D01*
X30863881Y-43419148D01*
X30810345Y-43332802D01*
X30760137Y-43251824D01*
X30760134Y-43251820D01*
X30756774Y-43246401D01*
X30617119Y-43098720D01*
X30450621Y-42982137D01*
X30264081Y-42901414D01*
X30218053Y-42891798D01*
X30069856Y-42860838D01*
X30069851Y-42860837D01*
X30065120Y-42859849D01*
X30060238Y-42859593D01*
X30060129Y-42859587D01*
X30060113Y-42859587D01*
X30058461Y-42859500D01*
X27509200Y-42859500D01*
X27461207Y-42864375D01*
X27364132Y-42874235D01*
X27364130Y-42874235D01*
X27357784Y-42874880D01*
X27163828Y-42935662D01*
X26986056Y-43034203D01*
X26831729Y-43166477D01*
X26707152Y-43327081D01*
X26617413Y-43509455D01*
X26615804Y-43515633D01*
X26615803Y-43515635D01*
X26589603Y-43616220D01*
X26566178Y-43706148D01*
X26555541Y-43909126D01*
X26585935Y-44110097D01*
X26656119Y-44300852D01*
X26659479Y-44306272D01*
X26659480Y-44306273D01*
X26759863Y-44468176D01*
X26759866Y-44468180D01*
X26763226Y-44473599D01*
X26902881Y-44621280D01*
X27069379Y-44737863D01*
X27255919Y-44818586D01*
X27386018Y-44845765D01*
X27416031Y-44852035D01*
X27478622Y-44885544D01*
X27513160Y-44947574D01*
X27508680Y-45018429D01*
X27466604Y-45075614D01*
X27401246Y-45100893D01*
X27337480Y-45106472D01*
X27326688Y-45108375D01*
X27116239Y-45164764D01*
X27105947Y-45168510D01*
X26908489Y-45260586D01*
X26898993Y-45266069D01*
X26720533Y-45391028D01*
X26712125Y-45398084D01*
X26558084Y-45552125D01*
X26551028Y-45560533D01*
X26426069Y-45738993D01*
X26420586Y-45748489D01*
X26328510Y-45945947D01*
X26324764Y-45956239D01*
X26278606Y-46128503D01*
X21800000Y-46128503D01*
X21800000Y-41369126D01*
X26555541Y-41369126D01*
X26585935Y-41570097D01*
X26656119Y-41760852D01*
X26659479Y-41766272D01*
X26659480Y-41766273D01*
X26759863Y-41928176D01*
X26759866Y-41928180D01*
X26763226Y-41933599D01*
X26902881Y-42081280D01*
X27069379Y-42197863D01*
X27255919Y-42278586D01*
X27301947Y-42288202D01*
X27450144Y-42319162D01*
X27450149Y-42319163D01*
X27454880Y-42320151D01*
X27459762Y-42320407D01*
X27459871Y-42320413D01*
X27459887Y-42320413D01*
X27461539Y-42320500D01*
X30010800Y-42320500D01*
X30058793Y-42315625D01*
X30155868Y-42305765D01*
X30155870Y-42305765D01*
X30162216Y-42305120D01*
X30356172Y-42244338D01*
X30533944Y-42145797D01*
X30688271Y-42013523D01*
X30812848Y-41852919D01*
X30902587Y-41670545D01*
X30928752Y-41570097D01*
X30952212Y-41480034D01*
X30952212Y-41480031D01*
X30953822Y-41473852D01*
X30964459Y-41270874D01*
X30934065Y-41069903D01*
X30863881Y-40879148D01*
X30810345Y-40792802D01*
X30760137Y-40711824D01*
X30760134Y-40711820D01*
X30756774Y-40706401D01*
X30617119Y-40558720D01*
X30450621Y-40442137D01*
X30264081Y-40361414D01*
X30218053Y-40351798D01*
X30069856Y-40320838D01*
X30069851Y-40320837D01*
X30065120Y-40319849D01*
X30060238Y-40319593D01*
X30060129Y-40319587D01*
X30060113Y-40319587D01*
X30058461Y-40319500D01*
X27509200Y-40319500D01*
X27461207Y-40324375D01*
X27364132Y-40334235D01*
X27364130Y-40334235D01*
X27357784Y-40334880D01*
X27163828Y-40395662D01*
X26986056Y-40494203D01*
X26831729Y-40626477D01*
X26707152Y-40787081D01*
X26617413Y-40969455D01*
X26615804Y-40975633D01*
X26615803Y-40975635D01*
X26589603Y-41076220D01*
X26566178Y-41166148D01*
X26555541Y-41369126D01*
X21800000Y-41369126D01*
X21800000Y-38829126D01*
X26555541Y-38829126D01*
X26585935Y-39030097D01*
X26656119Y-39220852D01*
X26659479Y-39226272D01*
X26659480Y-39226273D01*
X26759863Y-39388176D01*
X26759866Y-39388180D01*
X26763226Y-39393599D01*
X26902881Y-39541280D01*
X27069379Y-39657863D01*
X27255919Y-39738586D01*
X27301947Y-39748202D01*
X27450144Y-39779162D01*
X27450149Y-39779163D01*
X27454880Y-39780151D01*
X27459762Y-39780407D01*
X27459871Y-39780413D01*
X27459887Y-39780413D01*
X27461539Y-39780500D01*
X30010800Y-39780500D01*
X30058793Y-39775625D01*
X30155868Y-39765765D01*
X30155870Y-39765765D01*
X30162216Y-39765120D01*
X30356172Y-39704338D01*
X30533944Y-39605797D01*
X30688271Y-39473523D01*
X30812848Y-39312919D01*
X30902587Y-39130545D01*
X30928752Y-39030097D01*
X30952212Y-38940034D01*
X30952212Y-38940031D01*
X30953822Y-38933852D01*
X30964459Y-38730874D01*
X30934065Y-38529903D01*
X30863881Y-38339148D01*
X30824614Y-38275816D01*
X30820852Y-38269748D01*
X34849500Y-38269748D01*
X34861133Y-38328231D01*
X34905448Y-38394552D01*
X34971769Y-38438867D01*
X34983938Y-38441288D01*
X34983939Y-38441288D01*
X35024184Y-38449293D01*
X35030252Y-38450500D01*
X36769748Y-38450500D01*
X36775816Y-38449293D01*
X36816061Y-38441288D01*
X36816062Y-38441288D01*
X36828231Y-38438867D01*
X36894552Y-38394552D01*
X36938867Y-38328231D01*
X36950500Y-38269748D01*
X36950500Y-36530252D01*
X36949293Y-36524184D01*
X36941288Y-36483939D01*
X36941288Y-36483938D01*
X36938867Y-36471769D01*
X36894552Y-36405448D01*
X36828231Y-36361133D01*
X36816062Y-36358712D01*
X36816061Y-36358712D01*
X36775816Y-36350707D01*
X36769748Y-36349500D01*
X35030252Y-36349500D01*
X35024184Y-36350707D01*
X34983939Y-36358712D01*
X34983938Y-36358712D01*
X34971769Y-36361133D01*
X34905448Y-36405448D01*
X34861133Y-36471769D01*
X34858712Y-36483938D01*
X34858712Y-36483939D01*
X34850707Y-36524184D01*
X34849500Y-36530252D01*
X34849500Y-38269748D01*
X30820852Y-38269748D01*
X30760137Y-38171824D01*
X30760134Y-38171820D01*
X30756774Y-38166401D01*
X30617119Y-38018720D01*
X30450621Y-37902137D01*
X30264081Y-37821414D01*
X30218053Y-37811798D01*
X30069856Y-37780838D01*
X30069851Y-37780837D01*
X30065120Y-37779849D01*
X30060238Y-37779593D01*
X30060129Y-37779587D01*
X30060113Y-37779587D01*
X30058461Y-37779500D01*
X27509200Y-37779500D01*
X27461207Y-37784375D01*
X27364132Y-37794235D01*
X27364130Y-37794235D01*
X27357784Y-37794880D01*
X27163828Y-37855662D01*
X26986056Y-37954203D01*
X26831729Y-38086477D01*
X26707152Y-38247081D01*
X26617413Y-38429455D01*
X26615804Y-38435633D01*
X26615803Y-38435635D01*
X26589603Y-38536220D01*
X26566178Y-38626148D01*
X26555541Y-38829126D01*
X21800000Y-38829126D01*
X21800000Y-33966522D01*
X26277273Y-33966522D01*
X26324764Y-34143761D01*
X26328510Y-34154053D01*
X26420586Y-34351511D01*
X26426069Y-34361007D01*
X26551028Y-34539467D01*
X26558084Y-34547875D01*
X26712125Y-34701916D01*
X26720533Y-34708972D01*
X26898993Y-34833931D01*
X26908489Y-34839414D01*
X27105947Y-34931490D01*
X27116239Y-34935236D01*
X27326688Y-34991625D01*
X27337480Y-34993528D01*
X27402857Y-34999248D01*
X27468975Y-35025112D01*
X27510614Y-35082615D01*
X27514555Y-35153502D01*
X27479546Y-35215267D01*
X27416701Y-35248299D01*
X27404610Y-35250124D01*
X27389442Y-35251664D01*
X27364132Y-35254235D01*
X27364130Y-35254235D01*
X27357784Y-35254880D01*
X27163828Y-35315662D01*
X26986056Y-35414203D01*
X26831729Y-35546477D01*
X26707152Y-35707081D01*
X26617413Y-35889455D01*
X26615804Y-35895633D01*
X26615803Y-35895635D01*
X26589603Y-35996220D01*
X26566178Y-36086148D01*
X26555541Y-36289126D01*
X26585935Y-36490097D01*
X26656119Y-36680852D01*
X26659479Y-36686272D01*
X26659480Y-36686273D01*
X26759863Y-36848176D01*
X26759866Y-36848180D01*
X26763226Y-36853599D01*
X26902881Y-37001280D01*
X27069379Y-37117863D01*
X27255919Y-37198586D01*
X27301947Y-37208202D01*
X27450144Y-37239162D01*
X27450149Y-37239163D01*
X27454880Y-37240151D01*
X27459762Y-37240407D01*
X27459871Y-37240413D01*
X27459887Y-37240413D01*
X27461539Y-37240500D01*
X30010800Y-37240500D01*
X30058793Y-37235625D01*
X30155868Y-37225765D01*
X30155870Y-37225765D01*
X30162216Y-37225120D01*
X30356172Y-37164338D01*
X30533944Y-37065797D01*
X30688271Y-36933523D01*
X30812848Y-36772919D01*
X30902587Y-36590545D01*
X30930356Y-36483939D01*
X30952212Y-36400034D01*
X30952212Y-36400031D01*
X30953822Y-36393852D01*
X30959645Y-36282744D01*
X30964125Y-36197256D01*
X30964125Y-36197252D01*
X30964459Y-36190874D01*
X30934065Y-35989903D01*
X30863881Y-35799148D01*
X30831839Y-35747469D01*
X30760137Y-35631824D01*
X30760134Y-35631820D01*
X30756774Y-35626401D01*
X30677267Y-35542325D01*
X30621508Y-35483361D01*
X30621507Y-35483360D01*
X30617119Y-35478720D01*
X30450621Y-35362137D01*
X30264081Y-35281414D01*
X30103969Y-35247965D01*
X30041378Y-35214456D01*
X30006840Y-35152426D01*
X30011320Y-35081571D01*
X30053396Y-35024386D01*
X30118754Y-34999107D01*
X30182520Y-34993528D01*
X30193312Y-34991625D01*
X30403761Y-34935236D01*
X30414053Y-34931490D01*
X30611511Y-34839414D01*
X30621007Y-34833931D01*
X30799467Y-34708972D01*
X30807875Y-34701916D01*
X30961916Y-34547875D01*
X30968972Y-34539467D01*
X31093931Y-34361007D01*
X31099414Y-34351511D01*
X31191490Y-34154053D01*
X31195236Y-34143761D01*
X31241394Y-33971497D01*
X31241058Y-33957401D01*
X31233116Y-33954000D01*
X26292033Y-33954000D01*
X26278502Y-33957973D01*
X26277273Y-33966522D01*
X21800000Y-33966522D01*
X21800000Y-33428503D01*
X26278606Y-33428503D01*
X26278942Y-33442599D01*
X26286884Y-33446000D01*
X31227967Y-33446000D01*
X31241498Y-33442027D01*
X31242727Y-33433478D01*
X31195236Y-33256239D01*
X31191490Y-33245947D01*
X31099414Y-33048489D01*
X31093931Y-33038993D01*
X30968972Y-32860533D01*
X30961916Y-32852125D01*
X30807875Y-32698084D01*
X30799467Y-32691028D01*
X30652279Y-32587966D01*
X34568257Y-32587966D01*
X34598565Y-32722446D01*
X34601645Y-32732275D01*
X34681770Y-32929603D01*
X34686413Y-32938794D01*
X34797694Y-33120388D01*
X34803777Y-33128699D01*
X34943213Y-33289667D01*
X34950580Y-33296883D01*
X35114434Y-33432916D01*
X35122881Y-33438831D01*
X35306756Y-33546279D01*
X35316042Y-33550729D01*
X35515001Y-33626703D01*
X35529866Y-33631022D01*
X35529289Y-33633008D01*
X35584260Y-33662082D01*
X35619110Y-33723936D01*
X35614988Y-33794813D01*
X35573201Y-33852209D01*
X35531930Y-33873228D01*
X35510489Y-33879538D01*
X35510484Y-33879540D01*
X35504572Y-33881280D01*
X35322002Y-33976726D01*
X35317201Y-33980586D01*
X35317198Y-33980588D01*
X35306971Y-33988811D01*
X35161447Y-34105815D01*
X35029024Y-34263630D01*
X35026056Y-34269028D01*
X35026053Y-34269033D01*
X34932743Y-34438765D01*
X34929776Y-34444162D01*
X34867484Y-34640532D01*
X34866798Y-34646649D01*
X34866797Y-34646653D01*
X34859807Y-34708972D01*
X34844520Y-34845262D01*
X34845036Y-34851406D01*
X34859623Y-35025112D01*
X34861759Y-35050553D01*
X34863458Y-35056478D01*
X34916039Y-35239849D01*
X34918544Y-35248586D01*
X34921359Y-35254063D01*
X34921360Y-35254066D01*
X35003659Y-35414203D01*
X35012712Y-35431818D01*
X35140677Y-35593270D01*
X35145370Y-35597264D01*
X35145371Y-35597265D01*
X35246768Y-35683560D01*
X35297564Y-35726791D01*
X35477398Y-35827297D01*
X35572238Y-35858113D01*
X35667471Y-35889056D01*
X35667475Y-35889057D01*
X35673329Y-35890959D01*
X35877894Y-35915351D01*
X35884029Y-35914879D01*
X35884031Y-35914879D01*
X35940039Y-35910569D01*
X36083300Y-35899546D01*
X36089230Y-35897890D01*
X36089232Y-35897890D01*
X36264028Y-35849086D01*
X36281725Y-35844145D01*
X36287214Y-35841372D01*
X36287220Y-35841370D01*
X36460116Y-35754033D01*
X36465610Y-35751258D01*
X36627951Y-35624424D01*
X36695233Y-35546477D01*
X36758540Y-35473134D01*
X36758540Y-35473133D01*
X36762564Y-35468472D01*
X36783387Y-35431818D01*
X36861276Y-35294707D01*
X36864323Y-35289344D01*
X36929351Y-35093863D01*
X36955171Y-34889474D01*
X36955583Y-34860000D01*
X36935480Y-34654970D01*
X36875935Y-34457749D01*
X36779218Y-34275849D01*
X36705859Y-34185902D01*
X36652906Y-34120975D01*
X36652903Y-34120972D01*
X36649011Y-34116200D01*
X36631786Y-34101950D01*
X36495025Y-33988811D01*
X36495021Y-33988809D01*
X36490275Y-33984882D01*
X36309055Y-33886897D01*
X36258183Y-33871150D01*
X36199025Y-33831899D01*
X36170477Y-33766895D01*
X36181605Y-33696776D01*
X36228876Y-33643804D01*
X36259235Y-33630099D01*
X36392255Y-33590191D01*
X36401842Y-33586433D01*
X36593095Y-33492739D01*
X36601945Y-33487464D01*
X36775328Y-33363792D01*
X36783200Y-33357139D01*
X36934052Y-33206812D01*
X36940730Y-33198965D01*
X37065003Y-33026020D01*
X37070313Y-33017183D01*
X37164670Y-32826267D01*
X37168469Y-32816672D01*
X37230377Y-32612910D01*
X37232555Y-32602837D01*
X37233986Y-32591962D01*
X37231775Y-32577778D01*
X37218617Y-32574000D01*
X34583225Y-32574000D01*
X34569694Y-32577973D01*
X34568257Y-32587966D01*
X30652279Y-32587966D01*
X30621007Y-32566069D01*
X30611511Y-32560586D01*
X30414053Y-32468510D01*
X30403761Y-32464764D01*
X30193312Y-32408375D01*
X30182520Y-32406472D01*
X30117143Y-32400752D01*
X30051025Y-32374888D01*
X30009386Y-32317385D01*
X30005445Y-32246498D01*
X30040454Y-32184733D01*
X30103299Y-32151701D01*
X30115390Y-32149876D01*
X30130558Y-32148336D01*
X30155868Y-32145765D01*
X30155870Y-32145765D01*
X30162216Y-32145120D01*
X30356172Y-32084338D01*
X30410573Y-32054183D01*
X34564389Y-32054183D01*
X34565912Y-32062607D01*
X34578292Y-32066000D01*
X37218344Y-32066000D01*
X37231875Y-32062027D01*
X37233002Y-32054183D01*
X38264389Y-32054183D01*
X38265912Y-32062607D01*
X38278292Y-32066000D01*
X39728000Y-32066000D01*
X39796121Y-32086002D01*
X39842614Y-32139658D01*
X39854000Y-32192000D01*
X39854000Y-32448000D01*
X39833998Y-32516121D01*
X39780342Y-32562614D01*
X39728000Y-32574000D01*
X38283225Y-32574000D01*
X38269694Y-32577973D01*
X38268257Y-32587966D01*
X38298565Y-32722446D01*
X38301645Y-32732275D01*
X38381770Y-32929603D01*
X38386413Y-32938794D01*
X38497694Y-33120388D01*
X38503777Y-33128699D01*
X38643213Y-33289667D01*
X38650580Y-33296883D01*
X38814434Y-33432916D01*
X38822881Y-33438831D01*
X39006756Y-33546279D01*
X39016042Y-33550729D01*
X39215001Y-33626703D01*
X39229866Y-33631022D01*
X39229289Y-33633008D01*
X39284260Y-33662082D01*
X39319110Y-33723936D01*
X39314988Y-33794813D01*
X39273201Y-33852209D01*
X39231930Y-33873228D01*
X39210489Y-33879538D01*
X39210484Y-33879540D01*
X39204572Y-33881280D01*
X39022002Y-33976726D01*
X39017201Y-33980586D01*
X39017198Y-33980588D01*
X39006971Y-33988811D01*
X38861447Y-34105815D01*
X38729024Y-34263630D01*
X38726056Y-34269028D01*
X38726053Y-34269033D01*
X38632743Y-34438765D01*
X38629776Y-34444162D01*
X38567484Y-34640532D01*
X38566798Y-34646649D01*
X38566797Y-34646653D01*
X38559807Y-34708972D01*
X38544520Y-34845262D01*
X38545036Y-34851406D01*
X38559623Y-35025112D01*
X38561759Y-35050553D01*
X38563458Y-35056478D01*
X38616039Y-35239849D01*
X38618544Y-35248586D01*
X38621359Y-35254063D01*
X38621360Y-35254066D01*
X38703659Y-35414203D01*
X38712712Y-35431818D01*
X38840677Y-35593270D01*
X38845370Y-35597264D01*
X38845371Y-35597265D01*
X38946768Y-35683560D01*
X38997564Y-35726791D01*
X39177398Y-35827297D01*
X39272238Y-35858113D01*
X39367471Y-35889056D01*
X39367475Y-35889057D01*
X39373329Y-35890959D01*
X39577894Y-35915351D01*
X39584029Y-35914879D01*
X39584031Y-35914879D01*
X39640039Y-35910569D01*
X39783300Y-35899546D01*
X39789230Y-35897890D01*
X39789232Y-35897890D01*
X39964028Y-35849086D01*
X39981725Y-35844145D01*
X40018211Y-35825715D01*
X40088031Y-35812855D01*
X40153722Y-35839784D01*
X40164115Y-35849086D01*
X40412106Y-36097077D01*
X40446132Y-36159389D01*
X40449011Y-36186172D01*
X40449011Y-36223500D01*
X40429009Y-36291621D01*
X40375353Y-36338114D01*
X40323011Y-36349500D01*
X38730252Y-36349500D01*
X38724184Y-36350707D01*
X38683939Y-36358712D01*
X38683938Y-36358712D01*
X38671769Y-36361133D01*
X38605448Y-36405448D01*
X38561133Y-36471769D01*
X38558712Y-36483938D01*
X38558712Y-36483939D01*
X38550707Y-36524184D01*
X38549500Y-36530252D01*
X38549500Y-38269748D01*
X38561133Y-38328231D01*
X38605448Y-38394552D01*
X38671769Y-38438867D01*
X38683938Y-38441288D01*
X38683939Y-38441288D01*
X38724184Y-38449293D01*
X38730252Y-38450500D01*
X40323011Y-38450500D01*
X40391132Y-38470502D01*
X40437625Y-38524158D01*
X40449011Y-38576500D01*
X40449011Y-47997145D01*
X40448815Y-47999818D01*
X40447086Y-48004853D01*
X40447522Y-48016475D01*
X40447522Y-48016477D01*
X40448922Y-48053766D01*
X40449011Y-48058492D01*
X40449011Y-48077459D01*
X40449893Y-48082194D01*
X40450121Y-48085720D01*
X40451285Y-48116719D01*
X40455875Y-48127404D01*
X40456912Y-48132004D01*
X40460473Y-48143725D01*
X40462172Y-48148128D01*
X40464302Y-48159564D01*
X40470406Y-48169466D01*
X40477238Y-48180550D01*
X40485742Y-48196922D01*
X40491962Y-48211399D01*
X40491964Y-48211403D01*
X40495475Y-48219574D01*
X40499489Y-48224460D01*
X40501674Y-48226645D01*
X40503726Y-48228908D01*
X40503566Y-48229053D01*
X40510686Y-48238060D01*
X40516938Y-48244955D01*
X40523043Y-48254859D01*
X40544831Y-48271427D01*
X40557650Y-48282621D01*
X40820587Y-48545558D01*
X40822343Y-48547592D01*
X40824681Y-48552375D01*
X40833210Y-48560287D01*
X40833211Y-48560288D01*
X40860583Y-48585679D01*
X40863988Y-48588959D01*
X41390481Y-49115452D01*
X41392237Y-49117486D01*
X41394575Y-49122269D01*
X41403104Y-49130181D01*
X41403105Y-49130182D01*
X41430477Y-49155573D01*
X41433882Y-49158853D01*
X41447277Y-49172248D01*
X41451247Y-49174972D01*
X41453895Y-49177297D01*
X41476646Y-49198401D01*
X41487453Y-49202713D01*
X41491438Y-49205232D01*
X41502247Y-49211004D01*
X41506552Y-49212911D01*
X41516146Y-49219493D01*
X41540099Y-49225177D01*
X41540136Y-49225186D01*
X41557732Y-49230751D01*
X41580622Y-49239883D01*
X41586915Y-49240500D01*
X41589997Y-49240500D01*
X41593067Y-49240650D01*
X41593056Y-49240866D01*
X41604431Y-49242198D01*
X41613745Y-49242653D01*
X41625066Y-49245340D01*
X41636595Y-49243771D01*
X41636596Y-49243771D01*
X41652173Y-49241651D01*
X41669164Y-49240500D01*
X44296581Y-49240500D01*
X44364702Y-49260502D01*
X44411195Y-49314158D01*
X44414830Y-49322989D01*
X44436119Y-49380852D01*
X44439479Y-49386272D01*
X44439480Y-49386273D01*
X44539863Y-49548176D01*
X44539866Y-49548180D01*
X44543226Y-49553599D01*
X44682881Y-49701280D01*
X44849379Y-49817863D01*
X45035919Y-49898586D01*
X45058742Y-49903354D01*
X45230144Y-49939162D01*
X45230149Y-49939163D01*
X45234880Y-49940151D01*
X45239762Y-49940407D01*
X45239871Y-49940413D01*
X45239887Y-49940413D01*
X45241539Y-49940500D01*
X47790800Y-49940500D01*
X47867365Y-49932723D01*
X47935868Y-49925765D01*
X47935870Y-49925765D01*
X47942216Y-49925120D01*
X48136172Y-49864338D01*
X48313944Y-49765797D01*
X48468271Y-49633523D01*
X48482230Y-49615528D01*
X48588939Y-49477958D01*
X48592848Y-49472919D01*
X48682587Y-49290545D01*
X48695323Y-49241651D01*
X48732212Y-49100034D01*
X48732212Y-49100031D01*
X48733822Y-49093852D01*
X48744459Y-48890874D01*
X48714065Y-48689903D01*
X48643881Y-48499148D01*
X48629434Y-48475847D01*
X48540137Y-48331824D01*
X48540134Y-48331820D01*
X48536774Y-48326401D01*
X48457267Y-48242325D01*
X48401508Y-48183361D01*
X48401507Y-48183360D01*
X48397119Y-48178720D01*
X48230621Y-48062137D01*
X48044081Y-47981414D01*
X47883969Y-47947965D01*
X47821378Y-47914456D01*
X47786840Y-47852426D01*
X47791320Y-47781571D01*
X47833396Y-47724386D01*
X47898754Y-47699107D01*
X47962520Y-47693528D01*
X47973312Y-47691625D01*
X48183761Y-47635236D01*
X48194053Y-47631490D01*
X48391511Y-47539414D01*
X48401007Y-47533931D01*
X48579467Y-47408972D01*
X48587875Y-47401916D01*
X48741916Y-47247875D01*
X48748972Y-47239467D01*
X48873931Y-47061007D01*
X48879414Y-47051511D01*
X48971490Y-46854053D01*
X48975236Y-46843761D01*
X49021394Y-46671497D01*
X49021058Y-46657401D01*
X49013116Y-46654000D01*
X44072033Y-46654000D01*
X44058502Y-46657973D01*
X44057273Y-46666522D01*
X44104764Y-46843761D01*
X44108510Y-46854053D01*
X44200586Y-47051511D01*
X44206069Y-47061007D01*
X44331028Y-47239467D01*
X44338084Y-47247875D01*
X44492125Y-47401916D01*
X44500533Y-47408972D01*
X44678993Y-47533931D01*
X44688489Y-47539414D01*
X44885947Y-47631490D01*
X44896239Y-47635236D01*
X45106688Y-47691625D01*
X45117480Y-47693528D01*
X45182857Y-47699248D01*
X45248975Y-47725112D01*
X45290614Y-47782615D01*
X45294555Y-47853502D01*
X45259546Y-47915267D01*
X45196701Y-47948299D01*
X45184610Y-47950124D01*
X45169442Y-47951664D01*
X45144132Y-47954235D01*
X45144130Y-47954235D01*
X45137784Y-47954880D01*
X44943828Y-48015662D01*
X44938239Y-48018760D01*
X44842822Y-48071651D01*
X44766056Y-48114203D01*
X44763145Y-48116698D01*
X44696663Y-48138862D01*
X44627862Y-48121339D01*
X44579458Y-48069401D01*
X44575693Y-48061163D01*
X44524536Y-47937659D01*
X44428282Y-47812218D01*
X44302841Y-47715964D01*
X44156762Y-47655456D01*
X44000000Y-47634818D01*
X43843238Y-47655456D01*
X43697159Y-47715964D01*
X43571718Y-47812218D01*
X43527879Y-47869351D01*
X43511494Y-47890704D01*
X43454156Y-47932571D01*
X43411531Y-47940000D01*
X42966192Y-47940000D01*
X42898071Y-47919998D01*
X42877097Y-47903095D01*
X41486436Y-46512434D01*
X41452410Y-46450122D01*
X41449531Y-46423339D01*
X41449531Y-46128503D01*
X44058606Y-46128503D01*
X44058942Y-46142599D01*
X44066884Y-46146000D01*
X49007967Y-46146000D01*
X49021498Y-46142027D01*
X49022727Y-46133478D01*
X48975236Y-45956239D01*
X48971490Y-45945947D01*
X48879414Y-45748489D01*
X48873931Y-45738993D01*
X48748972Y-45560533D01*
X48741916Y-45552125D01*
X48587875Y-45398084D01*
X48579467Y-45391028D01*
X48401007Y-45266069D01*
X48391511Y-45260586D01*
X48194053Y-45168510D01*
X48183761Y-45164764D01*
X47973312Y-45108375D01*
X47962520Y-45106472D01*
X47897143Y-45100752D01*
X47831025Y-45074888D01*
X47789386Y-45017385D01*
X47785445Y-44946498D01*
X47820454Y-44884733D01*
X47883299Y-44851701D01*
X47895390Y-44849876D01*
X47910558Y-44848336D01*
X47935868Y-44845765D01*
X47935870Y-44845765D01*
X47942216Y-44845120D01*
X48136172Y-44784338D01*
X48313944Y-44685797D01*
X48468271Y-44553523D01*
X48592848Y-44392919D01*
X48682587Y-44210545D01*
X48708752Y-44110097D01*
X48732212Y-44020034D01*
X48732212Y-44020031D01*
X48733822Y-44013852D01*
X48744459Y-43810874D01*
X48714065Y-43609903D01*
X48643881Y-43419148D01*
X48590345Y-43332802D01*
X48540137Y-43251824D01*
X48540134Y-43251820D01*
X48536774Y-43246401D01*
X48397119Y-43098720D01*
X48230621Y-42982137D01*
X48044081Y-42901414D01*
X47998053Y-42891798D01*
X47849856Y-42860838D01*
X47849851Y-42860837D01*
X47845120Y-42859849D01*
X47840238Y-42859593D01*
X47840129Y-42859587D01*
X47840113Y-42859587D01*
X47838461Y-42859500D01*
X45289200Y-42859500D01*
X45241207Y-42864375D01*
X45144132Y-42874235D01*
X45144130Y-42874235D01*
X45137784Y-42874880D01*
X44943828Y-42935662D01*
X44766056Y-43034203D01*
X44611729Y-43166477D01*
X44487152Y-43327081D01*
X44397413Y-43509455D01*
X44395804Y-43515633D01*
X44395803Y-43515635D01*
X44369603Y-43616220D01*
X44346178Y-43706148D01*
X44335541Y-43909126D01*
X44365935Y-44110097D01*
X44436119Y-44300852D01*
X44439479Y-44306272D01*
X44439480Y-44306273D01*
X44539863Y-44468176D01*
X44539866Y-44468180D01*
X44543226Y-44473599D01*
X44682881Y-44621280D01*
X44849379Y-44737863D01*
X45035919Y-44818586D01*
X45166018Y-44845765D01*
X45196031Y-44852035D01*
X45258622Y-44885544D01*
X45293160Y-44947574D01*
X45288680Y-45018429D01*
X45246604Y-45075614D01*
X45181246Y-45100893D01*
X45117480Y-45106472D01*
X45106688Y-45108375D01*
X44896239Y-45164764D01*
X44885947Y-45168510D01*
X44688489Y-45260586D01*
X44678993Y-45266069D01*
X44500533Y-45391028D01*
X44492125Y-45398084D01*
X44338084Y-45552125D01*
X44331028Y-45560533D01*
X44206069Y-45738993D01*
X44200586Y-45748489D01*
X44108510Y-45945947D01*
X44104764Y-45956239D01*
X44058606Y-46128503D01*
X41449531Y-46128503D01*
X41449531Y-41369126D01*
X44335541Y-41369126D01*
X44365935Y-41570097D01*
X44436119Y-41760852D01*
X44439479Y-41766272D01*
X44439480Y-41766273D01*
X44539863Y-41928176D01*
X44539866Y-41928180D01*
X44543226Y-41933599D01*
X44682881Y-42081280D01*
X44849379Y-42197863D01*
X45035919Y-42278586D01*
X45081947Y-42288202D01*
X45230144Y-42319162D01*
X45230149Y-42319163D01*
X45234880Y-42320151D01*
X45239762Y-42320407D01*
X45239871Y-42320413D01*
X45239887Y-42320413D01*
X45241539Y-42320500D01*
X47790800Y-42320500D01*
X47838793Y-42315625D01*
X47935868Y-42305765D01*
X47935870Y-42305765D01*
X47942216Y-42305120D01*
X48136172Y-42244338D01*
X48313944Y-42145797D01*
X48468271Y-42013523D01*
X48592848Y-41852919D01*
X48682587Y-41670545D01*
X48708752Y-41570097D01*
X48732212Y-41480034D01*
X48732212Y-41480031D01*
X48733822Y-41473852D01*
X48744459Y-41270874D01*
X48714065Y-41069903D01*
X48643881Y-40879148D01*
X48590345Y-40792802D01*
X48540137Y-40711824D01*
X48540134Y-40711820D01*
X48536774Y-40706401D01*
X48397119Y-40558720D01*
X48230621Y-40442137D01*
X48044081Y-40361414D01*
X47998053Y-40351798D01*
X47849856Y-40320838D01*
X47849851Y-40320837D01*
X47845120Y-40319849D01*
X47840238Y-40319593D01*
X47840129Y-40319587D01*
X47840113Y-40319587D01*
X47838461Y-40319500D01*
X45289200Y-40319500D01*
X45241207Y-40324375D01*
X45144132Y-40334235D01*
X45144130Y-40334235D01*
X45137784Y-40334880D01*
X44943828Y-40395662D01*
X44766056Y-40494203D01*
X44611729Y-40626477D01*
X44487152Y-40787081D01*
X44397413Y-40969455D01*
X44395804Y-40975633D01*
X44395803Y-40975635D01*
X44369603Y-41076220D01*
X44346178Y-41166148D01*
X44335541Y-41369126D01*
X41449531Y-41369126D01*
X41449531Y-38829126D01*
X44335541Y-38829126D01*
X44365935Y-39030097D01*
X44436119Y-39220852D01*
X44439479Y-39226272D01*
X44439480Y-39226273D01*
X44539863Y-39388176D01*
X44539866Y-39388180D01*
X44543226Y-39393599D01*
X44682881Y-39541280D01*
X44849379Y-39657863D01*
X45035919Y-39738586D01*
X45081947Y-39748202D01*
X45230144Y-39779162D01*
X45230149Y-39779163D01*
X45234880Y-39780151D01*
X45239762Y-39780407D01*
X45239871Y-39780413D01*
X45239887Y-39780413D01*
X45241539Y-39780500D01*
X47790800Y-39780500D01*
X47838793Y-39775625D01*
X47935868Y-39765765D01*
X47935870Y-39765765D01*
X47942216Y-39765120D01*
X48136172Y-39704338D01*
X48313944Y-39605797D01*
X48468271Y-39473523D01*
X48592848Y-39312919D01*
X48682587Y-39130545D01*
X48708752Y-39030097D01*
X48732212Y-38940034D01*
X48732212Y-38940031D01*
X48733822Y-38933852D01*
X48744459Y-38730874D01*
X48714065Y-38529903D01*
X48643881Y-38339148D01*
X48604614Y-38275816D01*
X48540137Y-38171824D01*
X48540134Y-38171820D01*
X48536774Y-38166401D01*
X48397119Y-38018720D01*
X48230621Y-37902137D01*
X48044081Y-37821414D01*
X47998053Y-37811798D01*
X47849856Y-37780838D01*
X47849851Y-37780837D01*
X47845120Y-37779849D01*
X47840238Y-37779593D01*
X47840129Y-37779587D01*
X47840113Y-37779587D01*
X47838461Y-37779500D01*
X45289200Y-37779500D01*
X45241207Y-37784375D01*
X45144132Y-37794235D01*
X45144130Y-37794235D01*
X45137784Y-37794880D01*
X44943828Y-37855662D01*
X44766056Y-37954203D01*
X44611729Y-38086477D01*
X44487152Y-38247081D01*
X44397413Y-38429455D01*
X44395804Y-38435633D01*
X44395803Y-38435635D01*
X44369603Y-38536220D01*
X44346178Y-38626148D01*
X44335541Y-38829126D01*
X41449531Y-38829126D01*
X41449531Y-33966522D01*
X44057273Y-33966522D01*
X44104764Y-34143761D01*
X44108510Y-34154053D01*
X44200586Y-34351511D01*
X44206069Y-34361007D01*
X44331028Y-34539467D01*
X44338084Y-34547875D01*
X44492125Y-34701916D01*
X44500533Y-34708972D01*
X44678993Y-34833931D01*
X44688489Y-34839414D01*
X44885947Y-34931490D01*
X44896239Y-34935236D01*
X45106688Y-34991625D01*
X45117480Y-34993528D01*
X45182857Y-34999248D01*
X45248975Y-35025112D01*
X45290614Y-35082615D01*
X45294555Y-35153502D01*
X45259546Y-35215267D01*
X45196701Y-35248299D01*
X45184610Y-35250124D01*
X45169442Y-35251664D01*
X45144132Y-35254235D01*
X45144130Y-35254235D01*
X45137784Y-35254880D01*
X44943828Y-35315662D01*
X44766056Y-35414203D01*
X44611729Y-35546477D01*
X44487152Y-35707081D01*
X44397413Y-35889455D01*
X44395804Y-35895633D01*
X44395803Y-35895635D01*
X44369603Y-35996220D01*
X44346178Y-36086148D01*
X44335541Y-36289126D01*
X44365935Y-36490097D01*
X44436119Y-36680852D01*
X44439479Y-36686272D01*
X44439480Y-36686273D01*
X44539863Y-36848176D01*
X44539866Y-36848180D01*
X44543226Y-36853599D01*
X44682881Y-37001280D01*
X44849379Y-37117863D01*
X45035919Y-37198586D01*
X45081947Y-37208202D01*
X45230144Y-37239162D01*
X45230149Y-37239163D01*
X45234880Y-37240151D01*
X45239762Y-37240407D01*
X45239871Y-37240413D01*
X45239887Y-37240413D01*
X45241539Y-37240500D01*
X47790800Y-37240500D01*
X47838793Y-37235625D01*
X47935868Y-37225765D01*
X47935870Y-37225765D01*
X47942216Y-37225120D01*
X48136172Y-37164338D01*
X48313944Y-37065797D01*
X48468271Y-36933523D01*
X48592848Y-36772919D01*
X48682587Y-36590545D01*
X48710356Y-36483939D01*
X48732212Y-36400034D01*
X48732212Y-36400031D01*
X48733822Y-36393852D01*
X48739645Y-36282744D01*
X48744125Y-36197256D01*
X48744125Y-36197252D01*
X48744459Y-36190874D01*
X48714065Y-35989903D01*
X48643881Y-35799148D01*
X48611839Y-35747469D01*
X48540137Y-35631824D01*
X48540134Y-35631820D01*
X48536774Y-35626401D01*
X48457267Y-35542325D01*
X48401508Y-35483361D01*
X48401507Y-35483360D01*
X48397119Y-35478720D01*
X48230621Y-35362137D01*
X48044081Y-35281414D01*
X47883969Y-35247965D01*
X47821378Y-35214456D01*
X47786840Y-35152426D01*
X47791320Y-35081571D01*
X47833396Y-35024386D01*
X47898754Y-34999107D01*
X47962520Y-34993528D01*
X47973312Y-34991625D01*
X48183761Y-34935236D01*
X48194053Y-34931490D01*
X48391511Y-34839414D01*
X48401007Y-34833931D01*
X48579467Y-34708972D01*
X48587875Y-34701916D01*
X48741916Y-34547875D01*
X48748972Y-34539467D01*
X48873931Y-34361007D01*
X48879414Y-34351511D01*
X48971490Y-34154053D01*
X48975236Y-34143761D01*
X49021394Y-33971497D01*
X49021058Y-33957401D01*
X49013116Y-33954000D01*
X44072033Y-33954000D01*
X44058502Y-33957973D01*
X44057273Y-33966522D01*
X41449531Y-33966522D01*
X41449531Y-33428503D01*
X44058606Y-33428503D01*
X44058942Y-33442599D01*
X44066884Y-33446000D01*
X49007967Y-33446000D01*
X49021498Y-33442027D01*
X49022727Y-33433478D01*
X48975236Y-33256239D01*
X48971490Y-33245947D01*
X48879414Y-33048489D01*
X48873931Y-33038993D01*
X48748972Y-32860533D01*
X48741916Y-32852125D01*
X48587875Y-32698084D01*
X48579467Y-32691028D01*
X48401007Y-32566069D01*
X48391511Y-32560586D01*
X48194053Y-32468510D01*
X48183761Y-32464764D01*
X47973312Y-32408375D01*
X47962520Y-32406472D01*
X47897143Y-32400752D01*
X47831025Y-32374888D01*
X47789386Y-32317385D01*
X47785445Y-32246498D01*
X47820454Y-32184733D01*
X47883299Y-32151701D01*
X47895390Y-32149876D01*
X47910558Y-32148336D01*
X47935868Y-32145765D01*
X47935870Y-32145765D01*
X47942216Y-32145120D01*
X48136172Y-32084338D01*
X48313944Y-31985797D01*
X48468271Y-31853523D01*
X48475051Y-31844783D01*
X48588939Y-31697958D01*
X48592848Y-31692919D01*
X48682587Y-31510545D01*
X48684197Y-31504365D01*
X48732212Y-31320034D01*
X48732212Y-31320031D01*
X48733822Y-31313852D01*
X48739894Y-31197987D01*
X48744125Y-31117256D01*
X48744125Y-31117252D01*
X48744459Y-31110874D01*
X48714065Y-30909903D01*
X48643881Y-30719148D01*
X48611839Y-30667469D01*
X48540137Y-30551824D01*
X48540134Y-30551820D01*
X48536774Y-30546401D01*
X48397119Y-30398720D01*
X48230621Y-30282137D01*
X48044081Y-30201414D01*
X47998053Y-30191798D01*
X47849856Y-30160838D01*
X47849851Y-30160837D01*
X47845120Y-30159849D01*
X47840238Y-30159593D01*
X47840129Y-30159587D01*
X47840113Y-30159587D01*
X47838461Y-30159500D01*
X45289200Y-30159500D01*
X45258070Y-30162662D01*
X45144132Y-30174235D01*
X45144130Y-30174235D01*
X45137784Y-30174880D01*
X44943828Y-30235662D01*
X44766056Y-30334203D01*
X44611729Y-30466477D01*
X44487152Y-30627081D01*
X44397413Y-30809455D01*
X44395804Y-30815633D01*
X44395803Y-30815635D01*
X44369603Y-30916220D01*
X44346178Y-31006148D01*
X44342329Y-31079599D01*
X44336125Y-31197987D01*
X44335541Y-31209126D01*
X44365935Y-31410097D01*
X44436119Y-31600852D01*
X44439479Y-31606272D01*
X44439480Y-31606273D01*
X44539863Y-31768176D01*
X44539866Y-31768180D01*
X44543226Y-31773599D01*
X44682881Y-31921280D01*
X44849379Y-32037863D01*
X45035919Y-32118586D01*
X45166018Y-32145765D01*
X45196031Y-32152035D01*
X45258622Y-32185544D01*
X45293160Y-32247574D01*
X45288680Y-32318429D01*
X45246604Y-32375614D01*
X45181246Y-32400893D01*
X45117480Y-32406472D01*
X45106688Y-32408375D01*
X44896239Y-32464764D01*
X44885947Y-32468510D01*
X44688489Y-32560586D01*
X44678993Y-32566069D01*
X44500533Y-32691028D01*
X44492125Y-32698084D01*
X44338084Y-32852125D01*
X44331028Y-32860533D01*
X44206069Y-33038993D01*
X44200586Y-33048489D01*
X44108510Y-33245947D01*
X44104764Y-33256239D01*
X44058606Y-33428503D01*
X41449531Y-33428503D01*
X41449531Y-31381403D01*
X41449728Y-31378726D01*
X41451457Y-31373689D01*
X41449620Y-31324760D01*
X41449531Y-31320034D01*
X41449531Y-31301083D01*
X41448649Y-31296350D01*
X41448421Y-31292823D01*
X41447694Y-31273451D01*
X41447693Y-31273449D01*
X41447257Y-31261823D01*
X41442663Y-31251131D01*
X41441626Y-31246528D01*
X41438069Y-31234818D01*
X41436370Y-31230415D01*
X41434240Y-31218978D01*
X41428137Y-31209077D01*
X41428136Y-31209074D01*
X41421302Y-31197987D01*
X41412798Y-31181616D01*
X41406577Y-31167137D01*
X41406575Y-31167134D01*
X41403067Y-31158969D01*
X41399054Y-31154082D01*
X41396859Y-31151887D01*
X41394801Y-31149617D01*
X41394963Y-31149470D01*
X41387866Y-31140492D01*
X41381603Y-31133585D01*
X41375499Y-31123683D01*
X41353724Y-31107125D01*
X41340896Y-31095924D01*
X40591212Y-30346240D01*
X40557186Y-30283928D01*
X40562251Y-30213113D01*
X40562428Y-30212680D01*
X40564323Y-30209344D01*
X40629351Y-30013863D01*
X40655171Y-29809474D01*
X40655583Y-29780000D01*
X40635480Y-29574970D01*
X40575935Y-29377749D01*
X40479218Y-29195849D01*
X40369117Y-29060852D01*
X40352906Y-29040975D01*
X40352903Y-29040972D01*
X40349011Y-29036200D01*
X40262178Y-28964365D01*
X40195025Y-28908811D01*
X40195021Y-28908809D01*
X40190275Y-28904882D01*
X40009055Y-28806897D01*
X39812254Y-28745977D01*
X39806129Y-28745333D01*
X39806128Y-28745333D01*
X39613498Y-28725087D01*
X39613496Y-28725087D01*
X39607369Y-28724443D01*
X39520529Y-28732346D01*
X39408342Y-28742555D01*
X39408339Y-28742556D01*
X39402203Y-28743114D01*
X39204572Y-28801280D01*
X39022002Y-28896726D01*
X39017201Y-28900586D01*
X39017198Y-28900588D01*
X38930189Y-28970545D01*
X38861447Y-29025815D01*
X38729024Y-29183630D01*
X38726056Y-29189028D01*
X38726053Y-29189033D01*
X38660385Y-29308484D01*
X38629776Y-29364162D01*
X38567484Y-29560532D01*
X38566798Y-29566649D01*
X38566797Y-29566653D01*
X38545207Y-29759137D01*
X38544520Y-29765262D01*
X38561759Y-29970553D01*
X38563458Y-29976478D01*
X38616039Y-30159849D01*
X38618544Y-30168586D01*
X38621359Y-30174063D01*
X38621360Y-30174066D01*
X38703659Y-30334203D01*
X38712712Y-30351818D01*
X38840677Y-30513270D01*
X38997564Y-30646791D01*
X39177398Y-30747297D01*
X39242437Y-30768429D01*
X39301042Y-30808502D01*
X39328680Y-30873898D01*
X39316574Y-30943855D01*
X39268568Y-30996162D01*
X39242646Y-31008027D01*
X39076868Y-31062212D01*
X39067359Y-31066209D01*
X38878463Y-31164542D01*
X38869738Y-31170036D01*
X38699433Y-31297905D01*
X38691726Y-31304748D01*
X38544590Y-31458717D01*
X38538104Y-31466727D01*
X38418098Y-31642649D01*
X38413000Y-31651623D01*
X38323338Y-31844783D01*
X38319775Y-31854470D01*
X38264389Y-32054183D01*
X37233002Y-32054183D01*
X37233180Y-32052947D01*
X37191214Y-31885875D01*
X37187894Y-31876124D01*
X37102972Y-31680814D01*
X37098105Y-31671739D01*
X36982426Y-31492926D01*
X36976136Y-31484757D01*
X36832806Y-31327240D01*
X36825273Y-31320215D01*
X36658139Y-31188222D01*
X36649552Y-31182517D01*
X36463117Y-31079599D01*
X36453705Y-31075369D01*
X36262031Y-31007493D01*
X36204495Y-30965899D01*
X36178579Y-30899801D01*
X36192513Y-30830185D01*
X36241872Y-30779154D01*
X36270206Y-30767362D01*
X36275790Y-30765803D01*
X36275799Y-30765800D01*
X36281725Y-30764145D01*
X36287214Y-30761372D01*
X36287220Y-30761370D01*
X36460116Y-30674033D01*
X36465610Y-30671258D01*
X36627951Y-30544424D01*
X36695233Y-30466477D01*
X36758540Y-30393134D01*
X36758540Y-30393133D01*
X36762564Y-30388472D01*
X36783387Y-30351818D01*
X36861276Y-30214707D01*
X36864323Y-30209344D01*
X36929351Y-30013863D01*
X36955171Y-29809474D01*
X36955583Y-29780000D01*
X36935480Y-29574970D01*
X36875935Y-29377749D01*
X36779218Y-29195849D01*
X36669117Y-29060852D01*
X36652906Y-29040975D01*
X36652903Y-29040972D01*
X36649011Y-29036200D01*
X36562178Y-28964365D01*
X36495025Y-28908811D01*
X36495021Y-28908809D01*
X36490275Y-28904882D01*
X36309055Y-28806897D01*
X36112254Y-28745977D01*
X36106129Y-28745333D01*
X36106128Y-28745333D01*
X35913498Y-28725087D01*
X35913496Y-28725087D01*
X35907369Y-28724443D01*
X35820529Y-28732346D01*
X35708342Y-28742555D01*
X35708339Y-28742556D01*
X35702203Y-28743114D01*
X35504572Y-28801280D01*
X35322002Y-28896726D01*
X35317201Y-28900586D01*
X35317198Y-28900588D01*
X35230189Y-28970545D01*
X35161447Y-29025815D01*
X35029024Y-29183630D01*
X35026056Y-29189028D01*
X35026053Y-29189033D01*
X34960385Y-29308484D01*
X34929776Y-29364162D01*
X34867484Y-29560532D01*
X34866798Y-29566649D01*
X34866797Y-29566653D01*
X34845207Y-29759137D01*
X34844520Y-29765262D01*
X34861759Y-29970553D01*
X34863458Y-29976478D01*
X34916039Y-30159849D01*
X34918544Y-30168586D01*
X34921359Y-30174063D01*
X34921360Y-30174066D01*
X35003659Y-30334203D01*
X35012712Y-30351818D01*
X35140677Y-30513270D01*
X35297564Y-30646791D01*
X35477398Y-30747297D01*
X35542437Y-30768429D01*
X35601042Y-30808502D01*
X35628680Y-30873898D01*
X35616574Y-30943855D01*
X35568568Y-30996162D01*
X35542646Y-31008027D01*
X35376868Y-31062212D01*
X35367359Y-31066209D01*
X35178463Y-31164542D01*
X35169738Y-31170036D01*
X34999433Y-31297905D01*
X34991726Y-31304748D01*
X34844590Y-31458717D01*
X34838104Y-31466727D01*
X34718098Y-31642649D01*
X34713000Y-31651623D01*
X34623338Y-31844783D01*
X34619775Y-31854470D01*
X34564389Y-32054183D01*
X30410573Y-32054183D01*
X30533944Y-31985797D01*
X30688271Y-31853523D01*
X30695051Y-31844783D01*
X30808939Y-31697958D01*
X30812848Y-31692919D01*
X30902587Y-31510545D01*
X30904197Y-31504365D01*
X30952212Y-31320034D01*
X30952212Y-31320031D01*
X30953822Y-31313852D01*
X30959894Y-31197987D01*
X30964125Y-31117256D01*
X30964125Y-31117252D01*
X30964459Y-31110874D01*
X30934065Y-30909903D01*
X30863881Y-30719148D01*
X30831839Y-30667469D01*
X30760137Y-30551824D01*
X30760134Y-30551820D01*
X30756774Y-30546401D01*
X30617119Y-30398720D01*
X30450621Y-30282137D01*
X30264081Y-30201414D01*
X30218053Y-30191798D01*
X30069856Y-30160838D01*
X30069851Y-30160837D01*
X30065120Y-30159849D01*
X30060238Y-30159593D01*
X30060129Y-30159587D01*
X30060113Y-30159587D01*
X30058461Y-30159500D01*
X27509200Y-30159500D01*
X27478070Y-30162662D01*
X27364132Y-30174235D01*
X27364130Y-30174235D01*
X27357784Y-30174880D01*
X27163828Y-30235662D01*
X26986056Y-30334203D01*
X26831729Y-30466477D01*
X26707152Y-30627081D01*
X26617413Y-30809455D01*
X26615804Y-30815633D01*
X26615803Y-30815635D01*
X26589603Y-30916220D01*
X26566178Y-31006148D01*
X26562329Y-31079599D01*
X26556125Y-31197987D01*
X26555541Y-31209126D01*
X26585935Y-31410097D01*
X26656119Y-31600852D01*
X26659479Y-31606272D01*
X26659480Y-31606273D01*
X26759863Y-31768176D01*
X26759866Y-31768180D01*
X26763226Y-31773599D01*
X26902881Y-31921280D01*
X27069379Y-32037863D01*
X27255919Y-32118586D01*
X27386018Y-32145765D01*
X27416031Y-32152035D01*
X27478622Y-32185544D01*
X27513160Y-32247574D01*
X27508680Y-32318429D01*
X27466604Y-32375614D01*
X27401246Y-32400893D01*
X27337480Y-32406472D01*
X27326688Y-32408375D01*
X27116239Y-32464764D01*
X27105947Y-32468510D01*
X26908489Y-32560586D01*
X26898993Y-32566069D01*
X26720533Y-32691028D01*
X26712125Y-32698084D01*
X26558084Y-32852125D01*
X26551028Y-32860533D01*
X26426069Y-33038993D01*
X26420586Y-33048489D01*
X26328510Y-33245947D01*
X26324764Y-33256239D01*
X26278606Y-33428503D01*
X21800000Y-33428503D01*
X21800000Y-28669126D01*
X26555541Y-28669126D01*
X26585935Y-28870097D01*
X26656119Y-29060852D01*
X26659479Y-29066272D01*
X26659480Y-29066273D01*
X26759863Y-29228176D01*
X26759866Y-29228180D01*
X26763226Y-29233599D01*
X26767612Y-29238237D01*
X26881590Y-29358765D01*
X26902881Y-29381280D01*
X27069379Y-29497863D01*
X27255919Y-29578586D01*
X27301947Y-29588202D01*
X27450144Y-29619162D01*
X27450149Y-29619163D01*
X27454880Y-29620151D01*
X27459762Y-29620407D01*
X27459871Y-29620413D01*
X27459887Y-29620413D01*
X27461539Y-29620500D01*
X30010800Y-29620500D01*
X30058793Y-29615625D01*
X30155868Y-29605765D01*
X30155870Y-29605765D01*
X30162216Y-29605120D01*
X30356172Y-29544338D01*
X30533944Y-29445797D01*
X30688271Y-29313523D01*
X30812848Y-29152919D01*
X30902587Y-28970545D01*
X30928752Y-28870097D01*
X30952212Y-28780034D01*
X30952212Y-28780031D01*
X30953822Y-28773852D01*
X30959310Y-28669126D01*
X44335541Y-28669126D01*
X44365935Y-28870097D01*
X44436119Y-29060852D01*
X44439479Y-29066272D01*
X44439480Y-29066273D01*
X44539863Y-29228176D01*
X44539866Y-29228180D01*
X44543226Y-29233599D01*
X44547612Y-29238237D01*
X44661590Y-29358765D01*
X44682881Y-29381280D01*
X44849379Y-29497863D01*
X45035919Y-29578586D01*
X45081947Y-29588202D01*
X45230144Y-29619162D01*
X45230149Y-29619163D01*
X45234880Y-29620151D01*
X45239762Y-29620407D01*
X45239871Y-29620413D01*
X45239887Y-29620413D01*
X45241539Y-29620500D01*
X47790800Y-29620500D01*
X47838793Y-29615625D01*
X47935868Y-29605765D01*
X47935870Y-29605765D01*
X47942216Y-29605120D01*
X48136172Y-29544338D01*
X48313944Y-29445797D01*
X48468271Y-29313523D01*
X48592848Y-29152919D01*
X48682587Y-28970545D01*
X48708752Y-28870097D01*
X48732212Y-28780034D01*
X48732212Y-28780031D01*
X48733822Y-28773852D01*
X48744459Y-28570874D01*
X48714065Y-28369903D01*
X48643881Y-28179148D01*
X48590345Y-28092802D01*
X48540137Y-28011824D01*
X48540134Y-28011820D01*
X48536774Y-28006401D01*
X48397119Y-27858720D01*
X48230621Y-27742137D01*
X48044081Y-27661414D01*
X47998053Y-27651798D01*
X47849856Y-27620838D01*
X47849851Y-27620837D01*
X47845120Y-27619849D01*
X47840238Y-27619593D01*
X47840129Y-27619587D01*
X47840113Y-27619587D01*
X47838461Y-27619500D01*
X45289200Y-27619500D01*
X45241207Y-27624375D01*
X45144132Y-27634235D01*
X45144130Y-27634235D01*
X45137784Y-27634880D01*
X44943828Y-27695662D01*
X44766056Y-27794203D01*
X44611729Y-27926477D01*
X44487152Y-28087081D01*
X44397413Y-28269455D01*
X44395804Y-28275633D01*
X44395803Y-28275635D01*
X44369603Y-28376220D01*
X44346178Y-28466148D01*
X44335541Y-28669126D01*
X30959310Y-28669126D01*
X30964459Y-28570874D01*
X30934065Y-28369903D01*
X30863881Y-28179148D01*
X30810345Y-28092802D01*
X30760137Y-28011824D01*
X30760134Y-28011820D01*
X30756774Y-28006401D01*
X30617119Y-27858720D01*
X30450621Y-27742137D01*
X30264081Y-27661414D01*
X30218053Y-27651798D01*
X30069856Y-27620838D01*
X30069851Y-27620837D01*
X30065120Y-27619849D01*
X30060238Y-27619593D01*
X30060129Y-27619587D01*
X30060113Y-27619587D01*
X30058461Y-27619500D01*
X27509200Y-27619500D01*
X27461207Y-27624375D01*
X27364132Y-27634235D01*
X27364130Y-27634235D01*
X27357784Y-27634880D01*
X27163828Y-27695662D01*
X26986056Y-27794203D01*
X26831729Y-27926477D01*
X26707152Y-28087081D01*
X26617413Y-28269455D01*
X26615804Y-28275633D01*
X26615803Y-28275635D01*
X26589603Y-28376220D01*
X26566178Y-28466148D01*
X26555541Y-28669126D01*
X21800000Y-28669126D01*
X21800000Y-23540000D01*
X27164551Y-23540000D01*
X27184317Y-23791148D01*
X27243127Y-24036111D01*
X27339534Y-24268859D01*
X27471164Y-24483659D01*
X27474376Y-24487419D01*
X27474379Y-24487424D01*
X27619256Y-24657052D01*
X27634776Y-24675224D01*
X27638538Y-24678437D01*
X27822576Y-24835621D01*
X27822581Y-24835624D01*
X27826341Y-24838836D01*
X28041141Y-24970466D01*
X28045711Y-24972359D01*
X28045715Y-24972361D01*
X28269316Y-25064979D01*
X28273889Y-25066873D01*
X28358289Y-25087135D01*
X28514039Y-25124528D01*
X28514045Y-25124529D01*
X28518852Y-25125683D01*
X28607149Y-25132632D01*
X28704661Y-25140307D01*
X28704670Y-25140307D01*
X28707118Y-25140500D01*
X28832882Y-25140500D01*
X28835330Y-25140307D01*
X28835339Y-25140307D01*
X28932851Y-25132632D01*
X29021148Y-25125683D01*
X29025955Y-25124529D01*
X29025961Y-25124528D01*
X29181711Y-25087135D01*
X29266111Y-25066873D01*
X29270684Y-25064979D01*
X29494285Y-24972361D01*
X29494289Y-24972359D01*
X29498859Y-24970466D01*
X29713659Y-24838836D01*
X29717419Y-24835624D01*
X29717424Y-24835621D01*
X29901462Y-24678437D01*
X29905224Y-24675224D01*
X29920744Y-24657052D01*
X30065621Y-24487424D01*
X30065624Y-24487419D01*
X30068836Y-24483659D01*
X30200466Y-24268859D01*
X30296873Y-24036111D01*
X30355683Y-23791148D01*
X30375449Y-23540000D01*
X44924551Y-23540000D01*
X44944317Y-23791148D01*
X45003127Y-24036111D01*
X45099534Y-24268859D01*
X45231164Y-24483659D01*
X45234376Y-24487419D01*
X45234379Y-24487424D01*
X45379256Y-24657052D01*
X45394776Y-24675224D01*
X45398538Y-24678437D01*
X45582576Y-24835621D01*
X45582581Y-24835624D01*
X45586341Y-24838836D01*
X45801141Y-24970466D01*
X45805711Y-24972359D01*
X45805715Y-24972361D01*
X46029316Y-25064979D01*
X46033889Y-25066873D01*
X46118289Y-25087135D01*
X46274039Y-25124528D01*
X46274045Y-25124529D01*
X46278852Y-25125683D01*
X46367149Y-25132632D01*
X46464661Y-25140307D01*
X46464670Y-25140307D01*
X46467118Y-25140500D01*
X46592882Y-25140500D01*
X46595330Y-25140307D01*
X46595339Y-25140307D01*
X46692851Y-25132632D01*
X46781148Y-25125683D01*
X46785955Y-25124529D01*
X46785961Y-25124528D01*
X46941711Y-25087135D01*
X47026111Y-25066873D01*
X47030684Y-25064979D01*
X47254285Y-24972361D01*
X47254289Y-24972359D01*
X47258859Y-24970466D01*
X47473659Y-24838836D01*
X47477419Y-24835624D01*
X47477424Y-24835621D01*
X47661462Y-24678437D01*
X47665224Y-24675224D01*
X47680744Y-24657052D01*
X47825621Y-24487424D01*
X47825624Y-24487419D01*
X47828836Y-24483659D01*
X47960466Y-24268859D01*
X48056873Y-24036111D01*
X48115683Y-23791148D01*
X48135449Y-23540000D01*
X48115683Y-23288852D01*
X48056873Y-23043889D01*
X47960466Y-22811141D01*
X47828836Y-22596341D01*
X47825624Y-22592581D01*
X47825621Y-22592576D01*
X47668437Y-22408538D01*
X47665224Y-22404776D01*
X47647052Y-22389256D01*
X47477424Y-22244379D01*
X47477419Y-22244376D01*
X47473659Y-22241164D01*
X47258859Y-22109534D01*
X47254289Y-22107641D01*
X47254285Y-22107639D01*
X47030684Y-22015021D01*
X47030682Y-22015020D01*
X47026111Y-22013127D01*
X46941711Y-21992865D01*
X46785961Y-21955472D01*
X46785955Y-21955471D01*
X46781148Y-21954317D01*
X46692851Y-21947368D01*
X46595339Y-21939693D01*
X46595330Y-21939693D01*
X46592882Y-21939500D01*
X46467118Y-21939500D01*
X46464670Y-21939693D01*
X46464661Y-21939693D01*
X46367149Y-21947368D01*
X46278852Y-21954317D01*
X46274045Y-21955471D01*
X46274039Y-21955472D01*
X46118289Y-21992865D01*
X46033889Y-22013127D01*
X46029318Y-22015020D01*
X46029316Y-22015021D01*
X45805715Y-22107639D01*
X45805711Y-22107641D01*
X45801141Y-22109534D01*
X45586341Y-22241164D01*
X45582581Y-22244376D01*
X45582576Y-22244379D01*
X45412948Y-22389256D01*
X45394776Y-22404776D01*
X45391563Y-22408538D01*
X45234379Y-22592576D01*
X45234376Y-22592581D01*
X45231164Y-22596341D01*
X45099534Y-22811141D01*
X45003127Y-23043889D01*
X44944317Y-23288852D01*
X44924551Y-23540000D01*
X30375449Y-23540000D01*
X30355683Y-23288852D01*
X30296873Y-23043889D01*
X30200466Y-22811141D01*
X30068836Y-22596341D01*
X30065624Y-22592581D01*
X30065621Y-22592576D01*
X29908437Y-22408538D01*
X29905224Y-22404776D01*
X29887052Y-22389256D01*
X29717424Y-22244379D01*
X29717419Y-22244376D01*
X29713659Y-22241164D01*
X29498859Y-22109534D01*
X29494289Y-22107641D01*
X29494285Y-22107639D01*
X29270684Y-22015021D01*
X29270682Y-22015020D01*
X29266111Y-22013127D01*
X29181711Y-21992865D01*
X29025961Y-21955472D01*
X29025955Y-21955471D01*
X29021148Y-21954317D01*
X28932851Y-21947368D01*
X28835339Y-21939693D01*
X28835330Y-21939693D01*
X28832882Y-21939500D01*
X28707118Y-21939500D01*
X28704670Y-21939693D01*
X28704661Y-21939693D01*
X28607149Y-21947368D01*
X28518852Y-21954317D01*
X28514045Y-21955471D01*
X28514039Y-21955472D01*
X28358289Y-21992865D01*
X28273889Y-22013127D01*
X28269318Y-22015020D01*
X28269316Y-22015021D01*
X28045715Y-22107639D01*
X28045711Y-22107641D01*
X28041141Y-22109534D01*
X27826341Y-22241164D01*
X27822581Y-22244376D01*
X27822576Y-22244379D01*
X27652948Y-22389256D01*
X27634776Y-22404776D01*
X27631563Y-22408538D01*
X27474379Y-22592576D01*
X27474376Y-22592581D01*
X27471164Y-22596341D01*
X27339534Y-22811141D01*
X27243127Y-23043889D01*
X27184317Y-23288852D01*
X27164551Y-23540000D01*
X21800000Y-23540000D01*
X21800000Y-21626000D01*
X21820002Y-21557879D01*
X21873658Y-21511386D01*
X21926000Y-21500000D01*
X54173798Y-21500000D01*
X54241919Y-21520002D01*
G37*
%TD.AperFunction*%
%TD*%
M02*
