%TF.GenerationSoftware,KiCad,Pcbnew,(6.0.2)*%
%TF.CreationDate,2023-01-31T14:35:55+03:00*%
%TF.ProjectId,Shield_Emergent,53686965-6c64-45f4-956d-657267656e74,rev?*%
%TF.SameCoordinates,Original*%
%TF.FileFunction,Copper,L2,Bot*%
%TF.FilePolarity,Positive*%
%FSLAX46Y46*%
G04 Gerber Fmt 4.6, Leading zero omitted, Abs format (unit mm)*
G04 Created by KiCad (PCBNEW (6.0.2)) date 2023-01-31 14:35:55*
%MOMM*%
%LPD*%
G01*
G04 APERTURE LIST*
G04 Aperture macros list*
%AMRoundRect*
0 Rectangle with rounded corners*
0 $1 Rounding radius*
0 $2 $3 $4 $5 $6 $7 $8 $9 X,Y pos of 4 corners*
0 Add a 4 corners polygon primitive as box body*
4,1,4,$2,$3,$4,$5,$6,$7,$8,$9,$2,$3,0*
0 Add four circle primitives for the rounded corners*
1,1,$1+$1,$2,$3*
1,1,$1+$1,$4,$5*
1,1,$1+$1,$6,$7*
1,1,$1+$1,$8,$9*
0 Add four rect primitives between the rounded corners*
20,1,$1+$1,$2,$3,$4,$5,0*
20,1,$1+$1,$4,$5,$6,$7,0*
20,1,$1+$1,$6,$7,$8,$9,0*
20,1,$1+$1,$8,$9,$2,$3,0*%
G04 Aperture macros list end*
%TA.AperFunction,ComponentPad*%
%ADD10O,4.000000X1.600000*%
%TD*%
%TA.AperFunction,SMDPad,CuDef*%
%ADD11RoundRect,0.237500X0.237500X-0.250000X0.237500X0.250000X-0.237500X0.250000X-0.237500X-0.250000X0*%
%TD*%
%TA.AperFunction,SMDPad,CuDef*%
%ADD12RoundRect,0.237500X-0.300000X-0.237500X0.300000X-0.237500X0.300000X0.237500X-0.300000X0.237500X0*%
%TD*%
%TA.AperFunction,SMDPad,CuDef*%
%ADD13R,0.650000X1.560000*%
%TD*%
%TA.AperFunction,ComponentPad*%
%ADD14R,1.600000X1.600000*%
%TD*%
%TA.AperFunction,ComponentPad*%
%ADD15C,1.600000*%
%TD*%
%TA.AperFunction,SMDPad,CuDef*%
%ADD16RoundRect,0.237500X0.300000X0.237500X-0.300000X0.237500X-0.300000X-0.237500X0.300000X-0.237500X0*%
%TD*%
%TA.AperFunction,ComponentPad*%
%ADD17R,1.700000X1.700000*%
%TD*%
%TA.AperFunction,ComponentPad*%
%ADD18O,1.700000X1.700000*%
%TD*%
%TA.AperFunction,SMDPad,CuDef*%
%ADD19RoundRect,0.237500X-0.250000X-0.237500X0.250000X-0.237500X0.250000X0.237500X-0.250000X0.237500X0*%
%TD*%
%TA.AperFunction,ViaPad*%
%ADD20C,0.800000*%
%TD*%
%TA.AperFunction,Conductor*%
%ADD21C,1.000000*%
%TD*%
%TA.AperFunction,Conductor*%
%ADD22C,2.000000*%
%TD*%
%TA.AperFunction,Conductor*%
%ADD23C,0.500000*%
%TD*%
%TA.AperFunction,Conductor*%
%ADD24C,0.200000*%
%TD*%
%TA.AperFunction,Conductor*%
%ADD25C,0.700000*%
%TD*%
%TA.AperFunction,Conductor*%
%ADD26C,0.400000*%
%TD*%
%TA.AperFunction,Conductor*%
%ADD27C,0.300000*%
%TD*%
%TA.AperFunction,Conductor*%
%ADD28C,0.600000*%
%TD*%
G04 APERTURE END LIST*
D10*
%TO.P,U1,1,GP0/TX*%
%TO.N,unconnected-(U1-Pad1)*%
X28760000Y-28620000D03*
%TO.P,U1,2,GP1/RX*%
%TO.N,unconnected-(U1-Pad2)*%
X28760000Y-31160000D03*
%TO.P,U1,3,GND*%
%TO.N,GND*%
X28760000Y-33700000D03*
%TO.P,U1,4,GP2*%
%TO.N,unconnected-(U1-Pad4)*%
X28760000Y-36240000D03*
%TO.P,U1,5,GP3*%
%TO.N,unconnected-(U1-Pad5)*%
X28760000Y-38780000D03*
%TO.P,U1,6,GP4/SDA*%
%TO.N,unconnected-(U1-Pad6)*%
X28760000Y-41320000D03*
%TO.P,U1,7,GP5/SCL*%
%TO.N,unconnected-(U1-Pad7)*%
X28760000Y-43860000D03*
%TO.P,U1,8,GND*%
%TO.N,GND*%
X28760000Y-46400000D03*
%TO.P,U1,9,GP6*%
%TO.N,EN2*%
X28760000Y-48940000D03*
%TO.P,U1,10,GP7*%
%TO.N,FLT2*%
X28760000Y-51480000D03*
%TO.P,U1,11,GP8*%
%TO.N,unconnected-(U1-Pad11)*%
X28760000Y-54020000D03*
%TO.P,U1,12,GP9*%
%TO.N,unconnected-(U1-Pad12)*%
X28760000Y-56560000D03*
%TO.P,U1,13,GND*%
%TO.N,GND*%
X28760000Y-59100000D03*
%TO.P,U1,14,GP10*%
%TO.N,unconnected-(U1-Pad14)*%
X28760000Y-61640000D03*
%TO.P,U1,15,GP11*%
%TO.N,unconnected-(U1-Pad15)*%
X28760000Y-64180000D03*
%TO.P,U1,16,GP12*%
%TO.N,unconnected-(U1-Pad16)*%
X28760000Y-66720000D03*
%TO.P,U1,17,GP13*%
%TO.N,unconnected-(U1-Pad17)*%
X28760000Y-69260000D03*
%TO.P,U1,18,GND*%
%TO.N,GND*%
X28760000Y-71800000D03*
%TO.P,U1,19,GP14*%
%TO.N,unconnected-(U1-Pad19)*%
X28760000Y-74340000D03*
%TO.P,U1,20,GP15*%
%TO.N,unconnected-(U1-Pad20)*%
X28760000Y-76880000D03*
%TO.P,U1,21,GP16/MISO*%
%TO.N,unconnected-(U1-Pad21)*%
X46540000Y-76880000D03*
%TO.P,U1,22,GP17/CS*%
%TO.N,unconnected-(U1-Pad22)*%
X46540000Y-74340000D03*
%TO.P,U1,23,GND*%
%TO.N,GND*%
X46540000Y-71800000D03*
%TO.P,U1,24,GP18/SCK*%
%TO.N,unconnected-(U1-Pad24)*%
X46540000Y-69260000D03*
%TO.P,U1,25,GP19/MOSI*%
%TO.N,unconnected-(U1-Pad25)*%
X46540000Y-66720000D03*
%TO.P,U1,26,GP20*%
%TO.N,unconnected-(U1-Pad26)*%
X46540000Y-64180000D03*
%TO.P,U1,27,GP21*%
%TO.N,unconnected-(U1-Pad27)*%
X46540000Y-61640000D03*
%TO.P,U1,28,GND*%
%TO.N,GND*%
X46540000Y-59100000D03*
%TO.P,U1,29,GP22*%
%TO.N,unconnected-(U1-Pad29)*%
X46540000Y-56560000D03*
%TO.P,U1,30,RUN*%
%TO.N,unconnected-(U1-Pad30)*%
X46540000Y-54020000D03*
%TO.P,U1,31,GP26/ADC0*%
%TO.N,FLT1*%
X46540000Y-51480000D03*
%TO.P,U1,32,GP27/ADC1*%
%TO.N,EN1*%
X46540000Y-48940000D03*
%TO.P,U1,33,AGND*%
%TO.N,GND*%
X46540000Y-46400000D03*
%TO.P,U1,34,GP28/ADC2*%
%TO.N,unconnected-(U1-Pad34)*%
X46540000Y-43860000D03*
%TO.P,U1,35,ADC_VREF*%
%TO.N,unconnected-(U1-Pad35)*%
X46540000Y-41320000D03*
%TO.P,U1,36,3V3_OUT*%
%TO.N,unconnected-(U1-Pad36)*%
X46540000Y-38780000D03*
%TO.P,U1,37,3V3_EN*%
%TO.N,unconnected-(U1-Pad37)*%
X46540000Y-36240000D03*
%TO.P,U1,38,GND*%
%TO.N,GND*%
X46540000Y-33700000D03*
%TO.P,U1,39,VSYS*%
%TO.N,VBUS*%
X46540000Y-31160000D03*
%TO.P,U1,40,VBUS*%
%TO.N,unconnected-(U1-Pad40)*%
X46540000Y-28620000D03*
%TD*%
D11*
%TO.P,R4,1*%
%TO.N,VBUS*%
X32700000Y-44512500D03*
%TO.P,R4,2*%
%TO.N,EN2*%
X32700000Y-42687500D03*
%TD*%
D12*
%TO.P,C4,1*%
%TO.N,VBUS*%
X32687500Y-46150000D03*
%TO.P,C4,2*%
%TO.N,GND*%
X34412500Y-46150000D03*
%TD*%
D13*
%TO.P,U3,1,In*%
%TO.N,VBUS*%
X32700000Y-48000000D03*
%TO.P,U3,2,GND*%
%TO.N,GND*%
X33650000Y-48000000D03*
%TO.P,U3,3,En*%
%TO.N,EN2*%
X34600000Y-48000000D03*
%TO.P,U3,4,FLT*%
%TO.N,FLT2*%
X34600000Y-50700000D03*
%TO.P,U3,5,ILIM*%
%TO.N,Net-(R5-Pad1)*%
X33650000Y-50700000D03*
%TO.P,U3,6,OUT*%
%TO.N,Net-(C5-Pad1)*%
X32700000Y-50700000D03*
%TD*%
D14*
%TO.P,C6,1*%
%TO.N,Net-(C5-Pad1)*%
X34200000Y-61617621D03*
D15*
%TO.P,C6,2*%
%TO.N,GND*%
X34200000Y-64117621D03*
%TD*%
D16*
%TO.P,C2,1*%
%TO.N,Net-(C2-Pad1)*%
X40262500Y-53100000D03*
%TO.P,C2,2*%
%TO.N,GND*%
X38537500Y-53100000D03*
%TD*%
D17*
%TO.P,J4,1,Pin_1*%
%TO.N,VBUS*%
X35900000Y-37400000D03*
D18*
%TO.P,J4,2,Pin_2*%
%TO.N,EN2*%
X35900000Y-34860000D03*
%TO.P,J4,3,Pin_3*%
%TO.N,GND*%
X35900000Y-32320000D03*
%TO.P,J4,4,Pin_4*%
%TO.N,FLT2*%
X35900000Y-29780000D03*
%TD*%
D19*
%TO.P,R2,1*%
%TO.N,Net-(R2-Pad1)*%
X41887500Y-52800000D03*
%TO.P,R2,2*%
%TO.N,GND*%
X43712500Y-52800000D03*
%TD*%
D17*
%TO.P,J2,1,Pin_1*%
%TO.N,VBUS*%
X39600000Y-37400000D03*
D18*
%TO.P,J2,2,Pin_2*%
%TO.N,EN1*%
X39600000Y-34860000D03*
%TO.P,J2,3,Pin_3*%
%TO.N,GND*%
X39600000Y-32320000D03*
%TO.P,J2,4,Pin_4*%
%TO.N,FLT1*%
X39600000Y-29780000D03*
%TD*%
D17*
%TO.P,J3,1,Pin_1*%
%TO.N,Net-(C5-Pad1)*%
X32925000Y-55387500D03*
D18*
%TO.P,J3,2,Pin_2*%
%TO.N,GND*%
X35465000Y-55387500D03*
%TD*%
D19*
%TO.P,R1,1*%
%TO.N,VBUS*%
X39400000Y-44787500D03*
%TO.P,R1,2*%
%TO.N,EN1*%
X41225000Y-44787500D03*
%TD*%
D11*
%TO.P,R3,1*%
%TO.N,FLT1*%
X42790000Y-51225000D03*
%TO.P,R3,2*%
%TO.N,VBUS*%
X42790000Y-49400000D03*
%TD*%
D16*
%TO.P,C5,1*%
%TO.N,Net-(C5-Pad1)*%
X33502500Y-52762500D03*
%TO.P,C5,2*%
%TO.N,GND*%
X31777500Y-52762500D03*
%TD*%
D13*
%TO.P,U2,1,In*%
%TO.N,VBUS*%
X39240000Y-48212500D03*
%TO.P,U2,2,GND*%
%TO.N,GND*%
X40190000Y-48212500D03*
%TO.P,U2,3,En*%
%TO.N,EN1*%
X41140000Y-48212500D03*
%TO.P,U2,4,FLT*%
%TO.N,FLT1*%
X41140000Y-50912500D03*
%TO.P,U2,5,ILIM*%
%TO.N,Net-(R2-Pad1)*%
X40190000Y-50912500D03*
%TO.P,U2,6,OUT*%
%TO.N,Net-(C2-Pad1)*%
X39240000Y-50912500D03*
%TD*%
D12*
%TO.P,C1,1*%
%TO.N,VBUS*%
X39427500Y-46362500D03*
%TO.P,C1,2*%
%TO.N,GND*%
X41152500Y-46362500D03*
%TD*%
D14*
%TO.P,C3,1*%
%TO.N,Net-(C2-Pad1)*%
X41100000Y-61617621D03*
D15*
%TO.P,C3,2*%
%TO.N,GND*%
X41100000Y-64117621D03*
%TD*%
D11*
%TO.P,R6,1*%
%TO.N,FLT2*%
X36300000Y-51012500D03*
%TO.P,R6,2*%
%TO.N,VBUS*%
X36300000Y-49187500D03*
%TD*%
D19*
%TO.P,R5,1*%
%TO.N,Net-(R5-Pad1)*%
X35127500Y-52762500D03*
%TO.P,R5,2*%
%TO.N,GND*%
X36952500Y-52762500D03*
%TD*%
D17*
%TO.P,J1,1,Pin_1*%
%TO.N,Net-(C2-Pad1)*%
X39700000Y-56000000D03*
D18*
%TO.P,J1,2,Pin_2*%
%TO.N,GND*%
X42240000Y-56000000D03*
%TD*%
D20*
%TO.N,GND*%
X34300000Y-40900000D03*
X40150000Y-81750000D03*
X37500000Y-49100000D03*
X43950000Y-57850000D03*
X51000000Y-35000000D03*
X51200000Y-75100000D03*
X23800000Y-54200000D03*
X35100000Y-25000000D03*
X32750000Y-24950000D03*
X33200000Y-68300000D03*
X35500000Y-45000000D03*
X23800000Y-61000000D03*
X42700000Y-59100000D03*
X42800000Y-43100000D03*
X43250000Y-62850000D03*
X37600000Y-55850000D03*
X32000000Y-62850000D03*
X51100000Y-70400000D03*
X33500000Y-75500000D03*
X24000000Y-68000000D03*
X42700000Y-45400000D03*
X33000000Y-29400000D03*
X37600000Y-54300000D03*
X35300000Y-81700000D03*
X43200000Y-47200000D03*
X39900000Y-25000000D03*
X32300000Y-34900000D03*
X37650000Y-75500000D03*
X37450000Y-60450000D03*
X37700000Y-72300000D03*
X42700000Y-40400000D03*
X24000000Y-42100000D03*
X43350000Y-54400000D03*
X51100000Y-64400000D03*
X37800000Y-62850000D03*
X24100000Y-75100000D03*
X37000000Y-58400000D03*
X50800000Y-49500000D03*
X51000000Y-30900000D03*
X37900000Y-51100000D03*
X24600000Y-32500000D03*
X41450000Y-75500000D03*
X37650000Y-79200000D03*
X50900000Y-44400000D03*
X23800000Y-48500000D03*
X35150000Y-57950000D03*
X51000000Y-39400000D03*
X35700000Y-47300000D03*
X41550000Y-58150000D03*
X51100000Y-58700000D03*
X41500000Y-68300000D03*
X23300000Y-37000000D03*
X42200000Y-24700000D03*
X37700000Y-66150000D03*
X50900000Y-53900000D03*
%TO.N,EN1*%
X41929894Y-48370106D03*
%TO.N,FLT1*%
X44000000Y-48240500D03*
%TO.N,FLT2*%
X31100000Y-47700000D03*
%TD*%
D21*
%TO.N,VBUS*%
X37400000Y-42900000D02*
X35500000Y-42900000D01*
X36300000Y-48400000D02*
X37400000Y-47300000D01*
X37912500Y-44787500D02*
X37400000Y-45300000D01*
X39400000Y-44787500D02*
X37912500Y-44787500D01*
D22*
X42700000Y-32600000D02*
X44140000Y-31160000D01*
D23*
X32700000Y-46162500D02*
X32687500Y-46150000D01*
D24*
X36432989Y-49832989D02*
X36300000Y-49700000D01*
X42790000Y-49400000D02*
X42357011Y-49832989D01*
D22*
X35900000Y-37400000D02*
X37400000Y-37400000D01*
D23*
X32700000Y-48000000D02*
X32700000Y-46162500D01*
D22*
X37400000Y-45300000D02*
X37400000Y-47300000D01*
D21*
X36300000Y-49187500D02*
X36300000Y-48400000D01*
D22*
X41300000Y-37400000D02*
X42700000Y-36000000D01*
D23*
X42790000Y-49400000D02*
X42690000Y-49500000D01*
D21*
X39427500Y-46362500D02*
X38337500Y-46362500D01*
D22*
X42700000Y-36000000D02*
X42700000Y-32600000D01*
X37400000Y-42900000D02*
X37400000Y-45300000D01*
D21*
X35500000Y-42900000D02*
X33887500Y-44512500D01*
D24*
X42357011Y-49832989D02*
X36432989Y-49832989D01*
D21*
X32700000Y-44512500D02*
X32700000Y-46137500D01*
D22*
X39600000Y-37400000D02*
X41300000Y-37400000D01*
X37400000Y-37400000D02*
X37400000Y-42900000D01*
D24*
X36300000Y-49700000D02*
X36300000Y-49187500D01*
D21*
X32700000Y-46137500D02*
X32687500Y-46150000D01*
D23*
X39200000Y-48252500D02*
X39240000Y-48212500D01*
D25*
X37400000Y-47300000D02*
X38312500Y-48212500D01*
X38312500Y-48212500D02*
X39240000Y-48212500D01*
D21*
X38337500Y-46362500D02*
X37400000Y-47300000D01*
D22*
X44140000Y-31160000D02*
X46540000Y-31160000D01*
D21*
X33887500Y-44512500D02*
X32700000Y-44512500D01*
D22*
X37400000Y-37400000D02*
X39600000Y-37400000D01*
D26*
%TO.N,GND*%
X40190000Y-48212500D02*
X40190000Y-49110000D01*
X34412500Y-46150000D02*
X34350000Y-46150000D01*
X34350000Y-46150000D02*
X33650000Y-46850000D01*
X41152500Y-46362500D02*
X41152500Y-46447500D01*
D27*
X39957989Y-49342011D02*
X37742011Y-49342011D01*
X37742011Y-49342011D02*
X37500000Y-49100000D01*
D26*
X39966531Y-49333469D02*
X39957989Y-49333469D01*
X40190000Y-49110000D02*
X39966531Y-49333469D01*
X33650000Y-46850000D02*
X33650000Y-48000000D01*
D27*
X40190000Y-49110000D02*
X39957989Y-49342011D01*
D26*
X40190000Y-47410000D02*
X40190000Y-48212500D01*
X41152500Y-46447500D02*
X40190000Y-47410000D01*
D21*
%TO.N,Net-(C2-Pad1)*%
X39700000Y-58450000D02*
X39700000Y-56000000D01*
X40262500Y-53100000D02*
X40262500Y-54237500D01*
X41100000Y-59850000D02*
X39700000Y-58450000D01*
X39700000Y-54800000D02*
X39700000Y-56000000D01*
X41100000Y-61617621D02*
X41100000Y-59850000D01*
D28*
X39240000Y-51940000D02*
X40262500Y-52962500D01*
X40262500Y-52962500D02*
X40262500Y-53100000D01*
X39240000Y-50912500D02*
X39240000Y-51940000D01*
D21*
X40262500Y-54237500D02*
X39700000Y-54800000D01*
D28*
%TO.N,Net-(C5-Pad1)*%
X32700000Y-51960000D02*
X33502500Y-52762500D01*
D21*
X33502500Y-52762500D02*
X33502500Y-54810000D01*
D28*
X32700000Y-50700000D02*
X32700000Y-51960000D01*
D21*
X34200000Y-59650000D02*
X34200000Y-61617621D01*
X32925000Y-58275000D02*
X34250000Y-59600000D01*
X33502500Y-54810000D02*
X32925000Y-55387500D01*
X32925000Y-55387500D02*
X32925000Y-58275000D01*
X34250000Y-59600000D02*
X34200000Y-59650000D01*
D24*
%TO.N,EN1*%
X41929894Y-48370106D02*
X41297606Y-48370106D01*
X41140000Y-48212500D02*
X41140000Y-48160000D01*
X41297606Y-48370106D02*
X41140000Y-48212500D01*
X43300000Y-44400000D02*
X41612500Y-44400000D01*
X43500000Y-44600000D02*
X43300000Y-44400000D01*
X43500000Y-45800000D02*
X43500000Y-44600000D01*
X41612500Y-44400000D02*
X41225000Y-44787500D01*
X41140000Y-48160000D02*
X43500000Y-45800000D01*
%TO.N,FLT1*%
X44000000Y-51200000D02*
X43975000Y-51225000D01*
D23*
X42790000Y-51225000D02*
X43975000Y-51225000D01*
X41452500Y-51225000D02*
X41140000Y-50912500D01*
X46285000Y-51225000D02*
X46540000Y-51480000D01*
X42790000Y-51225000D02*
X41452500Y-51225000D01*
X43975000Y-51225000D02*
X46285000Y-51225000D01*
D24*
X44000000Y-48240500D02*
X44000000Y-51200000D01*
D27*
%TO.N,EN2*%
X32700000Y-42687500D02*
X32700000Y-38060000D01*
D24*
X34600000Y-48700000D02*
X34200000Y-49100000D01*
X31840000Y-48940000D02*
X28760000Y-48940000D01*
X34200000Y-49100000D02*
X32100000Y-49100000D01*
X31940000Y-48940000D02*
X31840000Y-48940000D01*
D27*
X32700000Y-38060000D02*
X35900000Y-34860000D01*
D24*
X31900000Y-49100000D02*
X31700000Y-48900000D01*
X32093750Y-43293750D02*
X31840000Y-43547500D01*
X29360000Y-48940000D02*
X28760000Y-48940000D01*
X32100000Y-49100000D02*
X31940000Y-48940000D01*
X32100000Y-49100000D02*
X31900000Y-49100000D01*
X34600000Y-48000000D02*
X34600000Y-48700000D01*
X31840000Y-43547500D02*
X31840000Y-48940000D01*
X32700000Y-42687500D02*
X32093750Y-43293750D01*
%TO.N,FLT2*%
X31800000Y-50600000D02*
X30920000Y-51480000D01*
D27*
X29460000Y-51480000D02*
X28760000Y-51480000D01*
D23*
X36300000Y-51012500D02*
X34912500Y-51012500D01*
D24*
X34000000Y-31680000D02*
X34000000Y-33900000D01*
X35900000Y-29780000D02*
X34000000Y-31680000D01*
X34600000Y-50100000D02*
X34109520Y-49609520D01*
X34600000Y-50700000D02*
X34600000Y-50100000D01*
X31440481Y-38659519D02*
X31440480Y-46500000D01*
X31440480Y-46500000D02*
X31440480Y-47359520D01*
X33900000Y-36200000D02*
X31440481Y-38659519D01*
X34000000Y-33900000D02*
X34000000Y-36100000D01*
X31800000Y-49895978D02*
X31800000Y-50600000D01*
X34000000Y-36100000D02*
X33900000Y-36200000D01*
X34109520Y-49609520D02*
X32490480Y-49609520D01*
X32490480Y-49609520D02*
X32086458Y-49609520D01*
D23*
X34912500Y-51012500D02*
X34600000Y-50700000D01*
D24*
X30920000Y-51480000D02*
X28760000Y-51480000D01*
X31440480Y-47359520D02*
X31100000Y-47700000D01*
X32086458Y-49609520D02*
X31800000Y-49895978D01*
D27*
%TO.N,Net-(R2-Pad1)*%
X41300000Y-52100000D02*
X41887500Y-52687500D01*
X41887500Y-52687500D02*
X41887500Y-52800000D01*
X40190000Y-50912500D02*
X40190000Y-51766522D01*
X40523478Y-52100000D02*
X41300000Y-52100000D01*
X40190000Y-51766522D02*
X40523478Y-52100000D01*
D26*
%TO.N,Net-(R5-Pad1)*%
X35127500Y-52762500D02*
X34244511Y-51879511D01*
X33979511Y-51879511D02*
X33650000Y-51550000D01*
X34244511Y-51879511D02*
X33979511Y-51879511D01*
X33650000Y-51550000D02*
X33650000Y-50700000D01*
%TD*%
%TA.AperFunction,Conductor*%
%TO.N,GND*%
G36*
X54241919Y-21520002D02*
G01*
X54288412Y-21573658D01*
X54299798Y-21626201D01*
X54200545Y-83560307D01*
X54200202Y-83774202D01*
X54180091Y-83842291D01*
X54126361Y-83888697D01*
X54074202Y-83900000D01*
X21926000Y-83900000D01*
X21857879Y-83879998D01*
X21811386Y-83826342D01*
X21800000Y-83774000D01*
X21800000Y-81960000D01*
X27164551Y-81960000D01*
X27184317Y-82211148D01*
X27243127Y-82456111D01*
X27339534Y-82688859D01*
X27471164Y-82903659D01*
X27474376Y-82907419D01*
X27474379Y-82907424D01*
X27619256Y-83077052D01*
X27634776Y-83095224D01*
X27638538Y-83098437D01*
X27822576Y-83255621D01*
X27822581Y-83255624D01*
X27826341Y-83258836D01*
X28041141Y-83390466D01*
X28045711Y-83392359D01*
X28045715Y-83392361D01*
X28269316Y-83484979D01*
X28273889Y-83486873D01*
X28358289Y-83507135D01*
X28514039Y-83544528D01*
X28514045Y-83544529D01*
X28518852Y-83545683D01*
X28607149Y-83552632D01*
X28704661Y-83560307D01*
X28704670Y-83560307D01*
X28707118Y-83560500D01*
X28832882Y-83560500D01*
X28835330Y-83560307D01*
X28835339Y-83560307D01*
X28932851Y-83552632D01*
X29021148Y-83545683D01*
X29025955Y-83544529D01*
X29025961Y-83544528D01*
X29181711Y-83507135D01*
X29266111Y-83486873D01*
X29270684Y-83484979D01*
X29494285Y-83392361D01*
X29494289Y-83392359D01*
X29498859Y-83390466D01*
X29713659Y-83258836D01*
X29717419Y-83255624D01*
X29717424Y-83255621D01*
X29901462Y-83098437D01*
X29905224Y-83095224D01*
X29920744Y-83077052D01*
X30065621Y-82907424D01*
X30065624Y-82907419D01*
X30068836Y-82903659D01*
X30200466Y-82688859D01*
X30296873Y-82456111D01*
X30355683Y-82211148D01*
X30375449Y-81960000D01*
X44924551Y-81960000D01*
X44944317Y-82211148D01*
X45003127Y-82456111D01*
X45099534Y-82688859D01*
X45231164Y-82903659D01*
X45234376Y-82907419D01*
X45234379Y-82907424D01*
X45379256Y-83077052D01*
X45394776Y-83095224D01*
X45398538Y-83098437D01*
X45582576Y-83255621D01*
X45582581Y-83255624D01*
X45586341Y-83258836D01*
X45801141Y-83390466D01*
X45805711Y-83392359D01*
X45805715Y-83392361D01*
X46029316Y-83484979D01*
X46033889Y-83486873D01*
X46118289Y-83507135D01*
X46274039Y-83544528D01*
X46274045Y-83544529D01*
X46278852Y-83545683D01*
X46367149Y-83552632D01*
X46464661Y-83560307D01*
X46464670Y-83560307D01*
X46467118Y-83560500D01*
X46592882Y-83560500D01*
X46595330Y-83560307D01*
X46595339Y-83560307D01*
X46692851Y-83552632D01*
X46781148Y-83545683D01*
X46785955Y-83544529D01*
X46785961Y-83544528D01*
X46941711Y-83507135D01*
X47026111Y-83486873D01*
X47030684Y-83484979D01*
X47254285Y-83392361D01*
X47254289Y-83392359D01*
X47258859Y-83390466D01*
X47473659Y-83258836D01*
X47477419Y-83255624D01*
X47477424Y-83255621D01*
X47661462Y-83098437D01*
X47665224Y-83095224D01*
X47680744Y-83077052D01*
X47825621Y-82907424D01*
X47825624Y-82907419D01*
X47828836Y-82903659D01*
X47960466Y-82688859D01*
X48056873Y-82456111D01*
X48115683Y-82211148D01*
X48135449Y-81960000D01*
X48115683Y-81708852D01*
X48056873Y-81463889D01*
X47960466Y-81231141D01*
X47828836Y-81016341D01*
X47825624Y-81012581D01*
X47825621Y-81012576D01*
X47668437Y-80828538D01*
X47665224Y-80824776D01*
X47647052Y-80809256D01*
X47477424Y-80664379D01*
X47477419Y-80664376D01*
X47473659Y-80661164D01*
X47258859Y-80529534D01*
X47254289Y-80527641D01*
X47254285Y-80527639D01*
X47030684Y-80435021D01*
X47030682Y-80435020D01*
X47026111Y-80433127D01*
X46941711Y-80412865D01*
X46785961Y-80375472D01*
X46785955Y-80375471D01*
X46781148Y-80374317D01*
X46692851Y-80367368D01*
X46595339Y-80359693D01*
X46595330Y-80359693D01*
X46592882Y-80359500D01*
X46467118Y-80359500D01*
X46464670Y-80359693D01*
X46464661Y-80359693D01*
X46367149Y-80367368D01*
X46278852Y-80374317D01*
X46274045Y-80375471D01*
X46274039Y-80375472D01*
X46118289Y-80412865D01*
X46033889Y-80433127D01*
X46029318Y-80435020D01*
X46029316Y-80435021D01*
X45805715Y-80527639D01*
X45805711Y-80527641D01*
X45801141Y-80529534D01*
X45586341Y-80661164D01*
X45582581Y-80664376D01*
X45582576Y-80664379D01*
X45412948Y-80809256D01*
X45394776Y-80824776D01*
X45391563Y-80828538D01*
X45234379Y-81012576D01*
X45234376Y-81012581D01*
X45231164Y-81016341D01*
X45099534Y-81231141D01*
X45003127Y-81463889D01*
X44944317Y-81708852D01*
X44924551Y-81960000D01*
X30375449Y-81960000D01*
X30355683Y-81708852D01*
X30296873Y-81463889D01*
X30200466Y-81231141D01*
X30068836Y-81016341D01*
X30065624Y-81012581D01*
X30065621Y-81012576D01*
X29908437Y-80828538D01*
X29905224Y-80824776D01*
X29887052Y-80809256D01*
X29717424Y-80664379D01*
X29717419Y-80664376D01*
X29713659Y-80661164D01*
X29498859Y-80529534D01*
X29494289Y-80527641D01*
X29494285Y-80527639D01*
X29270684Y-80435021D01*
X29270682Y-80435020D01*
X29266111Y-80433127D01*
X29181711Y-80412865D01*
X29025961Y-80375472D01*
X29025955Y-80375471D01*
X29021148Y-80374317D01*
X28932851Y-80367368D01*
X28835339Y-80359693D01*
X28835330Y-80359693D01*
X28832882Y-80359500D01*
X28707118Y-80359500D01*
X28704670Y-80359693D01*
X28704661Y-80359693D01*
X28607149Y-80367368D01*
X28518852Y-80374317D01*
X28514045Y-80375471D01*
X28514039Y-80375472D01*
X28358289Y-80412865D01*
X28273889Y-80433127D01*
X28269318Y-80435020D01*
X28269316Y-80435021D01*
X28045715Y-80527639D01*
X28045711Y-80527641D01*
X28041141Y-80529534D01*
X27826341Y-80661164D01*
X27822581Y-80664376D01*
X27822576Y-80664379D01*
X27652948Y-80809256D01*
X27634776Y-80824776D01*
X27631563Y-80828538D01*
X27474379Y-81012576D01*
X27474376Y-81012581D01*
X27471164Y-81016341D01*
X27339534Y-81231141D01*
X27243127Y-81463889D01*
X27184317Y-81708852D01*
X27164551Y-81960000D01*
X21800000Y-81960000D01*
X21800000Y-76929126D01*
X26555541Y-76929126D01*
X26585935Y-77130097D01*
X26656119Y-77320852D01*
X26659479Y-77326272D01*
X26659480Y-77326273D01*
X26759863Y-77488176D01*
X26759866Y-77488180D01*
X26763226Y-77493599D01*
X26902881Y-77641280D01*
X27069379Y-77757863D01*
X27255919Y-77838586D01*
X27301947Y-77848202D01*
X27450144Y-77879162D01*
X27450149Y-77879163D01*
X27454880Y-77880151D01*
X27459762Y-77880407D01*
X27459871Y-77880413D01*
X27459887Y-77880413D01*
X27461539Y-77880500D01*
X30010800Y-77880500D01*
X30058793Y-77875625D01*
X30155868Y-77865765D01*
X30155870Y-77865765D01*
X30162216Y-77865120D01*
X30356172Y-77804338D01*
X30533944Y-77705797D01*
X30688271Y-77573523D01*
X30812848Y-77412919D01*
X30902587Y-77230545D01*
X30928752Y-77130097D01*
X30952212Y-77040034D01*
X30952212Y-77040031D01*
X30953822Y-77033852D01*
X30959310Y-76929126D01*
X44335541Y-76929126D01*
X44365935Y-77130097D01*
X44436119Y-77320852D01*
X44439479Y-77326272D01*
X44439480Y-77326273D01*
X44539863Y-77488176D01*
X44539866Y-77488180D01*
X44543226Y-77493599D01*
X44682881Y-77641280D01*
X44849379Y-77757863D01*
X45035919Y-77838586D01*
X45081947Y-77848202D01*
X45230144Y-77879162D01*
X45230149Y-77879163D01*
X45234880Y-77880151D01*
X45239762Y-77880407D01*
X45239871Y-77880413D01*
X45239887Y-77880413D01*
X45241539Y-77880500D01*
X47790800Y-77880500D01*
X47838793Y-77875625D01*
X47935868Y-77865765D01*
X47935870Y-77865765D01*
X47942216Y-77865120D01*
X48136172Y-77804338D01*
X48313944Y-77705797D01*
X48468271Y-77573523D01*
X48592848Y-77412919D01*
X48682587Y-77230545D01*
X48708752Y-77130097D01*
X48732212Y-77040034D01*
X48732212Y-77040031D01*
X48733822Y-77033852D01*
X48744459Y-76830874D01*
X48714065Y-76629903D01*
X48643881Y-76439148D01*
X48590345Y-76352802D01*
X48540137Y-76271824D01*
X48540134Y-76271820D01*
X48536774Y-76266401D01*
X48397119Y-76118720D01*
X48230621Y-76002137D01*
X48044081Y-75921414D01*
X47998053Y-75911798D01*
X47849856Y-75880838D01*
X47849851Y-75880837D01*
X47845120Y-75879849D01*
X47840238Y-75879593D01*
X47840129Y-75879587D01*
X47840113Y-75879587D01*
X47838461Y-75879500D01*
X45289200Y-75879500D01*
X45241207Y-75884375D01*
X45144132Y-75894235D01*
X45144130Y-75894235D01*
X45137784Y-75894880D01*
X44943828Y-75955662D01*
X44766056Y-76054203D01*
X44611729Y-76186477D01*
X44487152Y-76347081D01*
X44397413Y-76529455D01*
X44395804Y-76535633D01*
X44395803Y-76535635D01*
X44369603Y-76636220D01*
X44346178Y-76726148D01*
X44335541Y-76929126D01*
X30959310Y-76929126D01*
X30964459Y-76830874D01*
X30934065Y-76629903D01*
X30863881Y-76439148D01*
X30810345Y-76352802D01*
X30760137Y-76271824D01*
X30760134Y-76271820D01*
X30756774Y-76266401D01*
X30617119Y-76118720D01*
X30450621Y-76002137D01*
X30264081Y-75921414D01*
X30218053Y-75911798D01*
X30069856Y-75880838D01*
X30069851Y-75880837D01*
X30065120Y-75879849D01*
X30060238Y-75879593D01*
X30060129Y-75879587D01*
X30060113Y-75879587D01*
X30058461Y-75879500D01*
X27509200Y-75879500D01*
X27461207Y-75884375D01*
X27364132Y-75894235D01*
X27364130Y-75894235D01*
X27357784Y-75894880D01*
X27163828Y-75955662D01*
X26986056Y-76054203D01*
X26831729Y-76186477D01*
X26707152Y-76347081D01*
X26617413Y-76529455D01*
X26615804Y-76535633D01*
X26615803Y-76535635D01*
X26589603Y-76636220D01*
X26566178Y-76726148D01*
X26555541Y-76929126D01*
X21800000Y-76929126D01*
X21800000Y-72066522D01*
X26277273Y-72066522D01*
X26324764Y-72243761D01*
X26328510Y-72254053D01*
X26420586Y-72451511D01*
X26426069Y-72461007D01*
X26551028Y-72639467D01*
X26558084Y-72647875D01*
X26712125Y-72801916D01*
X26720533Y-72808972D01*
X26898993Y-72933931D01*
X26908489Y-72939414D01*
X27105947Y-73031490D01*
X27116239Y-73035236D01*
X27326688Y-73091625D01*
X27337480Y-73093528D01*
X27402857Y-73099248D01*
X27468975Y-73125112D01*
X27510614Y-73182615D01*
X27514555Y-73253502D01*
X27479546Y-73315267D01*
X27416701Y-73348299D01*
X27404610Y-73350124D01*
X27389442Y-73351664D01*
X27364132Y-73354235D01*
X27364130Y-73354235D01*
X27357784Y-73354880D01*
X27163828Y-73415662D01*
X26986056Y-73514203D01*
X26831729Y-73646477D01*
X26707152Y-73807081D01*
X26617413Y-73989455D01*
X26615804Y-73995633D01*
X26615803Y-73995635D01*
X26589603Y-74096220D01*
X26566178Y-74186148D01*
X26555541Y-74389126D01*
X26585935Y-74590097D01*
X26656119Y-74780852D01*
X26659479Y-74786272D01*
X26659480Y-74786273D01*
X26759863Y-74948176D01*
X26759866Y-74948180D01*
X26763226Y-74953599D01*
X26902881Y-75101280D01*
X27069379Y-75217863D01*
X27255919Y-75298586D01*
X27301947Y-75308202D01*
X27450144Y-75339162D01*
X27450149Y-75339163D01*
X27454880Y-75340151D01*
X27459762Y-75340407D01*
X27459871Y-75340413D01*
X27459887Y-75340413D01*
X27461539Y-75340500D01*
X30010800Y-75340500D01*
X30058793Y-75335625D01*
X30155868Y-75325765D01*
X30155870Y-75325765D01*
X30162216Y-75325120D01*
X30356172Y-75264338D01*
X30533944Y-75165797D01*
X30688271Y-75033523D01*
X30812848Y-74872919D01*
X30902587Y-74690545D01*
X30928752Y-74590097D01*
X30952212Y-74500034D01*
X30952212Y-74500031D01*
X30953822Y-74493852D01*
X30964459Y-74290874D01*
X30934065Y-74089903D01*
X30863881Y-73899148D01*
X30810345Y-73812802D01*
X30760137Y-73731824D01*
X30760134Y-73731820D01*
X30756774Y-73726401D01*
X30617119Y-73578720D01*
X30450621Y-73462137D01*
X30264081Y-73381414D01*
X30103969Y-73347965D01*
X30041378Y-73314456D01*
X30006840Y-73252426D01*
X30011320Y-73181571D01*
X30053396Y-73124386D01*
X30118754Y-73099107D01*
X30182520Y-73093528D01*
X30193312Y-73091625D01*
X30403761Y-73035236D01*
X30414053Y-73031490D01*
X30611511Y-72939414D01*
X30621007Y-72933931D01*
X30799467Y-72808972D01*
X30807875Y-72801916D01*
X30961916Y-72647875D01*
X30968972Y-72639467D01*
X31093931Y-72461007D01*
X31099414Y-72451511D01*
X31191490Y-72254053D01*
X31195236Y-72243761D01*
X31241394Y-72071497D01*
X31241275Y-72066522D01*
X44057273Y-72066522D01*
X44104764Y-72243761D01*
X44108510Y-72254053D01*
X44200586Y-72451511D01*
X44206069Y-72461007D01*
X44331028Y-72639467D01*
X44338084Y-72647875D01*
X44492125Y-72801916D01*
X44500533Y-72808972D01*
X44678993Y-72933931D01*
X44688489Y-72939414D01*
X44885947Y-73031490D01*
X44896239Y-73035236D01*
X45106688Y-73091625D01*
X45117480Y-73093528D01*
X45182857Y-73099248D01*
X45248975Y-73125112D01*
X45290614Y-73182615D01*
X45294555Y-73253502D01*
X45259546Y-73315267D01*
X45196701Y-73348299D01*
X45184610Y-73350124D01*
X45169442Y-73351664D01*
X45144132Y-73354235D01*
X45144130Y-73354235D01*
X45137784Y-73354880D01*
X44943828Y-73415662D01*
X44766056Y-73514203D01*
X44611729Y-73646477D01*
X44487152Y-73807081D01*
X44397413Y-73989455D01*
X44395804Y-73995633D01*
X44395803Y-73995635D01*
X44369603Y-74096220D01*
X44346178Y-74186148D01*
X44335541Y-74389126D01*
X44365935Y-74590097D01*
X44436119Y-74780852D01*
X44439479Y-74786272D01*
X44439480Y-74786273D01*
X44539863Y-74948176D01*
X44539866Y-74948180D01*
X44543226Y-74953599D01*
X44682881Y-75101280D01*
X44849379Y-75217863D01*
X45035919Y-75298586D01*
X45081947Y-75308202D01*
X45230144Y-75339162D01*
X45230149Y-75339163D01*
X45234880Y-75340151D01*
X45239762Y-75340407D01*
X45239871Y-75340413D01*
X45239887Y-75340413D01*
X45241539Y-75340500D01*
X47790800Y-75340500D01*
X47838793Y-75335625D01*
X47935868Y-75325765D01*
X47935870Y-75325765D01*
X47942216Y-75325120D01*
X48136172Y-75264338D01*
X48313944Y-75165797D01*
X48468271Y-75033523D01*
X48592848Y-74872919D01*
X48682587Y-74690545D01*
X48708752Y-74590097D01*
X48732212Y-74500034D01*
X48732212Y-74500031D01*
X48733822Y-74493852D01*
X48744459Y-74290874D01*
X48714065Y-74089903D01*
X48643881Y-73899148D01*
X48590345Y-73812802D01*
X48540137Y-73731824D01*
X48540134Y-73731820D01*
X48536774Y-73726401D01*
X48397119Y-73578720D01*
X48230621Y-73462137D01*
X48044081Y-73381414D01*
X47883969Y-73347965D01*
X47821378Y-73314456D01*
X47786840Y-73252426D01*
X47791320Y-73181571D01*
X47833396Y-73124386D01*
X47898754Y-73099107D01*
X47962520Y-73093528D01*
X47973312Y-73091625D01*
X48183761Y-73035236D01*
X48194053Y-73031490D01*
X48391511Y-72939414D01*
X48401007Y-72933931D01*
X48579467Y-72808972D01*
X48587875Y-72801916D01*
X48741916Y-72647875D01*
X48748972Y-72639467D01*
X48873931Y-72461007D01*
X48879414Y-72451511D01*
X48971490Y-72254053D01*
X48975236Y-72243761D01*
X49021394Y-72071497D01*
X49021058Y-72057401D01*
X49013116Y-72054000D01*
X44072033Y-72054000D01*
X44058502Y-72057973D01*
X44057273Y-72066522D01*
X31241275Y-72066522D01*
X31241058Y-72057401D01*
X31233116Y-72054000D01*
X26292033Y-72054000D01*
X26278502Y-72057973D01*
X26277273Y-72066522D01*
X21800000Y-72066522D01*
X21800000Y-71528503D01*
X26278606Y-71528503D01*
X26278942Y-71542599D01*
X26286884Y-71546000D01*
X31227967Y-71546000D01*
X31241498Y-71542027D01*
X31242727Y-71533478D01*
X31241394Y-71528503D01*
X44058606Y-71528503D01*
X44058942Y-71542599D01*
X44066884Y-71546000D01*
X49007967Y-71546000D01*
X49021498Y-71542027D01*
X49022727Y-71533478D01*
X48975236Y-71356239D01*
X48971490Y-71345947D01*
X48879414Y-71148489D01*
X48873931Y-71138993D01*
X48748972Y-70960533D01*
X48741916Y-70952125D01*
X48587875Y-70798084D01*
X48579467Y-70791028D01*
X48401007Y-70666069D01*
X48391511Y-70660586D01*
X48194053Y-70568510D01*
X48183761Y-70564764D01*
X47973312Y-70508375D01*
X47962520Y-70506472D01*
X47897143Y-70500752D01*
X47831025Y-70474888D01*
X47789386Y-70417385D01*
X47785445Y-70346498D01*
X47820454Y-70284733D01*
X47883299Y-70251701D01*
X47895390Y-70249876D01*
X47910558Y-70248336D01*
X47935868Y-70245765D01*
X47935870Y-70245765D01*
X47942216Y-70245120D01*
X48136172Y-70184338D01*
X48313944Y-70085797D01*
X48468271Y-69953523D01*
X48592848Y-69792919D01*
X48682587Y-69610545D01*
X48708752Y-69510097D01*
X48732212Y-69420034D01*
X48732212Y-69420031D01*
X48733822Y-69413852D01*
X48744459Y-69210874D01*
X48714065Y-69009903D01*
X48643881Y-68819148D01*
X48590345Y-68732802D01*
X48540137Y-68651824D01*
X48540134Y-68651820D01*
X48536774Y-68646401D01*
X48397119Y-68498720D01*
X48230621Y-68382137D01*
X48044081Y-68301414D01*
X47998053Y-68291798D01*
X47849856Y-68260838D01*
X47849851Y-68260837D01*
X47845120Y-68259849D01*
X47840238Y-68259593D01*
X47840129Y-68259587D01*
X47840113Y-68259587D01*
X47838461Y-68259500D01*
X45289200Y-68259500D01*
X45241207Y-68264375D01*
X45144132Y-68274235D01*
X45144130Y-68274235D01*
X45137784Y-68274880D01*
X44943828Y-68335662D01*
X44766056Y-68434203D01*
X44611729Y-68566477D01*
X44487152Y-68727081D01*
X44397413Y-68909455D01*
X44395804Y-68915633D01*
X44395803Y-68915635D01*
X44369603Y-69016220D01*
X44346178Y-69106148D01*
X44335541Y-69309126D01*
X44365935Y-69510097D01*
X44436119Y-69700852D01*
X44439479Y-69706272D01*
X44439480Y-69706273D01*
X44539863Y-69868176D01*
X44539866Y-69868180D01*
X44543226Y-69873599D01*
X44682881Y-70021280D01*
X44849379Y-70137863D01*
X45035919Y-70218586D01*
X45166018Y-70245765D01*
X45196031Y-70252035D01*
X45258622Y-70285544D01*
X45293160Y-70347574D01*
X45288680Y-70418429D01*
X45246604Y-70475614D01*
X45181246Y-70500893D01*
X45117480Y-70506472D01*
X45106688Y-70508375D01*
X44896239Y-70564764D01*
X44885947Y-70568510D01*
X44688489Y-70660586D01*
X44678993Y-70666069D01*
X44500533Y-70791028D01*
X44492125Y-70798084D01*
X44338084Y-70952125D01*
X44331028Y-70960533D01*
X44206069Y-71138993D01*
X44200586Y-71148489D01*
X44108510Y-71345947D01*
X44104764Y-71356239D01*
X44058606Y-71528503D01*
X31241394Y-71528503D01*
X31195236Y-71356239D01*
X31191490Y-71345947D01*
X31099414Y-71148489D01*
X31093931Y-71138993D01*
X30968972Y-70960533D01*
X30961916Y-70952125D01*
X30807875Y-70798084D01*
X30799467Y-70791028D01*
X30621007Y-70666069D01*
X30611511Y-70660586D01*
X30414053Y-70568510D01*
X30403761Y-70564764D01*
X30193312Y-70508375D01*
X30182520Y-70506472D01*
X30117143Y-70500752D01*
X30051025Y-70474888D01*
X30009386Y-70417385D01*
X30005445Y-70346498D01*
X30040454Y-70284733D01*
X30103299Y-70251701D01*
X30115390Y-70249876D01*
X30130558Y-70248336D01*
X30155868Y-70245765D01*
X30155870Y-70245765D01*
X30162216Y-70245120D01*
X30356172Y-70184338D01*
X30533944Y-70085797D01*
X30688271Y-69953523D01*
X30812848Y-69792919D01*
X30902587Y-69610545D01*
X30928752Y-69510097D01*
X30952212Y-69420034D01*
X30952212Y-69420031D01*
X30953822Y-69413852D01*
X30964459Y-69210874D01*
X30934065Y-69009903D01*
X30863881Y-68819148D01*
X30810345Y-68732802D01*
X30760137Y-68651824D01*
X30760134Y-68651820D01*
X30756774Y-68646401D01*
X30617119Y-68498720D01*
X30450621Y-68382137D01*
X30264081Y-68301414D01*
X30218053Y-68291798D01*
X30069856Y-68260838D01*
X30069851Y-68260837D01*
X30065120Y-68259849D01*
X30060238Y-68259593D01*
X30060129Y-68259587D01*
X30060113Y-68259587D01*
X30058461Y-68259500D01*
X27509200Y-68259500D01*
X27461207Y-68264375D01*
X27364132Y-68274235D01*
X27364130Y-68274235D01*
X27357784Y-68274880D01*
X27163828Y-68335662D01*
X26986056Y-68434203D01*
X26831729Y-68566477D01*
X26707152Y-68727081D01*
X26617413Y-68909455D01*
X26615804Y-68915633D01*
X26615803Y-68915635D01*
X26589603Y-69016220D01*
X26566178Y-69106148D01*
X26555541Y-69309126D01*
X26585935Y-69510097D01*
X26656119Y-69700852D01*
X26659479Y-69706272D01*
X26659480Y-69706273D01*
X26759863Y-69868176D01*
X26759866Y-69868180D01*
X26763226Y-69873599D01*
X26902881Y-70021280D01*
X27069379Y-70137863D01*
X27255919Y-70218586D01*
X27386018Y-70245765D01*
X27416031Y-70252035D01*
X27478622Y-70285544D01*
X27513160Y-70347574D01*
X27508680Y-70418429D01*
X27466604Y-70475614D01*
X27401246Y-70500893D01*
X27337480Y-70506472D01*
X27326688Y-70508375D01*
X27116239Y-70564764D01*
X27105947Y-70568510D01*
X26908489Y-70660586D01*
X26898993Y-70666069D01*
X26720533Y-70791028D01*
X26712125Y-70798084D01*
X26558084Y-70952125D01*
X26551028Y-70960533D01*
X26426069Y-71138993D01*
X26420586Y-71148489D01*
X26328510Y-71345947D01*
X26324764Y-71356239D01*
X26278606Y-71528503D01*
X21800000Y-71528503D01*
X21800000Y-66769126D01*
X26555541Y-66769126D01*
X26585935Y-66970097D01*
X26656119Y-67160852D01*
X26659479Y-67166272D01*
X26659480Y-67166273D01*
X26759863Y-67328176D01*
X26759866Y-67328180D01*
X26763226Y-67333599D01*
X26902881Y-67481280D01*
X27069379Y-67597863D01*
X27255919Y-67678586D01*
X27301947Y-67688202D01*
X27450144Y-67719162D01*
X27450149Y-67719163D01*
X27454880Y-67720151D01*
X27459762Y-67720407D01*
X27459871Y-67720413D01*
X27459887Y-67720413D01*
X27461539Y-67720500D01*
X30010800Y-67720500D01*
X30058793Y-67715625D01*
X30155868Y-67705765D01*
X30155870Y-67705765D01*
X30162216Y-67705120D01*
X30356172Y-67644338D01*
X30533944Y-67545797D01*
X30688271Y-67413523D01*
X30812848Y-67252919D01*
X30902587Y-67070545D01*
X30928752Y-66970097D01*
X30952212Y-66880034D01*
X30952212Y-66880031D01*
X30953822Y-66873852D01*
X30959310Y-66769126D01*
X44335541Y-66769126D01*
X44365935Y-66970097D01*
X44436119Y-67160852D01*
X44439479Y-67166272D01*
X44439480Y-67166273D01*
X44539863Y-67328176D01*
X44539866Y-67328180D01*
X44543226Y-67333599D01*
X44682881Y-67481280D01*
X44849379Y-67597863D01*
X45035919Y-67678586D01*
X45081947Y-67688202D01*
X45230144Y-67719162D01*
X45230149Y-67719163D01*
X45234880Y-67720151D01*
X45239762Y-67720407D01*
X45239871Y-67720413D01*
X45239887Y-67720413D01*
X45241539Y-67720500D01*
X47790800Y-67720500D01*
X47838793Y-67715625D01*
X47935868Y-67705765D01*
X47935870Y-67705765D01*
X47942216Y-67705120D01*
X48136172Y-67644338D01*
X48313944Y-67545797D01*
X48468271Y-67413523D01*
X48592848Y-67252919D01*
X48682587Y-67070545D01*
X48708752Y-66970097D01*
X48732212Y-66880034D01*
X48732212Y-66880031D01*
X48733822Y-66873852D01*
X48744459Y-66670874D01*
X48714065Y-66469903D01*
X48643881Y-66279148D01*
X48590345Y-66192802D01*
X48540137Y-66111824D01*
X48540134Y-66111820D01*
X48536774Y-66106401D01*
X48397119Y-65958720D01*
X48230621Y-65842137D01*
X48044081Y-65761414D01*
X47998053Y-65751798D01*
X47849856Y-65720838D01*
X47849851Y-65720837D01*
X47845120Y-65719849D01*
X47840238Y-65719593D01*
X47840129Y-65719587D01*
X47840113Y-65719587D01*
X47838461Y-65719500D01*
X45289200Y-65719500D01*
X45241207Y-65724375D01*
X45144132Y-65734235D01*
X45144130Y-65734235D01*
X45137784Y-65734880D01*
X44943828Y-65795662D01*
X44766056Y-65894203D01*
X44611729Y-66026477D01*
X44487152Y-66187081D01*
X44397413Y-66369455D01*
X44395804Y-66375633D01*
X44395803Y-66375635D01*
X44369603Y-66476220D01*
X44346178Y-66566148D01*
X44335541Y-66769126D01*
X30959310Y-66769126D01*
X30964459Y-66670874D01*
X30934065Y-66469903D01*
X30863881Y-66279148D01*
X30810345Y-66192802D01*
X30760137Y-66111824D01*
X30760134Y-66111820D01*
X30756774Y-66106401D01*
X30617119Y-65958720D01*
X30450621Y-65842137D01*
X30264081Y-65761414D01*
X30218053Y-65751798D01*
X30069856Y-65720838D01*
X30069851Y-65720837D01*
X30065120Y-65719849D01*
X30060238Y-65719593D01*
X30060129Y-65719587D01*
X30060113Y-65719587D01*
X30058461Y-65719500D01*
X27509200Y-65719500D01*
X27461207Y-65724375D01*
X27364132Y-65734235D01*
X27364130Y-65734235D01*
X27357784Y-65734880D01*
X27163828Y-65795662D01*
X26986056Y-65894203D01*
X26831729Y-66026477D01*
X26707152Y-66187081D01*
X26617413Y-66369455D01*
X26615804Y-66375633D01*
X26615803Y-66375635D01*
X26589603Y-66476220D01*
X26566178Y-66566148D01*
X26555541Y-66769126D01*
X21800000Y-66769126D01*
X21800000Y-65203683D01*
X33478493Y-65203683D01*
X33487789Y-65215698D01*
X33538994Y-65251552D01*
X33548489Y-65257035D01*
X33745947Y-65349111D01*
X33756239Y-65352857D01*
X33966688Y-65409246D01*
X33977481Y-65411149D01*
X34194525Y-65430138D01*
X34205475Y-65430138D01*
X34422519Y-65411149D01*
X34433312Y-65409246D01*
X34643761Y-65352857D01*
X34654053Y-65349111D01*
X34851511Y-65257035D01*
X34861006Y-65251552D01*
X34913048Y-65215112D01*
X34921424Y-65204633D01*
X34920925Y-65203683D01*
X40378493Y-65203683D01*
X40387789Y-65215698D01*
X40438994Y-65251552D01*
X40448489Y-65257035D01*
X40645947Y-65349111D01*
X40656239Y-65352857D01*
X40866688Y-65409246D01*
X40877481Y-65411149D01*
X41094525Y-65430138D01*
X41105475Y-65430138D01*
X41322519Y-65411149D01*
X41333312Y-65409246D01*
X41543761Y-65352857D01*
X41554053Y-65349111D01*
X41751511Y-65257035D01*
X41761006Y-65251552D01*
X41813048Y-65215112D01*
X41821424Y-65204633D01*
X41814356Y-65191187D01*
X41112812Y-64489643D01*
X41098868Y-64482029D01*
X41097035Y-64482160D01*
X41090420Y-64486411D01*
X40384923Y-65191908D01*
X40378493Y-65203683D01*
X34920925Y-65203683D01*
X34914356Y-65191187D01*
X34212812Y-64489643D01*
X34198868Y-64482029D01*
X34197035Y-64482160D01*
X34190420Y-64486411D01*
X33484923Y-65191908D01*
X33478493Y-65203683D01*
X21800000Y-65203683D01*
X21800000Y-64229126D01*
X26555541Y-64229126D01*
X26585935Y-64430097D01*
X26656119Y-64620852D01*
X26659479Y-64626272D01*
X26659480Y-64626273D01*
X26759863Y-64788176D01*
X26759866Y-64788180D01*
X26763226Y-64793599D01*
X26902881Y-64941280D01*
X27069379Y-65057863D01*
X27255919Y-65138586D01*
X27301947Y-65148202D01*
X27450144Y-65179162D01*
X27450149Y-65179163D01*
X27454880Y-65180151D01*
X27459762Y-65180407D01*
X27459871Y-65180413D01*
X27459887Y-65180413D01*
X27461539Y-65180500D01*
X30010800Y-65180500D01*
X30058793Y-65175625D01*
X30155868Y-65165765D01*
X30155870Y-65165765D01*
X30162216Y-65165120D01*
X30356172Y-65104338D01*
X30533944Y-65005797D01*
X30688271Y-64873523D01*
X30714951Y-64839128D01*
X30808939Y-64717958D01*
X30812848Y-64712919D01*
X30902587Y-64530545D01*
X30914083Y-64486411D01*
X30952212Y-64340034D01*
X30952212Y-64340031D01*
X30953822Y-64333852D01*
X30964459Y-64130874D01*
X30963283Y-64123096D01*
X32887483Y-64123096D01*
X32906472Y-64340140D01*
X32908375Y-64350933D01*
X32964764Y-64561382D01*
X32968510Y-64571674D01*
X33060586Y-64769132D01*
X33066069Y-64778627D01*
X33102509Y-64830669D01*
X33112988Y-64839045D01*
X33126434Y-64831977D01*
X33827978Y-64130433D01*
X33834356Y-64118753D01*
X34564408Y-64118753D01*
X34564539Y-64120586D01*
X34568790Y-64127201D01*
X35274287Y-64832698D01*
X35286062Y-64839128D01*
X35298077Y-64829832D01*
X35333931Y-64778627D01*
X35339414Y-64769132D01*
X35431490Y-64571674D01*
X35435236Y-64561382D01*
X35491625Y-64350933D01*
X35493528Y-64340140D01*
X35512517Y-64123096D01*
X39787483Y-64123096D01*
X39806472Y-64340140D01*
X39808375Y-64350933D01*
X39864764Y-64561382D01*
X39868510Y-64571674D01*
X39960586Y-64769132D01*
X39966069Y-64778627D01*
X40002509Y-64830669D01*
X40012988Y-64839045D01*
X40026434Y-64831977D01*
X40727978Y-64130433D01*
X40734356Y-64118753D01*
X41464408Y-64118753D01*
X41464539Y-64120586D01*
X41468790Y-64127201D01*
X42174287Y-64832698D01*
X42186062Y-64839128D01*
X42198077Y-64829832D01*
X42233931Y-64778627D01*
X42239414Y-64769132D01*
X42331490Y-64571674D01*
X42335236Y-64561382D01*
X42391625Y-64350933D01*
X42393528Y-64340140D01*
X42403241Y-64229126D01*
X44335541Y-64229126D01*
X44365935Y-64430097D01*
X44436119Y-64620852D01*
X44439479Y-64626272D01*
X44439480Y-64626273D01*
X44539863Y-64788176D01*
X44539866Y-64788180D01*
X44543226Y-64793599D01*
X44682881Y-64941280D01*
X44849379Y-65057863D01*
X45035919Y-65138586D01*
X45081947Y-65148202D01*
X45230144Y-65179162D01*
X45230149Y-65179163D01*
X45234880Y-65180151D01*
X45239762Y-65180407D01*
X45239871Y-65180413D01*
X45239887Y-65180413D01*
X45241539Y-65180500D01*
X47790800Y-65180500D01*
X47838793Y-65175625D01*
X47935868Y-65165765D01*
X47935870Y-65165765D01*
X47942216Y-65165120D01*
X48136172Y-65104338D01*
X48313944Y-65005797D01*
X48468271Y-64873523D01*
X48494951Y-64839128D01*
X48588939Y-64717958D01*
X48592848Y-64712919D01*
X48682587Y-64530545D01*
X48694083Y-64486411D01*
X48732212Y-64340034D01*
X48732212Y-64340031D01*
X48733822Y-64333852D01*
X48744459Y-64130874D01*
X48714065Y-63929903D01*
X48643881Y-63739148D01*
X48590345Y-63652802D01*
X48540137Y-63571824D01*
X48540134Y-63571820D01*
X48536774Y-63566401D01*
X48397119Y-63418720D01*
X48230621Y-63302137D01*
X48044081Y-63221414D01*
X47998053Y-63211798D01*
X47849856Y-63180838D01*
X47849851Y-63180837D01*
X47845120Y-63179849D01*
X47840238Y-63179593D01*
X47840129Y-63179587D01*
X47840113Y-63179587D01*
X47838461Y-63179500D01*
X45289200Y-63179500D01*
X45241207Y-63184375D01*
X45144132Y-63194235D01*
X45144130Y-63194235D01*
X45137784Y-63194880D01*
X44943828Y-63255662D01*
X44766056Y-63354203D01*
X44611729Y-63486477D01*
X44487152Y-63647081D01*
X44397413Y-63829455D01*
X44395804Y-63835633D01*
X44395803Y-63835635D01*
X44369603Y-63936220D01*
X44346178Y-64026148D01*
X44335541Y-64229126D01*
X42403241Y-64229126D01*
X42412517Y-64123096D01*
X42412517Y-64112146D01*
X42393528Y-63895102D01*
X42391625Y-63884309D01*
X42335236Y-63673860D01*
X42331490Y-63663568D01*
X42239414Y-63466110D01*
X42233931Y-63456615D01*
X42197491Y-63404573D01*
X42187012Y-63396197D01*
X42173566Y-63403265D01*
X41472022Y-64104809D01*
X41464408Y-64118753D01*
X40734356Y-64118753D01*
X40735592Y-64116489D01*
X40735461Y-64114656D01*
X40731210Y-64108041D01*
X40025713Y-63402544D01*
X40013938Y-63396114D01*
X40001923Y-63405410D01*
X39966069Y-63456615D01*
X39960586Y-63466110D01*
X39868510Y-63663568D01*
X39864764Y-63673860D01*
X39808375Y-63884309D01*
X39806472Y-63895102D01*
X39787483Y-64112146D01*
X39787483Y-64123096D01*
X35512517Y-64123096D01*
X35512517Y-64112146D01*
X35493528Y-63895102D01*
X35491625Y-63884309D01*
X35435236Y-63673860D01*
X35431490Y-63663568D01*
X35339414Y-63466110D01*
X35333931Y-63456615D01*
X35297491Y-63404573D01*
X35287012Y-63396197D01*
X35273566Y-63403265D01*
X34572022Y-64104809D01*
X34564408Y-64118753D01*
X33834356Y-64118753D01*
X33835592Y-64116489D01*
X33835461Y-64114656D01*
X33831210Y-64108041D01*
X33125713Y-63402544D01*
X33113938Y-63396114D01*
X33101923Y-63405410D01*
X33066069Y-63456615D01*
X33060586Y-63466110D01*
X32968510Y-63663568D01*
X32964764Y-63673860D01*
X32908375Y-63884309D01*
X32906472Y-63895102D01*
X32887483Y-64112146D01*
X32887483Y-64123096D01*
X30963283Y-64123096D01*
X30934065Y-63929903D01*
X30863881Y-63739148D01*
X30810345Y-63652802D01*
X30760137Y-63571824D01*
X30760134Y-63571820D01*
X30756774Y-63566401D01*
X30617119Y-63418720D01*
X30450621Y-63302137D01*
X30264081Y-63221414D01*
X30218053Y-63211798D01*
X30069856Y-63180838D01*
X30069851Y-63180837D01*
X30065120Y-63179849D01*
X30060238Y-63179593D01*
X30060129Y-63179587D01*
X30060113Y-63179587D01*
X30058461Y-63179500D01*
X27509200Y-63179500D01*
X27461207Y-63184375D01*
X27364132Y-63194235D01*
X27364130Y-63194235D01*
X27357784Y-63194880D01*
X27163828Y-63255662D01*
X26986056Y-63354203D01*
X26831729Y-63486477D01*
X26707152Y-63647081D01*
X26617413Y-63829455D01*
X26615804Y-63835633D01*
X26615803Y-63835635D01*
X26589603Y-63936220D01*
X26566178Y-64026148D01*
X26555541Y-64229126D01*
X21800000Y-64229126D01*
X21800000Y-59366522D01*
X26277273Y-59366522D01*
X26324764Y-59543761D01*
X26328510Y-59554053D01*
X26420586Y-59751511D01*
X26426069Y-59761007D01*
X26551028Y-59939467D01*
X26558084Y-59947875D01*
X26712125Y-60101916D01*
X26720533Y-60108972D01*
X26898993Y-60233931D01*
X26908489Y-60239414D01*
X27105947Y-60331490D01*
X27116239Y-60335236D01*
X27326688Y-60391625D01*
X27337480Y-60393528D01*
X27402857Y-60399248D01*
X27468975Y-60425112D01*
X27510614Y-60482615D01*
X27514555Y-60553502D01*
X27479546Y-60615267D01*
X27416701Y-60648299D01*
X27404610Y-60650124D01*
X27389442Y-60651664D01*
X27364132Y-60654235D01*
X27364130Y-60654235D01*
X27357784Y-60654880D01*
X27163828Y-60715662D01*
X26986056Y-60814203D01*
X26831729Y-60946477D01*
X26707152Y-61107081D01*
X26617413Y-61289455D01*
X26615804Y-61295633D01*
X26615803Y-61295635D01*
X26589603Y-61396220D01*
X26566178Y-61486148D01*
X26555541Y-61689126D01*
X26585935Y-61890097D01*
X26656119Y-62080852D01*
X26659479Y-62086272D01*
X26659480Y-62086273D01*
X26759863Y-62248176D01*
X26759866Y-62248180D01*
X26763226Y-62253599D01*
X26902881Y-62401280D01*
X27069379Y-62517863D01*
X27255919Y-62598586D01*
X27293744Y-62606488D01*
X27450144Y-62639162D01*
X27450149Y-62639163D01*
X27454880Y-62640151D01*
X27459762Y-62640407D01*
X27459871Y-62640413D01*
X27459887Y-62640413D01*
X27461539Y-62640500D01*
X30010800Y-62640500D01*
X30058793Y-62635625D01*
X30155868Y-62625765D01*
X30155870Y-62625765D01*
X30162216Y-62625120D01*
X30356172Y-62564338D01*
X30533944Y-62465797D01*
X30688271Y-62333523D01*
X30812848Y-62172919D01*
X30902587Y-61990545D01*
X30928752Y-61890097D01*
X30952212Y-61800034D01*
X30952212Y-61800031D01*
X30953822Y-61793852D01*
X30964459Y-61590874D01*
X30934065Y-61389903D01*
X30863881Y-61199148D01*
X30810345Y-61112802D01*
X30760137Y-61031824D01*
X30760134Y-61031820D01*
X30756774Y-61026401D01*
X30617119Y-60878720D01*
X30450621Y-60762137D01*
X30264081Y-60681414D01*
X30103969Y-60647965D01*
X30041378Y-60614456D01*
X30006840Y-60552426D01*
X30011320Y-60481571D01*
X30053396Y-60424386D01*
X30118754Y-60399107D01*
X30182520Y-60393528D01*
X30193312Y-60391625D01*
X30403761Y-60335236D01*
X30414053Y-60331490D01*
X30611511Y-60239414D01*
X30621007Y-60233931D01*
X30799467Y-60108972D01*
X30807875Y-60101916D01*
X30961916Y-59947875D01*
X30968972Y-59939467D01*
X31093931Y-59761007D01*
X31099414Y-59751511D01*
X31191490Y-59554053D01*
X31195236Y-59543761D01*
X31241394Y-59371497D01*
X31241058Y-59357401D01*
X31233116Y-59354000D01*
X26292033Y-59354000D01*
X26278502Y-59357973D01*
X26277273Y-59366522D01*
X21800000Y-59366522D01*
X21800000Y-58828503D01*
X26278606Y-58828503D01*
X26278942Y-58842599D01*
X26286884Y-58846000D01*
X31227967Y-58846000D01*
X31241498Y-58842027D01*
X31242727Y-58833478D01*
X31195236Y-58656239D01*
X31191490Y-58645947D01*
X31099414Y-58448489D01*
X31093931Y-58438993D01*
X30968972Y-58260533D01*
X30961916Y-58252125D01*
X30807875Y-58098084D01*
X30799467Y-58091028D01*
X30621007Y-57966069D01*
X30611511Y-57960586D01*
X30414053Y-57868510D01*
X30403761Y-57864764D01*
X30193312Y-57808375D01*
X30182520Y-57806472D01*
X30117143Y-57800752D01*
X30051025Y-57774888D01*
X30009386Y-57717385D01*
X30005445Y-57646498D01*
X30040454Y-57584733D01*
X30103299Y-57551701D01*
X30115390Y-57549876D01*
X30130558Y-57548336D01*
X30155868Y-57545765D01*
X30155870Y-57545765D01*
X30162216Y-57545120D01*
X30356172Y-57484338D01*
X30533944Y-57385797D01*
X30688271Y-57253523D01*
X30812848Y-57092919D01*
X30902587Y-56910545D01*
X30910813Y-56878965D01*
X30952212Y-56720034D01*
X30952212Y-56720031D01*
X30953822Y-56713852D01*
X30958076Y-56632672D01*
X30964125Y-56517256D01*
X30964125Y-56517252D01*
X30964459Y-56510874D01*
X30934065Y-56309903D01*
X30863881Y-56119148D01*
X30810345Y-56032802D01*
X30760137Y-55951824D01*
X30760134Y-55951820D01*
X30756774Y-55946401D01*
X30718693Y-55906131D01*
X30621508Y-55803361D01*
X30621507Y-55803360D01*
X30617119Y-55798720D01*
X30450621Y-55682137D01*
X30264081Y-55601414D01*
X30218053Y-55591798D01*
X30069856Y-55560838D01*
X30069851Y-55560837D01*
X30065120Y-55559849D01*
X30060238Y-55559593D01*
X30060129Y-55559587D01*
X30060113Y-55559587D01*
X30058461Y-55559500D01*
X27509200Y-55559500D01*
X27461207Y-55564375D01*
X27364132Y-55574235D01*
X27364130Y-55574235D01*
X27357784Y-55574880D01*
X27163828Y-55635662D01*
X26986056Y-55734203D01*
X26981208Y-55738359D01*
X26981207Y-55738359D01*
X26975648Y-55743124D01*
X26831729Y-55866477D01*
X26827822Y-55871514D01*
X26827820Y-55871516D01*
X26773331Y-55941763D01*
X26707152Y-56027081D01*
X26617413Y-56209455D01*
X26615804Y-56215633D01*
X26615803Y-56215635D01*
X26570660Y-56388943D01*
X26566178Y-56406148D01*
X26564572Y-56436793D01*
X26556714Y-56586752D01*
X26555541Y-56609126D01*
X26585935Y-56810097D01*
X26656119Y-57000852D01*
X26659479Y-57006272D01*
X26659480Y-57006273D01*
X26759863Y-57168176D01*
X26759866Y-57168180D01*
X26763226Y-57173599D01*
X26767612Y-57178237D01*
X26854569Y-57270191D01*
X26902881Y-57321280D01*
X27069379Y-57437863D01*
X27255919Y-57518586D01*
X27386018Y-57545765D01*
X27416031Y-57552035D01*
X27478622Y-57585544D01*
X27513160Y-57647574D01*
X27508680Y-57718429D01*
X27466604Y-57775614D01*
X27401246Y-57800893D01*
X27337480Y-57806472D01*
X27326688Y-57808375D01*
X27116239Y-57864764D01*
X27105947Y-57868510D01*
X26908489Y-57960586D01*
X26898993Y-57966069D01*
X26720533Y-58091028D01*
X26712125Y-58098084D01*
X26558084Y-58252125D01*
X26551028Y-58260533D01*
X26426069Y-58438993D01*
X26420586Y-58448489D01*
X26328510Y-58645947D01*
X26324764Y-58656239D01*
X26278606Y-58828503D01*
X21800000Y-58828503D01*
X21800000Y-54069126D01*
X26555541Y-54069126D01*
X26585935Y-54270097D01*
X26656119Y-54460852D01*
X26659479Y-54466272D01*
X26659480Y-54466273D01*
X26759863Y-54628176D01*
X26759866Y-54628180D01*
X26763226Y-54633599D01*
X26786321Y-54658021D01*
X26885854Y-54763274D01*
X26902881Y-54781280D01*
X27069379Y-54897863D01*
X27255919Y-54978586D01*
X27285415Y-54984748D01*
X27450144Y-55019162D01*
X27450149Y-55019163D01*
X27454880Y-55020151D01*
X27459762Y-55020407D01*
X27459871Y-55020413D01*
X27459887Y-55020413D01*
X27461539Y-55020500D01*
X30010800Y-55020500D01*
X30058793Y-55015625D01*
X30155868Y-55005765D01*
X30155870Y-55005765D01*
X30162216Y-55005120D01*
X30356172Y-54944338D01*
X30533944Y-54845797D01*
X30688271Y-54713523D01*
X30696082Y-54703454D01*
X30765342Y-54614164D01*
X30812848Y-54552919D01*
X30902587Y-54370545D01*
X30908689Y-54347119D01*
X30952212Y-54180034D01*
X30952212Y-54180031D01*
X30953822Y-54173852D01*
X30961882Y-54020056D01*
X30964125Y-53977256D01*
X30964125Y-53977252D01*
X30964459Y-53970874D01*
X30939961Y-53808887D01*
X30936492Y-53785949D01*
X30946082Y-53715603D01*
X30992183Y-53661610D01*
X31060156Y-53641111D01*
X31127190Y-53659848D01*
X31154059Y-53676410D01*
X31167241Y-53682556D01*
X31318766Y-53732815D01*
X31332132Y-53735681D01*
X31424770Y-53745172D01*
X31431185Y-53745500D01*
X31505385Y-53745500D01*
X31520624Y-53741025D01*
X31521829Y-53739635D01*
X31523500Y-53731952D01*
X31523500Y-53034615D01*
X31519025Y-53019376D01*
X31517635Y-53018171D01*
X31509952Y-53016500D01*
X30750115Y-53016500D01*
X30734876Y-53020975D01*
X30733671Y-53022365D01*
X30732000Y-53030048D01*
X30732000Y-53046266D01*
X30732337Y-53052782D01*
X30735922Y-53087330D01*
X30723057Y-53157151D01*
X30674487Y-53208933D01*
X30605631Y-53226236D01*
X30538325Y-53203547D01*
X30455856Y-53145802D01*
X30455851Y-53145799D01*
X30450621Y-53142137D01*
X30264081Y-53061414D01*
X30218053Y-53051798D01*
X30069856Y-53020838D01*
X30069851Y-53020837D01*
X30065120Y-53019849D01*
X30060238Y-53019593D01*
X30060129Y-53019587D01*
X30060113Y-53019587D01*
X30058461Y-53019500D01*
X27509200Y-53019500D01*
X27461207Y-53024375D01*
X27364132Y-53034235D01*
X27364130Y-53034235D01*
X27357784Y-53034880D01*
X27163828Y-53095662D01*
X26986056Y-53194203D01*
X26831729Y-53326477D01*
X26827822Y-53331514D01*
X26827820Y-53331516D01*
X26804085Y-53362115D01*
X26707152Y-53487081D01*
X26617413Y-53669455D01*
X26615804Y-53675633D01*
X26615803Y-53675635D01*
X26584062Y-53797492D01*
X26566178Y-53866148D01*
X26562812Y-53930375D01*
X26556128Y-54057932D01*
X26555541Y-54069126D01*
X21800000Y-54069126D01*
X21800000Y-46666522D01*
X26277273Y-46666522D01*
X26324764Y-46843761D01*
X26328510Y-46854053D01*
X26420586Y-47051511D01*
X26426069Y-47061007D01*
X26551028Y-47239467D01*
X26558084Y-47247875D01*
X26712125Y-47401916D01*
X26720533Y-47408972D01*
X26898993Y-47533931D01*
X26908489Y-47539414D01*
X27105947Y-47631490D01*
X27116239Y-47635236D01*
X27326688Y-47691625D01*
X27337480Y-47693528D01*
X27402857Y-47699248D01*
X27468975Y-47725112D01*
X27510614Y-47782615D01*
X27514555Y-47853502D01*
X27479546Y-47915267D01*
X27416701Y-47948299D01*
X27404610Y-47950124D01*
X27389442Y-47951664D01*
X27364132Y-47954235D01*
X27364130Y-47954235D01*
X27357784Y-47954880D01*
X27163828Y-48015662D01*
X27158239Y-48018760D01*
X27140711Y-48028476D01*
X26986056Y-48114203D01*
X26831729Y-48246477D01*
X26827822Y-48251514D01*
X26827820Y-48251516D01*
X26795159Y-48293623D01*
X26707152Y-48407081D01*
X26617413Y-48589455D01*
X26615804Y-48595633D01*
X26615803Y-48595635D01*
X26571425Y-48766006D01*
X26566178Y-48786148D01*
X26563038Y-48846061D01*
X26556476Y-48971288D01*
X26555541Y-48989126D01*
X26585935Y-49190097D01*
X26656119Y-49380852D01*
X26659479Y-49386272D01*
X26659480Y-49386273D01*
X26759863Y-49548176D01*
X26759866Y-49548180D01*
X26763226Y-49553599D01*
X26767612Y-49558237D01*
X26892082Y-49689860D01*
X26902881Y-49701280D01*
X27069379Y-49817863D01*
X27255919Y-49898586D01*
X27263894Y-49900252D01*
X27450144Y-49939162D01*
X27450149Y-49939163D01*
X27454880Y-49940151D01*
X27459762Y-49940407D01*
X27459871Y-49940413D01*
X27459887Y-49940413D01*
X27461539Y-49940500D01*
X30010800Y-49940500D01*
X30083555Y-49933110D01*
X30155868Y-49925765D01*
X30155870Y-49925765D01*
X30162216Y-49925120D01*
X30356172Y-49864338D01*
X30533944Y-49765797D01*
X30688271Y-49633523D01*
X30812848Y-49472919D01*
X30861046Y-49374968D01*
X30892586Y-49310870D01*
X30940609Y-49258579D01*
X31005641Y-49240500D01*
X31562837Y-49240500D01*
X31630958Y-49260502D01*
X31654423Y-49282433D01*
X31654575Y-49282269D01*
X31690477Y-49315573D01*
X31693882Y-49318853D01*
X31707277Y-49332248D01*
X31711245Y-49334970D01*
X31713895Y-49337298D01*
X31732019Y-49354110D01*
X31768359Y-49415101D01*
X31765955Y-49486057D01*
X31735425Y-49535581D01*
X31624544Y-49646462D01*
X31622513Y-49648216D01*
X31617731Y-49650553D01*
X31609819Y-49659082D01*
X31609818Y-49659083D01*
X31584427Y-49686455D01*
X31581147Y-49689860D01*
X31567752Y-49703255D01*
X31565028Y-49707225D01*
X31562703Y-49709873D01*
X31549508Y-49724097D01*
X31549506Y-49724100D01*
X31541599Y-49732624D01*
X31537289Y-49743428D01*
X31534767Y-49747417D01*
X31529006Y-49758205D01*
X31527089Y-49762530D01*
X31520508Y-49772124D01*
X31517822Y-49783443D01*
X31517821Y-49783445D01*
X31514817Y-49796105D01*
X31509252Y-49813702D01*
X31500117Y-49836600D01*
X31499500Y-49842893D01*
X31499500Y-49845972D01*
X31499350Y-49849045D01*
X31499134Y-49849034D01*
X31497802Y-49860409D01*
X31497346Y-49869724D01*
X31494660Y-49881044D01*
X31496229Y-49892573D01*
X31496229Y-49892574D01*
X31498349Y-49908151D01*
X31499500Y-49925142D01*
X31499500Y-50423339D01*
X31479498Y-50491460D01*
X31462595Y-50512434D01*
X31003848Y-50971181D01*
X30941536Y-51005207D01*
X30870721Y-51000142D01*
X30813885Y-50957595D01*
X30807666Y-50948482D01*
X30760136Y-50871824D01*
X30756774Y-50866401D01*
X30685959Y-50791516D01*
X30621508Y-50723361D01*
X30621506Y-50723359D01*
X30617119Y-50718720D01*
X30450621Y-50602137D01*
X30264081Y-50521414D01*
X30213557Y-50510859D01*
X30069856Y-50480838D01*
X30069851Y-50480837D01*
X30065120Y-50479849D01*
X30060238Y-50479593D01*
X30060129Y-50479587D01*
X30060113Y-50479587D01*
X30058461Y-50479500D01*
X27509200Y-50479500D01*
X27461207Y-50484375D01*
X27364132Y-50494235D01*
X27364130Y-50494235D01*
X27357784Y-50494880D01*
X27163828Y-50555662D01*
X26986056Y-50654203D01*
X26831729Y-50786477D01*
X26827822Y-50791514D01*
X26827820Y-50791516D01*
X26792846Y-50836605D01*
X26707152Y-50947081D01*
X26617413Y-51129455D01*
X26615804Y-51135633D01*
X26615803Y-51135635D01*
X26589603Y-51236220D01*
X26566178Y-51326148D01*
X26565844Y-51332527D01*
X26556763Y-51505816D01*
X26555541Y-51529126D01*
X26585935Y-51730097D01*
X26656119Y-51920852D01*
X26659479Y-51926272D01*
X26659480Y-51926273D01*
X26759863Y-52088176D01*
X26759866Y-52088180D01*
X26763226Y-52093599D01*
X26767612Y-52098237D01*
X26869705Y-52206197D01*
X26902881Y-52241280D01*
X27069379Y-52357863D01*
X27255919Y-52438586D01*
X27272261Y-52442000D01*
X27450144Y-52479162D01*
X27450149Y-52479163D01*
X27454880Y-52480151D01*
X27459762Y-52480407D01*
X27459871Y-52480413D01*
X27459887Y-52480413D01*
X27461539Y-52480500D01*
X30010800Y-52480500D01*
X30058793Y-52475625D01*
X30155868Y-52465765D01*
X30155870Y-52465765D01*
X30162216Y-52465120D01*
X30356172Y-52404338D01*
X30533944Y-52305797D01*
X30538793Y-52301641D01*
X30540780Y-52300260D01*
X30608132Y-52277806D01*
X30676932Y-52295331D01*
X30725336Y-52347269D01*
X30738035Y-52416567D01*
X30732328Y-52472270D01*
X30732000Y-52478685D01*
X30732000Y-52490385D01*
X30736475Y-52505624D01*
X30737865Y-52506829D01*
X30745548Y-52508500D01*
X31505385Y-52508500D01*
X31520624Y-52504025D01*
X31521829Y-52502635D01*
X31523500Y-52494952D01*
X31523500Y-51797615D01*
X31519025Y-51782376D01*
X31517635Y-51781171D01*
X31509952Y-51779500D01*
X31431234Y-51779500D01*
X31424718Y-51779837D01*
X31354354Y-51787138D01*
X31284532Y-51774273D01*
X31232750Y-51725702D01*
X31215448Y-51656846D01*
X31238118Y-51589567D01*
X31252255Y-51572716D01*
X31959405Y-50865566D01*
X32021717Y-50831540D01*
X32092532Y-50836605D01*
X32149368Y-50879152D01*
X32174179Y-50945672D01*
X32174500Y-50954661D01*
X32174500Y-51499748D01*
X32186133Y-51558231D01*
X32190720Y-51565095D01*
X32199500Y-51609238D01*
X32199500Y-51653500D01*
X32179498Y-51721621D01*
X32125842Y-51768114D01*
X32073500Y-51779500D01*
X32049615Y-51779500D01*
X32034376Y-51783975D01*
X32033171Y-51785365D01*
X32031500Y-51793048D01*
X32031500Y-53727385D01*
X32035975Y-53742624D01*
X32037365Y-53743829D01*
X32045048Y-53745500D01*
X32123766Y-53745500D01*
X32130282Y-53745163D01*
X32224132Y-53735425D01*
X32237528Y-53732532D01*
X32388953Y-53682012D01*
X32402115Y-53675847D01*
X32537492Y-53592074D01*
X32548890Y-53583040D01*
X32586827Y-53545037D01*
X32649110Y-53510958D01*
X32719930Y-53515961D01*
X32776803Y-53558458D01*
X32801671Y-53624957D01*
X32802000Y-53634055D01*
X32802000Y-54211000D01*
X32781998Y-54279121D01*
X32728342Y-54325614D01*
X32676000Y-54337000D01*
X32055252Y-54337000D01*
X32049184Y-54338207D01*
X32008939Y-54346212D01*
X32008938Y-54346212D01*
X31996769Y-54348633D01*
X31930448Y-54392948D01*
X31886133Y-54459269D01*
X31883712Y-54471438D01*
X31883712Y-54471439D01*
X31876847Y-54505952D01*
X31874500Y-54517752D01*
X31874500Y-56257248D01*
X31875707Y-56263316D01*
X31881594Y-56292910D01*
X31886133Y-56315731D01*
X31930448Y-56382052D01*
X31996769Y-56426367D01*
X32008938Y-56428788D01*
X32008939Y-56428788D01*
X32049184Y-56436793D01*
X32055252Y-56438000D01*
X32098500Y-56438000D01*
X32166621Y-56458002D01*
X32213114Y-56511658D01*
X32224500Y-56564000D01*
X32224500Y-58246359D01*
X32224208Y-58254929D01*
X32220322Y-58311930D01*
X32221627Y-58319406D01*
X32221627Y-58319409D01*
X32231178Y-58374132D01*
X32232141Y-58380658D01*
X32239724Y-58443320D01*
X32242409Y-58450427D01*
X32243218Y-58453720D01*
X32247177Y-58468191D01*
X32248166Y-58471467D01*
X32249473Y-58478954D01*
X32252528Y-58485913D01*
X32252528Y-58485914D01*
X32274847Y-58536760D01*
X32277339Y-58542866D01*
X32299655Y-58601923D01*
X32303954Y-58608178D01*
X32305535Y-58611203D01*
X32312825Y-58624299D01*
X32314566Y-58627243D01*
X32317621Y-58634202D01*
X32322246Y-58640230D01*
X32322247Y-58640231D01*
X32356042Y-58684273D01*
X32359919Y-58689609D01*
X32391381Y-58735386D01*
X32391386Y-58735392D01*
X32395688Y-58741651D01*
X32401362Y-58746706D01*
X32441657Y-58782608D01*
X32446933Y-58787589D01*
X33462595Y-59803252D01*
X33496621Y-59865564D01*
X33499500Y-59892347D01*
X33499500Y-60491786D01*
X33479498Y-60559907D01*
X33425842Y-60606400D01*
X33386065Y-60617121D01*
X33380252Y-60617121D01*
X33374184Y-60618328D01*
X33333939Y-60626333D01*
X33333938Y-60626333D01*
X33321769Y-60628754D01*
X33255448Y-60673069D01*
X33211133Y-60739390D01*
X33208712Y-60751559D01*
X33208712Y-60751560D01*
X33206608Y-60762137D01*
X33199500Y-60797873D01*
X33199500Y-62437369D01*
X33211133Y-62495852D01*
X33218026Y-62506168D01*
X33227534Y-62520398D01*
X33255448Y-62562173D01*
X33321769Y-62606488D01*
X33333938Y-62608909D01*
X33333939Y-62608909D01*
X33374184Y-62616914D01*
X33380252Y-62618121D01*
X33785420Y-62618121D01*
X33853541Y-62638123D01*
X33900034Y-62691779D01*
X33910138Y-62762053D01*
X33880644Y-62826633D01*
X33818031Y-62865828D01*
X33756239Y-62882385D01*
X33745947Y-62886131D01*
X33548489Y-62978207D01*
X33538994Y-62983690D01*
X33486952Y-63020130D01*
X33478576Y-63030609D01*
X33485644Y-63044055D01*
X34187188Y-63745599D01*
X34201132Y-63753213D01*
X34202965Y-63753082D01*
X34209580Y-63748831D01*
X34915077Y-63043334D01*
X34921507Y-63031559D01*
X34912211Y-63019544D01*
X34861006Y-62983690D01*
X34851511Y-62978207D01*
X34654053Y-62886131D01*
X34643761Y-62882385D01*
X34581969Y-62865828D01*
X34521346Y-62828876D01*
X34490325Y-62765015D01*
X34498753Y-62694521D01*
X34543956Y-62639774D01*
X34614580Y-62618121D01*
X35019748Y-62618121D01*
X35025816Y-62616914D01*
X35066061Y-62608909D01*
X35066062Y-62608909D01*
X35078231Y-62606488D01*
X35144552Y-62562173D01*
X35172466Y-62520398D01*
X35181974Y-62506168D01*
X35188867Y-62495852D01*
X35200500Y-62437369D01*
X35200500Y-60797873D01*
X35193392Y-60762137D01*
X35191288Y-60751560D01*
X35191288Y-60751559D01*
X35188867Y-60739390D01*
X35144552Y-60673069D01*
X35078231Y-60628754D01*
X35066062Y-60626333D01*
X35066061Y-60626333D01*
X35025816Y-60618328D01*
X35019748Y-60617121D01*
X35014006Y-60617121D01*
X34948318Y-60590597D01*
X34907308Y-60532642D01*
X34900500Y-60491786D01*
X34900500Y-59888762D01*
X34911663Y-59836911D01*
X34920231Y-59817935D01*
X34920231Y-59817934D01*
X34923355Y-59811016D01*
X34929327Y-59778794D01*
X34933182Y-59763447D01*
X34940836Y-59739464D01*
X34940836Y-59739463D01*
X34943146Y-59732225D01*
X34945671Y-59695190D01*
X34947489Y-59680801D01*
X34952868Y-59651778D01*
X34952868Y-59651774D01*
X34954252Y-59644308D01*
X34952366Y-59611590D01*
X34952449Y-59595771D01*
X34954162Y-59570647D01*
X34954162Y-59570643D01*
X34954678Y-59563070D01*
X34953373Y-59555594D01*
X34953373Y-59555589D01*
X34948297Y-59526505D01*
X34946630Y-59512097D01*
X34944931Y-59482629D01*
X34944930Y-59482625D01*
X34944493Y-59475041D01*
X34934852Y-59443702D01*
X34931162Y-59428331D01*
X34926832Y-59403524D01*
X34925527Y-59396046D01*
X34910607Y-59362057D01*
X34905555Y-59348471D01*
X34896872Y-59320247D01*
X34896872Y-59320246D01*
X34894639Y-59312989D01*
X34877808Y-59284865D01*
X34870555Y-59270814D01*
X34857379Y-59240798D01*
X34834781Y-59211348D01*
X34826628Y-59199351D01*
X34807569Y-59167505D01*
X34802227Y-59162107D01*
X34802225Y-59162104D01*
X34789940Y-59149690D01*
X34779636Y-59139277D01*
X34778744Y-59138320D01*
X34777978Y-59137322D01*
X34751727Y-59111071D01*
X34751261Y-59110604D01*
X34691375Y-59050087D01*
X34691373Y-59050085D01*
X34688310Y-59046990D01*
X34686993Y-59046183D01*
X34685580Y-59044924D01*
X33662405Y-58021748D01*
X33628379Y-57959436D01*
X33625500Y-57932653D01*
X33625500Y-56564000D01*
X33645502Y-56495879D01*
X33699158Y-56449386D01*
X33751500Y-56438000D01*
X33794748Y-56438000D01*
X33800816Y-56436793D01*
X33841061Y-56428788D01*
X33841062Y-56428788D01*
X33853231Y-56426367D01*
X33919552Y-56382052D01*
X33963867Y-56315731D01*
X33968407Y-56292910D01*
X33974293Y-56263316D01*
X33975500Y-56257248D01*
X33975500Y-55974252D01*
X33995502Y-55906131D01*
X34049158Y-55859638D01*
X34119432Y-55849534D01*
X34184012Y-55879028D01*
X34218243Y-55926848D01*
X34246770Y-55997103D01*
X34251413Y-56006294D01*
X34362694Y-56187888D01*
X34368777Y-56196199D01*
X34508213Y-56357167D01*
X34515580Y-56364383D01*
X34679434Y-56500416D01*
X34687881Y-56506331D01*
X34871756Y-56613779D01*
X34881042Y-56618229D01*
X35080001Y-56694203D01*
X35089899Y-56697079D01*
X35193250Y-56718106D01*
X35207299Y-56716910D01*
X35211000Y-56706565D01*
X35211000Y-56706017D01*
X35719000Y-56706017D01*
X35723064Y-56719859D01*
X35736478Y-56721893D01*
X35743184Y-56721034D01*
X35753262Y-56718892D01*
X35957255Y-56657691D01*
X35966842Y-56653933D01*
X36158095Y-56560239D01*
X36166945Y-56554964D01*
X36340328Y-56431292D01*
X36348200Y-56424639D01*
X36499052Y-56274312D01*
X36505730Y-56266465D01*
X36630003Y-56093520D01*
X36635313Y-56084683D01*
X36729670Y-55893767D01*
X36733469Y-55884172D01*
X36795377Y-55680410D01*
X36797555Y-55670337D01*
X36798986Y-55659462D01*
X36796775Y-55645278D01*
X36783617Y-55641500D01*
X35737115Y-55641500D01*
X35721876Y-55645975D01*
X35720671Y-55647365D01*
X35719000Y-55655048D01*
X35719000Y-56706017D01*
X35211000Y-56706017D01*
X35211000Y-55115385D01*
X35719000Y-55115385D01*
X35723475Y-55130624D01*
X35724865Y-55131829D01*
X35732548Y-55133500D01*
X36783344Y-55133500D01*
X36796875Y-55129527D01*
X36798180Y-55120447D01*
X36756214Y-54953375D01*
X36752894Y-54943624D01*
X36667972Y-54748314D01*
X36663105Y-54739239D01*
X36547426Y-54560426D01*
X36541136Y-54552257D01*
X36397806Y-54394740D01*
X36390273Y-54387715D01*
X36223139Y-54255722D01*
X36214552Y-54250017D01*
X36028117Y-54147099D01*
X36018705Y-54142869D01*
X35817959Y-54071780D01*
X35807988Y-54069146D01*
X35736837Y-54056472D01*
X35723540Y-54057932D01*
X35719000Y-54072489D01*
X35719000Y-55115385D01*
X35211000Y-55115385D01*
X35211000Y-54070602D01*
X35207082Y-54057258D01*
X35192806Y-54055271D01*
X35154324Y-54061160D01*
X35144288Y-54063551D01*
X34941868Y-54129712D01*
X34932359Y-54133709D01*
X34743463Y-54232042D01*
X34734738Y-54237536D01*
X34564433Y-54365405D01*
X34556726Y-54372248D01*
X34420094Y-54515225D01*
X34358570Y-54550655D01*
X34287657Y-54547198D01*
X34229871Y-54505952D01*
X34203557Y-54440012D01*
X34203000Y-54428174D01*
X34203000Y-53203012D01*
X34210118Y-53161262D01*
X34221119Y-53129937D01*
X34262563Y-53072292D01*
X34328593Y-53046205D01*
X34398245Y-53059957D01*
X34449405Y-53109182D01*
X34458879Y-53129928D01*
X34486039Y-53207268D01*
X34491634Y-53214843D01*
X34491635Y-53214845D01*
X34533102Y-53270987D01*
X34564289Y-53313211D01*
X34571860Y-53318803D01*
X34662655Y-53385865D01*
X34662657Y-53385866D01*
X34670232Y-53391461D01*
X34679119Y-53394582D01*
X34679121Y-53394583D01*
X34787252Y-53432556D01*
X34787254Y-53432557D01*
X34794500Y-53435101D01*
X34802144Y-53435824D01*
X34802146Y-53435824D01*
X34810121Y-53436578D01*
X34825167Y-53438000D01*
X35127347Y-53438000D01*
X35429832Y-53437999D01*
X35432782Y-53437720D01*
X35432787Y-53437720D01*
X35452850Y-53435824D01*
X35452851Y-53435824D01*
X35460500Y-53435101D01*
X35467748Y-53432556D01*
X35467751Y-53432555D01*
X35575879Y-53394583D01*
X35575881Y-53394582D01*
X35584768Y-53391461D01*
X35592343Y-53385866D01*
X35592345Y-53385865D01*
X35683140Y-53318803D01*
X35690711Y-53313211D01*
X35721898Y-53270987D01*
X35763362Y-53214849D01*
X35763363Y-53214847D01*
X35763968Y-53214028D01*
X35763971Y-53214025D01*
X35768961Y-53207268D01*
X35769888Y-53207953D01*
X35813143Y-53163566D01*
X35882316Y-53147579D01*
X35949151Y-53171529D01*
X35994475Y-53233487D01*
X36020485Y-53311448D01*
X36026653Y-53324615D01*
X36110426Y-53459992D01*
X36119460Y-53471390D01*
X36232129Y-53583863D01*
X36243540Y-53592875D01*
X36379063Y-53676412D01*
X36392241Y-53682556D01*
X36543766Y-53732815D01*
X36557132Y-53735681D01*
X36649770Y-53745172D01*
X36656185Y-53745500D01*
X36680385Y-53745500D01*
X36695624Y-53741025D01*
X36696829Y-53739635D01*
X36698500Y-53731952D01*
X36698500Y-53727385D01*
X37206500Y-53727385D01*
X37210975Y-53742624D01*
X37212365Y-53743829D01*
X37220048Y-53745500D01*
X37248766Y-53745500D01*
X37255282Y-53745163D01*
X37349132Y-53735425D01*
X37362528Y-53732532D01*
X37469132Y-53696966D01*
X37540081Y-53694382D01*
X37601165Y-53730566D01*
X37616152Y-53750187D01*
X37645425Y-53797492D01*
X37654457Y-53808887D01*
X37767129Y-53921363D01*
X37778540Y-53930375D01*
X37914063Y-54013912D01*
X37927241Y-54020056D01*
X38078766Y-54070315D01*
X38092132Y-54073181D01*
X38184770Y-54082672D01*
X38191185Y-54083000D01*
X38265385Y-54083000D01*
X38280624Y-54078525D01*
X38281829Y-54077135D01*
X38283500Y-54069452D01*
X38283500Y-52135115D01*
X38279025Y-52119876D01*
X38277635Y-52118671D01*
X38269952Y-52117000D01*
X38191234Y-52117000D01*
X38184718Y-52117337D01*
X38090868Y-52127075D01*
X38077472Y-52129968D01*
X37970868Y-52165534D01*
X37899919Y-52168118D01*
X37838835Y-52131934D01*
X37823848Y-52112313D01*
X37794575Y-52065008D01*
X37785543Y-52053613D01*
X37672871Y-51941137D01*
X37661460Y-51932125D01*
X37525937Y-51848588D01*
X37512759Y-51842444D01*
X37361234Y-51792185D01*
X37347868Y-51789319D01*
X37255230Y-51779828D01*
X37248815Y-51779500D01*
X37224615Y-51779500D01*
X37209376Y-51783975D01*
X37208171Y-51785365D01*
X37206500Y-51793048D01*
X37206500Y-53727385D01*
X36698500Y-53727385D01*
X36698500Y-51797615D01*
X36696802Y-51791832D01*
X36696802Y-51720835D01*
X36735186Y-51661109D01*
X36745056Y-51654351D01*
X36744768Y-51653961D01*
X36843140Y-51581303D01*
X36850711Y-51575711D01*
X36876509Y-51540783D01*
X36923365Y-51477345D01*
X36923366Y-51477343D01*
X36928961Y-51469768D01*
X36940379Y-51437256D01*
X36970056Y-51352748D01*
X36970057Y-51352746D01*
X36972601Y-51345500D01*
X36975500Y-51314833D01*
X36975499Y-50710168D01*
X36972601Y-50679500D01*
X36969040Y-50669360D01*
X36932083Y-50564121D01*
X36932082Y-50564119D01*
X36928961Y-50555232D01*
X36919517Y-50542445D01*
X36856303Y-50456860D01*
X36850711Y-50449289D01*
X36744768Y-50371039D01*
X36739828Y-50369304D01*
X36690564Y-50321294D01*
X36674581Y-50252120D01*
X36698533Y-50185285D01*
X36754816Y-50142010D01*
X36800365Y-50133489D01*
X38588500Y-50133489D01*
X38656621Y-50153491D01*
X38703114Y-50207147D01*
X38714500Y-50259489D01*
X38714500Y-51712248D01*
X38726133Y-51770731D01*
X38730720Y-51777595D01*
X38739500Y-51821738D01*
X38739500Y-51869819D01*
X38738172Y-51881704D01*
X38738682Y-51881745D01*
X38737962Y-51890691D01*
X38735981Y-51899447D01*
X38737222Y-51919447D01*
X38739258Y-51952264D01*
X38739500Y-51960067D01*
X38739500Y-51975940D01*
X38740135Y-51980374D01*
X38740948Y-51986050D01*
X38741978Y-51996106D01*
X38744859Y-52042538D01*
X38747907Y-52050982D01*
X38748676Y-52054694D01*
X38752343Y-52069399D01*
X38753404Y-52073027D01*
X38754677Y-52081918D01*
X38773939Y-52124282D01*
X38777746Y-52133637D01*
X38784014Y-52151000D01*
X38791500Y-52193783D01*
X38791500Y-54064885D01*
X38795975Y-54080124D01*
X38797365Y-54081329D01*
X38805048Y-54083000D01*
X38883766Y-54083000D01*
X38890282Y-54082663D01*
X38984132Y-54072925D01*
X38997528Y-54070032D01*
X39153885Y-54017867D01*
X39224834Y-54015283D01*
X39285918Y-54051466D01*
X39317743Y-54114931D01*
X39310204Y-54185526D01*
X39282856Y-54226486D01*
X39224919Y-54284423D01*
X39218653Y-54290277D01*
X39175604Y-54327831D01*
X39139317Y-54379463D01*
X39135384Y-54384758D01*
X39101105Y-54428476D01*
X39101103Y-54428480D01*
X39096416Y-54434457D01*
X39093290Y-54441380D01*
X39091505Y-54444328D01*
X39084113Y-54457288D01*
X39082480Y-54460334D01*
X39078113Y-54466547D01*
X39060338Y-54512136D01*
X39055180Y-54525366D01*
X39052625Y-54531445D01*
X39026645Y-54588984D01*
X39025260Y-54596455D01*
X39024236Y-54599723D01*
X39020123Y-54614164D01*
X39019283Y-54617437D01*
X39016524Y-54624513D01*
X39012810Y-54652726D01*
X39008284Y-54687106D01*
X39007252Y-54693623D01*
X38995748Y-54755692D01*
X38996185Y-54763273D01*
X38996185Y-54763274D01*
X38999239Y-54816248D01*
X38983191Y-54885407D01*
X38932300Y-54934911D01*
X38873448Y-54949500D01*
X38830252Y-54949500D01*
X38824184Y-54950707D01*
X38783939Y-54958712D01*
X38783938Y-54958712D01*
X38771769Y-54961133D01*
X38705448Y-55005448D01*
X38661133Y-55071769D01*
X38649500Y-55130252D01*
X38649500Y-56869748D01*
X38661133Y-56928231D01*
X38705448Y-56994552D01*
X38771769Y-57038867D01*
X38783938Y-57041288D01*
X38783939Y-57041288D01*
X38824184Y-57049293D01*
X38830252Y-57050500D01*
X38873500Y-57050500D01*
X38941621Y-57070502D01*
X38988114Y-57124158D01*
X38999500Y-57176500D01*
X38999500Y-58421359D01*
X38999208Y-58429929D01*
X38995866Y-58478954D01*
X38995322Y-58486930D01*
X38996627Y-58494406D01*
X38996627Y-58494409D01*
X39006178Y-58549132D01*
X39007141Y-58555658D01*
X39014724Y-58618320D01*
X39017409Y-58625427D01*
X39018218Y-58628720D01*
X39022177Y-58643191D01*
X39023166Y-58646467D01*
X39024473Y-58653954D01*
X39027528Y-58660913D01*
X39027528Y-58660914D01*
X39049847Y-58711760D01*
X39052339Y-58717866D01*
X39074655Y-58776923D01*
X39078954Y-58783178D01*
X39080535Y-58786203D01*
X39087825Y-58799299D01*
X39089566Y-58802243D01*
X39092621Y-58809202D01*
X39097246Y-58815230D01*
X39097247Y-58815231D01*
X39131042Y-58859273D01*
X39134919Y-58864609D01*
X39166381Y-58910386D01*
X39166386Y-58910392D01*
X39170688Y-58916651D01*
X39176362Y-58921706D01*
X39216657Y-58957608D01*
X39221933Y-58962589D01*
X40362595Y-60103252D01*
X40396621Y-60165564D01*
X40399500Y-60192347D01*
X40399500Y-60491786D01*
X40379498Y-60559907D01*
X40325842Y-60606400D01*
X40286065Y-60617121D01*
X40280252Y-60617121D01*
X40274184Y-60618328D01*
X40233939Y-60626333D01*
X40233938Y-60626333D01*
X40221769Y-60628754D01*
X40155448Y-60673069D01*
X40111133Y-60739390D01*
X40108712Y-60751559D01*
X40108712Y-60751560D01*
X40106608Y-60762137D01*
X40099500Y-60797873D01*
X40099500Y-62437369D01*
X40111133Y-62495852D01*
X40118026Y-62506168D01*
X40127534Y-62520398D01*
X40155448Y-62562173D01*
X40221769Y-62606488D01*
X40233938Y-62608909D01*
X40233939Y-62608909D01*
X40274184Y-62616914D01*
X40280252Y-62618121D01*
X40685420Y-62618121D01*
X40753541Y-62638123D01*
X40800034Y-62691779D01*
X40810138Y-62762053D01*
X40780644Y-62826633D01*
X40718031Y-62865828D01*
X40656239Y-62882385D01*
X40645947Y-62886131D01*
X40448489Y-62978207D01*
X40438994Y-62983690D01*
X40386952Y-63020130D01*
X40378576Y-63030609D01*
X40385644Y-63044055D01*
X41087188Y-63745599D01*
X41101132Y-63753213D01*
X41102965Y-63753082D01*
X41109580Y-63748831D01*
X41815077Y-63043334D01*
X41821507Y-63031559D01*
X41812211Y-63019544D01*
X41761006Y-62983690D01*
X41751511Y-62978207D01*
X41554053Y-62886131D01*
X41543761Y-62882385D01*
X41481969Y-62865828D01*
X41421346Y-62828876D01*
X41390325Y-62765015D01*
X41398753Y-62694521D01*
X41443956Y-62639774D01*
X41514580Y-62618121D01*
X41919748Y-62618121D01*
X41925816Y-62616914D01*
X41966061Y-62608909D01*
X41966062Y-62608909D01*
X41978231Y-62606488D01*
X42044552Y-62562173D01*
X42072466Y-62520398D01*
X42081974Y-62506168D01*
X42088867Y-62495852D01*
X42100500Y-62437369D01*
X42100500Y-60797873D01*
X42093392Y-60762137D01*
X42091288Y-60751560D01*
X42091288Y-60751559D01*
X42088867Y-60739390D01*
X42044552Y-60673069D01*
X41978231Y-60628754D01*
X41966062Y-60626333D01*
X41966061Y-60626333D01*
X41925816Y-60618328D01*
X41919748Y-60617121D01*
X41914006Y-60617121D01*
X41848318Y-60590597D01*
X41807308Y-60532642D01*
X41800500Y-60491786D01*
X41800500Y-59878641D01*
X41800792Y-59870071D01*
X41804162Y-59820646D01*
X41804162Y-59820642D01*
X41804678Y-59813070D01*
X41803373Y-59805591D01*
X41793822Y-59750868D01*
X41792859Y-59744342D01*
X41786189Y-59689226D01*
X41785276Y-59681680D01*
X41782591Y-59674573D01*
X41781782Y-59671280D01*
X41777823Y-59656809D01*
X41776834Y-59653533D01*
X41775527Y-59646046D01*
X41760403Y-59611591D01*
X41750153Y-59588240D01*
X41747661Y-59582134D01*
X41728030Y-59530182D01*
X41728029Y-59530180D01*
X41725345Y-59523077D01*
X41721046Y-59516822D01*
X41719465Y-59513797D01*
X41712175Y-59500701D01*
X41710434Y-59497757D01*
X41707379Y-59490798D01*
X41668958Y-59440727D01*
X41665081Y-59435391D01*
X41633619Y-59389614D01*
X41633614Y-59389608D01*
X41629312Y-59383349D01*
X41610426Y-59366522D01*
X44057273Y-59366522D01*
X44104764Y-59543761D01*
X44108510Y-59554053D01*
X44200586Y-59751511D01*
X44206069Y-59761007D01*
X44331028Y-59939467D01*
X44338084Y-59947875D01*
X44492125Y-60101916D01*
X44500533Y-60108972D01*
X44678993Y-60233931D01*
X44688489Y-60239414D01*
X44885947Y-60331490D01*
X44896239Y-60335236D01*
X45106688Y-60391625D01*
X45117480Y-60393528D01*
X45182857Y-60399248D01*
X45248975Y-60425112D01*
X45290614Y-60482615D01*
X45294555Y-60553502D01*
X45259546Y-60615267D01*
X45196701Y-60648299D01*
X45184610Y-60650124D01*
X45169442Y-60651664D01*
X45144132Y-60654235D01*
X45144130Y-60654235D01*
X45137784Y-60654880D01*
X44943828Y-60715662D01*
X44766056Y-60814203D01*
X44611729Y-60946477D01*
X44487152Y-61107081D01*
X44397413Y-61289455D01*
X44395804Y-61295633D01*
X44395803Y-61295635D01*
X44369603Y-61396220D01*
X44346178Y-61486148D01*
X44335541Y-61689126D01*
X44365935Y-61890097D01*
X44436119Y-62080852D01*
X44439479Y-62086272D01*
X44439480Y-62086273D01*
X44539863Y-62248176D01*
X44539866Y-62248180D01*
X44543226Y-62253599D01*
X44682881Y-62401280D01*
X44849379Y-62517863D01*
X45035919Y-62598586D01*
X45073744Y-62606488D01*
X45230144Y-62639162D01*
X45230149Y-62639163D01*
X45234880Y-62640151D01*
X45239762Y-62640407D01*
X45239871Y-62640413D01*
X45239887Y-62640413D01*
X45241539Y-62640500D01*
X47790800Y-62640500D01*
X47838793Y-62635625D01*
X47935868Y-62625765D01*
X47935870Y-62625765D01*
X47942216Y-62625120D01*
X48136172Y-62564338D01*
X48313944Y-62465797D01*
X48468271Y-62333523D01*
X48592848Y-62172919D01*
X48682587Y-61990545D01*
X48708752Y-61890097D01*
X48732212Y-61800034D01*
X48732212Y-61800031D01*
X48733822Y-61793852D01*
X48744459Y-61590874D01*
X48714065Y-61389903D01*
X48643881Y-61199148D01*
X48590345Y-61112802D01*
X48540137Y-61031824D01*
X48540134Y-61031820D01*
X48536774Y-61026401D01*
X48397119Y-60878720D01*
X48230621Y-60762137D01*
X48044081Y-60681414D01*
X47883969Y-60647965D01*
X47821378Y-60614456D01*
X47786840Y-60552426D01*
X47791320Y-60481571D01*
X47833396Y-60424386D01*
X47898754Y-60399107D01*
X47962520Y-60393528D01*
X47973312Y-60391625D01*
X48183761Y-60335236D01*
X48194053Y-60331490D01*
X48391511Y-60239414D01*
X48401007Y-60233931D01*
X48579467Y-60108972D01*
X48587875Y-60101916D01*
X48741916Y-59947875D01*
X48748972Y-59939467D01*
X48873931Y-59761007D01*
X48879414Y-59751511D01*
X48971490Y-59554053D01*
X48975236Y-59543761D01*
X49021394Y-59371497D01*
X49021058Y-59357401D01*
X49013116Y-59354000D01*
X44072033Y-59354000D01*
X44058502Y-59357973D01*
X44057273Y-59366522D01*
X41610426Y-59366522D01*
X41583342Y-59342391D01*
X41578067Y-59337411D01*
X41069159Y-58828503D01*
X44058606Y-58828503D01*
X44058942Y-58842599D01*
X44066884Y-58846000D01*
X49007967Y-58846000D01*
X49021498Y-58842027D01*
X49022727Y-58833478D01*
X48975236Y-58656239D01*
X48971490Y-58645947D01*
X48879414Y-58448489D01*
X48873931Y-58438993D01*
X48748972Y-58260533D01*
X48741916Y-58252125D01*
X48587875Y-58098084D01*
X48579467Y-58091028D01*
X48401007Y-57966069D01*
X48391511Y-57960586D01*
X48194053Y-57868510D01*
X48183761Y-57864764D01*
X47973312Y-57808375D01*
X47962520Y-57806472D01*
X47897143Y-57800752D01*
X47831025Y-57774888D01*
X47789386Y-57717385D01*
X47785445Y-57646498D01*
X47820454Y-57584733D01*
X47883299Y-57551701D01*
X47895390Y-57549876D01*
X47910558Y-57548336D01*
X47935868Y-57545765D01*
X47935870Y-57545765D01*
X47942216Y-57545120D01*
X48136172Y-57484338D01*
X48313944Y-57385797D01*
X48468271Y-57253523D01*
X48592848Y-57092919D01*
X48682587Y-56910545D01*
X48690813Y-56878965D01*
X48732212Y-56720034D01*
X48732212Y-56720031D01*
X48733822Y-56713852D01*
X48738076Y-56632672D01*
X48744125Y-56517256D01*
X48744125Y-56517252D01*
X48744459Y-56510874D01*
X48714065Y-56309903D01*
X48643881Y-56119148D01*
X48590345Y-56032802D01*
X48540137Y-55951824D01*
X48540134Y-55951820D01*
X48536774Y-55946401D01*
X48498693Y-55906131D01*
X48401508Y-55803361D01*
X48401507Y-55803360D01*
X48397119Y-55798720D01*
X48230621Y-55682137D01*
X48044081Y-55601414D01*
X47998053Y-55591798D01*
X47849856Y-55560838D01*
X47849851Y-55560837D01*
X47845120Y-55559849D01*
X47840238Y-55559593D01*
X47840129Y-55559587D01*
X47840113Y-55559587D01*
X47838461Y-55559500D01*
X45289200Y-55559500D01*
X45241207Y-55564375D01*
X45144132Y-55574235D01*
X45144130Y-55574235D01*
X45137784Y-55574880D01*
X44943828Y-55635662D01*
X44766056Y-55734203D01*
X44761208Y-55738359D01*
X44761207Y-55738359D01*
X44755648Y-55743124D01*
X44611729Y-55866477D01*
X44607822Y-55871514D01*
X44607820Y-55871516D01*
X44553331Y-55941763D01*
X44487152Y-56027081D01*
X44397413Y-56209455D01*
X44395804Y-56215633D01*
X44395803Y-56215635D01*
X44350660Y-56388943D01*
X44346178Y-56406148D01*
X44344572Y-56436793D01*
X44336714Y-56586752D01*
X44335541Y-56609126D01*
X44365935Y-56810097D01*
X44436119Y-57000852D01*
X44439479Y-57006272D01*
X44439480Y-57006273D01*
X44539863Y-57168176D01*
X44539866Y-57168180D01*
X44543226Y-57173599D01*
X44547612Y-57178237D01*
X44634569Y-57270191D01*
X44682881Y-57321280D01*
X44849379Y-57437863D01*
X45035919Y-57518586D01*
X45166018Y-57545765D01*
X45196031Y-57552035D01*
X45258622Y-57585544D01*
X45293160Y-57647574D01*
X45288680Y-57718429D01*
X45246604Y-57775614D01*
X45181246Y-57800893D01*
X45117480Y-57806472D01*
X45106688Y-57808375D01*
X44896239Y-57864764D01*
X44885947Y-57868510D01*
X44688489Y-57960586D01*
X44678993Y-57966069D01*
X44500533Y-58091028D01*
X44492125Y-58098084D01*
X44338084Y-58252125D01*
X44331028Y-58260533D01*
X44206069Y-58438993D01*
X44200586Y-58448489D01*
X44108510Y-58645947D01*
X44104764Y-58656239D01*
X44058606Y-58828503D01*
X41069159Y-58828503D01*
X40437405Y-58196748D01*
X40403379Y-58134436D01*
X40400500Y-58107653D01*
X40400500Y-57176500D01*
X40420502Y-57108379D01*
X40474158Y-57061886D01*
X40526500Y-57050500D01*
X40569748Y-57050500D01*
X40575816Y-57049293D01*
X40616061Y-57041288D01*
X40616062Y-57041288D01*
X40628231Y-57038867D01*
X40694552Y-56994552D01*
X40738867Y-56928231D01*
X40750500Y-56869748D01*
X40750500Y-56586752D01*
X40770502Y-56518631D01*
X40824158Y-56472138D01*
X40894432Y-56462034D01*
X40959012Y-56491528D01*
X40993243Y-56539348D01*
X41021770Y-56609603D01*
X41026413Y-56618794D01*
X41137694Y-56800388D01*
X41143777Y-56808699D01*
X41283213Y-56969667D01*
X41290580Y-56976883D01*
X41454434Y-57112916D01*
X41462881Y-57118831D01*
X41646756Y-57226279D01*
X41656042Y-57230729D01*
X41855001Y-57306703D01*
X41864899Y-57309579D01*
X41968250Y-57330606D01*
X41982299Y-57329410D01*
X41986000Y-57319065D01*
X41986000Y-57318517D01*
X42494000Y-57318517D01*
X42498064Y-57332359D01*
X42511478Y-57334393D01*
X42518184Y-57333534D01*
X42528262Y-57331392D01*
X42732255Y-57270191D01*
X42741842Y-57266433D01*
X42933095Y-57172739D01*
X42941945Y-57167464D01*
X43115328Y-57043792D01*
X43123200Y-57037139D01*
X43274052Y-56886812D01*
X43280730Y-56878965D01*
X43405003Y-56706020D01*
X43410313Y-56697183D01*
X43504670Y-56506267D01*
X43508469Y-56496672D01*
X43570377Y-56292910D01*
X43572555Y-56282837D01*
X43573986Y-56271962D01*
X43571775Y-56257778D01*
X43558617Y-56254000D01*
X42512115Y-56254000D01*
X42496876Y-56258475D01*
X42495671Y-56259865D01*
X42494000Y-56267548D01*
X42494000Y-57318517D01*
X41986000Y-57318517D01*
X41986000Y-55727885D01*
X42494000Y-55727885D01*
X42498475Y-55743124D01*
X42499865Y-55744329D01*
X42507548Y-55746000D01*
X43558344Y-55746000D01*
X43571875Y-55742027D01*
X43573180Y-55732947D01*
X43531214Y-55565875D01*
X43527894Y-55556124D01*
X43442972Y-55360814D01*
X43438105Y-55351739D01*
X43322426Y-55172926D01*
X43316136Y-55164757D01*
X43172806Y-55007240D01*
X43165273Y-55000215D01*
X42998139Y-54868222D01*
X42989552Y-54862517D01*
X42803117Y-54759599D01*
X42793705Y-54755369D01*
X42592959Y-54684280D01*
X42582988Y-54681646D01*
X42511837Y-54668972D01*
X42498540Y-54670432D01*
X42494000Y-54684989D01*
X42494000Y-55727885D01*
X41986000Y-55727885D01*
X41986000Y-54683102D01*
X41982082Y-54669758D01*
X41967806Y-54667771D01*
X41929324Y-54673660D01*
X41919288Y-54676051D01*
X41716868Y-54742212D01*
X41707359Y-54746209D01*
X41518463Y-54844542D01*
X41509738Y-54850036D01*
X41339433Y-54977905D01*
X41331726Y-54984748D01*
X41184590Y-55138717D01*
X41178104Y-55146727D01*
X41058098Y-55322649D01*
X41053000Y-55331623D01*
X40990788Y-55465647D01*
X40943964Y-55519014D01*
X40875720Y-55538595D01*
X40807725Y-55518171D01*
X40761565Y-55464229D01*
X40750500Y-55412597D01*
X40750500Y-55130252D01*
X40738867Y-55071769D01*
X40694552Y-55005448D01*
X40684239Y-54998557D01*
X40677265Y-54991583D01*
X40643239Y-54929271D01*
X40648304Y-54858456D01*
X40677264Y-54813393D01*
X40737588Y-54753069D01*
X40743840Y-54747229D01*
X40781169Y-54714665D01*
X40786896Y-54709669D01*
X40823202Y-54658010D01*
X40827127Y-54652726D01*
X40861393Y-54609024D01*
X40866083Y-54603043D01*
X40869211Y-54596116D01*
X40870986Y-54593185D01*
X40878403Y-54580182D01*
X40880019Y-54577168D01*
X40884387Y-54570953D01*
X40887146Y-54563877D01*
X40887148Y-54563873D01*
X40907319Y-54512136D01*
X40909875Y-54506055D01*
X40932731Y-54455435D01*
X40932731Y-54455434D01*
X40935855Y-54448516D01*
X40937239Y-54441050D01*
X40938257Y-54437801D01*
X40942377Y-54423336D01*
X40943217Y-54420063D01*
X40945976Y-54412987D01*
X40954216Y-54350394D01*
X40955248Y-54343877D01*
X40965368Y-54289275D01*
X40966752Y-54281808D01*
X40963209Y-54220356D01*
X40963000Y-54213104D01*
X40963000Y-53540512D01*
X40970117Y-53498763D01*
X40995057Y-53427744D01*
X40997601Y-53420500D01*
X41000500Y-53389833D01*
X41000500Y-53284646D01*
X41020502Y-53216525D01*
X41074158Y-53170032D01*
X41144432Y-53159928D01*
X41209012Y-53189422D01*
X41235893Y-53228947D01*
X41238513Y-53227560D01*
X41242917Y-53235879D01*
X41246039Y-53244768D01*
X41251634Y-53252343D01*
X41251635Y-53252345D01*
X41303323Y-53322325D01*
X41324289Y-53350711D01*
X41331860Y-53356303D01*
X41422655Y-53423365D01*
X41422657Y-53423366D01*
X41430232Y-53428961D01*
X41439119Y-53432082D01*
X41439121Y-53432083D01*
X41547252Y-53470056D01*
X41547254Y-53470057D01*
X41554500Y-53472601D01*
X41562144Y-53473324D01*
X41562146Y-53473324D01*
X41570121Y-53474078D01*
X41585167Y-53475500D01*
X41887347Y-53475500D01*
X42189832Y-53475499D01*
X42192782Y-53475220D01*
X42192787Y-53475220D01*
X42212850Y-53473324D01*
X42212851Y-53473324D01*
X42220500Y-53472601D01*
X42227748Y-53470056D01*
X42227751Y-53470055D01*
X42335879Y-53432083D01*
X42335881Y-53432082D01*
X42344768Y-53428961D01*
X42352343Y-53423366D01*
X42352345Y-53423365D01*
X42443140Y-53356303D01*
X42450711Y-53350711D01*
X42471677Y-53322325D01*
X42523362Y-53252349D01*
X42523363Y-53252347D01*
X42523968Y-53251528D01*
X42523971Y-53251525D01*
X42528961Y-53244768D01*
X42529888Y-53245453D01*
X42573143Y-53201066D01*
X42642316Y-53185079D01*
X42709151Y-53209029D01*
X42754475Y-53270987D01*
X42780485Y-53348948D01*
X42786653Y-53362115D01*
X42870426Y-53497492D01*
X42879460Y-53508890D01*
X42992129Y-53621363D01*
X43003540Y-53630375D01*
X43139063Y-53713912D01*
X43152241Y-53720056D01*
X43303766Y-53770315D01*
X43317132Y-53773181D01*
X43409770Y-53782672D01*
X43416185Y-53783000D01*
X43440385Y-53783000D01*
X43455624Y-53778525D01*
X43456829Y-53777135D01*
X43458500Y-53769452D01*
X43458500Y-53764885D01*
X43966500Y-53764885D01*
X43970975Y-53780124D01*
X43972365Y-53781329D01*
X43980048Y-53783000D01*
X44008766Y-53783000D01*
X44015282Y-53782663D01*
X44109132Y-53772925D01*
X44122528Y-53770032D01*
X44179906Y-53750889D01*
X44250855Y-53748305D01*
X44311939Y-53784489D01*
X44343764Y-53847953D01*
X44345609Y-53877007D01*
X44336128Y-54057932D01*
X44335541Y-54069126D01*
X44365935Y-54270097D01*
X44436119Y-54460852D01*
X44439479Y-54466272D01*
X44439480Y-54466273D01*
X44539863Y-54628176D01*
X44539866Y-54628180D01*
X44543226Y-54633599D01*
X44566321Y-54658021D01*
X44665854Y-54763274D01*
X44682881Y-54781280D01*
X44849379Y-54897863D01*
X45035919Y-54978586D01*
X45065415Y-54984748D01*
X45230144Y-55019162D01*
X45230149Y-55019163D01*
X45234880Y-55020151D01*
X45239762Y-55020407D01*
X45239871Y-55020413D01*
X45239887Y-55020413D01*
X45241539Y-55020500D01*
X47790800Y-55020500D01*
X47838793Y-55015625D01*
X47935868Y-55005765D01*
X47935870Y-55005765D01*
X47942216Y-55005120D01*
X48136172Y-54944338D01*
X48313944Y-54845797D01*
X48468271Y-54713523D01*
X48476082Y-54703454D01*
X48545342Y-54614164D01*
X48592848Y-54552919D01*
X48682587Y-54370545D01*
X48688689Y-54347119D01*
X48732212Y-54180034D01*
X48732212Y-54180031D01*
X48733822Y-54173852D01*
X48741882Y-54020056D01*
X48744125Y-53977256D01*
X48744125Y-53977252D01*
X48744459Y-53970874D01*
X48714065Y-53769903D01*
X48704963Y-53745163D01*
X48695725Y-53720056D01*
X48643881Y-53579148D01*
X48631053Y-53558458D01*
X48540137Y-53411824D01*
X48540134Y-53411820D01*
X48536774Y-53406401D01*
X48448649Y-53313211D01*
X48401508Y-53263361D01*
X48401507Y-53263360D01*
X48397119Y-53258720D01*
X48230621Y-53142137D01*
X48044081Y-53061414D01*
X47998053Y-53051798D01*
X47849856Y-53020838D01*
X47849851Y-53020837D01*
X47845120Y-53019849D01*
X47840238Y-53019593D01*
X47840129Y-53019587D01*
X47840113Y-53019587D01*
X47838461Y-53019500D01*
X45289200Y-53019500D01*
X45241207Y-53024375D01*
X45144132Y-53034235D01*
X45144130Y-53034235D01*
X45137784Y-53034880D01*
X44943828Y-53095662D01*
X44938239Y-53098760D01*
X44884601Y-53128492D01*
X44815324Y-53144023D01*
X44748648Y-53119635D01*
X44705741Y-53063071D01*
X44703712Y-53057037D01*
X44702135Y-53055671D01*
X44694452Y-53054000D01*
X43984615Y-53054000D01*
X43969376Y-53058475D01*
X43968171Y-53059865D01*
X43966500Y-53067548D01*
X43966500Y-53764885D01*
X43458500Y-53764885D01*
X43458500Y-52672000D01*
X43478502Y-52603879D01*
X43532158Y-52557386D01*
X43584500Y-52546000D01*
X44689885Y-52546000D01*
X44705124Y-52541525D01*
X44706329Y-52540135D01*
X44708000Y-52532452D01*
X44708000Y-52516234D01*
X44707663Y-52509716D01*
X44706723Y-52500659D01*
X44719588Y-52430838D01*
X44768159Y-52379056D01*
X44837015Y-52361754D01*
X44882090Y-52372019D01*
X45030055Y-52436049D01*
X45030060Y-52436051D01*
X45035919Y-52438586D01*
X45052261Y-52442000D01*
X45230144Y-52479162D01*
X45230149Y-52479163D01*
X45234880Y-52480151D01*
X45239762Y-52480407D01*
X45239871Y-52480413D01*
X45239887Y-52480413D01*
X45241539Y-52480500D01*
X47790800Y-52480500D01*
X47838793Y-52475625D01*
X47935868Y-52465765D01*
X47935870Y-52465765D01*
X47942216Y-52465120D01*
X48136172Y-52404338D01*
X48313944Y-52305797D01*
X48468271Y-52173523D01*
X48472620Y-52167917D01*
X48552444Y-52065008D01*
X48592848Y-52012919D01*
X48682587Y-51830545D01*
X48684197Y-51824365D01*
X48732212Y-51640034D01*
X48732212Y-51640031D01*
X48733822Y-51633852D01*
X48739645Y-51522744D01*
X48744125Y-51437256D01*
X48744125Y-51437252D01*
X48744459Y-51430874D01*
X48714065Y-51229903D01*
X48643881Y-51039148D01*
X48622837Y-51005207D01*
X48540137Y-50871824D01*
X48540134Y-50871820D01*
X48536774Y-50866401D01*
X48465959Y-50791516D01*
X48401508Y-50723361D01*
X48401506Y-50723359D01*
X48397119Y-50718720D01*
X48230621Y-50602137D01*
X48044081Y-50521414D01*
X47993557Y-50510859D01*
X47849856Y-50480838D01*
X47849851Y-50480837D01*
X47845120Y-50479849D01*
X47840238Y-50479593D01*
X47840129Y-50479587D01*
X47840113Y-50479587D01*
X47838461Y-50479500D01*
X45289200Y-50479500D01*
X45241207Y-50484375D01*
X45144132Y-50494235D01*
X45144130Y-50494235D01*
X45137784Y-50494880D01*
X44943828Y-50555662D01*
X44766056Y-50654203D01*
X44697300Y-50713134D01*
X44661092Y-50744168D01*
X44596353Y-50773312D01*
X44579094Y-50774500D01*
X44426500Y-50774500D01*
X44358379Y-50754498D01*
X44311886Y-50700842D01*
X44300500Y-50648500D01*
X44300500Y-49604449D01*
X44320502Y-49536328D01*
X44374158Y-49489835D01*
X44444432Y-49479731D01*
X44509012Y-49509225D01*
X44533586Y-49538052D01*
X44539861Y-49548173D01*
X44539865Y-49548178D01*
X44543226Y-49553599D01*
X44547612Y-49558237D01*
X44672082Y-49689860D01*
X44682881Y-49701280D01*
X44849379Y-49817863D01*
X45035919Y-49898586D01*
X45043894Y-49900252D01*
X45230144Y-49939162D01*
X45230149Y-49939163D01*
X45234880Y-49940151D01*
X45239762Y-49940407D01*
X45239871Y-49940413D01*
X45239887Y-49940413D01*
X45241539Y-49940500D01*
X47790800Y-49940500D01*
X47863555Y-49933110D01*
X47935868Y-49925765D01*
X47935870Y-49925765D01*
X47942216Y-49925120D01*
X48136172Y-49864338D01*
X48313944Y-49765797D01*
X48468271Y-49633523D01*
X48592848Y-49472919D01*
X48682587Y-49290545D01*
X48684743Y-49282269D01*
X48732212Y-49100034D01*
X48732212Y-49100031D01*
X48733822Y-49093852D01*
X48739645Y-48982744D01*
X48744125Y-48897256D01*
X48744125Y-48897252D01*
X48744459Y-48890874D01*
X48714065Y-48689903D01*
X48643881Y-48499148D01*
X48597533Y-48424396D01*
X48540137Y-48331824D01*
X48540134Y-48331820D01*
X48536774Y-48326401D01*
X48502712Y-48290381D01*
X48401508Y-48183361D01*
X48401507Y-48183360D01*
X48397119Y-48178720D01*
X48230621Y-48062137D01*
X48044081Y-47981414D01*
X47883969Y-47947965D01*
X47821378Y-47914456D01*
X47786840Y-47852426D01*
X47791320Y-47781571D01*
X47833396Y-47724386D01*
X47898754Y-47699107D01*
X47962520Y-47693528D01*
X47973312Y-47691625D01*
X48183761Y-47635236D01*
X48194053Y-47631490D01*
X48391511Y-47539414D01*
X48401007Y-47533931D01*
X48579467Y-47408972D01*
X48587875Y-47401916D01*
X48741916Y-47247875D01*
X48748972Y-47239467D01*
X48873931Y-47061007D01*
X48879414Y-47051511D01*
X48971490Y-46854053D01*
X48975236Y-46843761D01*
X49021394Y-46671497D01*
X49021058Y-46657401D01*
X49013116Y-46654000D01*
X44072033Y-46654000D01*
X44058502Y-46657973D01*
X44057273Y-46666522D01*
X44104764Y-46843761D01*
X44108510Y-46854053D01*
X44200586Y-47051511D01*
X44206069Y-47061007D01*
X44331028Y-47239467D01*
X44338084Y-47247875D01*
X44492125Y-47401916D01*
X44500533Y-47408972D01*
X44678993Y-47533931D01*
X44688489Y-47539414D01*
X44885947Y-47631490D01*
X44896239Y-47635236D01*
X45106688Y-47691625D01*
X45117480Y-47693528D01*
X45182857Y-47699248D01*
X45248975Y-47725112D01*
X45290614Y-47782615D01*
X45294555Y-47853502D01*
X45259546Y-47915267D01*
X45196701Y-47948299D01*
X45184610Y-47950124D01*
X45169442Y-47951664D01*
X45144132Y-47954235D01*
X45144130Y-47954235D01*
X45137784Y-47954880D01*
X44943828Y-48015662D01*
X44938239Y-48018760D01*
X44923248Y-48027070D01*
X44766056Y-48114203D01*
X44763145Y-48116698D01*
X44696663Y-48138862D01*
X44627862Y-48121339D01*
X44579458Y-48069401D01*
X44575693Y-48061163D01*
X44575507Y-48060714D01*
X44524536Y-47937659D01*
X44428282Y-47812218D01*
X44302841Y-47715964D01*
X44156762Y-47655456D01*
X44000000Y-47634818D01*
X43843238Y-47655456D01*
X43697159Y-47715964D01*
X43571718Y-47812218D01*
X43475464Y-47937659D01*
X43414956Y-48083738D01*
X43394318Y-48240500D01*
X43414956Y-48397262D01*
X43475464Y-48543341D01*
X43571718Y-48668782D01*
X43642149Y-48722825D01*
X43650204Y-48729006D01*
X43692071Y-48786344D01*
X43699500Y-48828969D01*
X43699500Y-49002519D01*
X43679498Y-49070640D01*
X43625842Y-49117133D01*
X43555568Y-49127237D01*
X43490988Y-49097743D01*
X43454618Y-49044268D01*
X43422083Y-48951621D01*
X43422082Y-48951619D01*
X43418961Y-48942732D01*
X43405534Y-48924552D01*
X43346303Y-48844360D01*
X43340711Y-48836789D01*
X43333140Y-48831197D01*
X43242345Y-48764135D01*
X43242343Y-48764134D01*
X43234768Y-48758539D01*
X43225881Y-48755418D01*
X43225879Y-48755417D01*
X43117748Y-48717444D01*
X43117746Y-48717443D01*
X43110500Y-48714899D01*
X43102856Y-48714176D01*
X43102854Y-48714176D01*
X43094879Y-48713422D01*
X43079833Y-48712000D01*
X43066582Y-48712000D01*
X42626825Y-48712001D01*
X42558705Y-48691999D01*
X42512212Y-48638344D01*
X42502108Y-48568070D01*
X42510417Y-48537784D01*
X42511777Y-48534501D01*
X42511778Y-48534496D01*
X42514938Y-48526868D01*
X42535576Y-48370106D01*
X42514938Y-48213344D01*
X42454430Y-48067265D01*
X42358176Y-47941824D01*
X42348040Y-47934046D01*
X42287321Y-47887455D01*
X42232735Y-47845570D01*
X42168020Y-47818764D01*
X42157108Y-47814244D01*
X42101827Y-47769695D01*
X42079406Y-47702332D01*
X42096964Y-47633541D01*
X42116231Y-47608740D01*
X43596468Y-46128503D01*
X44058606Y-46128503D01*
X44058942Y-46142599D01*
X44066884Y-46146000D01*
X49007967Y-46146000D01*
X49021498Y-46142027D01*
X49022727Y-46133478D01*
X48975236Y-45956239D01*
X48971490Y-45945947D01*
X48879414Y-45748489D01*
X48873931Y-45738993D01*
X48748972Y-45560533D01*
X48741916Y-45552125D01*
X48587875Y-45398084D01*
X48579467Y-45391028D01*
X48401007Y-45266069D01*
X48391511Y-45260586D01*
X48194053Y-45168510D01*
X48183761Y-45164764D01*
X47973312Y-45108375D01*
X47962520Y-45106472D01*
X47897143Y-45100752D01*
X47831025Y-45074888D01*
X47789386Y-45017385D01*
X47785445Y-44946498D01*
X47820454Y-44884733D01*
X47883299Y-44851701D01*
X47895390Y-44849876D01*
X47910558Y-44848336D01*
X47935868Y-44845765D01*
X47935870Y-44845765D01*
X47942216Y-44845120D01*
X48136172Y-44784338D01*
X48313944Y-44685797D01*
X48468271Y-44553523D01*
X48511597Y-44497668D01*
X48568493Y-44424317D01*
X48592848Y-44392919D01*
X48682587Y-44210545D01*
X48689390Y-44184428D01*
X48732212Y-44020034D01*
X48732212Y-44020031D01*
X48733822Y-44013852D01*
X48743631Y-43826676D01*
X48744125Y-43817256D01*
X48744125Y-43817252D01*
X48744459Y-43810874D01*
X48714065Y-43609903D01*
X48643881Y-43419148D01*
X48639700Y-43412405D01*
X48540137Y-43251824D01*
X48540134Y-43251820D01*
X48536774Y-43246401D01*
X48447830Y-43152345D01*
X48401508Y-43103361D01*
X48401507Y-43103360D01*
X48397119Y-43098720D01*
X48250446Y-42996019D01*
X48235851Y-42985799D01*
X48235850Y-42985799D01*
X48230621Y-42982137D01*
X48044081Y-42901414D01*
X47969523Y-42885838D01*
X47849856Y-42860838D01*
X47849851Y-42860837D01*
X47845120Y-42859849D01*
X47840238Y-42859593D01*
X47840129Y-42859587D01*
X47840113Y-42859587D01*
X47838461Y-42859500D01*
X45289200Y-42859500D01*
X45241207Y-42864375D01*
X45144132Y-42874235D01*
X45144130Y-42874235D01*
X45137784Y-42874880D01*
X44943828Y-42935662D01*
X44766056Y-43034203D01*
X44611729Y-43166477D01*
X44487152Y-43327081D01*
X44397413Y-43509455D01*
X44395804Y-43515633D01*
X44395803Y-43515635D01*
X44364694Y-43635066D01*
X44346178Y-43706148D01*
X44344743Y-43733539D01*
X44338319Y-43856120D01*
X44335541Y-43909126D01*
X44365935Y-44110097D01*
X44368141Y-44116092D01*
X44368141Y-44116093D01*
X44368777Y-44117821D01*
X44436119Y-44300852D01*
X44439479Y-44306272D01*
X44439480Y-44306273D01*
X44539863Y-44468176D01*
X44539866Y-44468180D01*
X44543226Y-44473599D01*
X44547612Y-44478237D01*
X44658720Y-44595730D01*
X44682881Y-44621280D01*
X44849379Y-44737863D01*
X45035919Y-44818586D01*
X45166018Y-44845765D01*
X45196031Y-44852035D01*
X45258622Y-44885544D01*
X45293160Y-44947574D01*
X45288680Y-45018429D01*
X45246604Y-45075614D01*
X45181246Y-45100893D01*
X45117480Y-45106472D01*
X45106688Y-45108375D01*
X44896239Y-45164764D01*
X44885947Y-45168510D01*
X44688489Y-45260586D01*
X44678993Y-45266069D01*
X44500533Y-45391028D01*
X44492125Y-45398084D01*
X44338084Y-45552125D01*
X44331028Y-45560533D01*
X44206069Y-45738993D01*
X44200586Y-45748489D01*
X44108510Y-45945947D01*
X44104764Y-45956239D01*
X44058606Y-46128503D01*
X43596468Y-46128503D01*
X43675452Y-46049519D01*
X43677486Y-46047763D01*
X43682269Y-46045425D01*
X43715573Y-46009523D01*
X43718853Y-46006118D01*
X43732248Y-45992723D01*
X43734972Y-45988753D01*
X43737297Y-45986105D01*
X43750492Y-45971881D01*
X43750494Y-45971878D01*
X43758401Y-45963354D01*
X43762711Y-45952550D01*
X43765233Y-45948561D01*
X43770994Y-45937773D01*
X43772911Y-45933448D01*
X43779492Y-45923854D01*
X43785183Y-45899873D01*
X43790748Y-45882276D01*
X43796588Y-45867638D01*
X43796589Y-45867635D01*
X43799883Y-45859378D01*
X43800500Y-45853085D01*
X43800500Y-45850006D01*
X43800650Y-45846933D01*
X43800866Y-45846944D01*
X43802198Y-45835569D01*
X43802654Y-45826254D01*
X43805340Y-45814934D01*
X43801651Y-45787827D01*
X43800500Y-45770836D01*
X43800500Y-44652370D01*
X43800696Y-44649695D01*
X43802426Y-44644658D01*
X43800589Y-44595729D01*
X43800500Y-44591003D01*
X43800500Y-44572052D01*
X43799618Y-44567319D01*
X43799390Y-44563792D01*
X43798663Y-44544420D01*
X43798662Y-44544418D01*
X43798226Y-44532792D01*
X43793632Y-44522100D01*
X43792595Y-44517497D01*
X43789038Y-44505786D01*
X43787339Y-44501383D01*
X43785209Y-44489947D01*
X43772272Y-44468959D01*
X43763769Y-44452589D01*
X43757548Y-44438109D01*
X43757545Y-44438104D01*
X43754036Y-44429937D01*
X43750023Y-44425051D01*
X43747840Y-44422868D01*
X43745776Y-44420592D01*
X43745937Y-44420446D01*
X43738835Y-44411461D01*
X43732571Y-44404553D01*
X43726468Y-44394652D01*
X43717209Y-44387612D01*
X43717208Y-44387610D01*
X43704692Y-44378093D01*
X43691864Y-44366892D01*
X43549518Y-44224546D01*
X43547763Y-44222513D01*
X43545425Y-44217731D01*
X43509524Y-44184428D01*
X43506119Y-44181148D01*
X43492723Y-44167752D01*
X43488753Y-44165028D01*
X43486105Y-44162703D01*
X43471881Y-44149508D01*
X43471878Y-44149506D01*
X43463354Y-44141599D01*
X43452550Y-44137289D01*
X43448561Y-44134767D01*
X43437773Y-44129006D01*
X43433448Y-44127089D01*
X43423854Y-44120508D01*
X43412535Y-44117822D01*
X43412533Y-44117821D01*
X43399873Y-44114817D01*
X43382276Y-44109252D01*
X43367638Y-44103412D01*
X43367635Y-44103411D01*
X43359378Y-44100117D01*
X43353085Y-44099500D01*
X43350006Y-44099500D01*
X43346933Y-44099350D01*
X43346944Y-44099134D01*
X43335569Y-44097802D01*
X43326254Y-44097346D01*
X43314934Y-44094660D01*
X43303405Y-44096229D01*
X43303404Y-44096229D01*
X43287827Y-44098349D01*
X43270836Y-44099500D01*
X41664870Y-44099500D01*
X41662195Y-44099304D01*
X41657158Y-44097574D01*
X41608230Y-44099411D01*
X41603503Y-44099500D01*
X41584552Y-44099500D01*
X41579819Y-44100382D01*
X41576292Y-44100610D01*
X41556920Y-44101337D01*
X41556918Y-44101338D01*
X41545292Y-44101774D01*
X41534603Y-44106366D01*
X41523280Y-44108918D01*
X41495581Y-44112000D01*
X40993748Y-44112001D01*
X40922668Y-44112001D01*
X40919718Y-44112280D01*
X40919713Y-44112280D01*
X40899650Y-44114176D01*
X40899649Y-44114176D01*
X40892000Y-44114899D01*
X40884752Y-44117444D01*
X40884749Y-44117445D01*
X40776621Y-44155417D01*
X40776619Y-44155418D01*
X40767732Y-44158539D01*
X40760157Y-44164134D01*
X40760155Y-44164135D01*
X40705688Y-44204365D01*
X40661789Y-44236789D01*
X40583539Y-44342732D01*
X40580418Y-44351619D01*
X40580417Y-44351621D01*
X40542445Y-44459749D01*
X40539899Y-44467000D01*
X40537000Y-44497667D01*
X40537001Y-45077332D01*
X40539899Y-45108000D01*
X40542444Y-45115248D01*
X40542445Y-45115251D01*
X40578240Y-45217178D01*
X40583539Y-45232268D01*
X40596919Y-45250383D01*
X40596972Y-45250455D01*
X40621355Y-45317133D01*
X40605819Y-45386409D01*
X40555295Y-45436288D01*
X40547563Y-45439628D01*
X40547681Y-45439880D01*
X40527885Y-45449153D01*
X40392508Y-45532926D01*
X40381110Y-45541960D01*
X40268637Y-45654629D01*
X40259623Y-45666043D01*
X40201305Y-45760653D01*
X40148533Y-45808147D01*
X40078462Y-45819571D01*
X40019187Y-45795890D01*
X39942348Y-45739137D01*
X39942345Y-45739135D01*
X39934768Y-45733539D01*
X39925881Y-45730418D01*
X39925879Y-45730417D01*
X39817748Y-45692444D01*
X39817746Y-45692443D01*
X39810500Y-45689899D01*
X39802855Y-45689176D01*
X39795352Y-45687530D01*
X39795792Y-45685526D01*
X39739648Y-45663115D01*
X39698407Y-45605326D01*
X39694956Y-45534413D01*
X39730392Y-45472892D01*
X39775686Y-45445111D01*
X39848378Y-45419583D01*
X39857268Y-45416461D01*
X39864843Y-45410866D01*
X39864845Y-45410865D01*
X39955640Y-45343803D01*
X39963211Y-45338211D01*
X39984759Y-45309037D01*
X40035865Y-45239845D01*
X40035866Y-45239843D01*
X40041461Y-45232268D01*
X40046761Y-45217178D01*
X40082556Y-45115248D01*
X40082557Y-45115246D01*
X40085101Y-45108000D01*
X40088000Y-45077333D01*
X40088000Y-44939620D01*
X40091796Y-44908925D01*
X40098230Y-44883312D01*
X40098230Y-44883308D01*
X40100081Y-44875941D01*
X40100243Y-44845120D01*
X40100929Y-44713995D01*
X40100969Y-44706395D01*
X40091481Y-44666876D01*
X40087999Y-44637461D01*
X40087999Y-44497668D01*
X40087270Y-44489947D01*
X40085824Y-44474650D01*
X40085824Y-44474649D01*
X40085101Y-44467000D01*
X40082555Y-44459749D01*
X40044583Y-44351621D01*
X40044582Y-44351619D01*
X40041461Y-44342732D01*
X39963211Y-44236789D01*
X39919312Y-44204365D01*
X39864845Y-44164135D01*
X39864843Y-44164134D01*
X39857268Y-44158539D01*
X39848381Y-44155418D01*
X39848379Y-44155417D01*
X39740248Y-44117444D01*
X39740246Y-44117443D01*
X39733000Y-44114899D01*
X39725356Y-44114176D01*
X39725354Y-44114176D01*
X39717379Y-44113422D01*
X39702333Y-44112000D01*
X39618801Y-44112000D01*
X39587468Y-44108042D01*
X39582564Y-44106783D01*
X39575487Y-44104024D01*
X39446174Y-44087000D01*
X38726500Y-44087000D01*
X38658379Y-44066998D01*
X38611886Y-44013342D01*
X38600500Y-43961000D01*
X38600500Y-41369126D01*
X44335541Y-41369126D01*
X44365935Y-41570097D01*
X44436119Y-41760852D01*
X44439479Y-41766272D01*
X44439480Y-41766273D01*
X44539863Y-41928176D01*
X44539866Y-41928180D01*
X44543226Y-41933599D01*
X44682881Y-42081280D01*
X44849379Y-42197863D01*
X45035919Y-42278586D01*
X45045258Y-42280537D01*
X45230144Y-42319162D01*
X45230149Y-42319163D01*
X45234880Y-42320151D01*
X45239762Y-42320407D01*
X45239871Y-42320413D01*
X45239887Y-42320413D01*
X45241539Y-42320500D01*
X47790800Y-42320500D01*
X47838793Y-42315625D01*
X47935868Y-42305765D01*
X47935870Y-42305765D01*
X47942216Y-42305120D01*
X48136172Y-42244338D01*
X48313944Y-42145797D01*
X48468271Y-42013523D01*
X48592848Y-41852919D01*
X48682587Y-41670545D01*
X48694304Y-41625564D01*
X48732212Y-41480034D01*
X48732212Y-41480031D01*
X48733822Y-41473852D01*
X48744459Y-41270874D01*
X48714065Y-41069903D01*
X48643881Y-40879148D01*
X48590345Y-40792802D01*
X48540137Y-40711824D01*
X48540134Y-40711820D01*
X48536774Y-40706401D01*
X48397119Y-40558720D01*
X48230621Y-40442137D01*
X48044081Y-40361414D01*
X47998053Y-40351798D01*
X47849856Y-40320838D01*
X47849851Y-40320837D01*
X47845120Y-40319849D01*
X47840238Y-40319593D01*
X47840129Y-40319587D01*
X47840113Y-40319587D01*
X47838461Y-40319500D01*
X45289200Y-40319500D01*
X45241207Y-40324375D01*
X45144132Y-40334235D01*
X45144130Y-40334235D01*
X45137784Y-40334880D01*
X44943828Y-40395662D01*
X44766056Y-40494203D01*
X44611729Y-40626477D01*
X44487152Y-40787081D01*
X44397413Y-40969455D01*
X44395804Y-40975633D01*
X44395803Y-40975635D01*
X44369603Y-41076220D01*
X44346178Y-41166148D01*
X44335541Y-41369126D01*
X38600500Y-41369126D01*
X38600500Y-38829126D01*
X44335541Y-38829126D01*
X44365935Y-39030097D01*
X44436119Y-39220852D01*
X44439479Y-39226272D01*
X44439480Y-39226273D01*
X44539863Y-39388176D01*
X44539866Y-39388180D01*
X44543226Y-39393599D01*
X44682881Y-39541280D01*
X44849379Y-39657863D01*
X45035919Y-39738586D01*
X45081947Y-39748202D01*
X45230144Y-39779162D01*
X45230149Y-39779163D01*
X45234880Y-39780151D01*
X45239762Y-39780407D01*
X45239871Y-39780413D01*
X45239887Y-39780413D01*
X45241539Y-39780500D01*
X47790800Y-39780500D01*
X47838793Y-39775625D01*
X47935868Y-39765765D01*
X47935870Y-39765765D01*
X47942216Y-39765120D01*
X48136172Y-39704338D01*
X48313944Y-39605797D01*
X48468271Y-39473523D01*
X48592848Y-39312919D01*
X48682587Y-39130545D01*
X48694304Y-39085564D01*
X48732212Y-38940034D01*
X48732212Y-38940031D01*
X48733822Y-38933852D01*
X48738076Y-38852672D01*
X48744125Y-38737256D01*
X48744125Y-38737252D01*
X48744459Y-38730874D01*
X48714065Y-38529903D01*
X48643881Y-38339148D01*
X48604614Y-38275816D01*
X48540137Y-38171824D01*
X48540134Y-38171820D01*
X48536774Y-38166401D01*
X48397119Y-38018720D01*
X48230621Y-37902137D01*
X48044081Y-37821414D01*
X47998053Y-37811798D01*
X47849856Y-37780838D01*
X47849851Y-37780837D01*
X47845120Y-37779849D01*
X47840238Y-37779593D01*
X47840129Y-37779587D01*
X47840113Y-37779587D01*
X47838461Y-37779500D01*
X45289200Y-37779500D01*
X45241207Y-37784375D01*
X45144132Y-37794235D01*
X45144130Y-37794235D01*
X45137784Y-37794880D01*
X44943828Y-37855662D01*
X44766056Y-37954203D01*
X44611729Y-38086477D01*
X44487152Y-38247081D01*
X44397413Y-38429455D01*
X44395804Y-38435633D01*
X44395803Y-38435635D01*
X44351362Y-38606248D01*
X44346178Y-38626148D01*
X44335541Y-38829126D01*
X38600500Y-38829126D01*
X38600500Y-38726500D01*
X38620502Y-38658379D01*
X38674158Y-38611886D01*
X38726500Y-38600500D01*
X41255271Y-38600500D01*
X41263513Y-38600770D01*
X41331560Y-38605230D01*
X41423927Y-38594298D01*
X41427149Y-38593960D01*
X41519711Y-38585454D01*
X41525278Y-38583884D01*
X41525282Y-38583883D01*
X41525406Y-38583848D01*
X41544789Y-38579992D01*
X41544929Y-38579975D01*
X41550667Y-38579296D01*
X41639459Y-38551726D01*
X41642535Y-38550814D01*
X41732064Y-38525565D01*
X41737241Y-38523012D01*
X41737251Y-38523008D01*
X41737376Y-38522946D01*
X41755737Y-38515621D01*
X41755860Y-38515583D01*
X41755864Y-38515581D01*
X41761379Y-38513869D01*
X41843634Y-38470593D01*
X41846565Y-38469099D01*
X41929947Y-38427980D01*
X41934693Y-38424436D01*
X41951405Y-38413892D01*
X41956641Y-38411137D01*
X42029663Y-38353572D01*
X42032265Y-38351575D01*
X42056167Y-38333727D01*
X42106733Y-38295967D01*
X42165418Y-38232481D01*
X42168848Y-38228916D01*
X43517245Y-36880519D01*
X43523262Y-36874883D01*
X43570198Y-36833721D01*
X43570201Y-36833718D01*
X43574543Y-36829910D01*
X43586273Y-36815031D01*
X43632111Y-36756886D01*
X43634186Y-36754324D01*
X43689908Y-36687325D01*
X43689910Y-36687323D01*
X43693602Y-36682883D01*
X43696498Y-36677713D01*
X43707471Y-36661291D01*
X43707562Y-36661176D01*
X43707565Y-36661171D01*
X43711137Y-36656640D01*
X43754415Y-36574383D01*
X43755989Y-36571483D01*
X43798586Y-36495422D01*
X43798587Y-36495420D01*
X43801410Y-36490379D01*
X43803310Y-36484780D01*
X43811116Y-36466613D01*
X43811178Y-36466494D01*
X43813869Y-36461380D01*
X43841434Y-36372606D01*
X43842450Y-36369480D01*
X43870475Y-36286921D01*
X43870476Y-36286916D01*
X43872331Y-36281452D01*
X43873182Y-36275584D01*
X43877539Y-36256330D01*
X43877585Y-36256183D01*
X43877586Y-36256177D01*
X43879297Y-36250667D01*
X43883387Y-36216115D01*
X43890223Y-36158350D01*
X43890654Y-36155078D01*
X43903163Y-36068811D01*
X43903163Y-36068807D01*
X43903991Y-36063098D01*
X43900597Y-35976714D01*
X43900500Y-35971767D01*
X43900500Y-34276323D01*
X43920502Y-34208202D01*
X43974158Y-34161709D01*
X44044432Y-34151605D01*
X44109012Y-34181099D01*
X44140695Y-34223073D01*
X44200586Y-34351511D01*
X44206069Y-34361007D01*
X44331028Y-34539467D01*
X44338084Y-34547875D01*
X44492125Y-34701916D01*
X44500533Y-34708972D01*
X44678993Y-34833931D01*
X44688489Y-34839414D01*
X44885947Y-34931490D01*
X44896239Y-34935236D01*
X45106688Y-34991625D01*
X45117480Y-34993528D01*
X45182857Y-34999248D01*
X45248975Y-35025112D01*
X45290614Y-35082615D01*
X45294555Y-35153502D01*
X45259546Y-35215267D01*
X45196701Y-35248299D01*
X45184610Y-35250124D01*
X45169442Y-35251664D01*
X45144132Y-35254235D01*
X45144130Y-35254235D01*
X45137784Y-35254880D01*
X44943828Y-35315662D01*
X44766056Y-35414203D01*
X44611729Y-35546477D01*
X44487152Y-35707081D01*
X44397413Y-35889455D01*
X44395804Y-35895633D01*
X44395803Y-35895635D01*
X44353685Y-36057330D01*
X44346178Y-36086148D01*
X44345844Y-36092527D01*
X44336311Y-36274435D01*
X44335541Y-36289126D01*
X44365935Y-36490097D01*
X44436119Y-36680852D01*
X44439479Y-36686272D01*
X44439480Y-36686273D01*
X44539863Y-36848176D01*
X44539866Y-36848180D01*
X44543226Y-36853599D01*
X44682881Y-37001280D01*
X44849379Y-37117863D01*
X45035919Y-37198586D01*
X45081947Y-37208202D01*
X45230144Y-37239162D01*
X45230149Y-37239163D01*
X45234880Y-37240151D01*
X45239762Y-37240407D01*
X45239871Y-37240413D01*
X45239887Y-37240413D01*
X45241539Y-37240500D01*
X47790800Y-37240500D01*
X47838793Y-37235625D01*
X47935868Y-37225765D01*
X47935870Y-37225765D01*
X47942216Y-37225120D01*
X48136172Y-37164338D01*
X48313944Y-37065797D01*
X48468271Y-36933523D01*
X48592848Y-36772919D01*
X48682587Y-36590545D01*
X48687178Y-36572921D01*
X48732212Y-36400034D01*
X48732212Y-36400031D01*
X48733822Y-36393852D01*
X48740006Y-36275842D01*
X48744125Y-36197256D01*
X48744125Y-36197252D01*
X48744459Y-36190874D01*
X48714065Y-35989903D01*
X48643881Y-35799148D01*
X48614188Y-35751258D01*
X48540137Y-35631824D01*
X48540134Y-35631820D01*
X48536774Y-35626401D01*
X48397119Y-35478720D01*
X48230621Y-35362137D01*
X48044081Y-35281414D01*
X47883969Y-35247965D01*
X47821378Y-35214456D01*
X47786840Y-35152426D01*
X47791320Y-35081571D01*
X47833396Y-35024386D01*
X47898754Y-34999107D01*
X47962520Y-34993528D01*
X47973312Y-34991625D01*
X48183761Y-34935236D01*
X48194053Y-34931490D01*
X48391511Y-34839414D01*
X48401007Y-34833931D01*
X48579467Y-34708972D01*
X48587875Y-34701916D01*
X48741916Y-34547875D01*
X48748972Y-34539467D01*
X48873931Y-34361007D01*
X48879414Y-34351511D01*
X48971490Y-34154053D01*
X48975236Y-34143761D01*
X49021394Y-33971497D01*
X49021058Y-33957401D01*
X49013116Y-33954000D01*
X46412000Y-33954000D01*
X46343879Y-33933998D01*
X46297386Y-33880342D01*
X46286000Y-33828000D01*
X46286000Y-33572000D01*
X46306002Y-33503879D01*
X46359658Y-33457386D01*
X46412000Y-33446000D01*
X49007967Y-33446000D01*
X49021498Y-33442027D01*
X49022727Y-33433478D01*
X48975236Y-33256239D01*
X48971490Y-33245947D01*
X48879414Y-33048489D01*
X48873931Y-33038993D01*
X48748972Y-32860533D01*
X48741916Y-32852125D01*
X48587875Y-32698084D01*
X48579467Y-32691028D01*
X48401007Y-32566069D01*
X48391511Y-32560586D01*
X48194053Y-32468510D01*
X48183761Y-32464764D01*
X47973312Y-32408375D01*
X47962520Y-32406472D01*
X47897143Y-32400752D01*
X47831025Y-32374888D01*
X47789386Y-32317385D01*
X47785445Y-32246498D01*
X47820454Y-32184733D01*
X47883299Y-32151701D01*
X47895390Y-32149876D01*
X47910558Y-32148336D01*
X47935868Y-32145765D01*
X47935870Y-32145765D01*
X47942216Y-32145120D01*
X48136172Y-32084338D01*
X48313944Y-31985797D01*
X48468271Y-31853523D01*
X48475051Y-31844783D01*
X48548684Y-31749855D01*
X48592848Y-31692919D01*
X48682587Y-31510545D01*
X48686924Y-31493895D01*
X48732212Y-31320034D01*
X48732212Y-31320031D01*
X48733822Y-31313852D01*
X48744459Y-31110874D01*
X48714065Y-30909903D01*
X48643881Y-30719148D01*
X48611839Y-30667469D01*
X48540137Y-30551824D01*
X48540134Y-30551820D01*
X48536774Y-30546401D01*
X48397119Y-30398720D01*
X48230621Y-30282137D01*
X48044081Y-30201414D01*
X47998053Y-30191798D01*
X47849856Y-30160838D01*
X47849851Y-30160837D01*
X47845120Y-30159849D01*
X47840238Y-30159593D01*
X47840129Y-30159587D01*
X47840113Y-30159587D01*
X47838461Y-30159500D01*
X47247981Y-30159500D01*
X47189313Y-30145008D01*
X47086492Y-30090911D01*
X47001380Y-30046131D01*
X46790667Y-29980703D01*
X46774944Y-29978842D01*
X46615211Y-29959936D01*
X46615205Y-29959936D01*
X46611524Y-29959500D01*
X44184740Y-29959500D01*
X44176499Y-29959230D01*
X44164165Y-29958422D01*
X44108440Y-29954769D01*
X44093111Y-29956583D01*
X44016060Y-29965703D01*
X44012780Y-29966047D01*
X43926043Y-29974017D01*
X43926040Y-29974018D01*
X43920289Y-29974546D01*
X43914728Y-29976115D01*
X43914725Y-29976115D01*
X43914597Y-29976151D01*
X43895218Y-29980006D01*
X43895074Y-29980023D01*
X43895068Y-29980024D01*
X43889333Y-29980703D01*
X43803516Y-30007350D01*
X43800549Y-30008271D01*
X43797386Y-30009208D01*
X43713488Y-30032869D01*
X43713486Y-30032870D01*
X43707936Y-30034435D01*
X43702765Y-30036985D01*
X43702752Y-30036990D01*
X43702621Y-30037055D01*
X43684278Y-30044373D01*
X43684142Y-30044415D01*
X43684136Y-30044418D01*
X43678621Y-30046130D01*
X43673512Y-30048818D01*
X43596351Y-30089414D01*
X43593420Y-30090907D01*
X43510053Y-30132020D01*
X43505310Y-30135562D01*
X43488600Y-30146105D01*
X43483360Y-30148862D01*
X43414064Y-30203491D01*
X43410359Y-30206412D01*
X43407758Y-30208408D01*
X43333267Y-30264033D01*
X43316532Y-30282137D01*
X43274570Y-30327531D01*
X43271140Y-30331097D01*
X41882757Y-31719480D01*
X41876739Y-31725117D01*
X41825457Y-31770090D01*
X41821885Y-31774621D01*
X41767889Y-31843114D01*
X41765814Y-31845676D01*
X41706398Y-31917117D01*
X41703573Y-31922161D01*
X41703502Y-31922287D01*
X41692529Y-31938709D01*
X41692438Y-31938824D01*
X41692435Y-31938829D01*
X41688863Y-31943360D01*
X41686173Y-31948473D01*
X41645585Y-32025617D01*
X41644021Y-32028498D01*
X41598590Y-32109621D01*
X41596690Y-32115220D01*
X41588884Y-32133387D01*
X41586131Y-32138620D01*
X41571813Y-32184733D01*
X41558569Y-32227384D01*
X41557550Y-32230520D01*
X41546151Y-32264102D01*
X41527669Y-32318548D01*
X41526818Y-32324416D01*
X41522461Y-32343670D01*
X41522415Y-32343817D01*
X41522414Y-32343823D01*
X41520703Y-32349333D01*
X41520025Y-32355061D01*
X41520024Y-32355066D01*
X41509777Y-32441650D01*
X41509347Y-32444915D01*
X41496009Y-32536902D01*
X41496236Y-32542670D01*
X41499403Y-32623286D01*
X41499500Y-32628233D01*
X41499500Y-35450545D01*
X41479498Y-35518666D01*
X41462596Y-35539640D01*
X40839642Y-36162595D01*
X40777329Y-36196620D01*
X40750546Y-36199500D01*
X37415149Y-36199500D01*
X37413500Y-36199489D01*
X37412205Y-36199472D01*
X37305406Y-36198074D01*
X37299707Y-36199053D01*
X37298960Y-36199112D01*
X37289075Y-36199500D01*
X35844030Y-36199500D01*
X35680289Y-36214546D01*
X35674727Y-36216115D01*
X35674725Y-36216115D01*
X35574113Y-36244490D01*
X35467936Y-36274435D01*
X35462753Y-36276991D01*
X35342068Y-36336506D01*
X35286340Y-36349500D01*
X35210372Y-36349500D01*
X35142251Y-36329498D01*
X35095758Y-36275842D01*
X35085654Y-36205568D01*
X35115148Y-36140988D01*
X35121277Y-36134405D01*
X35385807Y-35869875D01*
X35448119Y-35835849D01*
X35513838Y-35839137D01*
X35667471Y-35889056D01*
X35667475Y-35889057D01*
X35673329Y-35890959D01*
X35877894Y-35915351D01*
X35884029Y-35914879D01*
X35884031Y-35914879D01*
X35940039Y-35910569D01*
X36083300Y-35899546D01*
X36089230Y-35897890D01*
X36089232Y-35897890D01*
X36275797Y-35845800D01*
X36275796Y-35845800D01*
X36281725Y-35844145D01*
X36287214Y-35841372D01*
X36287220Y-35841370D01*
X36460116Y-35754033D01*
X36465610Y-35751258D01*
X36627951Y-35624424D01*
X36695233Y-35546477D01*
X36758540Y-35473134D01*
X36758540Y-35473133D01*
X36762564Y-35468472D01*
X36783387Y-35431818D01*
X36861276Y-35294707D01*
X36864323Y-35289344D01*
X36929351Y-35093863D01*
X36955171Y-34889474D01*
X36955583Y-34860000D01*
X36935480Y-34654970D01*
X36875935Y-34457749D01*
X36779218Y-34275849D01*
X36701942Y-34181099D01*
X36652906Y-34120975D01*
X36652903Y-34120972D01*
X36649011Y-34116200D01*
X36631786Y-34101950D01*
X36495025Y-33988811D01*
X36495021Y-33988809D01*
X36490275Y-33984882D01*
X36309055Y-33886897D01*
X36258183Y-33871150D01*
X36199025Y-33831899D01*
X36170477Y-33766895D01*
X36181605Y-33696776D01*
X36228876Y-33643804D01*
X36259235Y-33630099D01*
X36392255Y-33590191D01*
X36401842Y-33586433D01*
X36593095Y-33492739D01*
X36601945Y-33487464D01*
X36775328Y-33363792D01*
X36783200Y-33357139D01*
X36934052Y-33206812D01*
X36940730Y-33198965D01*
X37065003Y-33026020D01*
X37070313Y-33017183D01*
X37164670Y-32826267D01*
X37168469Y-32816672D01*
X37230377Y-32612910D01*
X37232555Y-32602837D01*
X37233986Y-32591962D01*
X37233363Y-32587966D01*
X38268257Y-32587966D01*
X38298565Y-32722446D01*
X38301645Y-32732275D01*
X38381770Y-32929603D01*
X38386413Y-32938794D01*
X38497694Y-33120388D01*
X38503777Y-33128699D01*
X38643213Y-33289667D01*
X38650580Y-33296883D01*
X38814434Y-33432916D01*
X38822881Y-33438831D01*
X39006756Y-33546279D01*
X39016042Y-33550729D01*
X39215001Y-33626703D01*
X39229866Y-33631022D01*
X39229289Y-33633008D01*
X39284260Y-33662082D01*
X39319110Y-33723936D01*
X39314988Y-33794813D01*
X39273201Y-33852209D01*
X39231930Y-33873228D01*
X39210489Y-33879538D01*
X39210484Y-33879540D01*
X39204572Y-33881280D01*
X39022002Y-33976726D01*
X39017201Y-33980586D01*
X39017198Y-33980588D01*
X39006971Y-33988811D01*
X38861447Y-34105815D01*
X38729024Y-34263630D01*
X38726056Y-34269028D01*
X38726053Y-34269033D01*
X38632743Y-34438765D01*
X38629776Y-34444162D01*
X38567484Y-34640532D01*
X38566798Y-34646649D01*
X38566797Y-34646653D01*
X38559807Y-34708972D01*
X38544520Y-34845262D01*
X38545036Y-34851406D01*
X38559623Y-35025112D01*
X38561759Y-35050553D01*
X38563458Y-35056478D01*
X38616039Y-35239849D01*
X38618544Y-35248586D01*
X38621359Y-35254063D01*
X38621360Y-35254066D01*
X38703659Y-35414203D01*
X38712712Y-35431818D01*
X38840677Y-35593270D01*
X38845370Y-35597264D01*
X38845371Y-35597265D01*
X38929210Y-35668617D01*
X38997564Y-35726791D01*
X39002942Y-35729797D01*
X39002944Y-35729798D01*
X39041342Y-35751258D01*
X39177398Y-35827297D01*
X39272238Y-35858113D01*
X39367471Y-35889056D01*
X39367475Y-35889057D01*
X39373329Y-35890959D01*
X39577894Y-35915351D01*
X39584029Y-35914879D01*
X39584031Y-35914879D01*
X39640039Y-35910569D01*
X39783300Y-35899546D01*
X39789230Y-35897890D01*
X39789232Y-35897890D01*
X39975797Y-35845800D01*
X39975796Y-35845800D01*
X39981725Y-35844145D01*
X39987214Y-35841372D01*
X39987220Y-35841370D01*
X40160116Y-35754033D01*
X40165610Y-35751258D01*
X40327951Y-35624424D01*
X40395233Y-35546477D01*
X40458540Y-35473134D01*
X40458540Y-35473133D01*
X40462564Y-35468472D01*
X40483387Y-35431818D01*
X40561276Y-35294707D01*
X40564323Y-35289344D01*
X40629351Y-35093863D01*
X40655171Y-34889474D01*
X40655583Y-34860000D01*
X40635480Y-34654970D01*
X40575935Y-34457749D01*
X40479218Y-34275849D01*
X40401942Y-34181099D01*
X40352906Y-34120975D01*
X40352903Y-34120972D01*
X40349011Y-34116200D01*
X40331786Y-34101950D01*
X40195025Y-33988811D01*
X40195021Y-33988809D01*
X40190275Y-33984882D01*
X40009055Y-33886897D01*
X39958183Y-33871150D01*
X39899025Y-33831899D01*
X39870477Y-33766895D01*
X39881605Y-33696776D01*
X39928876Y-33643804D01*
X39959235Y-33630099D01*
X40092255Y-33590191D01*
X40101842Y-33586433D01*
X40293095Y-33492739D01*
X40301945Y-33487464D01*
X40475328Y-33363792D01*
X40483200Y-33357139D01*
X40634052Y-33206812D01*
X40640730Y-33198965D01*
X40765003Y-33026020D01*
X40770313Y-33017183D01*
X40864670Y-32826267D01*
X40868469Y-32816672D01*
X40930377Y-32612910D01*
X40932555Y-32602837D01*
X40933986Y-32591962D01*
X40931775Y-32577778D01*
X40918617Y-32574000D01*
X38283225Y-32574000D01*
X38269694Y-32577973D01*
X38268257Y-32587966D01*
X37233363Y-32587966D01*
X37231775Y-32577778D01*
X37218617Y-32574000D01*
X35772000Y-32574000D01*
X35703879Y-32553998D01*
X35657386Y-32500342D01*
X35646000Y-32448000D01*
X35646000Y-32192000D01*
X35666002Y-32123879D01*
X35719658Y-32077386D01*
X35772000Y-32066000D01*
X37218344Y-32066000D01*
X37231875Y-32062027D01*
X37233002Y-32054183D01*
X38264389Y-32054183D01*
X38265912Y-32062607D01*
X38278292Y-32066000D01*
X40918344Y-32066000D01*
X40931875Y-32062027D01*
X40933180Y-32052947D01*
X40891214Y-31885875D01*
X40887894Y-31876124D01*
X40802972Y-31680814D01*
X40798105Y-31671739D01*
X40682426Y-31492926D01*
X40676136Y-31484757D01*
X40532806Y-31327240D01*
X40525273Y-31320215D01*
X40358139Y-31188222D01*
X40349552Y-31182517D01*
X40163117Y-31079599D01*
X40153705Y-31075369D01*
X39962031Y-31007493D01*
X39904495Y-30965899D01*
X39878579Y-30899801D01*
X39892513Y-30830185D01*
X39941872Y-30779154D01*
X39970206Y-30767362D01*
X39975790Y-30765803D01*
X39975799Y-30765800D01*
X39981725Y-30764145D01*
X39987214Y-30761372D01*
X39987220Y-30761370D01*
X40160116Y-30674033D01*
X40165610Y-30671258D01*
X40327951Y-30544424D01*
X40395233Y-30466477D01*
X40458540Y-30393134D01*
X40458540Y-30393133D01*
X40462564Y-30388472D01*
X40483387Y-30351818D01*
X40530848Y-30268270D01*
X40564323Y-30209344D01*
X40629351Y-30013863D01*
X40655171Y-29809474D01*
X40655583Y-29780000D01*
X40635480Y-29574970D01*
X40575935Y-29377749D01*
X40479218Y-29195849D01*
X40369117Y-29060852D01*
X40352906Y-29040975D01*
X40352903Y-29040972D01*
X40349011Y-29036200D01*
X40262178Y-28964365D01*
X40195025Y-28908811D01*
X40195021Y-28908809D01*
X40190275Y-28904882D01*
X40009055Y-28806897D01*
X39812254Y-28745977D01*
X39806129Y-28745333D01*
X39806128Y-28745333D01*
X39613498Y-28725087D01*
X39613496Y-28725087D01*
X39607369Y-28724443D01*
X39520529Y-28732346D01*
X39408342Y-28742555D01*
X39408339Y-28742556D01*
X39402203Y-28743114D01*
X39204572Y-28801280D01*
X39022002Y-28896726D01*
X39017201Y-28900586D01*
X39017198Y-28900588D01*
X38930189Y-28970545D01*
X38861447Y-29025815D01*
X38729024Y-29183630D01*
X38726056Y-29189028D01*
X38726053Y-29189033D01*
X38660385Y-29308484D01*
X38629776Y-29364162D01*
X38567484Y-29560532D01*
X38566798Y-29566649D01*
X38566797Y-29566653D01*
X38545207Y-29759137D01*
X38544520Y-29765262D01*
X38545036Y-29771406D01*
X38560491Y-29955448D01*
X38561759Y-29970553D01*
X38564475Y-29980024D01*
X38616039Y-30159849D01*
X38618544Y-30168586D01*
X38621359Y-30174063D01*
X38621360Y-30174066D01*
X38703659Y-30334203D01*
X38712712Y-30351818D01*
X38840677Y-30513270D01*
X38997564Y-30646791D01*
X39177398Y-30747297D01*
X39242437Y-30768429D01*
X39301042Y-30808502D01*
X39328680Y-30873898D01*
X39316574Y-30943855D01*
X39268568Y-30996162D01*
X39242646Y-31008027D01*
X39076868Y-31062212D01*
X39067359Y-31066209D01*
X38878463Y-31164542D01*
X38869738Y-31170036D01*
X38699433Y-31297905D01*
X38691726Y-31304748D01*
X38544590Y-31458717D01*
X38538104Y-31466727D01*
X38418098Y-31642649D01*
X38413000Y-31651623D01*
X38323338Y-31844783D01*
X38319775Y-31854470D01*
X38264389Y-32054183D01*
X37233002Y-32054183D01*
X37233180Y-32052947D01*
X37191214Y-31885875D01*
X37187894Y-31876124D01*
X37102972Y-31680814D01*
X37098105Y-31671739D01*
X36982426Y-31492926D01*
X36976136Y-31484757D01*
X36832806Y-31327240D01*
X36825273Y-31320215D01*
X36658139Y-31188222D01*
X36649552Y-31182517D01*
X36463117Y-31079599D01*
X36453705Y-31075369D01*
X36262031Y-31007493D01*
X36204495Y-30965899D01*
X36178579Y-30899801D01*
X36192513Y-30830185D01*
X36241872Y-30779154D01*
X36270206Y-30767362D01*
X36275790Y-30765803D01*
X36275799Y-30765800D01*
X36281725Y-30764145D01*
X36287214Y-30761372D01*
X36287220Y-30761370D01*
X36460116Y-30674033D01*
X36465610Y-30671258D01*
X36627951Y-30544424D01*
X36695233Y-30466477D01*
X36758540Y-30393134D01*
X36758540Y-30393133D01*
X36762564Y-30388472D01*
X36783387Y-30351818D01*
X36830848Y-30268270D01*
X36864323Y-30209344D01*
X36929351Y-30013863D01*
X36955171Y-29809474D01*
X36955583Y-29780000D01*
X36935480Y-29574970D01*
X36875935Y-29377749D01*
X36779218Y-29195849D01*
X36669117Y-29060852D01*
X36652906Y-29040975D01*
X36652903Y-29040972D01*
X36649011Y-29036200D01*
X36562178Y-28964365D01*
X36495025Y-28908811D01*
X36495021Y-28908809D01*
X36490275Y-28904882D01*
X36309055Y-28806897D01*
X36112254Y-28745977D01*
X36106129Y-28745333D01*
X36106128Y-28745333D01*
X35913498Y-28725087D01*
X35913496Y-28725087D01*
X35907369Y-28724443D01*
X35820529Y-28732346D01*
X35708342Y-28742555D01*
X35708339Y-28742556D01*
X35702203Y-28743114D01*
X35504572Y-28801280D01*
X35322002Y-28896726D01*
X35317201Y-28900586D01*
X35317198Y-28900588D01*
X35230189Y-28970545D01*
X35161447Y-29025815D01*
X35029024Y-29183630D01*
X35026056Y-29189028D01*
X35026053Y-29189033D01*
X34960385Y-29308484D01*
X34929776Y-29364162D01*
X34867484Y-29560532D01*
X34866798Y-29566649D01*
X34866797Y-29566653D01*
X34845207Y-29759137D01*
X34844520Y-29765262D01*
X34845036Y-29771406D01*
X34860491Y-29955448D01*
X34861759Y-29970553D01*
X34864475Y-29980024D01*
X34916039Y-30159849D01*
X34918544Y-30168586D01*
X34921359Y-30174063D01*
X34921362Y-30174071D01*
X34933542Y-30197771D01*
X34946889Y-30267502D01*
X34920418Y-30333379D01*
X34910570Y-30344459D01*
X33824548Y-31430481D01*
X33822514Y-31432237D01*
X33817731Y-31434575D01*
X33809819Y-31443104D01*
X33809818Y-31443105D01*
X33784427Y-31470477D01*
X33781147Y-31473882D01*
X33767752Y-31487277D01*
X33765028Y-31491247D01*
X33762703Y-31493895D01*
X33749508Y-31508119D01*
X33749506Y-31508122D01*
X33741599Y-31516646D01*
X33737289Y-31527450D01*
X33734767Y-31531439D01*
X33729006Y-31542227D01*
X33727089Y-31546552D01*
X33720508Y-31556146D01*
X33717822Y-31567465D01*
X33717821Y-31567467D01*
X33714817Y-31580127D01*
X33709252Y-31597724D01*
X33703412Y-31612362D01*
X33700117Y-31620622D01*
X33699500Y-31626915D01*
X33699500Y-31629994D01*
X33699350Y-31633067D01*
X33699134Y-31633056D01*
X33697802Y-31644431D01*
X33697346Y-31653746D01*
X33694660Y-31665066D01*
X33696229Y-31676595D01*
X33696229Y-31676596D01*
X33698349Y-31692173D01*
X33699500Y-31709164D01*
X33699500Y-35923339D01*
X33679498Y-35991460D01*
X33662595Y-36012434D01*
X31265029Y-38410000D01*
X31262995Y-38411756D01*
X31258212Y-38414094D01*
X31250300Y-38422623D01*
X31250299Y-38422624D01*
X31224908Y-38449996D01*
X31221628Y-38453401D01*
X31208233Y-38466796D01*
X31205509Y-38470766D01*
X31203184Y-38473414D01*
X31189989Y-38487638D01*
X31189987Y-38487641D01*
X31182080Y-38496165D01*
X31177770Y-38506969D01*
X31175248Y-38510958D01*
X31169489Y-38521743D01*
X31167572Y-38526068D01*
X31160989Y-38535665D01*
X31160768Y-38536598D01*
X31119368Y-38585479D01*
X31051477Y-38606248D01*
X30983135Y-38587016D01*
X30936040Y-38533888D01*
X30931806Y-38523764D01*
X30931505Y-38522946D01*
X30863881Y-38339148D01*
X30824614Y-38275816D01*
X30760137Y-38171824D01*
X30760134Y-38171820D01*
X30756774Y-38166401D01*
X30617119Y-38018720D01*
X30450621Y-37902137D01*
X30264081Y-37821414D01*
X30218053Y-37811798D01*
X30069856Y-37780838D01*
X30069851Y-37780837D01*
X30065120Y-37779849D01*
X30060238Y-37779593D01*
X30060129Y-37779587D01*
X30060113Y-37779587D01*
X30058461Y-37779500D01*
X27509200Y-37779500D01*
X27461207Y-37784375D01*
X27364132Y-37794235D01*
X27364130Y-37794235D01*
X27357784Y-37794880D01*
X27163828Y-37855662D01*
X26986056Y-37954203D01*
X26831729Y-38086477D01*
X26707152Y-38247081D01*
X26617413Y-38429455D01*
X26615804Y-38435633D01*
X26615803Y-38435635D01*
X26571362Y-38606248D01*
X26566178Y-38626148D01*
X26555541Y-38829126D01*
X26585935Y-39030097D01*
X26656119Y-39220852D01*
X26659479Y-39226272D01*
X26659480Y-39226273D01*
X26759863Y-39388176D01*
X26759866Y-39388180D01*
X26763226Y-39393599D01*
X26902881Y-39541280D01*
X27069379Y-39657863D01*
X27255919Y-39738586D01*
X27301947Y-39748202D01*
X27450144Y-39779162D01*
X27450149Y-39779163D01*
X27454880Y-39780151D01*
X27459762Y-39780407D01*
X27459871Y-39780413D01*
X27459887Y-39780413D01*
X27461539Y-39780500D01*
X30010800Y-39780500D01*
X30058793Y-39775625D01*
X30155868Y-39765765D01*
X30155870Y-39765765D01*
X30162216Y-39765120D01*
X30356172Y-39704338D01*
X30533944Y-39605797D01*
X30688271Y-39473523D01*
X30812848Y-39312919D01*
X30858151Y-39220852D01*
X30900926Y-39133921D01*
X30948949Y-39081630D01*
X31017619Y-39063604D01*
X31085134Y-39085564D01*
X31130058Y-39140540D01*
X31139981Y-39189551D01*
X31139981Y-40922206D01*
X31119979Y-40990327D01*
X31066323Y-41036820D01*
X30996049Y-41046924D01*
X30931469Y-41017430D01*
X30895731Y-40965714D01*
X30879723Y-40922206D01*
X30863881Y-40879148D01*
X30810345Y-40792802D01*
X30760137Y-40711824D01*
X30760134Y-40711820D01*
X30756774Y-40706401D01*
X30617119Y-40558720D01*
X30450621Y-40442137D01*
X30264081Y-40361414D01*
X30218053Y-40351798D01*
X30069856Y-40320838D01*
X30069851Y-40320837D01*
X30065120Y-40319849D01*
X30060238Y-40319593D01*
X30060129Y-40319587D01*
X30060113Y-40319587D01*
X30058461Y-40319500D01*
X27509200Y-40319500D01*
X27461207Y-40324375D01*
X27364132Y-40334235D01*
X27364130Y-40334235D01*
X27357784Y-40334880D01*
X27163828Y-40395662D01*
X26986056Y-40494203D01*
X26831729Y-40626477D01*
X26707152Y-40787081D01*
X26617413Y-40969455D01*
X26615804Y-40975633D01*
X26615803Y-40975635D01*
X26589603Y-41076220D01*
X26566178Y-41166148D01*
X26555541Y-41369126D01*
X26585935Y-41570097D01*
X26656119Y-41760852D01*
X26659479Y-41766272D01*
X26659480Y-41766273D01*
X26759863Y-41928176D01*
X26759866Y-41928180D01*
X26763226Y-41933599D01*
X26902881Y-42081280D01*
X27069379Y-42197863D01*
X27255919Y-42278586D01*
X27265258Y-42280537D01*
X27450144Y-42319162D01*
X27450149Y-42319163D01*
X27454880Y-42320151D01*
X27459762Y-42320407D01*
X27459871Y-42320413D01*
X27459887Y-42320413D01*
X27461539Y-42320500D01*
X30010800Y-42320500D01*
X30058793Y-42315625D01*
X30155868Y-42305765D01*
X30155870Y-42305765D01*
X30162216Y-42305120D01*
X30356172Y-42244338D01*
X30533944Y-42145797D01*
X30688271Y-42013523D01*
X30812848Y-41852919D01*
X30858151Y-41760852D01*
X30900926Y-41673921D01*
X30948949Y-41621630D01*
X31017619Y-41603604D01*
X31085134Y-41625564D01*
X31130058Y-41680540D01*
X31139981Y-41729551D01*
X31139980Y-43462205D01*
X31119978Y-43530326D01*
X31066322Y-43576819D01*
X30996048Y-43586922D01*
X30931467Y-43557429D01*
X30895730Y-43505712D01*
X30895000Y-43503728D01*
X30863881Y-43419148D01*
X30859700Y-43412405D01*
X30760137Y-43251824D01*
X30760134Y-43251820D01*
X30756774Y-43246401D01*
X30667830Y-43152345D01*
X30621508Y-43103361D01*
X30621507Y-43103360D01*
X30617119Y-43098720D01*
X30470446Y-42996019D01*
X30455851Y-42985799D01*
X30455850Y-42985799D01*
X30450621Y-42982137D01*
X30264081Y-42901414D01*
X30189523Y-42885838D01*
X30069856Y-42860838D01*
X30069851Y-42860837D01*
X30065120Y-42859849D01*
X30060238Y-42859593D01*
X30060129Y-42859587D01*
X30060113Y-42859587D01*
X30058461Y-42859500D01*
X27509200Y-42859500D01*
X27461207Y-42864375D01*
X27364132Y-42874235D01*
X27364130Y-42874235D01*
X27357784Y-42874880D01*
X27163828Y-42935662D01*
X26986056Y-43034203D01*
X26831729Y-43166477D01*
X26707152Y-43327081D01*
X26617413Y-43509455D01*
X26615804Y-43515633D01*
X26615803Y-43515635D01*
X26584694Y-43635066D01*
X26566178Y-43706148D01*
X26564743Y-43733539D01*
X26558319Y-43856120D01*
X26555541Y-43909126D01*
X26585935Y-44110097D01*
X26588141Y-44116092D01*
X26588141Y-44116093D01*
X26588777Y-44117821D01*
X26656119Y-44300852D01*
X26659479Y-44306272D01*
X26659480Y-44306273D01*
X26759863Y-44468176D01*
X26759866Y-44468180D01*
X26763226Y-44473599D01*
X26767612Y-44478237D01*
X26878720Y-44595730D01*
X26902881Y-44621280D01*
X27069379Y-44737863D01*
X27255919Y-44818586D01*
X27386018Y-44845765D01*
X27416031Y-44852035D01*
X27478622Y-44885544D01*
X27513160Y-44947574D01*
X27508680Y-45018429D01*
X27466604Y-45075614D01*
X27401246Y-45100893D01*
X27337480Y-45106472D01*
X27326688Y-45108375D01*
X27116239Y-45164764D01*
X27105947Y-45168510D01*
X26908489Y-45260586D01*
X26898993Y-45266069D01*
X26720533Y-45391028D01*
X26712125Y-45398084D01*
X26558084Y-45552125D01*
X26551028Y-45560533D01*
X26426069Y-45738993D01*
X26420586Y-45748489D01*
X26328510Y-45945947D01*
X26324764Y-45956239D01*
X26278606Y-46128503D01*
X26278942Y-46142599D01*
X26286884Y-46146000D01*
X28888000Y-46146000D01*
X28956121Y-46166002D01*
X29002614Y-46219658D01*
X29014000Y-46272000D01*
X29014000Y-46528000D01*
X28993998Y-46596121D01*
X28940342Y-46642614D01*
X28888000Y-46654000D01*
X26292033Y-46654000D01*
X26278502Y-46657973D01*
X26277273Y-46666522D01*
X21800000Y-46666522D01*
X21800000Y-33966522D01*
X26277273Y-33966522D01*
X26324764Y-34143761D01*
X26328510Y-34154053D01*
X26420586Y-34351511D01*
X26426069Y-34361007D01*
X26551028Y-34539467D01*
X26558084Y-34547875D01*
X26712125Y-34701916D01*
X26720533Y-34708972D01*
X26898993Y-34833931D01*
X26908489Y-34839414D01*
X27105947Y-34931490D01*
X27116239Y-34935236D01*
X27326688Y-34991625D01*
X27337480Y-34993528D01*
X27402857Y-34999248D01*
X27468975Y-35025112D01*
X27510614Y-35082615D01*
X27514555Y-35153502D01*
X27479546Y-35215267D01*
X27416701Y-35248299D01*
X27404610Y-35250124D01*
X27389442Y-35251664D01*
X27364132Y-35254235D01*
X27364130Y-35254235D01*
X27357784Y-35254880D01*
X27163828Y-35315662D01*
X26986056Y-35414203D01*
X26831729Y-35546477D01*
X26707152Y-35707081D01*
X26617413Y-35889455D01*
X26615804Y-35895633D01*
X26615803Y-35895635D01*
X26573685Y-36057330D01*
X26566178Y-36086148D01*
X26565844Y-36092527D01*
X26556311Y-36274435D01*
X26555541Y-36289126D01*
X26585935Y-36490097D01*
X26656119Y-36680852D01*
X26659479Y-36686272D01*
X26659480Y-36686273D01*
X26759863Y-36848176D01*
X26759866Y-36848180D01*
X26763226Y-36853599D01*
X26902881Y-37001280D01*
X27069379Y-37117863D01*
X27255919Y-37198586D01*
X27301947Y-37208202D01*
X27450144Y-37239162D01*
X27450149Y-37239163D01*
X27454880Y-37240151D01*
X27459762Y-37240407D01*
X27459871Y-37240413D01*
X27459887Y-37240413D01*
X27461539Y-37240500D01*
X30010800Y-37240500D01*
X30058793Y-37235625D01*
X30155868Y-37225765D01*
X30155870Y-37225765D01*
X30162216Y-37225120D01*
X30356172Y-37164338D01*
X30533944Y-37065797D01*
X30688271Y-36933523D01*
X30812848Y-36772919D01*
X30902587Y-36590545D01*
X30907178Y-36572921D01*
X30952212Y-36400034D01*
X30952212Y-36400031D01*
X30953822Y-36393852D01*
X30960006Y-36275842D01*
X30964125Y-36197256D01*
X30964125Y-36197252D01*
X30964459Y-36190874D01*
X30934065Y-35989903D01*
X30863881Y-35799148D01*
X30834188Y-35751258D01*
X30760137Y-35631824D01*
X30760134Y-35631820D01*
X30756774Y-35626401D01*
X30617119Y-35478720D01*
X30450621Y-35362137D01*
X30264081Y-35281414D01*
X30103969Y-35247965D01*
X30041378Y-35214456D01*
X30006840Y-35152426D01*
X30011320Y-35081571D01*
X30053396Y-35024386D01*
X30118754Y-34999107D01*
X30182520Y-34993528D01*
X30193312Y-34991625D01*
X30403761Y-34935236D01*
X30414053Y-34931490D01*
X30611511Y-34839414D01*
X30621007Y-34833931D01*
X30799467Y-34708972D01*
X30807875Y-34701916D01*
X30961916Y-34547875D01*
X30968972Y-34539467D01*
X31093931Y-34361007D01*
X31099414Y-34351511D01*
X31191490Y-34154053D01*
X31195236Y-34143761D01*
X31241394Y-33971497D01*
X31241058Y-33957401D01*
X31233116Y-33954000D01*
X26292033Y-33954000D01*
X26278502Y-33957973D01*
X26277273Y-33966522D01*
X21800000Y-33966522D01*
X21800000Y-33428503D01*
X26278606Y-33428503D01*
X26278942Y-33442599D01*
X26286884Y-33446000D01*
X31227967Y-33446000D01*
X31241498Y-33442027D01*
X31242727Y-33433478D01*
X31195236Y-33256239D01*
X31191490Y-33245947D01*
X31099414Y-33048489D01*
X31093931Y-33038993D01*
X30968972Y-32860533D01*
X30961916Y-32852125D01*
X30807875Y-32698084D01*
X30799467Y-32691028D01*
X30621007Y-32566069D01*
X30611511Y-32560586D01*
X30414053Y-32468510D01*
X30403761Y-32464764D01*
X30193312Y-32408375D01*
X30182520Y-32406472D01*
X30117143Y-32400752D01*
X30051025Y-32374888D01*
X30009386Y-32317385D01*
X30005445Y-32246498D01*
X30040454Y-32184733D01*
X30103299Y-32151701D01*
X30115390Y-32149876D01*
X30130558Y-32148336D01*
X30155868Y-32145765D01*
X30155870Y-32145765D01*
X30162216Y-32145120D01*
X30356172Y-32084338D01*
X30533944Y-31985797D01*
X30688271Y-31853523D01*
X30695051Y-31844783D01*
X30768684Y-31749855D01*
X30812848Y-31692919D01*
X30902587Y-31510545D01*
X30906924Y-31493895D01*
X30952212Y-31320034D01*
X30952212Y-31320031D01*
X30953822Y-31313852D01*
X30964459Y-31110874D01*
X30934065Y-30909903D01*
X30863881Y-30719148D01*
X30831839Y-30667469D01*
X30760137Y-30551824D01*
X30760134Y-30551820D01*
X30756774Y-30546401D01*
X30617119Y-30398720D01*
X30450621Y-30282137D01*
X30264081Y-30201414D01*
X30218053Y-30191798D01*
X30069856Y-30160838D01*
X30069851Y-30160837D01*
X30065120Y-30159849D01*
X30060238Y-30159593D01*
X30060129Y-30159587D01*
X30060113Y-30159587D01*
X30058461Y-30159500D01*
X27509200Y-30159500D01*
X27478070Y-30162662D01*
X27364132Y-30174235D01*
X27364130Y-30174235D01*
X27357784Y-30174880D01*
X27163828Y-30235662D01*
X26986056Y-30334203D01*
X26831729Y-30466477D01*
X26707152Y-30627081D01*
X26617413Y-30809455D01*
X26615804Y-30815633D01*
X26615803Y-30815635D01*
X26589603Y-30916220D01*
X26566178Y-31006148D01*
X26555541Y-31209126D01*
X26585935Y-31410097D01*
X26656119Y-31600852D01*
X26659479Y-31606272D01*
X26659480Y-31606273D01*
X26759863Y-31768176D01*
X26759866Y-31768180D01*
X26763226Y-31773599D01*
X26767612Y-31778237D01*
X26894744Y-31912675D01*
X26902881Y-31921280D01*
X26989086Y-31981641D01*
X27056032Y-32028517D01*
X27069379Y-32037863D01*
X27255919Y-32118586D01*
X27386018Y-32145765D01*
X27416031Y-32152035D01*
X27478622Y-32185544D01*
X27513160Y-32247574D01*
X27508680Y-32318429D01*
X27466604Y-32375614D01*
X27401246Y-32400893D01*
X27337480Y-32406472D01*
X27326688Y-32408375D01*
X27116239Y-32464764D01*
X27105947Y-32468510D01*
X26908489Y-32560586D01*
X26898993Y-32566069D01*
X26720533Y-32691028D01*
X26712125Y-32698084D01*
X26558084Y-32852125D01*
X26551028Y-32860533D01*
X26426069Y-33038993D01*
X26420586Y-33048489D01*
X26328510Y-33245947D01*
X26324764Y-33256239D01*
X26278606Y-33428503D01*
X21800000Y-33428503D01*
X21800000Y-28669126D01*
X26555541Y-28669126D01*
X26585935Y-28870097D01*
X26656119Y-29060852D01*
X26659479Y-29066272D01*
X26659480Y-29066273D01*
X26759863Y-29228176D01*
X26759866Y-29228180D01*
X26763226Y-29233599D01*
X26767612Y-29238237D01*
X26881590Y-29358765D01*
X26902881Y-29381280D01*
X27069379Y-29497863D01*
X27255919Y-29578586D01*
X27301947Y-29588202D01*
X27450144Y-29619162D01*
X27450149Y-29619163D01*
X27454880Y-29620151D01*
X27459762Y-29620407D01*
X27459871Y-29620413D01*
X27459887Y-29620413D01*
X27461539Y-29620500D01*
X30010800Y-29620500D01*
X30058793Y-29615625D01*
X30155868Y-29605765D01*
X30155870Y-29605765D01*
X30162216Y-29605120D01*
X30356172Y-29544338D01*
X30533944Y-29445797D01*
X30688271Y-29313523D01*
X30812848Y-29152919D01*
X30902587Y-28970545D01*
X30928752Y-28870097D01*
X30952212Y-28780034D01*
X30952212Y-28780031D01*
X30953822Y-28773852D01*
X30959310Y-28669126D01*
X44335541Y-28669126D01*
X44365935Y-28870097D01*
X44436119Y-29060852D01*
X44439479Y-29066272D01*
X44439480Y-29066273D01*
X44539863Y-29228176D01*
X44539866Y-29228180D01*
X44543226Y-29233599D01*
X44547612Y-29238237D01*
X44661590Y-29358765D01*
X44682881Y-29381280D01*
X44849379Y-29497863D01*
X45035919Y-29578586D01*
X45081947Y-29588202D01*
X45230144Y-29619162D01*
X45230149Y-29619163D01*
X45234880Y-29620151D01*
X45239762Y-29620407D01*
X45239871Y-29620413D01*
X45239887Y-29620413D01*
X45241539Y-29620500D01*
X47790800Y-29620500D01*
X47838793Y-29615625D01*
X47935868Y-29605765D01*
X47935870Y-29605765D01*
X47942216Y-29605120D01*
X48136172Y-29544338D01*
X48313944Y-29445797D01*
X48468271Y-29313523D01*
X48592848Y-29152919D01*
X48682587Y-28970545D01*
X48708752Y-28870097D01*
X48732212Y-28780034D01*
X48732212Y-28780031D01*
X48733822Y-28773852D01*
X48744459Y-28570874D01*
X48714065Y-28369903D01*
X48643881Y-28179148D01*
X48590345Y-28092802D01*
X48540137Y-28011824D01*
X48540134Y-28011820D01*
X48536774Y-28006401D01*
X48397119Y-27858720D01*
X48230621Y-27742137D01*
X48044081Y-27661414D01*
X47998053Y-27651798D01*
X47849856Y-27620838D01*
X47849851Y-27620837D01*
X47845120Y-27619849D01*
X47840238Y-27619593D01*
X47840129Y-27619587D01*
X47840113Y-27619587D01*
X47838461Y-27619500D01*
X45289200Y-27619500D01*
X45241207Y-27624375D01*
X45144132Y-27634235D01*
X45144130Y-27634235D01*
X45137784Y-27634880D01*
X44943828Y-27695662D01*
X44766056Y-27794203D01*
X44611729Y-27926477D01*
X44487152Y-28087081D01*
X44397413Y-28269455D01*
X44395804Y-28275633D01*
X44395803Y-28275635D01*
X44369603Y-28376220D01*
X44346178Y-28466148D01*
X44335541Y-28669126D01*
X30959310Y-28669126D01*
X30964459Y-28570874D01*
X30934065Y-28369903D01*
X30863881Y-28179148D01*
X30810345Y-28092802D01*
X30760137Y-28011824D01*
X30760134Y-28011820D01*
X30756774Y-28006401D01*
X30617119Y-27858720D01*
X30450621Y-27742137D01*
X30264081Y-27661414D01*
X30218053Y-27651798D01*
X30069856Y-27620838D01*
X30069851Y-27620837D01*
X30065120Y-27619849D01*
X30060238Y-27619593D01*
X30060129Y-27619587D01*
X30060113Y-27619587D01*
X30058461Y-27619500D01*
X27509200Y-27619500D01*
X27461207Y-27624375D01*
X27364132Y-27634235D01*
X27364130Y-27634235D01*
X27357784Y-27634880D01*
X27163828Y-27695662D01*
X26986056Y-27794203D01*
X26831729Y-27926477D01*
X26707152Y-28087081D01*
X26617413Y-28269455D01*
X26615804Y-28275633D01*
X26615803Y-28275635D01*
X26589603Y-28376220D01*
X26566178Y-28466148D01*
X26555541Y-28669126D01*
X21800000Y-28669126D01*
X21800000Y-23540000D01*
X27164551Y-23540000D01*
X27184317Y-23791148D01*
X27243127Y-24036111D01*
X27339534Y-24268859D01*
X27471164Y-24483659D01*
X27474376Y-24487419D01*
X27474379Y-24487424D01*
X27619256Y-24657052D01*
X27634776Y-24675224D01*
X27638538Y-24678437D01*
X27822576Y-24835621D01*
X27822581Y-24835624D01*
X27826341Y-24838836D01*
X28041141Y-24970466D01*
X28045711Y-24972359D01*
X28045715Y-24972361D01*
X28269316Y-25064979D01*
X28273889Y-25066873D01*
X28358289Y-25087135D01*
X28514039Y-25124528D01*
X28514045Y-25124529D01*
X28518852Y-25125683D01*
X28607149Y-25132632D01*
X28704661Y-25140307D01*
X28704670Y-25140307D01*
X28707118Y-25140500D01*
X28832882Y-25140500D01*
X28835330Y-25140307D01*
X28835339Y-25140307D01*
X28932851Y-25132632D01*
X29021148Y-25125683D01*
X29025955Y-25124529D01*
X29025961Y-25124528D01*
X29181711Y-25087135D01*
X29266111Y-25066873D01*
X29270684Y-25064979D01*
X29494285Y-24972361D01*
X29494289Y-24972359D01*
X29498859Y-24970466D01*
X29713659Y-24838836D01*
X29717419Y-24835624D01*
X29717424Y-24835621D01*
X29901462Y-24678437D01*
X29905224Y-24675224D01*
X29920744Y-24657052D01*
X30065621Y-24487424D01*
X30065624Y-24487419D01*
X30068836Y-24483659D01*
X30200466Y-24268859D01*
X30296873Y-24036111D01*
X30355683Y-23791148D01*
X30375449Y-23540000D01*
X44924551Y-23540000D01*
X44944317Y-23791148D01*
X45003127Y-24036111D01*
X45099534Y-24268859D01*
X45231164Y-24483659D01*
X45234376Y-24487419D01*
X45234379Y-24487424D01*
X45379256Y-24657052D01*
X45394776Y-24675224D01*
X45398538Y-24678437D01*
X45582576Y-24835621D01*
X45582581Y-24835624D01*
X45586341Y-24838836D01*
X45801141Y-24970466D01*
X45805711Y-24972359D01*
X45805715Y-24972361D01*
X46029316Y-25064979D01*
X46033889Y-25066873D01*
X46118289Y-25087135D01*
X46274039Y-25124528D01*
X46274045Y-25124529D01*
X46278852Y-25125683D01*
X46367149Y-25132632D01*
X46464661Y-25140307D01*
X46464670Y-25140307D01*
X46467118Y-25140500D01*
X46592882Y-25140500D01*
X46595330Y-25140307D01*
X46595339Y-25140307D01*
X46692851Y-25132632D01*
X46781148Y-25125683D01*
X46785955Y-25124529D01*
X46785961Y-25124528D01*
X46941711Y-25087135D01*
X47026111Y-25066873D01*
X47030684Y-25064979D01*
X47254285Y-24972361D01*
X47254289Y-24972359D01*
X47258859Y-24970466D01*
X47473659Y-24838836D01*
X47477419Y-24835624D01*
X47477424Y-24835621D01*
X47661462Y-24678437D01*
X47665224Y-24675224D01*
X47680744Y-24657052D01*
X47825621Y-24487424D01*
X47825624Y-24487419D01*
X47828836Y-24483659D01*
X47960466Y-24268859D01*
X48056873Y-24036111D01*
X48115683Y-23791148D01*
X48135449Y-23540000D01*
X48115683Y-23288852D01*
X48056873Y-23043889D01*
X47960466Y-22811141D01*
X47828836Y-22596341D01*
X47825624Y-22592581D01*
X47825621Y-22592576D01*
X47668437Y-22408538D01*
X47665224Y-22404776D01*
X47647052Y-22389256D01*
X47477424Y-22244379D01*
X47477419Y-22244376D01*
X47473659Y-22241164D01*
X47258859Y-22109534D01*
X47254289Y-22107641D01*
X47254285Y-22107639D01*
X47030684Y-22015021D01*
X47030682Y-22015020D01*
X47026111Y-22013127D01*
X46941711Y-21992865D01*
X46785961Y-21955472D01*
X46785955Y-21955471D01*
X46781148Y-21954317D01*
X46692851Y-21947368D01*
X46595339Y-21939693D01*
X46595330Y-21939693D01*
X46592882Y-21939500D01*
X46467118Y-21939500D01*
X46464670Y-21939693D01*
X46464661Y-21939693D01*
X46367149Y-21947368D01*
X46278852Y-21954317D01*
X46274045Y-21955471D01*
X46274039Y-21955472D01*
X46118289Y-21992865D01*
X46033889Y-22013127D01*
X46029318Y-22015020D01*
X46029316Y-22015021D01*
X45805715Y-22107639D01*
X45805711Y-22107641D01*
X45801141Y-22109534D01*
X45586341Y-22241164D01*
X45582581Y-22244376D01*
X45582576Y-22244379D01*
X45412948Y-22389256D01*
X45394776Y-22404776D01*
X45391563Y-22408538D01*
X45234379Y-22592576D01*
X45234376Y-22592581D01*
X45231164Y-22596341D01*
X45099534Y-22811141D01*
X45003127Y-23043889D01*
X44944317Y-23288852D01*
X44924551Y-23540000D01*
X30375449Y-23540000D01*
X30355683Y-23288852D01*
X30296873Y-23043889D01*
X30200466Y-22811141D01*
X30068836Y-22596341D01*
X30065624Y-22592581D01*
X30065621Y-22592576D01*
X29908437Y-22408538D01*
X29905224Y-22404776D01*
X29887052Y-22389256D01*
X29717424Y-22244379D01*
X29717419Y-22244376D01*
X29713659Y-22241164D01*
X29498859Y-22109534D01*
X29494289Y-22107641D01*
X29494285Y-22107639D01*
X29270684Y-22015021D01*
X29270682Y-22015020D01*
X29266111Y-22013127D01*
X29181711Y-21992865D01*
X29025961Y-21955472D01*
X29025955Y-21955471D01*
X29021148Y-21954317D01*
X28932851Y-21947368D01*
X28835339Y-21939693D01*
X28835330Y-21939693D01*
X28832882Y-21939500D01*
X28707118Y-21939500D01*
X28704670Y-21939693D01*
X28704661Y-21939693D01*
X28607149Y-21947368D01*
X28518852Y-21954317D01*
X28514045Y-21955471D01*
X28514039Y-21955472D01*
X28358289Y-21992865D01*
X28273889Y-22013127D01*
X28269318Y-22015020D01*
X28269316Y-22015021D01*
X28045715Y-22107639D01*
X28045711Y-22107641D01*
X28041141Y-22109534D01*
X27826341Y-22241164D01*
X27822581Y-22244376D01*
X27822576Y-22244379D01*
X27652948Y-22389256D01*
X27634776Y-22404776D01*
X27631563Y-22408538D01*
X27474379Y-22592576D01*
X27474376Y-22592581D01*
X27471164Y-22596341D01*
X27339534Y-22811141D01*
X27243127Y-23043889D01*
X27184317Y-23288852D01*
X27164551Y-23540000D01*
X21800000Y-23540000D01*
X21800000Y-21626000D01*
X21820002Y-21557879D01*
X21873658Y-21511386D01*
X21926000Y-21500000D01*
X54173798Y-21500000D01*
X54241919Y-21520002D01*
G37*
%TD.AperFunction*%
%TA.AperFunction,Conductor*%
G36*
X36141621Y-43620502D02*
G01*
X36188114Y-43674158D01*
X36199500Y-43726500D01*
X36199500Y-47355970D01*
X36199766Y-47358861D01*
X36207042Y-47438053D01*
X36193357Y-47507718D01*
X36170666Y-47538677D01*
X35824926Y-47884417D01*
X35818661Y-47890270D01*
X35775604Y-47927831D01*
X35739317Y-47979463D01*
X35735384Y-47984758D01*
X35701105Y-48028476D01*
X35701103Y-48028480D01*
X35696416Y-48034457D01*
X35693290Y-48041380D01*
X35691505Y-48044328D01*
X35684113Y-48057288D01*
X35682480Y-48060334D01*
X35678113Y-48066547D01*
X35668218Y-48091926D01*
X35655180Y-48125366D01*
X35652625Y-48131445D01*
X35626645Y-48188984D01*
X35625260Y-48196455D01*
X35624236Y-48199723D01*
X35620123Y-48214164D01*
X35619283Y-48217437D01*
X35616524Y-48224513D01*
X35614179Y-48242325D01*
X35608284Y-48287106D01*
X35607252Y-48293623D01*
X35601373Y-48325341D01*
X35595748Y-48355692D01*
X35596185Y-48363272D01*
X35596185Y-48363273D01*
X35599291Y-48417144D01*
X35599500Y-48424396D01*
X35599500Y-49230016D01*
X35614724Y-49355820D01*
X35617408Y-49362924D01*
X35619221Y-49370305D01*
X35618261Y-49370541D01*
X35624501Y-49404706D01*
X35624501Y-49489832D01*
X35624780Y-49492782D01*
X35624780Y-49492787D01*
X35626642Y-49512487D01*
X35627399Y-49520500D01*
X35629944Y-49527748D01*
X35629945Y-49527751D01*
X35639023Y-49553599D01*
X35671039Y-49644768D01*
X35676634Y-49652343D01*
X35676635Y-49652345D01*
X35711204Y-49699148D01*
X35749289Y-49750711D01*
X35756860Y-49756303D01*
X35847655Y-49823365D01*
X35847657Y-49823366D01*
X35855232Y-49828961D01*
X35864119Y-49832082D01*
X35864121Y-49832083D01*
X35972252Y-49870056D01*
X35972254Y-49870057D01*
X35979500Y-49872601D01*
X35987144Y-49873324D01*
X35987146Y-49873324D01*
X36000802Y-49874615D01*
X36004360Y-49874951D01*
X36070296Y-49901275D01*
X36071999Y-49902861D01*
X36073532Y-49905348D01*
X36095320Y-49921916D01*
X36108139Y-49933110D01*
X36183470Y-50008441D01*
X36185226Y-50010475D01*
X36187564Y-50015258D01*
X36196093Y-50023170D01*
X36196094Y-50023171D01*
X36223466Y-50048562D01*
X36226871Y-50051842D01*
X36240266Y-50065237D01*
X36244236Y-50067961D01*
X36246884Y-50070286D01*
X36269635Y-50091390D01*
X36276432Y-50094102D01*
X36321474Y-50145306D01*
X36332101Y-50215503D01*
X36303089Y-50280302D01*
X36243651Y-50319129D01*
X36207255Y-50324501D01*
X36010168Y-50324501D01*
X36007218Y-50324780D01*
X36007213Y-50324780D01*
X35987150Y-50326676D01*
X35987149Y-50326676D01*
X35979500Y-50327399D01*
X35972252Y-50329944D01*
X35972249Y-50329945D01*
X35864121Y-50367917D01*
X35864119Y-50367918D01*
X35855232Y-50371039D01*
X35847657Y-50376634D01*
X35847655Y-50376635D01*
X35784423Y-50423339D01*
X35749289Y-50449289D01*
X35743697Y-50456860D01*
X35703813Y-50510859D01*
X35647252Y-50553770D01*
X35602461Y-50562000D01*
X35251500Y-50562000D01*
X35183379Y-50541998D01*
X35136886Y-50488342D01*
X35125500Y-50436000D01*
X35125500Y-49900252D01*
X35119494Y-49870056D01*
X35116288Y-49853939D01*
X35116288Y-49853938D01*
X35113867Y-49841769D01*
X35069552Y-49775448D01*
X35003231Y-49731133D01*
X34991062Y-49728712D01*
X34991061Y-49728712D01*
X34950816Y-49720707D01*
X34944748Y-49719500D01*
X34696661Y-49719500D01*
X34628540Y-49699498D01*
X34607566Y-49682595D01*
X34416658Y-49491687D01*
X34382632Y-49429375D01*
X34387697Y-49358560D01*
X34405456Y-49326326D01*
X34406836Y-49324511D01*
X34421907Y-49304692D01*
X34433107Y-49291864D01*
X34707568Y-49017404D01*
X34769880Y-48983379D01*
X34796663Y-48980500D01*
X34944748Y-48980500D01*
X34968437Y-48975788D01*
X34991061Y-48971288D01*
X34991062Y-48971288D01*
X35003231Y-48968867D01*
X35069552Y-48924552D01*
X35113867Y-48858231D01*
X35119245Y-48831197D01*
X35124293Y-48805816D01*
X35125500Y-48799748D01*
X35125500Y-47200252D01*
X35113867Y-47141769D01*
X35110761Y-47137121D01*
X35103677Y-47071228D01*
X35135456Y-47007741D01*
X35161374Y-46986453D01*
X35172495Y-46979571D01*
X35183890Y-46970540D01*
X35296363Y-46857871D01*
X35305375Y-46846460D01*
X35388912Y-46710937D01*
X35395056Y-46697759D01*
X35445315Y-46546234D01*
X35448181Y-46532868D01*
X35457672Y-46440230D01*
X35458000Y-46433815D01*
X35458000Y-46422115D01*
X35453525Y-46406876D01*
X35452135Y-46405671D01*
X35444452Y-46404000D01*
X34284500Y-46404000D01*
X34216379Y-46383998D01*
X34169886Y-46330342D01*
X34158500Y-46278000D01*
X34158500Y-46022000D01*
X34178502Y-45953879D01*
X34232158Y-45907386D01*
X34284500Y-45896000D01*
X35439885Y-45896000D01*
X35455124Y-45891525D01*
X35456329Y-45890135D01*
X35458000Y-45882452D01*
X35458000Y-45866234D01*
X35457663Y-45859718D01*
X35447925Y-45765868D01*
X35445032Y-45752472D01*
X35394512Y-45601047D01*
X35388347Y-45587885D01*
X35304574Y-45452508D01*
X35295540Y-45441110D01*
X35182871Y-45328637D01*
X35171460Y-45319625D01*
X35035937Y-45236088D01*
X35022759Y-45229944D01*
X34871234Y-45179685D01*
X34857868Y-45176819D01*
X34765230Y-45167328D01*
X34758815Y-45167000D01*
X34527846Y-45167000D01*
X34459725Y-45146998D01*
X34413232Y-45093342D01*
X34403128Y-45023068D01*
X34432622Y-44958488D01*
X34438751Y-44951905D01*
X35753251Y-43637405D01*
X35815563Y-43603379D01*
X35842346Y-43600500D01*
X36073500Y-43600500D01*
X36141621Y-43620502D01*
G37*
%TD.AperFunction*%
%TA.AperFunction,Conductor*%
G36*
X37781412Y-48472937D02*
G01*
X37821321Y-48499845D01*
X37912619Y-48591143D01*
X37916272Y-48594952D01*
X37958299Y-48640656D01*
X37995302Y-48663599D01*
X38005052Y-48670300D01*
X38039717Y-48696612D01*
X38053695Y-48702146D01*
X38073699Y-48712207D01*
X38086486Y-48720135D01*
X38094737Y-48722532D01*
X38094739Y-48722533D01*
X38128272Y-48732275D01*
X38139502Y-48736120D01*
X38179953Y-48752136D01*
X38188494Y-48753034D01*
X38188495Y-48753034D01*
X38194908Y-48753708D01*
X38216883Y-48758020D01*
X38231325Y-48762215D01*
X38238808Y-48762764D01*
X38239708Y-48762831D01*
X38239719Y-48762831D01*
X38242015Y-48763000D01*
X38276717Y-48763000D01*
X38289887Y-48763690D01*
X38329954Y-48767901D01*
X38338419Y-48766469D01*
X38338428Y-48766469D01*
X38348500Y-48764765D01*
X38369513Y-48763000D01*
X38588500Y-48763000D01*
X38656621Y-48783002D01*
X38703114Y-48836658D01*
X38714500Y-48889000D01*
X38714500Y-49012248D01*
X38715707Y-49018316D01*
X38721516Y-49047518D01*
X38726133Y-49070731D01*
X38770448Y-49137052D01*
X38836769Y-49181367D01*
X38848938Y-49183788D01*
X38848939Y-49183788D01*
X38889184Y-49191793D01*
X38895252Y-49193000D01*
X39317354Y-49193000D01*
X39385475Y-49213002D01*
X39418180Y-49243435D01*
X39483749Y-49330924D01*
X39508597Y-49397431D01*
X39493544Y-49466813D01*
X39443370Y-49517043D01*
X39382923Y-49532489D01*
X37101500Y-49532489D01*
X37033379Y-49512487D01*
X36986886Y-49458831D01*
X36975500Y-49406489D01*
X36975500Y-49406301D01*
X36979458Y-49374968D01*
X36980717Y-49370064D01*
X36983476Y-49362987D01*
X37000500Y-49233674D01*
X37000500Y-48742346D01*
X37020502Y-48674225D01*
X37037405Y-48653251D01*
X37157659Y-48532997D01*
X37219971Y-48498971D01*
X37262429Y-48498590D01*
X37262564Y-48497307D01*
X37268310Y-48497911D01*
X37273976Y-48499038D01*
X37279751Y-48499114D01*
X37279755Y-48499114D01*
X37390496Y-48500563D01*
X37494594Y-48501926D01*
X37510762Y-48499148D01*
X37590922Y-48485374D01*
X37710890Y-48464760D01*
X37781412Y-48472937D01*
G37*
%TD.AperFunction*%
%TA.AperFunction,Conductor*%
G36*
X43141621Y-44720502D02*
G01*
X43188114Y-44774158D01*
X43199500Y-44826500D01*
X43199500Y-45623339D01*
X43179498Y-45691460D01*
X43162595Y-45712434D01*
X42293944Y-46581085D01*
X42231632Y-46615111D01*
X42198000Y-46615110D01*
X42198000Y-46616500D01*
X41024500Y-46616500D01*
X40956379Y-46596498D01*
X40909886Y-46542842D01*
X40898500Y-46490500D01*
X40898500Y-46234500D01*
X40918502Y-46166379D01*
X40972158Y-46119886D01*
X41024500Y-46108500D01*
X42179885Y-46108500D01*
X42195124Y-46104025D01*
X42196329Y-46102635D01*
X42198000Y-46094952D01*
X42198000Y-46078734D01*
X42197663Y-46072218D01*
X42187925Y-45978368D01*
X42185032Y-45964972D01*
X42134512Y-45813547D01*
X42128347Y-45800385D01*
X42044574Y-45665008D01*
X42035540Y-45653610D01*
X41922871Y-45541137D01*
X41911457Y-45532123D01*
X41844996Y-45491156D01*
X41797502Y-45438384D01*
X41786078Y-45368313D01*
X41809759Y-45309037D01*
X41860865Y-45239845D01*
X41860866Y-45239843D01*
X41866461Y-45232268D01*
X41871761Y-45217178D01*
X41907556Y-45115248D01*
X41907557Y-45115246D01*
X41910101Y-45108000D01*
X41913000Y-45077333D01*
X41912999Y-44826500D01*
X41933001Y-44758380D01*
X41986656Y-44711887D01*
X42038999Y-44700500D01*
X43073500Y-44700500D01*
X43141621Y-44720502D01*
G37*
%TD.AperFunction*%
%TA.AperFunction,Conductor*%
G36*
X34767532Y-36592316D02*
G01*
X34824368Y-36634863D01*
X34849179Y-36701383D01*
X34849500Y-36710372D01*
X34849500Y-36778604D01*
X34831053Y-36842406D01*
X34831469Y-36842618D01*
X34830367Y-36844781D01*
X34830060Y-36845841D01*
X34825764Y-36852650D01*
X34823626Y-36858010D01*
X34823623Y-36858015D01*
X34768318Y-36996639D01*
X34744006Y-37057579D01*
X34742880Y-37063239D01*
X34742879Y-37063243D01*
X34707887Y-37239162D01*
X34700962Y-37273976D01*
X34698074Y-37494594D01*
X34735438Y-37712043D01*
X34811804Y-37919043D01*
X34814756Y-37924004D01*
X34814756Y-37924005D01*
X34831785Y-37952628D01*
X34849500Y-38017051D01*
X34849500Y-38269748D01*
X34861133Y-38328231D01*
X34905448Y-38394552D01*
X34915761Y-38401443D01*
X34950307Y-38424526D01*
X34971769Y-38438867D01*
X34983938Y-38441288D01*
X34983939Y-38441288D01*
X35024184Y-38449293D01*
X35030252Y-38450500D01*
X35287053Y-38450500D01*
X35345720Y-38464992D01*
X35438620Y-38513869D01*
X35649333Y-38579297D01*
X35655070Y-38579976D01*
X35824789Y-38600064D01*
X35824795Y-38600064D01*
X35828476Y-38600500D01*
X36073500Y-38600500D01*
X36141621Y-38620502D01*
X36188114Y-38674158D01*
X36199500Y-38726500D01*
X36199500Y-42073500D01*
X36179498Y-42141621D01*
X36125842Y-42188114D01*
X36073500Y-42199500D01*
X35528637Y-42199500D01*
X35520066Y-42199208D01*
X35463070Y-42195322D01*
X35455594Y-42196627D01*
X35455590Y-42196627D01*
X35400868Y-42206178D01*
X35394342Y-42207141D01*
X35353904Y-42212035D01*
X35331680Y-42214724D01*
X35324573Y-42217409D01*
X35321280Y-42218218D01*
X35306809Y-42222177D01*
X35303533Y-42223166D01*
X35296046Y-42224473D01*
X35289088Y-42227528D01*
X35289086Y-42227528D01*
X35238242Y-42249846D01*
X35232137Y-42252338D01*
X35221126Y-42256499D01*
X35173077Y-42274655D01*
X35166824Y-42278953D01*
X35163793Y-42280537D01*
X35150716Y-42287817D01*
X35147757Y-42289567D01*
X35140797Y-42292622D01*
X35134770Y-42297247D01*
X35134766Y-42297249D01*
X35090700Y-42331062D01*
X35085381Y-42334927D01*
X35033349Y-42370688D01*
X35028292Y-42376364D01*
X34992400Y-42416648D01*
X34987419Y-42421924D01*
X33634248Y-43775095D01*
X33571936Y-43809121D01*
X33545153Y-43812000D01*
X32708719Y-43812000D01*
X32708059Y-43811998D01*
X32618895Y-43811531D01*
X32582790Y-43820199D01*
X32568529Y-43822764D01*
X32561717Y-43823589D01*
X32546584Y-43824501D01*
X32410168Y-43824501D01*
X32407218Y-43824780D01*
X32407213Y-43824780D01*
X32387150Y-43826676D01*
X32387149Y-43826676D01*
X32379500Y-43827399D01*
X32372252Y-43829944D01*
X32372249Y-43829945D01*
X32337671Y-43842089D01*
X32308248Y-43852421D01*
X32237349Y-43856120D01*
X32175704Y-43820901D01*
X32142886Y-43757945D01*
X32140500Y-43733539D01*
X32140500Y-43724161D01*
X32160502Y-43656040D01*
X32177405Y-43635066D01*
X32400066Y-43412405D01*
X32462378Y-43378379D01*
X32489161Y-43375500D01*
X32960102Y-43375499D01*
X32989832Y-43375499D01*
X32992782Y-43375220D01*
X32992787Y-43375220D01*
X33012850Y-43373324D01*
X33012851Y-43373324D01*
X33020500Y-43372601D01*
X33027748Y-43370056D01*
X33027751Y-43370055D01*
X33135879Y-43332083D01*
X33135881Y-43332082D01*
X33144768Y-43328961D01*
X33152343Y-43323366D01*
X33152345Y-43323365D01*
X33243140Y-43256303D01*
X33250711Y-43250711D01*
X33312927Y-43166477D01*
X33323365Y-43152345D01*
X33323366Y-43152343D01*
X33328961Y-43144768D01*
X33343503Y-43103361D01*
X33370056Y-43027748D01*
X33370057Y-43027746D01*
X33372601Y-43020500D01*
X33375500Y-42989833D01*
X33375499Y-42385168D01*
X33372601Y-42354500D01*
X33365073Y-42333063D01*
X33332083Y-42239121D01*
X33332082Y-42239119D01*
X33328961Y-42230232D01*
X33322352Y-42221283D01*
X33256303Y-42131860D01*
X33250711Y-42124289D01*
X33192481Y-42081280D01*
X33152345Y-42051635D01*
X33152343Y-42051634D01*
X33144768Y-42046039D01*
X33135878Y-42042917D01*
X33134748Y-42042520D01*
X33133686Y-42041756D01*
X33127560Y-42038513D01*
X33128005Y-42037672D01*
X33077104Y-42001076D01*
X33051017Y-41935046D01*
X33050500Y-41923639D01*
X33050500Y-38257372D01*
X33070502Y-38189251D01*
X33087405Y-38168277D01*
X34634405Y-36621277D01*
X34696717Y-36587251D01*
X34767532Y-36592316D01*
G37*
%TD.AperFunction*%
%TD*%
M02*
