%TF.GenerationSoftware,KiCad,Pcbnew,(6.0.2)*%
%TF.CreationDate,2023-01-31T14:35:55+03:00*%
%TF.ProjectId,Shield_Emergent,53686965-6c64-45f4-956d-657267656e74,rev?*%
%TF.SameCoordinates,Original*%
%TF.FileFunction,Legend,Bot*%
%TF.FilePolarity,Positive*%
%FSLAX46Y46*%
G04 Gerber Fmt 4.6, Leading zero omitted, Abs format (unit mm)*
G04 Created by KiCad (PCBNEW (6.0.2)) date 2023-01-31 14:35:55*
%MOMM*%
%LPD*%
G01*
G04 APERTURE LIST*
%ADD10C,0.150000*%
%ADD11C,0.120000*%
G04 APERTURE END LIST*
D10*
X37950000Y-54450000D02*
X38450000Y-54000000D01*
X30350000Y-50250000D02*
X31700000Y-49450000D01*
X48750000Y-47600000D02*
X43800000Y-47600000D01*
X37250000Y-57150000D02*
X37000000Y-57400000D01*
X26550000Y-50250000D02*
X30350000Y-50250000D01*
X48300000Y-50250000D02*
X43700000Y-50250000D01*
X37950000Y-57150000D02*
X37950000Y-54450000D01*
X48500000Y-52800000D02*
X44550000Y-52800000D01*
X37250000Y-53850000D02*
X37250000Y-57150000D01*
X26800000Y-52750000D02*
X30800000Y-52750000D01*
X43800000Y-47600000D02*
X42400000Y-47900000D01*
X43700000Y-50250000D02*
X43650000Y-50250000D01*
%TO.C,R4*%
X32816666Y-41752380D02*
X33150000Y-41276190D01*
X33388095Y-41752380D02*
X33388095Y-40752380D01*
X33007142Y-40752380D01*
X32911904Y-40800000D01*
X32864285Y-40847619D01*
X32816666Y-40942857D01*
X32816666Y-41085714D01*
X32864285Y-41180952D01*
X32911904Y-41228571D01*
X33007142Y-41276190D01*
X33388095Y-41276190D01*
X31959523Y-41085714D02*
X31959523Y-41752380D01*
X32197619Y-40704761D02*
X32435714Y-41419047D01*
X31816666Y-41419047D01*
%TO.C,C4*%
X34466666Y-45207142D02*
X34514285Y-45254761D01*
X34657142Y-45302380D01*
X34752380Y-45302380D01*
X34895238Y-45254761D01*
X34990476Y-45159523D01*
X35038095Y-45064285D01*
X35085714Y-44873809D01*
X35085714Y-44730952D01*
X35038095Y-44540476D01*
X34990476Y-44445238D01*
X34895238Y-44350000D01*
X34752380Y-44302380D01*
X34657142Y-44302380D01*
X34514285Y-44350000D01*
X34466666Y-44397619D01*
X33609523Y-44635714D02*
X33609523Y-45302380D01*
X33847619Y-44254761D02*
X34085714Y-44969047D01*
X33466666Y-44969047D01*
%TO.C,U3*%
X26311904Y-49702380D02*
X26311904Y-50511904D01*
X26264285Y-50607142D01*
X26216666Y-50654761D01*
X26121428Y-50702380D01*
X25930952Y-50702380D01*
X25835714Y-50654761D01*
X25788095Y-50607142D01*
X25740476Y-50511904D01*
X25740476Y-49702380D01*
X25359523Y-49702380D02*
X24740476Y-49702380D01*
X25073809Y-50083333D01*
X24930952Y-50083333D01*
X24835714Y-50130952D01*
X24788095Y-50178571D01*
X24740476Y-50273809D01*
X24740476Y-50511904D01*
X24788095Y-50607142D01*
X24835714Y-50654761D01*
X24930952Y-50702380D01*
X25216666Y-50702380D01*
X25311904Y-50654761D01*
X25359523Y-50607142D01*
%TO.C,C6*%
X34766666Y-68007142D02*
X34814285Y-68054761D01*
X34957142Y-68102380D01*
X35052380Y-68102380D01*
X35195238Y-68054761D01*
X35290476Y-67959523D01*
X35338095Y-67864285D01*
X35385714Y-67673809D01*
X35385714Y-67530952D01*
X35338095Y-67340476D01*
X35290476Y-67245238D01*
X35195238Y-67150000D01*
X35052380Y-67102380D01*
X34957142Y-67102380D01*
X34814285Y-67150000D01*
X34766666Y-67197619D01*
X33909523Y-67102380D02*
X34100000Y-67102380D01*
X34195238Y-67150000D01*
X34242857Y-67197619D01*
X34338095Y-67340476D01*
X34385714Y-67530952D01*
X34385714Y-67911904D01*
X34338095Y-68007142D01*
X34290476Y-68054761D01*
X34195238Y-68102380D01*
X34004761Y-68102380D01*
X33909523Y-68054761D01*
X33861904Y-68007142D01*
X33814285Y-67911904D01*
X33814285Y-67673809D01*
X33861904Y-67578571D01*
X33909523Y-67530952D01*
X34004761Y-67483333D01*
X34195238Y-67483333D01*
X34290476Y-67530952D01*
X34338095Y-67578571D01*
X34385714Y-67673809D01*
%TO.C,C2*%
X38716666Y-58557142D02*
X38764285Y-58604761D01*
X38907142Y-58652380D01*
X39002380Y-58652380D01*
X39145238Y-58604761D01*
X39240476Y-58509523D01*
X39288095Y-58414285D01*
X39335714Y-58223809D01*
X39335714Y-58080952D01*
X39288095Y-57890476D01*
X39240476Y-57795238D01*
X39145238Y-57700000D01*
X39002380Y-57652380D01*
X38907142Y-57652380D01*
X38764285Y-57700000D01*
X38716666Y-57747619D01*
X38335714Y-57747619D02*
X38288095Y-57700000D01*
X38192857Y-57652380D01*
X37954761Y-57652380D01*
X37859523Y-57700000D01*
X37811904Y-57747619D01*
X37764285Y-57842857D01*
X37764285Y-57938095D01*
X37811904Y-58080952D01*
X38383333Y-58652380D01*
X37764285Y-58652380D01*
%TO.C,R2*%
X49766666Y-53202380D02*
X50100000Y-52726190D01*
X50338095Y-53202380D02*
X50338095Y-52202380D01*
X49957142Y-52202380D01*
X49861904Y-52250000D01*
X49814285Y-52297619D01*
X49766666Y-52392857D01*
X49766666Y-52535714D01*
X49814285Y-52630952D01*
X49861904Y-52678571D01*
X49957142Y-52726190D01*
X50338095Y-52726190D01*
X49385714Y-52297619D02*
X49338095Y-52250000D01*
X49242857Y-52202380D01*
X49004761Y-52202380D01*
X48909523Y-52250000D01*
X48861904Y-52297619D01*
X48814285Y-52392857D01*
X48814285Y-52488095D01*
X48861904Y-52630952D01*
X49433333Y-53202380D01*
X48814285Y-53202380D01*
%TO.C,J3*%
X32533333Y-57452380D02*
X32533333Y-58166666D01*
X32580952Y-58309523D01*
X32676190Y-58404761D01*
X32819047Y-58452380D01*
X32914285Y-58452380D01*
X32152380Y-57452380D02*
X31533333Y-57452380D01*
X31866666Y-57833333D01*
X31723809Y-57833333D01*
X31628571Y-57880952D01*
X31580952Y-57928571D01*
X31533333Y-58023809D01*
X31533333Y-58261904D01*
X31580952Y-58357142D01*
X31628571Y-58404761D01*
X31723809Y-58452380D01*
X32009523Y-58452380D01*
X32104761Y-58404761D01*
X32152380Y-58357142D01*
%TO.C,R1*%
X40566666Y-43902380D02*
X40900000Y-43426190D01*
X41138095Y-43902380D02*
X41138095Y-42902380D01*
X40757142Y-42902380D01*
X40661904Y-42950000D01*
X40614285Y-42997619D01*
X40566666Y-43092857D01*
X40566666Y-43235714D01*
X40614285Y-43330952D01*
X40661904Y-43378571D01*
X40757142Y-43426190D01*
X41138095Y-43426190D01*
X39614285Y-43902380D02*
X40185714Y-43902380D01*
X39900000Y-43902380D02*
X39900000Y-42902380D01*
X39995238Y-43045238D01*
X40090476Y-43140476D01*
X40185714Y-43188095D01*
%TO.C,R3*%
X49566666Y-50752380D02*
X49900000Y-50276190D01*
X50138095Y-50752380D02*
X50138095Y-49752380D01*
X49757142Y-49752380D01*
X49661904Y-49800000D01*
X49614285Y-49847619D01*
X49566666Y-49942857D01*
X49566666Y-50085714D01*
X49614285Y-50180952D01*
X49661904Y-50228571D01*
X49757142Y-50276190D01*
X50138095Y-50276190D01*
X49233333Y-49752380D02*
X48614285Y-49752380D01*
X48947619Y-50133333D01*
X48804761Y-50133333D01*
X48709523Y-50180952D01*
X48661904Y-50228571D01*
X48614285Y-50323809D01*
X48614285Y-50561904D01*
X48661904Y-50657142D01*
X48709523Y-50704761D01*
X48804761Y-50752380D01*
X49090476Y-50752380D01*
X49185714Y-50704761D01*
X49233333Y-50657142D01*
%TO.C,C5*%
X25866666Y-53157142D02*
X25914285Y-53204761D01*
X26057142Y-53252380D01*
X26152380Y-53252380D01*
X26295238Y-53204761D01*
X26390476Y-53109523D01*
X26438095Y-53014285D01*
X26485714Y-52823809D01*
X26485714Y-52680952D01*
X26438095Y-52490476D01*
X26390476Y-52395238D01*
X26295238Y-52300000D01*
X26152380Y-52252380D01*
X26057142Y-52252380D01*
X25914285Y-52300000D01*
X25866666Y-52347619D01*
X24961904Y-52252380D02*
X25438095Y-52252380D01*
X25485714Y-52728571D01*
X25438095Y-52680952D01*
X25342857Y-52633333D01*
X25104761Y-52633333D01*
X25009523Y-52680952D01*
X24961904Y-52728571D01*
X24914285Y-52823809D01*
X24914285Y-53061904D01*
X24961904Y-53157142D01*
X25009523Y-53204761D01*
X25104761Y-53252380D01*
X25342857Y-53252380D01*
X25438095Y-53204761D01*
X25485714Y-53157142D01*
%TO.C,U2*%
X50711904Y-46752380D02*
X50711904Y-47561904D01*
X50664285Y-47657142D01*
X50616666Y-47704761D01*
X50521428Y-47752380D01*
X50330952Y-47752380D01*
X50235714Y-47704761D01*
X50188095Y-47657142D01*
X50140476Y-47561904D01*
X50140476Y-46752380D01*
X49711904Y-46847619D02*
X49664285Y-46800000D01*
X49569047Y-46752380D01*
X49330952Y-46752380D01*
X49235714Y-46800000D01*
X49188095Y-46847619D01*
X49140476Y-46942857D01*
X49140476Y-47038095D01*
X49188095Y-47180952D01*
X49759523Y-47752380D01*
X49140476Y-47752380D01*
%TO.C,C1*%
X37916666Y-46657142D02*
X37964285Y-46704761D01*
X38107142Y-46752380D01*
X38202380Y-46752380D01*
X38345238Y-46704761D01*
X38440476Y-46609523D01*
X38488095Y-46514285D01*
X38535714Y-46323809D01*
X38535714Y-46180952D01*
X38488095Y-45990476D01*
X38440476Y-45895238D01*
X38345238Y-45800000D01*
X38202380Y-45752380D01*
X38107142Y-45752380D01*
X37964285Y-45800000D01*
X37916666Y-45847619D01*
X36964285Y-46752380D02*
X37535714Y-46752380D01*
X37250000Y-46752380D02*
X37250000Y-45752380D01*
X37345238Y-45895238D01*
X37440476Y-45990476D01*
X37535714Y-46038095D01*
%TO.C,C3*%
X41216666Y-67407142D02*
X41264285Y-67454761D01*
X41407142Y-67502380D01*
X41502380Y-67502380D01*
X41645238Y-67454761D01*
X41740476Y-67359523D01*
X41788095Y-67264285D01*
X41835714Y-67073809D01*
X41835714Y-66930952D01*
X41788095Y-66740476D01*
X41740476Y-66645238D01*
X41645238Y-66550000D01*
X41502380Y-66502380D01*
X41407142Y-66502380D01*
X41264285Y-66550000D01*
X41216666Y-66597619D01*
X40883333Y-66502380D02*
X40264285Y-66502380D01*
X40597619Y-66883333D01*
X40454761Y-66883333D01*
X40359523Y-66930952D01*
X40311904Y-66978571D01*
X40264285Y-67073809D01*
X40264285Y-67311904D01*
X40311904Y-67407142D01*
X40359523Y-67454761D01*
X40454761Y-67502380D01*
X40740476Y-67502380D01*
X40835714Y-67454761D01*
X40883333Y-67407142D01*
%TO.C,R6*%
X37116666Y-48202380D02*
X37450000Y-47726190D01*
X37688095Y-48202380D02*
X37688095Y-47202380D01*
X37307142Y-47202380D01*
X37211904Y-47250000D01*
X37164285Y-47297619D01*
X37116666Y-47392857D01*
X37116666Y-47535714D01*
X37164285Y-47630952D01*
X37211904Y-47678571D01*
X37307142Y-47726190D01*
X37688095Y-47726190D01*
X36259523Y-47202380D02*
X36450000Y-47202380D01*
X36545238Y-47250000D01*
X36592857Y-47297619D01*
X36688095Y-47440476D01*
X36735714Y-47630952D01*
X36735714Y-48011904D01*
X36688095Y-48107142D01*
X36640476Y-48154761D01*
X36545238Y-48202380D01*
X36354761Y-48202380D01*
X36259523Y-48154761D01*
X36211904Y-48107142D01*
X36164285Y-48011904D01*
X36164285Y-47773809D01*
X36211904Y-47678571D01*
X36259523Y-47630952D01*
X36354761Y-47583333D01*
X36545238Y-47583333D01*
X36640476Y-47630952D01*
X36688095Y-47678571D01*
X36735714Y-47773809D01*
%TO.C,R5*%
X36066666Y-58402380D02*
X36400000Y-57926190D01*
X36638095Y-58402380D02*
X36638095Y-57402380D01*
X36257142Y-57402380D01*
X36161904Y-57450000D01*
X36114285Y-57497619D01*
X36066666Y-57592857D01*
X36066666Y-57735714D01*
X36114285Y-57830952D01*
X36161904Y-57878571D01*
X36257142Y-57926190D01*
X36638095Y-57926190D01*
X35161904Y-57402380D02*
X35638095Y-57402380D01*
X35685714Y-57878571D01*
X35638095Y-57830952D01*
X35542857Y-57783333D01*
X35304761Y-57783333D01*
X35209523Y-57830952D01*
X35161904Y-57878571D01*
X35114285Y-57973809D01*
X35114285Y-58211904D01*
X35161904Y-58307142D01*
X35209523Y-58354761D01*
X35304761Y-58402380D01*
X35542857Y-58402380D01*
X35638095Y-58354761D01*
X35685714Y-58307142D01*
%TO.C,J1*%
X43183333Y-58052380D02*
X43183333Y-58766666D01*
X43230952Y-58909523D01*
X43326190Y-59004761D01*
X43469047Y-59052380D01*
X43564285Y-59052380D01*
X42183333Y-59052380D02*
X42754761Y-59052380D01*
X42469047Y-59052380D02*
X42469047Y-58052380D01*
X42564285Y-58195238D01*
X42659523Y-58290476D01*
X42754761Y-58338095D01*
D11*
%TO.C,R4*%
X32177500Y-43854724D02*
X32177500Y-43345276D01*
X33222500Y-43854724D02*
X33222500Y-43345276D01*
%TO.C,C4*%
X33403733Y-46660000D02*
X33696267Y-46660000D01*
X33403733Y-45640000D02*
X33696267Y-45640000D01*
%TO.C,U3*%
X32040000Y-50250000D02*
X32040000Y-47300000D01*
X35260000Y-48450000D02*
X35260000Y-50250000D01*
%TO.C,C6*%
X31025000Y-63467621D02*
X33160000Y-63467621D01*
X35240000Y-63908621D02*
X37261000Y-63908621D01*
X32205000Y-65428621D02*
X36195000Y-65428621D01*
X35240000Y-63227621D02*
X37411000Y-63227621D01*
X35240000Y-64308621D02*
X37096000Y-64308621D01*
X30989000Y-63227621D02*
X33160000Y-63227621D01*
X31857000Y-65108621D02*
X33160000Y-65108621D01*
X31079000Y-63708621D02*
X33160000Y-63708621D01*
X35240000Y-63267621D02*
X37406000Y-63267621D01*
X31410000Y-64508621D02*
X33160000Y-64508621D01*
X31895000Y-65148621D02*
X33160000Y-65148621D01*
X30970000Y-62867621D02*
X37430000Y-62867621D01*
X30970000Y-62947621D02*
X37430000Y-62947621D01*
X31652000Y-64868621D02*
X33160000Y-64868621D01*
X35240000Y-63187621D02*
X37415000Y-63187621D01*
X35240000Y-64668621D02*
X36890000Y-64668621D01*
X35240000Y-64348621D02*
X37076000Y-64348621D01*
X35240000Y-64588621D02*
X36942000Y-64588621D01*
X30970000Y-62907621D02*
X37430000Y-62907621D01*
X35240000Y-64868621D02*
X36748000Y-64868621D01*
X31593000Y-64788621D02*
X33160000Y-64788621D01*
X32046000Y-59682380D02*
X32676000Y-59682380D01*
X32156000Y-65388621D02*
X36244000Y-65388621D01*
X35240000Y-64108621D02*
X37186000Y-64108621D01*
X35240000Y-63668621D02*
X37331000Y-63668621D01*
X35240000Y-63828621D02*
X37286000Y-63828621D01*
X31059000Y-63628621D02*
X33160000Y-63628621D01*
X31230000Y-64148621D02*
X33160000Y-64148621D01*
X35240000Y-64068621D02*
X37202000Y-64068621D01*
X30973000Y-63027621D02*
X37427000Y-63027621D01*
X35240000Y-65148621D02*
X36505000Y-65148621D01*
X31458000Y-64588621D02*
X33160000Y-64588621D01*
X31484000Y-64628621D02*
X33160000Y-64628621D01*
X31126000Y-63868621D02*
X33160000Y-63868621D01*
X31388000Y-64468621D02*
X33160000Y-64468621D01*
X35240000Y-64508621D02*
X36990000Y-64508621D01*
X35240000Y-64268621D02*
X37116000Y-64268621D01*
X32424000Y-65588621D02*
X35976000Y-65588621D01*
X31050000Y-63588621D02*
X33160000Y-63588621D01*
X31510000Y-64668621D02*
X33160000Y-64668621D01*
X35240000Y-64148621D02*
X37170000Y-64148621D01*
X33260000Y-65988621D02*
X35140000Y-65988621D01*
X31434000Y-64548621D02*
X33160000Y-64548621D01*
X31005000Y-63347621D02*
X33160000Y-63347621D01*
X35240000Y-64708621D02*
X36864000Y-64708621D01*
X30985000Y-63187621D02*
X33160000Y-63187621D01*
X31153000Y-63948621D02*
X33160000Y-63948621D01*
X30999000Y-63307621D02*
X33160000Y-63307621D01*
X31102000Y-63788621D02*
X33160000Y-63788621D01*
X31976000Y-65228621D02*
X36424000Y-65228621D01*
X31324000Y-64348621D02*
X33160000Y-64348621D01*
X35240000Y-65068621D02*
X36580000Y-65068621D01*
X31069000Y-63668621D02*
X33160000Y-63668621D01*
X35240000Y-63708621D02*
X37321000Y-63708621D01*
X35240000Y-65028621D02*
X36616000Y-65028621D01*
X35240000Y-63748621D02*
X37310000Y-63748621D01*
X35240000Y-63107621D02*
X37422000Y-63107621D01*
X31536000Y-64708621D02*
X33160000Y-64708621D01*
X31033000Y-63507621D02*
X33160000Y-63507621D01*
X32550000Y-65668621D02*
X35850000Y-65668621D01*
X33798000Y-66108621D02*
X34602000Y-66108621D01*
X35240000Y-64748621D02*
X36836000Y-64748621D01*
X35240000Y-64788621D02*
X36807000Y-64788621D01*
X35240000Y-63588621D02*
X37350000Y-63588621D01*
X32366000Y-65548621D02*
X36034000Y-65548621D01*
X31784000Y-65028621D02*
X33160000Y-65028621D01*
X32310000Y-65508621D02*
X36090000Y-65508621D01*
X35240000Y-63948621D02*
X37247000Y-63948621D01*
X32768000Y-65788621D02*
X35632000Y-65788621D01*
X31041000Y-63547621D02*
X33160000Y-63547621D01*
X32619000Y-65708621D02*
X35781000Y-65708621D01*
X30978000Y-63107621D02*
X33160000Y-63107621D01*
X32256000Y-65468621D02*
X36144000Y-65468621D01*
X35240000Y-63507621D02*
X37367000Y-63507621D01*
X35240000Y-64628621D02*
X36916000Y-64628621D01*
X30994000Y-63267621D02*
X33160000Y-63267621D01*
X31266000Y-64228621D02*
X33160000Y-64228621D01*
X33398000Y-66028621D02*
X35002000Y-66028621D01*
X35240000Y-64388621D02*
X37056000Y-64388621D01*
X35240000Y-63788621D02*
X37298000Y-63788621D01*
X31366000Y-64428621D02*
X33160000Y-64428621D01*
X35240000Y-63307621D02*
X37401000Y-63307621D01*
X31182000Y-64028621D02*
X33160000Y-64028621D01*
X31248000Y-64188621D02*
X33160000Y-64188621D01*
X31198000Y-64068621D02*
X33160000Y-64068621D01*
X35240000Y-63988621D02*
X37233000Y-63988621D01*
X35240000Y-64228621D02*
X37134000Y-64228621D01*
X35240000Y-64828621D02*
X36778000Y-64828621D01*
X35240000Y-64028621D02*
X37218000Y-64028621D01*
X31344000Y-64388621D02*
X33160000Y-64388621D01*
X32108000Y-65348621D02*
X36292000Y-65348621D01*
X31935000Y-65188621D02*
X36465000Y-65188621D01*
X35240000Y-65108621D02*
X36543000Y-65108621D01*
X30972000Y-62987621D02*
X37428000Y-62987621D01*
X33141000Y-65948621D02*
X35259000Y-65948621D01*
X32361000Y-59367380D02*
X32361000Y-59997380D01*
X35240000Y-64948621D02*
X36684000Y-64948621D01*
X31018000Y-63427621D02*
X33160000Y-63427621D01*
X31716000Y-64948621D02*
X33160000Y-64948621D01*
X33035000Y-65908621D02*
X35365000Y-65908621D01*
X31684000Y-64908621D02*
X33160000Y-64908621D01*
X35240000Y-63387621D02*
X37389000Y-63387621D01*
X35240000Y-63628621D02*
X37341000Y-63628621D01*
X35240000Y-63147621D02*
X37418000Y-63147621D01*
X30976000Y-63067621D02*
X37424000Y-63067621D01*
X32850000Y-65828621D02*
X35550000Y-65828621D01*
X31114000Y-63828621D02*
X33160000Y-63828621D01*
X31139000Y-63908621D02*
X33160000Y-63908621D01*
X35240000Y-63868621D02*
X37274000Y-63868621D01*
X31284000Y-64268621D02*
X33160000Y-64268621D01*
X32486000Y-65628621D02*
X35914000Y-65628621D01*
X35240000Y-64428621D02*
X37034000Y-64428621D01*
X32063000Y-65308621D02*
X36337000Y-65308621D01*
X35240000Y-64908621D02*
X36716000Y-64908621D01*
X35240000Y-63427621D02*
X37382000Y-63427621D01*
X35240000Y-64548621D02*
X36966000Y-64548621D01*
X31564000Y-64748621D02*
X33160000Y-64748621D01*
X35240000Y-63467621D02*
X37375000Y-63467621D01*
X31214000Y-64108621D02*
X33160000Y-64108621D01*
X32691000Y-65748621D02*
X35709000Y-65748621D01*
X30982000Y-63147621D02*
X33160000Y-63147621D01*
X31011000Y-63387621D02*
X33160000Y-63387621D01*
X35240000Y-64988621D02*
X36650000Y-64988621D01*
X31750000Y-64988621D02*
X33160000Y-64988621D01*
X32938000Y-65868621D02*
X35462000Y-65868621D01*
X31090000Y-63748621D02*
X33160000Y-63748621D01*
X35240000Y-64188621D02*
X37152000Y-64188621D01*
X35240000Y-64468621D02*
X37012000Y-64468621D01*
X33567000Y-66068621D02*
X34833000Y-66068621D01*
X31304000Y-64308621D02*
X33160000Y-64308621D01*
X32018000Y-65268621D02*
X36382000Y-65268621D01*
X31167000Y-63988621D02*
X33160000Y-63988621D01*
X35240000Y-63347621D02*
X37395000Y-63347621D01*
X35240000Y-63547621D02*
X37359000Y-63547621D01*
X31622000Y-64828621D02*
X33160000Y-64828621D01*
X31820000Y-65068621D02*
X33160000Y-65068621D01*
X37470000Y-62867621D02*
G75*
G03*
X37470000Y-62867621I-3270000J0D01*
G01*
%TO.C,C2*%
X39546267Y-52590000D02*
X39253733Y-52590000D01*
X39546267Y-53610000D02*
X39253733Y-53610000D01*
%TO.C,J4*%
X37230000Y-38730000D02*
X37230000Y-37400000D01*
X37230000Y-36130000D02*
X37230000Y-28450000D01*
X34570000Y-36130000D02*
X34570000Y-28450000D01*
X34570000Y-36130000D02*
X37230000Y-36130000D01*
X34570000Y-28450000D02*
X37230000Y-28450000D01*
X35900000Y-38730000D02*
X37230000Y-38730000D01*
%TO.C,R2*%
X42545276Y-53322500D02*
X43054724Y-53322500D01*
X42545276Y-52277500D02*
X43054724Y-52277500D01*
%TO.C,J2*%
X38270000Y-36130000D02*
X38270000Y-28450000D01*
X38270000Y-28450000D02*
X40930000Y-28450000D01*
X40930000Y-38730000D02*
X40930000Y-37400000D01*
X38270000Y-36130000D02*
X40930000Y-36130000D01*
X39600000Y-38730000D02*
X40930000Y-38730000D01*
X40930000Y-36130000D02*
X40930000Y-28450000D01*
%TO.C,J3*%
X31595000Y-56717500D02*
X32925000Y-56717500D01*
X31595000Y-55387500D02*
X31595000Y-56717500D01*
X34195000Y-56717500D02*
X36795000Y-56717500D01*
X36795000Y-54057500D02*
X36795000Y-56717500D01*
X34195000Y-54057500D02*
X34195000Y-56717500D01*
X34195000Y-54057500D02*
X36795000Y-54057500D01*
%TO.C,R1*%
X40057776Y-44265000D02*
X40567224Y-44265000D01*
X40057776Y-45310000D02*
X40567224Y-45310000D01*
%TO.C,R3*%
X42267500Y-50567224D02*
X42267500Y-50057776D01*
X43312500Y-50567224D02*
X43312500Y-50057776D01*
%TO.C,C5*%
X32786267Y-53272500D02*
X32493733Y-53272500D01*
X32786267Y-52252500D02*
X32493733Y-52252500D01*
%TO.C,U2*%
X41800000Y-48662500D02*
X41800000Y-50462500D01*
X38580000Y-50462500D02*
X38580000Y-47512500D01*
%TO.C,C1*%
X40143733Y-46872500D02*
X40436267Y-46872500D01*
X40143733Y-45852500D02*
X40436267Y-45852500D01*
%TO.C,C3*%
X38720000Y-65068621D02*
X40060000Y-65068621D01*
X38204000Y-64308621D02*
X40060000Y-64308621D01*
X42140000Y-63547621D02*
X44259000Y-63547621D01*
X37870000Y-62867621D02*
X44330000Y-62867621D01*
X38067000Y-63988621D02*
X40060000Y-63988621D01*
X39591000Y-65748621D02*
X42609000Y-65748621D01*
X39261000Y-59367380D02*
X39261000Y-59997380D01*
X38650000Y-64988621D02*
X40060000Y-64988621D01*
X42140000Y-63227621D02*
X44311000Y-63227621D01*
X42140000Y-64748621D02*
X43736000Y-64748621D01*
X39386000Y-65628621D02*
X42814000Y-65628621D01*
X37870000Y-62907621D02*
X44330000Y-62907621D01*
X37885000Y-63187621D02*
X40060000Y-63187621D01*
X42140000Y-64068621D02*
X44102000Y-64068621D01*
X38946000Y-59682380D02*
X39576000Y-59682380D01*
X39266000Y-65548621D02*
X42934000Y-65548621D01*
X42140000Y-64548621D02*
X43866000Y-64548621D01*
X42140000Y-63147621D02*
X44318000Y-63147621D01*
X38358000Y-64588621D02*
X40060000Y-64588621D01*
X38098000Y-64068621D02*
X40060000Y-64068621D01*
X42140000Y-64428621D02*
X43934000Y-64428621D01*
X38464000Y-64748621D02*
X40060000Y-64748621D01*
X42140000Y-63788621D02*
X44198000Y-63788621D01*
X42140000Y-63868621D02*
X44174000Y-63868621D01*
X38493000Y-64788621D02*
X40060000Y-64788621D01*
X37899000Y-63307621D02*
X40060000Y-63307621D01*
X42140000Y-63107621D02*
X44322000Y-63107621D01*
X42140000Y-64908621D02*
X43616000Y-64908621D01*
X42140000Y-64308621D02*
X43996000Y-64308621D01*
X37870000Y-62947621D02*
X44330000Y-62947621D01*
X38310000Y-64508621D02*
X40060000Y-64508621D01*
X37941000Y-63547621D02*
X40060000Y-63547621D01*
X42140000Y-64508621D02*
X43890000Y-64508621D01*
X42140000Y-63267621D02*
X44306000Y-63267621D01*
X42140000Y-65068621D02*
X43480000Y-65068621D01*
X42140000Y-63427621D02*
X44282000Y-63427621D01*
X42140000Y-63748621D02*
X44210000Y-63748621D01*
X39156000Y-65468621D02*
X43044000Y-65468621D01*
X37905000Y-63347621D02*
X40060000Y-63347621D01*
X40698000Y-66108621D02*
X41502000Y-66108621D01*
X42140000Y-65028621D02*
X43516000Y-65028621D01*
X38184000Y-64268621D02*
X40060000Y-64268621D01*
X42140000Y-63828621D02*
X44186000Y-63828621D01*
X38876000Y-65228621D02*
X43324000Y-65228621D01*
X38266000Y-64428621D02*
X40060000Y-64428621D01*
X38224000Y-64348621D02*
X40060000Y-64348621D01*
X37911000Y-63387621D02*
X40060000Y-63387621D01*
X38616000Y-64948621D02*
X40060000Y-64948621D01*
X37990000Y-63748621D02*
X40060000Y-63748621D01*
X42140000Y-64108621D02*
X44086000Y-64108621D01*
X40467000Y-66068621D02*
X41733000Y-66068621D01*
X37933000Y-63507621D02*
X40060000Y-63507621D01*
X42140000Y-65108621D02*
X43443000Y-65108621D01*
X37979000Y-63708621D02*
X40060000Y-63708621D01*
X42140000Y-65148621D02*
X43405000Y-65148621D01*
X37950000Y-63588621D02*
X40060000Y-63588621D01*
X38410000Y-64668621D02*
X40060000Y-64668621D01*
X37878000Y-63107621D02*
X40060000Y-63107621D01*
X38148000Y-64188621D02*
X40060000Y-64188621D01*
X40041000Y-65948621D02*
X42159000Y-65948621D01*
X42140000Y-63708621D02*
X44221000Y-63708621D01*
X42140000Y-64148621D02*
X44070000Y-64148621D01*
X38584000Y-64908621D02*
X40060000Y-64908621D01*
X40160000Y-65988621D02*
X42040000Y-65988621D01*
X42140000Y-64348621D02*
X43976000Y-64348621D01*
X38130000Y-64148621D02*
X40060000Y-64148621D01*
X42140000Y-64268621D02*
X44016000Y-64268621D01*
X42140000Y-63628621D02*
X44241000Y-63628621D01*
X37925000Y-63467621D02*
X40060000Y-63467621D01*
X38026000Y-63868621D02*
X40060000Y-63868621D01*
X38039000Y-63908621D02*
X40060000Y-63908621D01*
X38552000Y-64868621D02*
X40060000Y-64868621D01*
X38757000Y-65108621D02*
X40060000Y-65108621D01*
X38522000Y-64828621D02*
X40060000Y-64828621D01*
X42140000Y-64468621D02*
X43912000Y-64468621D01*
X38436000Y-64708621D02*
X40060000Y-64708621D01*
X37882000Y-63147621D02*
X40060000Y-63147621D01*
X38795000Y-65148621D02*
X40060000Y-65148621D01*
X39105000Y-65428621D02*
X43095000Y-65428621D01*
X42140000Y-64988621D02*
X43550000Y-64988621D01*
X42140000Y-63347621D02*
X44295000Y-63347621D01*
X37918000Y-63427621D02*
X40060000Y-63427621D01*
X38918000Y-65268621D02*
X43282000Y-65268621D01*
X42140000Y-64028621D02*
X44118000Y-64028621D01*
X38384000Y-64628621D02*
X40060000Y-64628621D01*
X37872000Y-62987621D02*
X44328000Y-62987621D01*
X38053000Y-63948621D02*
X40060000Y-63948621D01*
X39750000Y-65828621D02*
X42450000Y-65828621D01*
X42140000Y-64708621D02*
X43764000Y-64708621D01*
X39668000Y-65788621D02*
X42532000Y-65788621D01*
X42140000Y-63908621D02*
X44161000Y-63908621D01*
X42140000Y-64388621D02*
X43956000Y-64388621D01*
X42140000Y-64788621D02*
X43707000Y-64788621D01*
X37876000Y-63067621D02*
X44324000Y-63067621D01*
X38166000Y-64228621D02*
X40060000Y-64228621D01*
X37894000Y-63267621D02*
X40060000Y-63267621D01*
X38114000Y-64108621D02*
X40060000Y-64108621D01*
X42140000Y-63988621D02*
X44133000Y-63988621D01*
X39008000Y-65348621D02*
X43192000Y-65348621D01*
X42140000Y-64948621D02*
X43584000Y-64948621D01*
X39838000Y-65868621D02*
X42362000Y-65868621D01*
X42140000Y-63588621D02*
X44250000Y-63588621D01*
X39935000Y-65908621D02*
X42265000Y-65908621D01*
X42140000Y-63948621D02*
X44147000Y-63948621D01*
X42140000Y-64868621D02*
X43648000Y-64868621D01*
X37873000Y-63027621D02*
X44327000Y-63027621D01*
X42140000Y-63387621D02*
X44289000Y-63387621D01*
X42140000Y-64228621D02*
X44034000Y-64228621D01*
X39324000Y-65588621D02*
X42876000Y-65588621D01*
X42140000Y-63187621D02*
X44315000Y-63187621D01*
X39210000Y-65508621D02*
X42990000Y-65508621D01*
X38014000Y-63828621D02*
X40060000Y-63828621D01*
X40298000Y-66028621D02*
X41902000Y-66028621D01*
X42140000Y-64188621D02*
X44052000Y-64188621D01*
X42140000Y-63467621D02*
X44275000Y-63467621D01*
X38334000Y-64548621D02*
X40060000Y-64548621D01*
X42140000Y-64588621D02*
X43842000Y-64588621D01*
X39056000Y-65388621D02*
X43144000Y-65388621D01*
X38082000Y-64028621D02*
X40060000Y-64028621D01*
X38684000Y-65028621D02*
X40060000Y-65028621D01*
X38963000Y-65308621D02*
X43237000Y-65308621D01*
X38288000Y-64468621D02*
X40060000Y-64468621D01*
X42140000Y-63668621D02*
X44231000Y-63668621D01*
X37959000Y-63628621D02*
X40060000Y-63628621D01*
X37889000Y-63227621D02*
X40060000Y-63227621D01*
X42140000Y-63507621D02*
X44267000Y-63507621D01*
X38002000Y-63788621D02*
X40060000Y-63788621D01*
X39450000Y-65668621D02*
X42750000Y-65668621D01*
X42140000Y-64628621D02*
X43816000Y-64628621D01*
X38835000Y-65188621D02*
X43365000Y-65188621D01*
X38244000Y-64388621D02*
X40060000Y-64388621D01*
X37969000Y-63668621D02*
X40060000Y-63668621D01*
X42140000Y-63307621D02*
X44301000Y-63307621D01*
X42140000Y-64668621D02*
X43790000Y-64668621D01*
X39519000Y-65708621D02*
X42681000Y-65708621D01*
X42140000Y-64828621D02*
X43678000Y-64828621D01*
X44370000Y-62867621D02*
G75*
G03*
X44370000Y-62867621I-3270000J0D01*
G01*
%TO.C,R6*%
X36822500Y-50354724D02*
X36822500Y-49845276D01*
X35777500Y-50354724D02*
X35777500Y-49845276D01*
%TO.C,R5*%
X35785276Y-53285000D02*
X36294724Y-53285000D01*
X35785276Y-52240000D02*
X36294724Y-52240000D01*
%TO.C,J1*%
X38370000Y-56000000D02*
X38370000Y-57330000D01*
X38370000Y-57330000D02*
X39700000Y-57330000D01*
X40970000Y-54670000D02*
X40970000Y-57330000D01*
X43570000Y-54670000D02*
X43570000Y-57330000D01*
X40970000Y-54670000D02*
X43570000Y-54670000D01*
X40970000Y-57330000D02*
X43570000Y-57330000D01*
%TD*%
M02*
