%TF.GenerationSoftware,KiCad,Pcbnew,(6.0.2)*%
%TF.CreationDate,2023-01-31T14:35:55+03:00*%
%TF.ProjectId,Shield_Emergent,53686965-6c64-45f4-956d-657267656e74,rev?*%
%TF.SameCoordinates,Original*%
%TF.FileFunction,Soldermask,Bot*%
%TF.FilePolarity,Negative*%
%FSLAX46Y46*%
G04 Gerber Fmt 4.6, Leading zero omitted, Abs format (unit mm)*
G04 Created by KiCad (PCBNEW (6.0.2)) date 2023-01-31 14:35:55*
%MOMM*%
%LPD*%
G01*
G04 APERTURE LIST*
G04 Aperture macros list*
%AMRoundRect*
0 Rectangle with rounded corners*
0 $1 Rounding radius*
0 $2 $3 $4 $5 $6 $7 $8 $9 X,Y pos of 4 corners*
0 Add a 4 corners polygon primitive as box body*
4,1,4,$2,$3,$4,$5,$6,$7,$8,$9,$2,$3,0*
0 Add four circle primitives for the rounded corners*
1,1,$1+$1,$2,$3*
1,1,$1+$1,$4,$5*
1,1,$1+$1,$6,$7*
1,1,$1+$1,$8,$9*
0 Add four rect primitives between the rounded corners*
20,1,$1+$1,$2,$3,$4,$5,0*
20,1,$1+$1,$4,$5,$6,$7,0*
20,1,$1+$1,$6,$7,$8,$9,0*
20,1,$1+$1,$8,$9,$2,$3,0*%
G04 Aperture macros list end*
%ADD10C,2.700000*%
%ADD11O,4.000000X1.600000*%
%ADD12RoundRect,0.237500X0.237500X-0.250000X0.237500X0.250000X-0.237500X0.250000X-0.237500X-0.250000X0*%
%ADD13RoundRect,0.237500X-0.300000X-0.237500X0.300000X-0.237500X0.300000X0.237500X-0.300000X0.237500X0*%
%ADD14R,0.650000X1.560000*%
%ADD15R,1.600000X1.600000*%
%ADD16C,1.600000*%
%ADD17RoundRect,0.237500X0.300000X0.237500X-0.300000X0.237500X-0.300000X-0.237500X0.300000X-0.237500X0*%
%ADD18R,1.700000X1.700000*%
%ADD19O,1.700000X1.700000*%
%ADD20RoundRect,0.237500X-0.250000X-0.237500X0.250000X-0.237500X0.250000X0.237500X-0.250000X0.237500X0*%
G04 APERTURE END LIST*
D10*
%TO.C,REF\u002A\u002A*%
X46530000Y-81960000D03*
%TD*%
D11*
%TO.C,U1*%
X28760000Y-28620000D03*
X28760000Y-31160000D03*
X28760000Y-33700000D03*
X28760000Y-36240000D03*
X28760000Y-38780000D03*
X28760000Y-41320000D03*
X28760000Y-43860000D03*
X28760000Y-46400000D03*
X28760000Y-48940000D03*
X28760000Y-51480000D03*
X28760000Y-54020000D03*
X28760000Y-56560000D03*
X28760000Y-59100000D03*
X28760000Y-61640000D03*
X28760000Y-64180000D03*
X28760000Y-66720000D03*
X28760000Y-69260000D03*
X28760000Y-71800000D03*
X28760000Y-74340000D03*
X28760000Y-76880000D03*
X46540000Y-76880000D03*
X46540000Y-74340000D03*
X46540000Y-71800000D03*
X46540000Y-69260000D03*
X46540000Y-66720000D03*
X46540000Y-64180000D03*
X46540000Y-61640000D03*
X46540000Y-59100000D03*
X46540000Y-56560000D03*
X46540000Y-54020000D03*
X46540000Y-51480000D03*
X46540000Y-48940000D03*
X46540000Y-46400000D03*
X46540000Y-43860000D03*
X46540000Y-41320000D03*
X46540000Y-38780000D03*
X46540000Y-36240000D03*
X46540000Y-33700000D03*
X46540000Y-31160000D03*
X46540000Y-28620000D03*
%TD*%
D10*
%TO.C,REF\u002A\u002A*%
X28770000Y-81960000D03*
%TD*%
%TO.C,REF\u002A\u002A*%
X28770000Y-23540000D03*
%TD*%
%TO.C,REF\u002A\u002A*%
X46530000Y-23540000D03*
%TD*%
D12*
%TO.C,R4*%
X32700000Y-44512500D03*
X32700000Y-42687500D03*
%TD*%
D13*
%TO.C,C4*%
X32687500Y-46150000D03*
X34412500Y-46150000D03*
%TD*%
D14*
%TO.C,U3*%
X32700000Y-48000000D03*
X33650000Y-48000000D03*
X34600000Y-48000000D03*
X34600000Y-50700000D03*
X33650000Y-50700000D03*
X32700000Y-50700000D03*
%TD*%
D15*
%TO.C,C6*%
X34200000Y-61617621D03*
D16*
X34200000Y-64117621D03*
%TD*%
D17*
%TO.C,C2*%
X40262500Y-53100000D03*
X38537500Y-53100000D03*
%TD*%
D18*
%TO.C,J4*%
X35900000Y-37400000D03*
D19*
X35900000Y-34860000D03*
X35900000Y-32320000D03*
X35900000Y-29780000D03*
%TD*%
D20*
%TO.C,R2*%
X41887500Y-52800000D03*
X43712500Y-52800000D03*
%TD*%
D18*
%TO.C,J2*%
X39600000Y-37400000D03*
D19*
X39600000Y-34860000D03*
X39600000Y-32320000D03*
X39600000Y-29780000D03*
%TD*%
D18*
%TO.C,J3*%
X32925000Y-55387500D03*
D19*
X35465000Y-55387500D03*
%TD*%
D20*
%TO.C,R1*%
X39400000Y-44787500D03*
X41225000Y-44787500D03*
%TD*%
D12*
%TO.C,R3*%
X42790000Y-51225000D03*
X42790000Y-49400000D03*
%TD*%
D17*
%TO.C,C5*%
X33502500Y-52762500D03*
X31777500Y-52762500D03*
%TD*%
D14*
%TO.C,U2*%
X39240000Y-48212500D03*
X40190000Y-48212500D03*
X41140000Y-48212500D03*
X41140000Y-50912500D03*
X40190000Y-50912500D03*
X39240000Y-50912500D03*
%TD*%
D13*
%TO.C,C1*%
X39427500Y-46362500D03*
X41152500Y-46362500D03*
%TD*%
D15*
%TO.C,C3*%
X41100000Y-61617621D03*
D16*
X41100000Y-64117621D03*
%TD*%
D12*
%TO.C,R6*%
X36300000Y-51012500D03*
X36300000Y-49187500D03*
%TD*%
D20*
%TO.C,R5*%
X35127500Y-52762500D03*
X36952500Y-52762500D03*
%TD*%
D18*
%TO.C,J1*%
X39700000Y-56000000D03*
D19*
X42240000Y-56000000D03*
%TD*%
M02*
