%TF.GenerationSoftware,KiCad,Pcbnew,(6.0.2)*%
%TF.CreationDate,2023-01-31T14:35:55+03:00*%
%TF.ProjectId,Shield_Emergent,53686965-6c64-45f4-956d-657267656e74,rev?*%
%TF.SameCoordinates,Original*%
%TF.FileFunction,Soldermask,Top*%
%TF.FilePolarity,Negative*%
%FSLAX46Y46*%
G04 Gerber Fmt 4.6, Leading zero omitted, Abs format (unit mm)*
G04 Created by KiCad (PCBNEW (6.0.2)) date 2023-01-31 14:35:55*
%MOMM*%
%LPD*%
G01*
G04 APERTURE LIST*
%ADD10C,2.700000*%
%ADD11O,4.000000X1.600000*%
%ADD12R,1.600000X1.600000*%
%ADD13C,1.600000*%
%ADD14R,1.700000X1.700000*%
%ADD15O,1.700000X1.700000*%
G04 APERTURE END LIST*
D10*
%TO.C,REF\u002A\u002A*%
X46530000Y-81960000D03*
%TD*%
D11*
%TO.C,U1*%
X28760000Y-28620000D03*
X28760000Y-31160000D03*
X28760000Y-33700000D03*
X28760000Y-36240000D03*
X28760000Y-38780000D03*
X28760000Y-41320000D03*
X28760000Y-43860000D03*
X28760000Y-46400000D03*
X28760000Y-48940000D03*
X28760000Y-51480000D03*
X28760000Y-54020000D03*
X28760000Y-56560000D03*
X28760000Y-59100000D03*
X28760000Y-61640000D03*
X28760000Y-64180000D03*
X28760000Y-66720000D03*
X28760000Y-69260000D03*
X28760000Y-71800000D03*
X28760000Y-74340000D03*
X28760000Y-76880000D03*
X46540000Y-76880000D03*
X46540000Y-74340000D03*
X46540000Y-71800000D03*
X46540000Y-69260000D03*
X46540000Y-66720000D03*
X46540000Y-64180000D03*
X46540000Y-61640000D03*
X46540000Y-59100000D03*
X46540000Y-56560000D03*
X46540000Y-54020000D03*
X46540000Y-51480000D03*
X46540000Y-48940000D03*
X46540000Y-46400000D03*
X46540000Y-43860000D03*
X46540000Y-41320000D03*
X46540000Y-38780000D03*
X46540000Y-36240000D03*
X46540000Y-33700000D03*
X46540000Y-31160000D03*
X46540000Y-28620000D03*
%TD*%
D10*
%TO.C,REF\u002A\u002A*%
X28770000Y-81960000D03*
%TD*%
%TO.C,REF\u002A\u002A*%
X28770000Y-23540000D03*
%TD*%
%TO.C,REF\u002A\u002A*%
X46530000Y-23540000D03*
%TD*%
D12*
%TO.C,C6*%
X34200000Y-61617621D03*
D13*
X34200000Y-64117621D03*
%TD*%
D14*
%TO.C,J4*%
X35900000Y-37400000D03*
D15*
X35900000Y-34860000D03*
X35900000Y-32320000D03*
X35900000Y-29780000D03*
%TD*%
D14*
%TO.C,J2*%
X39600000Y-37400000D03*
D15*
X39600000Y-34860000D03*
X39600000Y-32320000D03*
X39600000Y-29780000D03*
%TD*%
D14*
%TO.C,J3*%
X32925000Y-55387500D03*
D15*
X35465000Y-55387500D03*
%TD*%
D12*
%TO.C,C3*%
X41100000Y-61617621D03*
D13*
X41100000Y-64117621D03*
%TD*%
D14*
%TO.C,J1*%
X39700000Y-56000000D03*
D15*
X42240000Y-56000000D03*
%TD*%
M02*
