M48
; DRILL file {KiCad (6.0.2)} date Mon Jan 30 04:02:25 2023
; FORMAT={-:-/ absolute / metric / decimal}
; #@! TF.CreationDate,2023-01-30T04:02:25+03:00
; #@! TF.GenerationSoftware,Kicad,Pcbnew,(6.0.2)
; #@! TF.FileFunction,Plated,1,2,PTH
FMAT,2
METRIC
; #@! TA.AperFunction,Plated,PTH,ViaDrill
T1C0.400
; #@! TA.AperFunction,Plated,PTH,ComponentDrill
T2C0.800
; #@! TA.AperFunction,Plated,PTH,ComponentDrill
T3C1.000
%
G90
G05
T1
X23.3Y-37.0
X23.8Y-48.5
X23.8Y-54.2
X23.8Y-61.0
X24.0Y-42.1
X24.0Y-68.0
X24.1Y-75.1
X24.6Y-32.5
X31.1Y-47.7
X32.0Y-62.85
X32.3Y-34.9
X32.75Y-24.95
X33.0Y-29.4
X33.2Y-68.3
X33.5Y-75.5
X34.3Y-40.9
X35.1Y-25.0
X35.15Y-57.95
X35.3Y-81.7
X35.5Y-45.0
X35.7Y-47.3
X37.0Y-58.4
X37.45Y-60.45
X37.5Y-49.1
X37.6Y-54.3
X37.6Y-55.85
X37.65Y-75.5
X37.65Y-79.2
X37.7Y-66.15
X37.7Y-72.3
X37.8Y-62.85
X37.9Y-51.1
X39.9Y-25.0
X40.15Y-81.75
X41.45Y-75.5
X41.5Y-68.3
X41.55Y-58.15
X41.93Y-48.37
X42.2Y-24.7
X42.7Y-40.4
X42.7Y-45.4
X42.7Y-59.1
X42.8Y-43.1
X43.2Y-47.2
X43.25Y-62.85
X43.35Y-54.4
X43.95Y-57.85
X44.0Y-48.24
X50.8Y-49.5
X50.9Y-44.4
X50.9Y-53.9
X51.0Y-30.9
X51.0Y-35.0
X51.0Y-39.4
X51.1Y-58.7
X51.1Y-64.4
X51.1Y-70.4
X51.2Y-75.1
T2
X34.2Y-61.618
X34.2Y-64.118
X41.1Y-61.618
X41.1Y-64.118
T3
X28.76Y-28.62
X28.76Y-31.16
X28.76Y-33.7
X28.76Y-36.24
X28.76Y-38.78
X28.76Y-41.32
X28.76Y-43.86
X28.76Y-46.4
X28.76Y-48.94
X28.76Y-51.48
X28.76Y-54.02
X28.76Y-56.56
X28.76Y-59.1
X28.76Y-61.64
X28.76Y-64.18
X28.76Y-66.72
X28.76Y-69.26
X28.76Y-71.8
X28.76Y-74.34
X28.76Y-76.88
X32.925Y-55.387
X35.465Y-55.387
X35.9Y-29.78
X35.9Y-32.32
X35.9Y-34.86
X35.9Y-37.4
X39.6Y-29.78
X39.6Y-32.32
X39.6Y-34.86
X39.6Y-37.4
X39.7Y-56.0
X42.24Y-56.0
X46.54Y-28.62
X46.54Y-31.16
X46.54Y-33.7
X46.54Y-36.24
X46.54Y-38.78
X46.54Y-41.32
X46.54Y-43.86
X46.54Y-46.4
X46.54Y-48.94
X46.54Y-51.48
X46.54Y-54.02
X46.54Y-56.56
X46.54Y-59.1
X46.54Y-61.64
X46.54Y-64.18
X46.54Y-66.72
X46.54Y-69.26
X46.54Y-71.8
X46.54Y-74.34
X46.54Y-76.88
T0
M30
