%TF.GenerationSoftware,KiCad,Pcbnew,(6.0.2)*%
%TF.CreationDate,2023-01-30T04:02:28+03:00*%
%TF.ProjectId,Shield_Emergent,53686965-6c64-45f4-956d-657267656e74,rev?*%
%TF.SameCoordinates,Original*%
%TF.FileFunction,Legend,Top*%
%TF.FilePolarity,Positive*%
%FSLAX46Y46*%
G04 Gerber Fmt 4.6, Leading zero omitted, Abs format (unit mm)*
G04 Created by KiCad (PCBNEW (6.0.2)) date 2023-01-30 04:02:28*
%MOMM*%
%LPD*%
G01*
G04 APERTURE LIST*
%ADD10C,0.150000*%
%ADD11C,0.120000*%
G04 APERTURE END LIST*
D10*
%TO.C,U1*%
X39428095Y-25772380D02*
X39428095Y-26581904D01*
X39475714Y-26677142D01*
X39523333Y-26724761D01*
X39618571Y-26772380D01*
X39809047Y-26772380D01*
X39904285Y-26724761D01*
X39951904Y-26677142D01*
X39999523Y-26581904D01*
X39999523Y-25772380D01*
X40999523Y-26772380D02*
X40428095Y-26772380D01*
X40713809Y-26772380D02*
X40713809Y-25772380D01*
X40618571Y-25915238D01*
X40523333Y-26010476D01*
X40428095Y-26058095D01*
%TO.C,REF\u002A\u002A*%
X27426666Y-78712380D02*
X27093333Y-78236190D01*
X26855238Y-78712380D02*
X26855238Y-77712380D01*
X27236190Y-77712380D01*
X27331428Y-77760000D01*
X27379047Y-77807619D01*
X27426666Y-77902857D01*
X27426666Y-78045714D01*
X27379047Y-78140952D01*
X27331428Y-78188571D01*
X27236190Y-78236190D01*
X26855238Y-78236190D01*
X27855238Y-78188571D02*
X28188571Y-78188571D01*
X28331428Y-78712380D02*
X27855238Y-78712380D01*
X27855238Y-77712380D01*
X28331428Y-77712380D01*
X29093333Y-78188571D02*
X28760000Y-78188571D01*
X28760000Y-78712380D02*
X28760000Y-77712380D01*
X29236190Y-77712380D01*
X29760000Y-77712380D02*
X29760000Y-77950476D01*
X29521904Y-77855238D02*
X29760000Y-77950476D01*
X29998095Y-77855238D01*
X29617142Y-78140952D02*
X29760000Y-77950476D01*
X29902857Y-78140952D01*
X30521904Y-77712380D02*
X30521904Y-77950476D01*
X30283809Y-77855238D02*
X30521904Y-77950476D01*
X30760000Y-77855238D01*
X30379047Y-78140952D02*
X30521904Y-77950476D01*
X30664761Y-78140952D01*
%TO.C,J4*%
X30501666Y-48722380D02*
X30501666Y-49436666D01*
X30454047Y-49579523D01*
X30358809Y-49674761D01*
X30215952Y-49722380D01*
X30120714Y-49722380D01*
X31406428Y-49055714D02*
X31406428Y-49722380D01*
X31168333Y-48674761D02*
X30930238Y-49389047D01*
X31549285Y-49389047D01*
%TO.C,J2*%
X41966666Y-32452380D02*
X41966666Y-33166666D01*
X41919047Y-33309523D01*
X41823809Y-33404761D01*
X41680952Y-33452380D01*
X41585714Y-33452380D01*
X42395238Y-32547619D02*
X42442857Y-32500000D01*
X42538095Y-32452380D01*
X42776190Y-32452380D01*
X42871428Y-32500000D01*
X42919047Y-32547619D01*
X42966666Y-32642857D01*
X42966666Y-32738095D01*
X42919047Y-32880952D01*
X42347619Y-33452380D01*
X42966666Y-33452380D01*
D11*
%TO.C,U1*%
X48039999Y-78180000D02*
X48040000Y-27320000D01*
X34186667Y-27680000D02*
X34186667Y-27320000D01*
X48040000Y-27320000D02*
X41113333Y-27320000D01*
X41113333Y-27680000D02*
X34186667Y-27680000D01*
X41113333Y-27320000D02*
X41113333Y-27680000D01*
X34186667Y-27320000D02*
X27260001Y-27320000D01*
X27260000Y-78180000D02*
X48039999Y-78180000D01*
X27260001Y-27320000D02*
X27260000Y-78180000D01*
%TD*%
M02*
